<svg width="20" height="20" viewBox="0 0 20 20" fill="none" xmlns="http://www.w3.org/2000/svg">
<path d="M10.8866 5.12301C10.8866 6.8478 9.48842 8.24602 7.76363 8.24602C6.03884 8.24602 4.64062 6.8478 4.64062 5.12301C4.64062 3.39822 6.03884 2 7.76363 2C9.48842 2 10.8866 3.39822 10.8866 5.12301Z" stroke="#252D38" stroke-width="1.5" stroke-linecap="round" stroke-linejoin="round"/>
<path d="M12.2578 17.1555C11.7431 17.6849 11.0269 18.0006 10.2579 18.0006L5.26931 18.0006C4.11574 18.0006 3.08124 17.2903 2.66685 16.2137L2.10889 14.7642C1.40578 12.9375 2.75406 10.9738 4.71135 10.9738L7.76284 10.9738" stroke="#252D38" stroke-width="1.5" stroke-linecap="round" stroke-linejoin="round"/>
<path d="M14.5049 7.12451V13.867" stroke="#252D38" stroke-width="1.5" stroke-linecap="round" stroke-linejoin="round"/>
<path d="M17.8762 10.4957H11.1338" stroke="#252D38" stroke-width="1.5" stroke-linecap="round" stroke-linejoin="round"/>
</svg>
