<svg width="20" height="20" viewBox="0 0 20 20" fill="none" xmlns="http://www.w3.org/2000/svg">
<path d="M17.071 9.26075L10.1651 16.1667C9.31904 17.0127 8.17158 17.488 6.97512 17.488C5.77866 17.488 4.63121 17.0127 3.78518 16.1667C2.93916 15.3206 2.46387 14.1732 2.46387 12.9767C2.46387 11.7803 2.93916 10.6328 3.78518 9.78678L10.6911 2.88088C11.2551 2.31686 12.0201 2 12.8177 2C13.6153 2 14.3803 2.31686 14.9443 2.88088C15.5083 3.44489 15.8252 4.20986 15.8252 5.0075C15.8252 5.80514 15.5083 6.57011 14.9443 7.13413L8.03092 14.04C7.74891 14.322 7.36643 14.4805 6.96761 14.4805C6.56879 14.4805 6.1863 14.322 5.90429 14.04C5.62229 13.758 5.46386 13.3755 5.46386 12.9767C5.46386 12.5779 5.62229 12.1954 5.90429 11.9134L12.2842 5.54104" stroke="#252D38" stroke-width="1.5" stroke-linecap="round" stroke-linejoin="round"/>
</svg>
