<svg width="20" height="20" viewBox="0 0 20 20" fill="none" xmlns="http://www.w3.org/2000/svg">
<path d="M2.5 5H4.16667H17.5" stroke="#252D38" stroke-width="1.5" stroke-linecap="round" stroke-linejoin="round"/>
<path d="M15.8337 8.00006V5.00002H4.16699V16.6667C4.16699 17.1087 4.34259 17.5326 4.65515 17.8452C4.96771 18.1578 5.39163 18.3334 5.83366 18.3334H9.00049M6.66699 5.00002V3.33335C6.66699 2.89133 6.84259 2.4674 7.15515 2.15484C7.46771 1.84228 7.89163 1.66669 8.33366 1.66669H11.667C12.109 1.66669 12.5329 1.84228 12.8455 2.15484C13.1581 2.4674 13.3337 2.89133 13.3337 3.33335V5.00002" stroke="#252D38" stroke-width="1.5" stroke-linecap="round" stroke-linejoin="round"/>
<path d="M11.666 8V8.33337" stroke="#252D38" stroke-width="1.5" stroke-linecap="round" stroke-linejoin="round"/>
<path d="M8.33398 8.5L8.33398 13" stroke="#252D38" stroke-width="1.5" stroke-linecap="round" stroke-linejoin="round"/>
<path d="M14.5 18.5C16.7091 18.5 18.5 16.7091 18.5 14.5C18.5 12.2909 16.7091 10.5 14.5 10.5C12.2909 10.5 10.5 12.2909 10.5 14.5C10.5 16.7091 12.2909 18.5 14.5 18.5Z" stroke="#252D38" stroke-width="1.5" stroke-linecap="round" stroke-linejoin="round"/>
<path d="M14.5 12.5V14.5H16.5" stroke="#252D38" stroke-width="1.5" stroke-linecap="round" stroke-linejoin="round"/>
</svg>
