<svg width="20" height="20" viewBox="0 0 20 20" fill="none" xmlns="http://www.w3.org/2000/svg">
<path d="M2.5 10C2.5 11.2126 5.06129 12.2203 8.5 12.4506" stroke="#252D38" stroke-width="1.5" stroke-linecap="round" stroke-linejoin="round"/>
<path d="M10 6.66663C14.1421 6.66663 17.5 5.54734 17.5 4.16663C17.5 2.78591 14.1421 1.66663 10 1.66663C5.85786 1.66663 2.5 2.78591 2.5 4.16663C2.5 5.54734 5.85786 6.66663 10 6.66663Z" stroke="#252D38" stroke-width="1.5" stroke-linecap="round" stroke-linejoin="round"/>
<path d="M2.5 4.16663V15.8333C2.5 17.2166 5.83333 18.3333 10 18.3333C10.6936 18.3333 11.3641 18.3023 12 18.2444M17.5 4.16663V8.5" stroke="#252D38" stroke-width="1.5" stroke-linecap="round" stroke-linejoin="round"/>
<path d="M18 13L15 10L12 13" stroke="#252D38" stroke-width="1.5" stroke-linecap="round" stroke-linejoin="round"/>
<path d="M15 18V10" stroke="#252D38" stroke-width="1.5" stroke-linecap="round" stroke-linejoin="round"/>
</svg>
