<svg width="20" height="20" viewBox="0 0 20 20" fill="none" xmlns="http://www.w3.org/2000/svg">
<path d="M5 8C5 6.34315 6.34315 5 8 5H12C13.6569 5 15 6.34315 15 8V12C15 14.7614 12.7614 17 10 17V17C7.23858 17 5 14.7614 5 12V8Z" stroke="#252D38" stroke-width="1.5"/>
<path d="M12.5 4.99996V4.5C12.5 3.11929 11.3807 2 10 2C8.61929 2 7.5 3.11929 7.5 4.5V4.99996" stroke="#252D38" stroke-width="1.5" stroke-linecap="round" stroke-linejoin="round"/>
<path d="M5 6.5C3.89543 6.5 3 5.60457 3 4.5V3.5" stroke="#252D38" stroke-width="1.5" stroke-linecap="round" stroke-linejoin="round"/>
<path d="M15 6.5C16.1046 6.5 17 5.60457 17 4.5V3.5" stroke="#252D38" stroke-width="1.5" stroke-linecap="round" stroke-linejoin="round"/>
<path d="M5.5 14.5C4.11929 14.5 3 15.6193 3 17" stroke="#252D38" stroke-width="1.5" stroke-linecap="round" stroke-linejoin="round"/>
<path d="M14.5 14.5C15.8807 14.5 17 15.6193 17 17" stroke="#252D38" stroke-width="1.5" stroke-linecap="round" stroke-linejoin="round"/>
<path d="M2.5 10.5H5" stroke="#252D38" stroke-width="1.5" stroke-linecap="round" stroke-linejoin="round"/>
<path d="M18 10.5H15.5" stroke="#252D38" stroke-width="1.5" stroke-linecap="round" stroke-linejoin="round"/>
<path d="M10 7.5V14.5" stroke="#252D38" stroke-width="1.5" stroke-linecap="round" stroke-linejoin="round"/>
</svg>
