<svg width="20" height="20" viewBox="0 0 20 20" fill="none" xmlns="http://www.w3.org/2000/svg">
<path d="M16.5455 16.5455L5.63636 5.63636M16.5455 16.5455L18 18L2 2L5.63636 5.63636M16.5455 16.5455H10H3.45455C3.06878 16.5455 2.69881 16.3922 2.42603 16.1194C2.15325 15.8466 2 15.4767 2 15.0909V7.09091C2 6.70514 2.15325 6.33517 2.42603 6.06239C2.69881 5.78961 3.06878 5.63636 3.45455 5.63636H5.63636M7.81818 3.45455H12.1818L13.6364 5.63636H16.5455C16.9312 5.63636 17.3012 5.78961 17.574 6.06239C17.8468 6.33517 18 6.70514 18 7.09091V13.8836M12.3855 12.3855C12.1441 12.7382 11.8279 13.0335 11.4595 13.2502C11.0911 13.4669 10.6794 13.5997 10.2538 13.6393C9.82817 13.6788 9.39908 13.6241 8.99702 13.479C8.59496 13.3339 8.22982 13.1019 7.92758 12.7997C7.62533 12.4974 7.3934 12.1323 7.24829 11.7303C7.10318 11.3282 7.04846 10.8991 7.088 10.4735C7.12755 10.0479 7.26041 9.63622 7.47711 9.26779C7.69382 8.89935 7.98906 8.5832 8.34182 8.34182" stroke="#252D38" stroke-width="1.5" stroke-linecap="round" stroke-linejoin="round"/>
</svg>
