<svg width="20" height="20" viewBox="0 0 20 20" fill="none" xmlns="http://www.w3.org/2000/svg">
<path d="M2.94057 4.54011C0.686584 7.54579 2.50424 12.2612 3.75488 13.6385C3.79889 13.6869 3.82349 13.7479 3.82349 13.8134V17.345C3.82349 17.483 3.93542 17.595 4.07349 17.595H9.09141C9.22948 17.595 9.34141 17.483 9.34141 17.345V15.8435C9.34141 15.6963 9.46762 15.5817 9.6135 15.6013C10.5698 15.7298 12.4316 16.0837 12.4316 15.5692C12.4316 15.3556 12.6305 13.5195 12.6507 12.1786C12.6525 12.0567 12.7403 11.9529 12.8605 11.9325L13.6363 11.8007C13.8041 11.7721 13.895 11.588 13.8155 11.4375L12.4708 8.89094C12.4454 8.84278 12.4367 8.78674 12.4448 8.73289C12.9294 5.54092 11.1009 3.56455 10.0798 3.04389C8.68194 2.21858 5.23616 1.47897 2.94057 4.54011Z" stroke="#252D38" stroke-width="1.5" stroke-linecap="round"/>
<path d="M15.3408 13.8261L17.896 15.4359" stroke="#252D38" stroke-width="1.5" stroke-linecap="round"/>
<path d="M17.8955 6.91599L15.3403 8.52579" stroke="#252D38" stroke-width="1.5" stroke-linecap="round"/>
<path d="M15.6836 11.1758H18.2104" stroke="#252D38" stroke-width="1.5" stroke-linecap="round"/>
</svg>
