<svg width="20" height="20" viewBox="0 0 20 20" fill="none" xmlns="http://www.w3.org/2000/svg">
<path d="M18.0001 10C18.0001 14.4183 14.4184 18 10.0001 18C8.66346 18 2 18 2 18L4.28988 15.603C4.28988 15.603 2 13 2.00009 10C2.00009 5.58172 5.58181 2 10.0001 2" stroke="#252D38" stroke-width="1.5" stroke-linecap="round" stroke-linejoin="round"/>
<path d="M15.2227 1.94446V7.61112" stroke="#252D38" stroke-width="1.5" stroke-linecap="round" stroke-linejoin="round"/>
<path d="M18.0553 4.7784L12.3887 4.77783" stroke="#252D38" stroke-width="1.5" stroke-linecap="round" stroke-linejoin="round"/>
<path fill-rule="evenodd" clip-rule="evenodd" d="M7 10.5C7.27614 10.5 7.5 10.2761 7.5 10C7.5 9.72386 7.27614 9.5 7 9.5C6.72386 9.5 6.5 9.72386 6.5 10C6.5 10.2761 6.72386 10.5 7 10.5Z" stroke="#252D38" stroke-width="1.5"/>
<path fill-rule="evenodd" clip-rule="evenodd" d="M10.5 10.5C10.7761 10.5 11 10.2761 11 10C11 9.72386 10.7761 9.5 10.5 9.5C10.2239 9.5 10 9.72386 10 10C10 10.2761 10.2239 10.5 10.5 10.5Z" stroke="#252D38" stroke-width="1.5"/>
<path fill-rule="evenodd" clip-rule="evenodd" d="M14 10.5C14.2761 10.5 14.5 10.2761 14.5 10C14.5 9.72386 14.2761 9.5 14 9.5C13.7239 9.5 13.5 9.72386 13.5 10C13.5 10.2761 13.7239 10.5 14 10.5Z" stroke="#252D38" stroke-width="1.5"/>
</svg>
