<svg width="20" height="20" viewBox="0 0 20 20" fill="none" xmlns="http://www.w3.org/2000/svg">
<path d="M9 18.3332H4.16667C3.24619 18.3332 2.5 17.5871 2.5 16.6666V4.99992C2.5 4.07944 3.24619 3.33325 4.16667 3.33325H15.8333C16.7538 3.33325 17.5 4.07944 17.5 4.99992V7.99995" stroke="#252D38" stroke-width="1.5" stroke-linecap="round" stroke-linejoin="round"/>
<path d="M2.5 8.33325H17.5" stroke="#252D38" stroke-width="1.5" stroke-linecap="round" stroke-linejoin="round"/>
<path d="M13.333 1.66675V5.00008" stroke="#252D38" stroke-width="1.5" stroke-linecap="round" stroke-linejoin="round"/>
<path d="M6.66699 1.66675V5.00008" stroke="#252D38" stroke-width="1.5" stroke-linecap="round" stroke-linejoin="round"/>
<path d="M14.5 18.5C16.7091 18.5 18.5 16.7091 18.5 14.5C18.5 12.2909 16.7091 10.5 14.5 10.5C12.2909 10.5 10.5 12.2909 10.5 14.5C10.5 16.7091 12.2909 18.5 14.5 18.5Z" stroke="#252D38" stroke-width="1.5" stroke-linecap="round" stroke-linejoin="round"/>
<path d="M14.5 12.5V14.5H16.5" stroke="#252D38" stroke-width="1.5" stroke-linecap="round" stroke-linejoin="round"/>
</svg>
