<svg width="20" height="20" viewBox="0 0 20 20" fill="none" xmlns="http://www.w3.org/2000/svg">
<path d="M17.5 8.50004V5.00004C17.5 4.07957 16.7538 3.33337 15.8333 3.33337H4.16667C3.24619 3.33337 2.5 4.07957 2.5 5.00004V16.6667C2.5 17.5872 3.24619 18.3334 4.16667 18.3334H8" stroke="#252D38" stroke-width="1.5" stroke-linecap="round" stroke-linejoin="round"/>
<path d="M2.5 7.80005H17.5" stroke="#252D38" stroke-width="1.5" stroke-linecap="round" stroke-linejoin="round"/>
<path d="M13.333 1.66663V4.99996" stroke="#252D38" stroke-width="1.5" stroke-linecap="round" stroke-linejoin="round"/>
<path d="M6.66699 1.66663V4.99996" stroke="#252D38" stroke-width="1.5" stroke-linecap="round" stroke-linejoin="round"/>
<path d="M14.75 19C17.0972 19 19 17.0972 19 14.75C19 12.4028 17.0972 10.5 14.75 10.5C12.4028 10.5 10.5 12.4028 10.5 14.75C10.5 17.0972 12.4028 19 14.75 19Z" stroke="#252D38" stroke-width="1.5" stroke-linecap="round" stroke-linejoin="round"/>
<path d="M12.7607 14.7442L14.0868 16.071L16.7313 13.4241" stroke="#252D38" stroke-width="1.5" stroke-linecap="round" stroke-linejoin="round"/>
</svg>
