<svg width="20" height="20" viewBox="0 0 20 20" fill="none" xmlns="http://www.w3.org/2000/svg">
<path d="M12.7998 16.7998C15.0089 16.7998 16.7998 15.0089 16.7998 12.7998C16.7998 10.5907 15.0089 8.7998 12.7998 8.7998C10.5907 8.7998 8.7998 10.5907 8.7998 12.7998C8.7998 15.0089 10.5907 16.7998 12.7998 16.7998Z" stroke="#252D38" stroke-width="1.5" stroke-linecap="round" stroke-linejoin="round"/>
<path d="M17.8 17.8L15.625 15.625" stroke="#252D38" stroke-width="1.5" stroke-linecap="round" stroke-linejoin="round"/>
<path d="M5.73438 16.3999H4.55424C3.983 16.3999 3.43516 16.173 3.03124 15.7691C2.62731 15.3651 2.40039 14.8173 2.40039 14.2461V4.55375C2.40039 3.98251 2.62731 3.43467 3.03124 3.03075C3.43516 2.62682 3.983 2.3999 4.55424 2.3999H14.2465C14.8178 2.3999 15.3656 2.62682 15.7695 3.03075C16.1735 3.43467 16.4004 3.98251 16.4004 4.55375V5.73389" stroke="#252D38" stroke-width="1.5" stroke-linecap="round" stroke-linejoin="round"/>
<path d="M5.7998 5.7998H10.9998" stroke="#252D38" stroke-width="1.5" stroke-linecap="round"/>
<path d="M5.7998 8.7998H6.7998" stroke="#252D38" stroke-width="1.5" stroke-linecap="round"/>
</svg>
