<svg width="20" height="20" viewBox="0 0 20 20" fill="none" xmlns="http://www.w3.org/2000/svg">
<path d="M13.333 3.33337H14.9997C15.4417 3.33337 15.8656 3.50897 16.1782 3.82153C16.4907 4.13409 16.6663 4.55801 16.6663 5.00004V8M8.99951 18.3334H4.99967C4.55765 18.3334 4.13372 18.1578 3.82116 17.8452C3.5086 17.5327 3.33301 17.1087 3.33301 16.6667V5.00004C3.33301 4.55801 3.5086 4.13409 3.82116 3.82153C4.13372 3.50897 4.55765 3.33337 4.99967 3.33337H6.66634" stroke="#252D38" stroke-width="1.5" stroke-linecap="round" stroke-linejoin="round"/>
<path d="M12.5003 1.66663H7.50033C7.04009 1.66663 6.66699 2.03972 6.66699 2.49996V4.16663C6.66699 4.62686 7.04009 4.99996 7.50033 4.99996H12.5003C12.9606 4.99996 13.3337 4.62686 13.3337 4.16663V2.49996C13.3337 2.03972 12.9606 1.66663 12.5003 1.66663Z" stroke="#252D38" stroke-width="1.5" stroke-linecap="round" stroke-linejoin="round"/>
<path d="M14.75 19C17.0972 19 19 17.0972 19 14.75C19 12.4028 17.0972 10.5 14.75 10.5C12.4028 10.5 10.5 12.4028 10.5 14.75C10.5 17.0972 12.4028 19 14.75 19Z" stroke="#252D38" stroke-width="1.5" stroke-linecap="round" stroke-linejoin="round"/>
<path d="M12.7607 14.7442L14.0868 16.071L16.7313 13.4241" stroke="#252D38" stroke-width="1.5" stroke-linecap="round" stroke-linejoin="round"/>
</svg>
