<svg width="20" height="20" viewBox="0 0 20 20" fill="none" xmlns="http://www.w3.org/2000/svg">
<path d="M8.57465 3.21667L1.51632 15C1.37079 15.252 1.29379 15.5378 1.29298 15.8288C1.29216 16.1198 1.36756 16.4059 1.51167 16.6588C1.65579 16.9116 1.86359 17.1223 2.11441 17.2699C2.36523 17.4175 2.65032 17.4968 2.94132 17.5H17.058C17.349 17.4968 17.6341 17.4175 17.8849 17.2699C18.1357 17.1223 18.3435 16.9116 18.4876 16.6588C18.6317 16.4059 18.7071 16.1198 18.7063 15.8288C18.7055 15.5378 18.6285 15.252 18.483 15L11.4247 3.21667C11.2761 2.97176 11.0669 2.76927 10.8173 2.62874C10.5677 2.48821 10.2861 2.41438 9.99965 2.41438C9.7132 2.41438 9.43159 2.48821 9.18199 2.62874C8.93238 2.76927 8.72321 2.97176 8.57465 3.21667Z" stroke="#252D38" stroke-width="1.5" stroke-linecap="round" stroke-linejoin="round"/>
<path d="M10 7.5V10.8333" stroke="#252D38" stroke-width="1.5" stroke-linecap="round" stroke-linejoin="round"/>
<path d="M10 14.1667H10.0083" stroke="#252D38" stroke-width="1.5" stroke-linecap="round" stroke-linejoin="round"/>
</svg>
