<svg width="20" height="20" viewBox="0 0 20 20" fill="none" xmlns="http://www.w3.org/2000/svg">
<rect x="2" y="2.5" width="5" height="4" rx="1" stroke="#252D38" stroke-width="1.5" stroke-linejoin="round"/>
<rect x="2" y="13.5" width="5" height="4" rx="1" stroke="#252D38" stroke-width="1.5" stroke-linejoin="round"/>
<path d="M7 4.5H9C9.55228 4.5 10 4.94772 10 5.5V10M7 15.5H9C9.55228 15.5 10 15.0523 10 14.5V10M10 10H13" stroke="#252D38" stroke-width="1.5" stroke-linecap="round" stroke-linejoin="round"/>
<path d="M13 9C13 8.44772 13.4477 8 14 8H17C17.5523 8 18 8.44772 18 9V11C18 11.5523 17.5523 12 17 12H14C13.4477 12 13 11.5523 13 11V9Z" stroke="#252D38" stroke-width="1.5" stroke-linejoin="round"/>
</svg>
