<svg width="20" height="20" viewBox="0 0 20 20" fill="none" xmlns="http://www.w3.org/2000/svg">
<g clip-path="url(#clip0_198_1331)">
<path d="M17.5 15V14.5V6.75C17.5 6.35218 17.342 5.97064 17.0607 5.68934C16.7794 5.40804 16.3978 5.25 16 5.25H9.25L7.75 3H6M3.22244 3.21726C3.12033 3.27916 3.02517 3.35351 2.93934 3.43934C2.65804 3.72064 2.5 4.10218 2.5 4.5V15C2.5 15.3978 2.65804 15.7794 2.93934 16.0607C3.22064 16.342 3.60218 16.5 4 16.5H16C16.1503 16.5 16.2983 16.4774 16.4394 16.4342" stroke="#252D38" stroke-width="1.5" stroke-linecap="round" stroke-linejoin="round"/>
<path d="M0.833984 0.833252L19.1673 19.1666" stroke="#252D38" stroke-width="1.5" stroke-linecap="round" stroke-linejoin="round"/>
</g>
<defs>
<clipPath id="clip0_198_1331">
<rect width="20" height="20" fill="white"/>
</clipPath>
</defs>
</svg>
