<svg width="20" height="20" viewBox="0 0 20 20" fill="none" xmlns="http://www.w3.org/2000/svg">
<g clip-path="url(#clip0_194_1135)">
<path d="M0.833984 0.833313L4.34824 4.34756M19.1673 19.1666L15.6489 15.6482M4.34824 4.34756L4.19099 4.5C2.83324 5.93366 2.00049 7.86958 2.00049 10C2.00049 12.1778 2.87071 14.1524 4.2824 15.595L2.00049 17.9996L10.0005 18C12.1309 18 14.0668 17.1672 15.5005 15.8095L15.6489 15.6482M4.34824 4.34756L15.6489 15.6482M7.38012 2.43901C8.20108 2.15454 9.08274 2 10.0005 2C14.4188 2 18.0005 5.58172 18.0005 10C18.0005 10.9178 17.8459 11.7994 17.5615 12.6204" stroke="#252D38" stroke-width="1.5" stroke-linecap="round" stroke-linejoin="round"/>
</g>
<defs>
<clipPath id="clip0_194_1135">
<rect width="20" height="20" fill="white"/>
</clipPath>
</defs>
</svg>
