<svg width="20" height="20" viewBox="0 0 20 20" fill="none" xmlns="http://www.w3.org/2000/svg">
<path d="M16.2222 2H3.77778C2.79594 2 2 2.79594 2 3.77778V16.2222C2 17.2041 2.79594 18 3.77778 18H16.2222C17.2041 18 18 17.2041 18 16.2222V3.77778C18 2.79594 17.2041 2 16.2222 2Z" stroke="#252D38" stroke-width="1.5" stroke-linecap="round" stroke-linejoin="round"/>
<path d="M18 12.5455L13.625 8L4 18" stroke="#252D38" stroke-width="1.5" stroke-linecap="round" stroke-linejoin="round"/>
<path d="M6 8.5C6.82843 8.5 7.5 7.82843 7.5 7C7.5 6.17157 6.82843 5.5 6 5.5C5.17157 5.5 4.5 6.17157 4.5 7C4.5 7.82843 5.17157 8.5 6 8.5Z" stroke="#252D38" stroke-width="1.5" stroke-linecap="round" stroke-linejoin="round"/>
</svg>
