<svg width="20" height="20" viewBox="0 0 20 20" fill="none" xmlns="http://www.w3.org/2000/svg">
<path d="M8 12C8.29482 11.4431 8.6978 10.7575 9.19453 10M9.19453 10C11.2251 6.90356 14.822 2.60691 19 1C19.5 3 16.8891 13 9.19453 10Z" stroke="#252D38" stroke-width="1.5" stroke-linecap="round" stroke-linejoin="round"/>
<path d="M15 13V15.8333C15 16.2754 14.8244 16.6993 14.5118 17.0118C14.1993 17.3244 13.7754 17.5 13.3333 17.5H4.16667C3.72464 17.5 3.30072 17.3244 2.98816 17.0118C2.67559 16.6993 2.5 16.2754 2.5 15.8333V6.66667C2.5 6.22464 2.67559 5.80072 2.98816 5.48816C3.30072 5.17559 3.72464 5 4.16667 5H9" stroke="#252D38" stroke-width="1.5" stroke-linecap="round" stroke-linejoin="round"/>
</svg>
