<svg width="20" height="20" viewBox="0 0 20 20" fill="none" xmlns="http://www.w3.org/2000/svg">
<path d="M8.82154 5.28564L10.5893 3.51787C10.9762 3.13096 11.4355 2.82405 11.9411 2.61465C12.4466 2.40526 12.9884 2.29749 13.5356 2.29749C14.0828 2.29749 14.6246 2.40526 15.1301 2.61465C15.6356 2.82405 16.095 3.13096 16.4819 3.51787C16.8688 3.90478 17.1757 4.36411 17.3851 4.86964C17.5945 5.37516 17.7023 5.91698 17.7023 6.46415C17.7023 7.01133 17.5945 7.55314 17.3851 8.05867C17.1757 8.56419 16.8688 9.02352 16.4819 9.41043L14.7141 11.1782M11.1786 14.7137L9.4108 16.4815C9.02389 16.8684 8.56456 17.1753 8.05903 17.3847C7.55351 17.5941 7.01169 17.7019 6.46452 17.7019C5.35945 17.7019 4.29964 17.2629 3.51824 16.4815C2.73684 15.7001 2.29785 14.6403 2.29785 13.5352C2.29785 12.4301 2.73684 11.3703 3.51824 10.5889L5.28601 8.82117" stroke="#252D38" stroke-width="1.5" stroke-linecap="round" stroke-linejoin="round"/>
<path d="M7.64258 12.357L12.3566 7.64294" stroke="#252D38" stroke-width="1.5" stroke-linecap="round" stroke-linejoin="round"/>
</svg>
