<svg width="20" height="20" viewBox="0 0 20 20" fill="none" xmlns="http://www.w3.org/2000/svg">
<path d="M2.5 1.5L18.5 17.5" stroke="#252D38" stroke-width="1.5" stroke-linecap="round" stroke-linejoin="round"/>
<path d="M7.5 2.5035C8.28469 2.17426 9.13343 2 10 2C11.7239 2 13.3772 2.68961 14.5962 3.91712C15.8152 5.14463 16.5 6.80949 16.5 8.54545C16.5 9.39615 16.3185 10.2265 16.0162 11.0197M10 18C10 18 3.5 13.6364 3.5 8.54545C3.5 6.92708 4.09518 5.37051 5.16349 4.17248L14.5806 13.5895C12.6635 16.2119 10 18 10 18Z" stroke="#252D38" stroke-width="1.5" stroke-linecap="round" stroke-linejoin="round"/>
<path d="M8 7C7.68612 7.41785 7.5 7.93716 7.5 8.5C7.5 9.88071 8.61929 11 10 11C10.5628 11 11.0823 10.814 11.5001 10.5001" stroke="#252D38" stroke-width="1.5" stroke-linecap="round" stroke-linejoin="round"/>
</svg>
