<svg width="20" height="20" viewBox="0 0 20 20" fill="none" xmlns="http://www.w3.org/2000/svg">
<path d="M16.5 8.54545C16.5 13.6364 10 18 10 18C10 18 3.5 13.6364 3.5 8.54545C3.5 6.80949 4.18482 5.14463 5.40381 3.91712C6.62279 2.68961 8.27609 2 10 2C11.7239 2 13.3772 2.68961 14.5962 3.91712C15.8152 5.14463 16.5 6.80949 16.5 8.54545Z" stroke="#252D38" stroke-width="1.5" stroke-linecap="round" stroke-linejoin="round"/>
<path d="M10 11C11.3807 11 12.5 9.88071 12.5 8.5C12.5 7.11929 11.3807 6 10 6C8.61929 6 7.5 7.11929 7.5 8.5C7.5 9.88071 8.61929 11 10 11Z" stroke="#252D38" stroke-width="1.5" stroke-linecap="round" stroke-linejoin="round"/>
</svg>
