<svg width="20" height="20" viewBox="0 0 20 20" fill="none" xmlns="http://www.w3.org/2000/svg">
<path d="M6.5 9V8C6.5 7.17157 7.17157 6.5 8 6.5H9" stroke="#252D38" stroke-width="1.5" stroke-linecap="round"/>
<path d="M13.5 11V12C13.5 12.8284 12.8284 13.5 12 13.5H11" stroke="#252D38" stroke-width="1.5" stroke-linecap="round"/>
<path d="M7 13H4C2.89543 13 2 12.1046 2 11V4C2 2.89543 2.89543 2 4 2H11C12.1046 2 13 2.89543 13 4V7" stroke="#252D38" stroke-width="1.5" stroke-linecap="round"/>
<path d="M13 7H16C17.1046 7 18 7.89543 18 9V16C18 17.1046 17.1046 18 16 18H9C7.89543 18 7 17.1046 7 16V13" stroke="#252D38" stroke-width="1.5" stroke-linecap="round"/>
</svg>
