<svg width="20" height="20" viewBox="0 0 20 20" fill="none" xmlns="http://www.w3.org/2000/svg">
<path d="M10.0003 10.8334C10.4606 10.8334 10.8337 10.4603 10.8337 10C10.8337 9.53978 10.4606 9.16669 10.0003 9.16669C9.54009 9.16669 9.16699 9.53978 9.16699 10C9.16699 10.4603 9.54009 10.8334 10.0003 10.8334Z" fill="#252D38" stroke="#252D38" stroke-width="1.5" stroke-linecap="round" stroke-linejoin="round"/>
<path d="M15.8333 10.8334C16.2936 10.8334 16.6667 10.4603 16.6667 10C16.6667 9.53978 16.2936 9.16669 15.8333 9.16669C15.3731 9.16669 15 9.53978 15 10C15 10.4603 15.3731 10.8334 15.8333 10.8334Z" fill="#252D38" stroke="#252D38" stroke-width="1.5" stroke-linecap="round" stroke-linejoin="round"/>
<path d="M4.16634 10.8334C4.62658 10.8334 4.99967 10.4603 4.99967 10C4.99967 9.53978 4.62658 9.16669 4.16634 9.16669C3.7061 9.16669 3.33301 9.53978 3.33301 10C3.33301 10.4603 3.7061 10.8334 4.16634 10.8334Z" fill="#252D38" stroke="#252D38" stroke-width="1.5" stroke-linecap="round" stroke-linejoin="round"/>
</svg>
