<svg width="20" height="20" viewBox="0 0 20 20" fill="none" xmlns="http://www.w3.org/2000/svg">
<g clip-path="url(#clip0_181_1262)">
<path d="M11.4419 17.5C11.2954 17.7526 11.0851 17.9622 10.8321 18.1079C10.5791 18.2537 10.2922 18.3304 10.0003 18.3304C9.70828 18.3304 9.42142 18.2537 9.1684 18.1079C8.91539 17.9622 8.7051 17.7526 8.55859 17.5" stroke="#252D38" stroke-width="1.5" stroke-linecap="round" stroke-linejoin="round"/>
<path d="M15.5249 10.8333C15.1542 9.47613 14.9775 8.07333 14.9999 6.66663" stroke="#252D38" stroke-width="1.5" stroke-linecap="round" stroke-linejoin="round"/>
<path d="M5.21667 5.21667C5.07189 5.68635 4.99884 6.17519 5 6.66667C5 12.5 2.5 14.1667 2.5 14.1667H14.1667" stroke="#252D38" stroke-width="1.5" stroke-linecap="round" stroke-linejoin="round"/>
<path d="M14.9996 6.66672C15.001 5.76094 14.7562 4.87181 14.2916 4.0943C13.8269 3.31679 13.1597 2.6801 12.3614 2.25225C11.563 1.82441 10.6634 1.62147 9.75869 1.66511C8.85396 1.70876 7.97808 1.99735 7.22461 2.50005" stroke="#252D38" stroke-width="1.5" stroke-linecap="round" stroke-linejoin="round"/>
<path d="M0.833008 0.833374L19.1663 19.1667" stroke="#252D38" stroke-width="1.5" stroke-linecap="round" stroke-linejoin="round"/>
</g>
<defs>
<clipPath id="clip0_181_1262">
<rect width="20" height="20" fill="white"/>
</clipPath>
</defs>
</svg>
