<svg width="20" height="20" viewBox="0 0 20 20" fill="none" xmlns="http://www.w3.org/2000/svg">
<path d="M10 1.66675C8.67392 1.66675 7.40215 2.19353 6.46447 3.13121C5.52678 4.0689 5 5.34067 5 6.66675C5 12.5001 2.5 14.1667 2.5 14.1667H17.5C17.5 14.1667 16.3213 13.3809 15.5826 11" stroke="#252D38" stroke-width="1.5" stroke-linecap="round" stroke-linejoin="round"/>
<path d="M11.4419 17.5C11.2954 17.7526 11.0851 17.9622 10.8321 18.1079C10.5791 18.2537 10.2922 18.3304 10.0003 18.3304C9.70828 18.3304 9.42142 18.2537 9.1684 18.1079C8.91539 17.9622 8.7051 17.7526 8.55859 17.5" stroke="#252D38" stroke-width="1.5" stroke-linecap="round" stroke-linejoin="round"/>
<path d="M15.0332 8.77832C15.0273 8.52585 14.9547 8.28016 14.8242 8.06543L14.7656 7.97559L14.6992 7.89062C14.548 7.70956 14.354 7.56919 14.1348 7.48047H14.1357C13.8731 7.36463 13.5813 7.32964 13.2988 7.38086C13.0165 7.43213 12.756 7.567 12.5508 7.76758L12.5195 7.79883C12.5118 7.80657 12.5023 7.81319 12.4922 7.81738C12.4821 7.82153 12.4708 7.82324 12.46 7.82324C12.4492 7.82318 12.4386 7.82146 12.4287 7.81738C12.4186 7.81319 12.4091 7.80657 12.4014 7.79883H12.4004C12.3927 7.79111 12.387 7.78156 12.3828 7.77148C12.3786 7.76137 12.376 7.75021 12.376 7.73926C12.376 7.72852 12.3787 7.71795 12.3828 7.70801C12.387 7.698 12.3928 7.68835 12.4004 7.68066H12.4014L12.4258 7.65527L12.4316 7.64941C12.6325 7.44409 12.7671 7.18301 12.8184 6.90039C12.8695 6.61785 12.8347 6.32617 12.7188 6.06348C12.6219 5.84131 12.4712 5.64753 12.2803 5.5L12.1953 5.43945L12.1055 5.38477C11.8926 5.26515 11.6525 5.20119 11.4072 5.2002H11.333C11.3111 5.20011 11.29 5.19127 11.2744 5.17578C11.2588 5.16015 11.25 5.13831 11.25 5.11621C11.2501 5.09427 11.2589 5.07314 11.2744 5.05762C11.29 5.04211 11.3111 5.03329 11.333 5.0332H11.3887C11.6769 5.0264 11.9569 4.93337 12.1914 4.76562C12.426 4.59783 12.6045 4.36248 12.7041 4.0918L12.7031 4.09082C12.8039 3.83989 12.8335 3.56555 12.7852 3.29883C12.7338 3.01641 12.5992 2.75599 12.3984 2.55078L12.3926 2.54492L12.3682 2.51953H12.3672C12.3595 2.51181 12.3538 2.50226 12.3496 2.49219C12.3454 2.48209 12.3428 2.47089 12.3428 2.45996C12.3428 2.44921 12.3455 2.43865 12.3496 2.42871C12.3538 2.41865 12.3595 2.40908 12.3672 2.40137L12.3682 2.40039C12.3758 2.39276 12.3855 2.38696 12.3955 2.38281C12.4054 2.37873 12.416 2.37602 12.4268 2.37598C12.4377 2.37598 12.4489 2.37862 12.459 2.38281C12.4691 2.38699 12.4786 2.39269 12.4863 2.40039V2.40137L12.5117 2.42578L12.5176 2.43164C12.7228 2.63239 12.9832 2.76706 13.2656 2.81836C13.5002 2.86089 13.7405 2.84271 13.9658 2.76953C14.0216 2.7595 14.0766 2.74508 14.1289 2.72266C14.3864 2.61225 14.606 2.4289 14.7607 2.19531C14.9155 1.96159 14.9989 1.68755 15 1.40723V1.33301C15.0001 1.31102 15.0089 1.28997 15.0244 1.27441C15.04 1.25886 15.061 1.25009 15.083 1.25C15.1051 1.25 15.1269 1.25879 15.1426 1.27441C15.158 1.28995 15.1669 1.3111 15.167 1.33301V1.37402C15.1681 1.6543 15.2505 1.92843 15.4053 2.16211C15.5585 2.39347 15.776 2.57477 16.0303 2.68555V2.68652C16.293 2.80248 16.5846 2.83636 16.8672 2.78516C17.1498 2.73391 17.4109 2.59929 17.6162 2.39844L17.6221 2.39258L17.6475 2.36816V2.36719C17.6551 2.35956 17.6648 2.35376 17.6748 2.34961C17.6848 2.34553 17.6953 2.3428 17.7061 2.34277C17.717 2.34277 17.7282 2.34542 17.7383 2.34961C17.7483 2.3538 17.7579 2.35948 17.7656 2.36719V2.36816C17.7734 2.3759 17.78 2.38539 17.7842 2.39551C17.7882 2.40541 17.79 2.41606 17.79 2.42676C17.79 2.43767 17.7883 2.4489 17.7842 2.45898L17.7656 2.48633L17.7344 2.51758C17.5338 2.72279 17.3989 2.98327 17.3477 3.26562C17.3053 3.49931 17.3221 3.7393 17.3945 3.96387C17.4045 4.02042 17.4216 4.07586 17.4443 4.12891C17.5548 4.38648 17.738 4.606 17.9717 4.76074C18.2054 4.91553 18.4794 4.99888 18.7598 5H18.833C18.8551 5 18.8769 5.00879 18.8926 5.02441C18.908 5.03995 18.9169 5.0611 18.917 5.08301C18.917 5.10511 18.9082 5.12695 18.8926 5.14258C18.877 5.15821 18.8551 5.16699 18.833 5.16699H18.793C18.5479 5.16797 18.3075 5.23114 18.0947 5.35059L18.0049 5.40527C17.7734 5.55855 17.5912 5.77586 17.4805 6.03027C17.3645 6.29297 17.3297 6.58465 17.3809 6.86719C17.4321 7.14972 17.5668 7.41091 17.7676 7.61621L17.7988 7.64746C17.8066 7.6552 17.8132 7.66469 17.8174 7.6748C17.8214 7.68473 17.8232 7.69533 17.8232 7.70605C17.8232 7.71701 17.8216 7.72816 17.8174 7.73828L17.7988 7.76562C17.7911 7.77337 17.7816 7.77999 17.7715 7.78418C17.7614 7.78834 17.7502 7.79004 17.7393 7.79004C17.7286 7.79 17.7179 7.78823 17.708 7.78418L17.6807 7.76562L17.6494 7.73438C17.4441 7.53362 17.1829 7.39889 16.9004 7.34766C16.6534 7.30293 16.3995 7.32379 16.1641 7.40723L16.0635 7.44727C15.8411 7.5441 15.6476 7.6956 15.5 7.88672L15.4395 7.97168C15.2847 8.20542 15.2013 8.47942 15.2002 8.75977V8.83301C15.2002 8.85511 15.1914 8.87695 15.1758 8.89258C15.1602 8.90817 15.1383 8.91699 15.1162 8.91699C15.0943 8.91687 15.0731 8.90804 15.0576 8.89258C15.042 8.87695 15.0332 8.85511 15.0332 8.83301V8.77832Z" stroke="#252D38" stroke-width="1.5" stroke-linecap="round" stroke-linejoin="round"/>
</svg>
