<svg width="20" height="20" viewBox="0 0 20 20" fill="none" xmlns="http://www.w3.org/2000/svg">
<g clip-path="url(#clip0_216_536)">
<path d="M8.41624 11.5834C9.3236 12.4904 10.3744 13.2416 11.5262 13.8067C11.6983 13.8857 11.8922 13.9038 12.076 13.8579C12.2597 13.812 12.4223 13.7049 12.5371 13.5542L12.8329 13.1667C12.9881 12.9597 13.1895 12.7917 13.4209 12.676C13.6523 12.5603 13.9075 12.5 14.1662 12.5H16.6662C17.1083 12.5 17.5322 12.6756 17.8447 12.9882C18.1573 13.3008 18.3329 13.7247 18.3329 14.1667V16.6667C18.3329 17.1087 18.1573 17.5327 17.8447 17.8452C17.5322 18.1578 17.1083 18.3334 16.6662 18.3334C14.6964 18.3334 12.7459 17.9454 10.926 17.1916C9.10606 16.4378 7.45246 15.3329 6.05957 13.94" stroke="#252D38" stroke-width="1.5" stroke-linecap="round" stroke-linejoin="round"/>
<path d="M18.3337 1.66663L1.66699 18.3333" stroke="#252D38" stroke-width="1.5" stroke-linecap="round" stroke-linejoin="round"/>
<path d="M3.96699 11.3183C2.46366 8.92633 1.6664 6.15844 1.66699 3.33329C1.66699 2.89127 1.84259 2.46734 2.15515 2.15478C2.46771 1.84222 2.89163 1.66663 3.33366 1.66663H5.83366C6.27569 1.66663 6.69961 1.84222 7.01217 2.15478C7.32473 2.46734 7.50033 2.89127 7.50033 3.33329V5.83329C7.50033 6.09203 7.44008 6.34722 7.32437 6.57865C7.20866 6.81007 7.04065 7.01138 6.83366 7.16663L6.44366 7.45913C6.29067 7.57594 6.18284 7.74211 6.13848 7.92942C6.09413 8.11672 6.11598 8.31361 6.20033 8.48663C6.2656 8.61929 6.33339 8.7507 6.40366 8.88079" stroke="#252D38" stroke-width="1.5" stroke-linecap="round" stroke-linejoin="round"/>
</g>
<defs>
<clipPath id="clip0_216_536">
<rect width="20" height="20" fill="white"/>
</clipPath>
</defs>
</svg>
