<svg width="20" height="20" viewBox="0 0 20 20" fill="none" xmlns="http://www.w3.org/2000/svg">
<path d="M16 12.5V12C16 10.8954 15.1046 10 14 10H13" stroke="#252D38" stroke-width="1.5" stroke-linecap="round" stroke-linejoin="round"/>
<path d="M12.9999 10H12.6673L12.17 2H7.83001L7.59424 4.5L7.25555 7.63477M7.21609 8L7.21397 8.01955M7.21397 8.01955L7 10L7.25555 7.63477M7.21397 8.01955L7.25555 7.63477" stroke="#252D38" stroke-width="1.5" stroke-linecap="round" stroke-linejoin="round"/>
<path d="M5 2C10.5556 2 15 2 15 2" stroke="#252D38" stroke-width="1.5" stroke-linecap="round" stroke-linejoin="round"/>
<path d="M7 10H6.5H6C4.89543 10 4 10.8954 4 12V13H12H13H16V12.5" stroke="#252D38" stroke-width="1.5" stroke-linecap="round" stroke-linejoin="round"/>
<path d="M10 13V18" stroke="#252D38" stroke-width="1.5" stroke-linecap="round" stroke-linejoin="round"/>
</svg>
