<svg width="20" height="20" viewBox="0 0 20 20" fill="none" xmlns="http://www.w3.org/2000/svg">
<path d="M5.61804 5.58607C3.06297 7.31275 1.66699 10 1.66699 10C1.66699 10 4.6973 15.8333 10.0003 15.8333C11.6918 15.8333 13.1521 15.2398 14.3566 14.4315M8.39975 4.3475C8.90743 4.2315 9.44125 4.16667 10.0003 4.16667C15.3034 4.16667 18.3337 10 18.3337 10C18.3337 10 17.7137 11.1934 16.5439 12.5007M8.111 8.36273C7.73056 8.80136 7.50033 9.37379 7.50033 10C7.50033 11.3807 8.61961 12.5 10.0003 12.5C10.6405 12.5 11.2244 12.2594 11.6667 11.8637M10.5003 7.55001C11.5019 7.75333 12.2861 8.55545 12.4629 9.56644M3.00033 3L17.0003 17" stroke="#252D38" stroke-width="1.5" stroke-linecap="round" stroke-linejoin="round"/>
</svg>
