<svg width="20" height="20" viewBox="0 0 20 20" fill="none" xmlns="http://www.w3.org/2000/svg">
<g clip-path="url(#clip0_199_1380)">
<path d="M5 7.49996V1.66663H15V7.49996" stroke="#252D38" stroke-width="1.5" stroke-linecap="round" stroke-linejoin="round"/>
<path d="M5.00033 15H3.33366C2.89163 15 2.46771 14.8244 2.15515 14.5118C1.84259 14.1993 1.66699 13.7754 1.66699 13.3333V9.16667C1.66699 8.72464 1.84259 8.30072 2.15515 7.98816C2.46771 7.6756 2.89163 7.5 3.33366 7.5H16.667C17.109 7.5 17.5329 7.6756 17.8455 7.98816C18.1581 8.30072 18.3337 8.72464 18.3337 9.16667V13.3333C18.3337 13.7754 18.1581 14.1993 17.8455 14.5118C17.5329 14.8244 17.109 15 16.667 15H15.0003" stroke="#252D38" stroke-width="1.5" stroke-linecap="round" stroke-linejoin="round"/>
<path d="M15 11.6666H5V18.3333H15V11.6666Z" stroke="#252D38" stroke-width="1.5" stroke-linecap="round" stroke-linejoin="round"/>
</g>
<defs>
<clipPath id="clip0_199_1380">
<rect width="20" height="20" fill="white"/>
</clipPath>
</defs>
</svg>
