<svg width="20" height="20" viewBox="0 0 20 20" fill="none" xmlns="http://www.w3.org/2000/svg">
<path d="M6.50783 7.61765C6.50783 7.61765 6.49021 7.25846 6.50783 7.02941C6.65733 5.08591 8.088 3.5 10.0372 3.5C11.9865 3.5 13.5667 5.08017 13.5667 7.02941C13.5667 8.2391 12.2073 9.30665 11.1759 9.94258C10.5048 10.3563 10.0372 11.0663 10.0372 11.8547V13" stroke="#252D38" stroke-width="1.5" stroke-linecap="round" stroke-linejoin="round"/>
<path d="M10 16.5C10.2761 16.5 10.5 16.2761 10.5 16C10.5 15.7239 10.2761 15.5 10 15.5C9.72386 15.5 9.5 15.7239 9.5 16C9.5 16.2761 9.72386 16.5 10 16.5Z" stroke="#252D38" stroke-width="1.5" stroke-linecap="round" stroke-linejoin="round"/>
</svg>
