<svg width="20" height="20" viewBox="0 0 20 20" fill="none" xmlns="http://www.w3.org/2000/svg">
<path d="M1.5 3.3335V8.3335H6.5" stroke="#252D38" stroke-width="1.5" stroke-linecap="round" stroke-linejoin="round"/>
<path d="M3.59167 12.5C4.13199 14.0337 5.15611 15.3502 6.50971 16.2512C7.86331 17.1522 9.47307 17.5889 11.0964 17.4954C12.7198 17.402 14.2688 16.7835 15.5101 15.7332C16.7514 14.6828 17.6177 13.2575 17.9785 11.672C18.3393 10.0865 18.1751 8.42667 17.5105 6.94262C16.846 5.45857 15.7171 4.2307 14.294 3.44401C12.871 2.65732 11.2308 2.35442 9.62056 2.58097C8.01038 2.80751 6.51743 3.55122 5.36667 4.70004L1.5 8.33337" stroke="#252D38" stroke-width="1.5" stroke-linecap="round" stroke-linejoin="round"/>
<circle cx="10.2998" cy="10" r="1.25" stroke="#252D38" stroke-width="1.5"/>
</svg>
