<svg width="20" height="20" viewBox="0 0 20 20" fill="none" xmlns="http://www.w3.org/2000/svg">
<path d="M19.167 3.33334V8.33334H14.167" stroke="#252D38" stroke-width="1.5" stroke-linecap="round" stroke-linejoin="round"/>
<path d="M0.833008 16.6667V11.6667H5.83301" stroke="#252D38" stroke-width="1.5" stroke-linecap="round" stroke-linejoin="round"/>
<path d="M2.92467 7.5C3.34731 6.30565 4.06562 5.23783 5.01256 4.39618C5.95951 3.55452 7.10423 2.96647 8.33991 2.68688C9.5756 2.40729 10.862 2.44528 12.079 2.79731C13.296 3.14934 14.4041 3.80392 15.2997 4.7L19.1663 8.33333M0.833008 11.6667L4.69967 15.3C5.5953 16.1961 6.70332 16.8507 7.92035 17.2027C9.13738 17.5547 10.4238 17.5927 11.6594 17.3131C12.8951 17.0335 14.0398 16.4455 14.9868 15.6038C15.9337 14.7622 16.652 13.6943 17.0747 12.5" stroke="#252D38" stroke-width="1.5" stroke-linecap="round" stroke-linejoin="round"/>
</svg>
