<svg width="20" height="20" viewBox="0 0 20 20" fill="none" xmlns="http://www.w3.org/2000/svg">
<path d="M7.49951 4H3.33268C2.41602 4 1.66602 4.75 1.66602 5.66667L1.66626 15C1.66626 15.9167 2.41626 16.6667 3.33293 16.6667H16.6663C17.5829 16.6667 18.3329 15.9167 18.3329 15V12" stroke="#252D38" stroke-width="1.5" stroke-linecap="round" stroke-linejoin="round"/>
<path d="M1.66602 6L8.99951 11.8333L10.0412 11.1042" stroke="#252D38" stroke-width="1.5" stroke-linecap="round" stroke-linejoin="round"/>
<path d="M14.5 10C16.7091 10 18.5 8.20914 18.5 6C18.5 3.79086 16.7091 2 14.5 2C12.2909 2 10.5 3.79086 10.5 6C10.5 8.20914 12.2909 10 14.5 10Z" stroke="#252D38" stroke-width="1.5" stroke-linecap="round" stroke-linejoin="round"/>
<path d="M14.5 4V6H16.5" stroke="#252D38" stroke-width="1.5" stroke-linecap="round" stroke-linejoin="round"/>
</svg>
