<svg width="20" height="20" viewBox="0 0 20 20" fill="none" xmlns="http://www.w3.org/2000/svg">
<path d="M0.833008 3.33333V8.33333H5.83301" stroke="#252D38" stroke-width="1.5" stroke-linecap="round" stroke-linejoin="round"/>
<path d="M2.92467 12.5C3.465 14.0336 4.48912 15.3501 5.84272 16.2511C7.19632 17.1521 8.80608 17.5888 10.4294 17.4954C12.0528 17.402 13.6018 16.7835 14.8431 15.7331C16.0844 14.6828 16.9507 13.2575 17.3115 11.672C17.6723 10.0864 17.5081 8.42662 16.8435 6.94258C16.179 5.45853 15.0501 4.23065 13.627 3.44396C12.204 2.65727 10.5638 2.35438 8.95357 2.58092C7.34338 2.80747 5.85043 3.55118 4.69967 4.69999L0.833008 8.33333" stroke="#252D38" stroke-width="1.5" stroke-linecap="round" stroke-linejoin="round"/>
<path d="M10 5.5V10L13 11.5" stroke="#252D38" stroke-width="1.5" stroke-linecap="round" stroke-linejoin="round"/>
</svg>
