<svg width="20" height="20" viewBox="0 0 20 20" fill="none" xmlns="http://www.w3.org/2000/svg">
<path d="M8.87984 10.0892C8.95719 9.90834 9 9.70917 9 9.5C9 8.67157 8.32843 8 7.5 8C6.67157 8 6 8.67157 6 9.5C6 10.3284 6.67157 11 7.5 11C8.11926 11 8.65087 10.6247 8.87984 10.0892ZM8.87984 10.0892L6.83789 13.5" stroke="#252D38" stroke-width="1.5" stroke-linecap="round"/>
<rect x="11" y="8.00456" width="3.5" height="5.5" rx="1.75" stroke="#252D38" stroke-width="1.5"/>
<path d="M17.668 10.7062C17.668 14.94 14.2358 18.3722 10.002 18.3722C5.76813 18.3722 2.33594 14.94 2.33594 10.7062C2.33594 6.47236 5.76813 3.04017 10.002 3.04017C10.4103 3.04917 11.3841 3.09411 12.0125 3.20183M12.0125 3.20183L10.002 1.19131M12.0125 3.20183L10.002 5.21235" stroke="#252D38" stroke-width="1.5" stroke-linecap="round" stroke-linejoin="round"/>
</svg>
