<svg width="20" height="20" viewBox="0 0 20 20" fill="none" xmlns="http://www.w3.org/2000/svg">
<path d="M8.87984 10.0892C8.95719 9.90834 9 9.70917 9 9.5C9 8.67157 8.32843 8 7.5 8C6.67157 8 6 8.67157 6 9.5C6 10.3284 6.67157 11 7.5 11C8.11926 11 8.65087 10.6247 8.87984 10.0892ZM8.87984 10.0892L6.83789 13.5" stroke="#252D38" stroke-width="1.5" stroke-linecap="round"/>
<rect x="11" y="8.00458" width="3.5" height="5.5" rx="1.75" stroke="#252D38" stroke-width="1.5"/>
<path d="M2.33203 10.7062C2.33203 14.94 5.76422 18.3722 9.99805 18.3722C14.2319 18.3722 17.6641 14.94 17.6641 10.7062C17.6641 6.47236 14.2319 3.04017 9.99805 3.04017C9.58969 3.04917 8.61589 3.09411 7.98753 3.20183M7.98753 3.20183L9.99805 1.19131M7.98753 3.20183L9.99805 5.21235" stroke="#252D38" stroke-width="1.5" stroke-linecap="round" stroke-linejoin="round"/>
</svg>
