<svg width="20" height="20" viewBox="0 0 20 20" fill="none" xmlns="http://www.w3.org/2000/svg">
<path d="M17.6252 12.427C16.5976 15.6587 13.5722 18 10 18L2 17.9996L4.28192 15.595C2.87023 14.1524 2 12.1779 2 10C2 6.06695 4.83825 2.79678 8.57829 2.12598" stroke="#252D38" stroke-width="1.5" stroke-linecap="round" stroke-linejoin="round"/>
<path d="M18 6.675V3.27495C18 3.27495 16.9043 3.16372 16.2702 2.95625C15.636 2.74878 14.7524 2 14.7524 2C14.7524 2 13.8687 2.74878 13.2346 2.95625C12.6005 3.16372 11.5 3.27495 11.5 3.27495L11.5048 6.675C11.5048 6.675 11.5163 7.7526 12.1505 8.375C12.7846 8.9974 14.7524 10.5 14.7524 10.5C14.7524 10.5 16.7202 8.9974 17.3543 8.375C17.9884 7.7526 18 6.675 18 6.675Z" stroke="#252D38" stroke-width="1.5" stroke-linejoin="round"/>
</svg>
