<svg width="20" height="20" viewBox="0 0 20 20" fill="none" xmlns="http://www.w3.org/2000/svg">
<path d="M17.5 15C17.5 15.3978 17.342 15.7794 17.0607 16.0607C16.7794 16.342 16.3978 16.5 16 16.5H4C3.60218 16.5 3.22064 16.342 2.93934 16.0607C2.65804 15.7794 2.5 15.3978 2.5 15V4.5C2.5 4.10218 2.65804 3.72064 2.93934 3.43934C3.22064 3.15804 3.60218 3 4 3H7.75L9.25 5.25H16C16.3978 5.25 16.7794 5.40804 17.0607 5.68934C17.342 5.97064 17.5 6.35218 17.5 6.75V15Z" stroke="#252D38" stroke-width="1.5" stroke-linecap="round" stroke-linejoin="round"/>
<path d="M11 14.5V14C11 13.1716 10.3284 12.5 9.49995 12.5H7.50018C6.67168 12.5 6 13.1715 6 14V14.5" stroke="#252D38" stroke-width="1.5" stroke-linecap="round" stroke-linejoin="round"/>
<path d="M14 14.5V14C14 13.4477 13.5523 13 13 13" stroke="#252D38" stroke-width="1.5" stroke-linecap="round" stroke-linejoin="round"/>
<path d="M8.5 10.5C9.19036 10.5 9.75 9.94036 9.75 9.25C9.75 8.55964 9.19036 8 8.5 8C7.80964 8 7.25 8.55964 7.25 9.25C7.25 9.94036 7.80964 10.5 8.5 10.5Z" stroke="#252D38" stroke-width="1.5" stroke-linecap="round" stroke-linejoin="round"/>
<path d="M12 11C12.5523 11 13 10.5523 13 10C13 9.44772 12.5523 9 12 9" stroke="#252D38" stroke-width="1.5" stroke-linecap="round" stroke-linejoin="round"/>
</svg>
