<svg width="20" height="20" viewBox="0 0 20 20" fill="none" xmlns="http://www.w3.org/2000/svg">
<path d="M7.51762 6.76873C7.6516 6.27748 8.3484 6.27748 8.48238 6.76873L9.04894 8.84612C9.32844 9.87095 10.1291 10.6716 11.1539 10.9511L13.2313 11.5176C13.7225 11.6516 13.7225 12.3484 13.2313 12.4824L11.1539 13.0489C10.1291 13.3284 9.32844 14.1291 9.04894 15.1539L8.48238 17.2313C8.3484 17.7225 7.6516 17.7225 7.51762 17.2313L6.95106 15.1539C6.67156 14.1291 5.87095 13.3284 4.84612 13.0489L2.76873 12.4824C2.27748 12.3484 2.27748 11.6516 2.76873 11.5176L4.84612 10.9511C5.87095 10.6716 6.67156 9.87095 6.95106 8.84612L7.51762 6.76873Z" stroke="#252D38" stroke-width="1.5" stroke-linejoin="round"/>
<path d="M14.5 2L15.1021 3.5052C15.3562 4.14046 15.8595 4.64382 16.4948 4.89792L18 5.5L16.4948 6.10208C15.8595 6.35618 15.3562 6.85954 15.1021 7.4948L14.5 9L13.8979 7.4948C13.6438 6.85954 13.1405 6.35618 12.5052 6.10208L11 5.5L12.5052 4.89792C13.1405 4.64382 13.6438 4.14046 13.8979 3.5052L14.5 2Z" stroke="#252D38" stroke-width="1.5" stroke-linejoin="round"/>
</svg>
