<svg width="20" height="20" viewBox="0 0 20 20" fill="none" xmlns="http://www.w3.org/2000/svg">
<path d="M17.1587 11.175L11.1837 17.15C11.0289 17.305 10.8451 17.4279 10.6427 17.5118C10.4404 17.5956 10.2235 17.6388 10.0045 17.6388C9.78547 17.6388 9.56859 17.5956 9.36626 17.5118C9.16393 17.4279 8.98011 17.305 8.82533 17.15L1.66699 10V4.50001L4.50049 1.66666H10.0003L17.1587 8.825C17.4691 9.13727 17.6433 9.55969 17.6433 10C17.6433 10.4403 17.4691 10.8627 17.1587 11.175Z" stroke="#252D38" stroke-width="1.5" stroke-linecap="round" stroke-linejoin="round"/>
<path d="M6.25 7C6.66421 7 7 6.66421 7 6.25C7 5.83579 6.66421 5.5 6.25 5.5C5.83579 5.5 5.5 5.83579 5.5 6.25C5.5 6.66421 5.83579 7 6.25 7Z" stroke="#252D38" stroke-width="1.5" stroke-linecap="round" stroke-linejoin="round"/>
</svg>
