<svg width="20" height="20" viewBox="0 0 20 20" fill="none" xmlns="http://www.w3.org/2000/svg">
<path d="M12.5003 4.89996L11.667 8.33329H16.5253C16.7841 8.33329 17.0393 8.39353 17.2707 8.50925C17.5021 8.62496 17.7034 8.79297 17.8587 8.99996C18.0139 9.20695 18.1188 9.44725 18.1651 9.70182C18.2114 9.95638 18.1978 10.2182 18.1253 10.4666L16.1837 17.1333C16.0827 17.4795 15.8722 17.7836 15.5837 18C15.2952 18.2163 14.9443 18.3333 14.5837 18.3333H3.33366C2.89163 18.3333 2.46771 18.1577 2.15515 17.8451C1.84259 17.5326 1.66699 17.1087 1.66699 16.6666V9.99996C1.66699 9.55793 1.84259 9.13401 2.15515 8.82145C2.46771 8.50889 2.89163 8.33329 3.33366 8.33329H5.63366C5.94373 8.33313 6.24761 8.24647 6.51112 8.08306C6.77464 7.91965 6.98734 7.68597 7.12533 7.40829L10.0003 1.66663C10.3933 1.67149 10.7801 1.7651 11.1318 1.94046C11.4836 2.11581 11.7911 2.36838 12.0315 2.67929C12.2719 2.99021 12.4389 3.35143 12.5201 3.73596C12.6013 4.1205 12.5945 4.51841 12.5003 4.89996Z" stroke="#252D38" stroke-width="1.5" stroke-linecap="round" stroke-linejoin="round"/>
<path d="M5.83301 8.33337V18.3334" stroke="#252D38" stroke-width="1.5" stroke-linecap="round" stroke-linejoin="round"/>
</svg>
