<svg width="20" height="20" viewBox="0 0 20 20" fill="none" xmlns="http://www.w3.org/2000/svg">
<path d="M7.50026 15.1L8.33359 11.6666H3.47526C3.21652 11.6666 2.96133 11.6064 2.7299 11.4907C2.49848 11.375 2.29717 11.207 2.14193 11C1.98668 10.793 1.88176 10.5527 1.83548 10.2981C1.78919 10.0435 1.80281 9.78168 1.87526 9.53329L3.81693 2.86663C3.9179 2.52043 4.12843 2.21633 4.41693 1.99996C4.70542 1.78359 5.05631 1.66663 5.41693 1.66663H16.6669C17.109 1.66663 17.5329 1.84222 17.8454 2.15478C18.158 2.46734 18.3336 2.89127 18.3336 3.33329V9.99996C18.3336 10.442 18.158 10.8659 17.8454 11.1785C17.5329 11.491 17.109 11.6666 16.6669 11.6666H14.3669C14.0569 11.6668 13.753 11.7534 13.4895 11.9169C13.2259 12.0803 13.0132 12.3139 12.8753 12.5916L10.0003 18.3333C9.60728 18.3284 9.22048 18.2348 8.86876 18.0595C8.51704 17.8841 8.20949 17.6315 7.96909 17.3206C7.72869 17.0097 7.56166 16.6485 7.48048 16.264C7.3993 15.8794 7.40606 15.4815 7.50026 15.1Z" stroke="#252D38" stroke-width="1.5" stroke-linecap="round" stroke-linejoin="round"/>
<path d="M14.167 11.6666V1.66663" stroke="#252D38" stroke-width="1.5" stroke-linecap="round" stroke-linejoin="round"/>
</svg>
