<svg width="20" height="20" viewBox="0 0 20 20" fill="none" xmlns="http://www.w3.org/2000/svg">
<path d="M18 16V14.6666C17.9995 14.0758 17.7984 13.5018 17.4282 13.0349C17.058 12.5679 16.5396 12.2344 15.9545 12.0867M13.9093 16V14.6667C13.9093 13.9594 13.6219 13.2812 13.1105 12.7811C12.599 12.281 11.9053 12 11.182 12H5.72732C5.00399 12 4.31029 12.281 3.79881 12.7811C3.28734 13.2812 3 13.9594 3 14.6667V16M13.2275 4.08663C13.8141 4.2335 14.3341 4.5671 14.7054 5.03484C15.0767 5.50257 15.2783 6.07784 15.2783 6.66995C15.2783 7.26206 15.0767 7.83733 14.7054 8.30507C14.3341 8.77281 13.8141 9.1064 13.2275 9.25327M11.1817 6.66665C11.1817 8.1394 9.96063 9.3333 8.45437 9.3333C6.94811 9.3333 5.72705 8.1394 5.72705 6.66665C5.72705 5.1939 6.94811 4 8.45437 4C9.96063 4 11.1817 5.1939 11.1817 6.66665Z" stroke="#252D38" stroke-width="1.5" stroke-linecap="round" stroke-linejoin="round"/>
</svg>
