<svg width="24" height="24" viewBox="0 0 24 24" fill="none" xmlns="http://www.w3.org/2000/svg">
<path d="M7.05029 3C5.80765 3 4.80029 4.00736 4.80029 5.25V18.75C4.80029 19.9926 5.80765 21 7.05029 21H16.9503C18.1929 21 19.2003 19.9926 19.2003 18.75V7.5L14.7003 3H7.05029Z" fill="#5E92F5"/>
<path d="M14.7003 3V6.50067C14.7003 6.7657 14.8057 7.0199 14.9931 7.2073C15.1805 7.39471 15.4347 7.5 15.6997 7.5H19.2002L14.7003 3Z" fill="#3E6AC8"/>
<rect x="7.5" y="9" width="9" height="1.92" rx="0.96" fill="#3E6AC8"/>
<rect x="7.5" y="12.4199" width="9" height="1.92" rx="0.96" fill="#3E6AC8"/>
<rect x="7.5" y="15.8398" width="9" height="1.92" rx="0.96" fill="#3E6AC8"/>
</svg>
