<svg width="20" height="20" viewBox="0 0 20 20" fill="none" xmlns="http://www.w3.org/2000/svg">
<path d="M5.87524 2.5C4.83971 2.5 4.00024 3.33947 4.00024 4.375V15.625C4.00024 16.6605 4.83971 17.5 5.87524 17.5H14.1252C15.1608 17.5 16.0002 16.6605 16.0002 15.625L16.0002 6.25L12.2502 2.5H5.87524Z" fill="#5E92F5"/>
<path d="M12.2201 9.77365C12.9343 9.77365 13.5132 9.19472 13.5132 8.48057C13.5132 7.76643 12.9343 7.1875 12.2201 7.1875C11.506 7.1875 10.927 7.76643 10.927 8.48057C10.927 8.50339 10.9276 8.52607 10.9288 8.54859L8.65738 9.98715C8.42692 9.77443 8.11892 9.64447 7.78056 9.64447C7.06642 9.64447 6.48749 10.2234 6.48749 10.9375C6.48749 11.6517 7.06642 12.2306 7.78056 12.2306C8.11899 12.2306 8.42705 12.1006 8.65753 11.8878L10.9288 13.3263C10.9276 13.3488 10.927 13.3715 10.927 13.3944C10.927 14.1085 11.506 14.6874 12.2201 14.6874C12.9343 14.6874 13.5132 14.1085 13.5132 13.3944C13.5132 12.6802 12.9343 12.1013 12.2201 12.1013C11.894 12.1013 11.5961 12.222 11.3687 12.4212L9.0733 10.9674C9.07352 10.9575 9.07364 10.9475 9.07364 10.9375C9.07364 10.9275 9.07352 10.9174 9.07329 10.9074L11.3686 9.45373C11.5961 9.65292 11.894 9.77365 12.2201 9.77365Z" fill="#3E6AC8"/>
<path d="M12.2502 2.5V5.41722C12.2502 5.63808 12.338 5.84991 12.4942 6.00609C12.6504 6.16226 12.8622 6.25 13.0831 6.25H16.0002L12.2502 2.5Z" fill="#3E6AC8"/>
</svg>
