<svg width="48" height="48" viewBox="0 0 48 48" fill="none" xmlns="http://www.w3.org/2000/svg">
<path d="M18.4644 14.2694C18.4644 11.1726 21.021 8.66196 24.1331 8.73576C27.1548 8.80677 29.5359 11.3508 29.5359 14.3738V16.3233C29.5359 17.1615 29.9801 17.9385 30.7027 18.3632L33.4306 19.9687C33.8024 20.1873 34.2702 19.92 34.2702 19.4883V14.2694C34.2702 8.5979 29.6723 4 24.0008 4C18.3293 4 13.7314 8.5979 13.7314 14.2694V19.4883C13.7314 19.9186 14.1993 20.1873 14.5711 19.9687L17.2989 18.3632C18.0216 17.9385 18.4658 17.1615 18.4658 16.3233V14.2694H18.4644Z" fill="#3E6AC8"/>
<path d="M35.5161 42.9331H9.14295C8.37431 42.9331 7.75049 42.3093 7.75049 41.5406V26.1108C7.75049 23.4958 9.86981 21.3765 12.4848 21.3765H38.858C39.6267 21.3765 40.2505 22.0003 40.2505 22.7689V38.1987C40.2505 40.8138 38.1312 42.9331 35.5161 42.9331Z" fill="#5E92F5"/>
<path fill-rule="evenodd" clip-rule="evenodd" d="M25.3948 32.1981C26.6415 31.6585 27.5138 30.4173 27.5138 28.9724C27.5138 27.0321 25.9409 25.4592 24.0006 25.4592C22.0603 25.4592 20.4874 27.0321 20.4874 28.9724C20.4874 30.4176 21.36 31.6589 22.6071 32.1983V35.708C22.6071 36.077 22.7547 36.432 23.0164 36.6938L24.6818 38.3578C24.945 38.621 25.3948 38.4344 25.3948 38.0626V32.1981Z" fill="#3E6AC8"/>
</svg>
