<svg width="40" height="40" viewBox="0 0 40 40" fill="none" xmlns="http://www.w3.org/2000/svg">
<rect width="40" height="40" rx="14" fill="#E4EAF9"/>
<path fill-rule="evenodd" clip-rule="evenodd" d="M13.4004 8C11.7435 8 10.4004 9.34315 10.4004 11V29C10.4004 30.6569 11.7435 32 13.4004 32H26.6004C28.2572 32 29.6004 30.6569 29.6004 29L29.6004 14L23.6004 8H13.4004Z" fill="#5E92F5"/>
<path d="M23.5522 27.4999C24.6949 27.4999 25.6211 26.5736 25.6211 25.431C25.6211 24.2883 24.6949 23.3621 23.5522 23.3621C22.4096 23.3621 21.4833 24.2883 21.4833 25.431C21.4833 26.5736 22.4096 27.4999 23.5522 27.4999Z" fill="#3E6AC8"/>
<path d="M16.4489 23.569C17.5916 23.569 18.5178 22.6427 18.5178 21.5001C18.5178 20.3574 17.5916 19.4312 16.4489 19.4312C15.3063 19.4312 14.38 20.3574 14.38 21.5001C14.38 22.6427 15.3063 23.569 16.4489 23.569Z" fill="#3E6AC8"/>
<path d="M18.0351 22.1895L22.1729 24.8101" stroke="#3E6AC8" stroke-width="1.6" stroke-linecap="round" stroke-linejoin="round"/>
<path d="M23.5522 19.6378C24.6949 19.6378 25.6211 18.7116 25.6211 17.5689C25.6211 16.4263 24.6949 15.5 23.5522 15.5C22.4096 15.5 21.4833 16.4263 21.4833 17.5689C21.4833 18.7116 22.4096 19.6378 23.5522 19.6378Z" fill="#3E6AC8"/>
<path d="M22.1729 18.1897L18.0351 20.8103" stroke="#3E6AC8" stroke-width="1.6" stroke-linecap="round" stroke-linejoin="round"/>
<path d="M23.6004 8V12.6676C23.6004 13.0209 23.7409 13.3599 23.9908 13.6097C24.2406 13.8596 24.5796 14 24.9329 14H29.6003L23.6004 8Z" fill="#3E6AC8"/>
</svg>
