<svg width="32" height="32" viewBox="0 0 32 32" fill="none" xmlns="http://www.w3.org/2000/svg">
<path d="M0 12C0 5.37258 5.37258 0 12 0H20C26.6274 0 32 5.37258 32 12V20C32 26.6274 26.6274 32 20 32H12C5.37258 32 0 26.6274 0 20V12Z" fill="#E4EBF2"/>
<path d="M11.0503 7C9.80765 7 8.80029 8.00736 8.80029 9.25V22.75C8.80029 23.9926 9.80765 25 11.0503 25H20.9503C22.1929 25 23.2003 23.9926 23.2003 22.75L23.2003 11.5L18.7003 7H11.0503Z" fill="#BECBDD"/>
<path d="M18.6641 15.7284C19.5211 15.7284 20.2158 15.0337 20.2158 14.1767C20.2158 13.3197 19.5211 12.625 18.6641 12.625C17.8072 12.625 17.1125 13.3197 17.1125 14.1767C17.1125 14.2041 17.1132 14.2313 17.1146 14.2583L14.3889 15.9846C14.1123 15.7293 13.7427 15.5734 13.3367 15.5734C12.4797 15.5734 11.785 16.2681 11.785 17.1251C11.785 17.982 12.4797 18.6767 13.3367 18.6767C13.7428 18.6767 14.1125 18.5207 14.3891 18.2654L17.1146 19.9915C17.1132 20.0186 17.1125 20.0458 17.1125 20.0732C17.1125 20.9302 17.8072 21.6249 18.6641 21.6249C19.5211 21.6249 20.2158 20.9302 20.2158 20.0732C20.2158 19.2163 19.5211 18.5215 18.6641 18.5215C18.2728 18.5215 17.9154 18.6664 17.6424 18.9054L14.888 17.1609C14.8882 17.149 14.8884 17.137 14.8884 17.1251C14.8884 17.113 14.8882 17.1009 14.888 17.0889L17.6423 15.3445C17.9153 15.5835 18.2728 15.7284 18.6641 15.7284Z" fill="#9BABC0"/>
<path d="M18.7003 7V10.5007C18.7003 10.7657 18.8056 11.0199 18.9931 11.2073C19.1805 11.3947 19.4347 11.5 19.6997 11.5H23.2002L18.7003 7Z" fill="#9BABC0"/>
</svg>
