<svg width="40" height="40" viewBox="0 0 40 40" fill="none" xmlns="http://www.w3.org/2000/svg">
<path d="M11.7505 5C9.67942 5 8.00049 6.67893 8.00049 8.75V31.25C8.00049 33.3211 9.67942 35 11.7505 35H28.2505C30.3216 35 32.0005 33.3211 32.0005 31.25L32.0005 12.5L24.5005 5H11.7505Z" fill="#5E92F5"/>
<path d="M24.4402 19.5473C25.8685 19.5473 27.0264 18.3894 27.0264 16.9611C27.0264 15.5329 25.8685 14.375 24.4402 14.375C23.0119 14.375 21.8541 15.5329 21.8541 16.9611C21.8541 17.0068 21.8552 17.0521 21.8576 17.0972L17.3148 19.9743C16.8538 19.5489 16.2378 19.2889 15.5611 19.2889C14.1328 19.2889 12.975 20.4468 12.975 21.8751C12.975 23.3034 14.1328 24.4612 15.5611 24.4612C16.238 24.4612 16.8541 24.2012 17.3151 23.7756L21.8576 26.6525C21.8552 26.6976 21.8541 26.743 21.8541 26.7887C21.8541 28.217 23.0119 29.3749 24.4402 29.3749C25.8685 29.3749 27.0264 28.217 27.0264 26.7887C27.0264 25.3604 25.8685 24.2026 24.4402 24.2026C23.788 24.2026 23.1922 24.444 22.7373 24.8423L18.1466 21.9349C18.147 21.915 18.1473 21.8951 18.1473 21.8751C18.1473 21.855 18.147 21.8349 18.1466 21.8149L22.7372 18.9075C23.1921 19.3058 23.788 19.5473 24.4402 19.5473Z" fill="#3E6AC8"/>
<path d="M24.5005 5V10.8344C24.5005 11.2762 24.6761 11.6998 24.9884 12.0122C25.3008 12.3245 25.7244 12.5 26.1662 12.5H32.0004L24.5005 5Z" fill="#3E6AC8"/>
</svg>
