<svg width="40" height="40" viewBox="0 0 40 40" fill="none" xmlns="http://www.w3.org/2000/svg">
<rect width="40" height="40" rx="14" fill="#E4EAF9"/>
<path fill-rule="evenodd" clip-rule="evenodd" d="M26.5825 15.6665C27.1348 15.6665 27.5825 16.1142 27.5825 16.6665V28.9373C27.5825 29.4401 27.3542 29.9224 26.9479 30.2779C26.5416 30.6334 25.9905 30.8332 25.4158 30.8332H14.5825C14.0079 30.8332 13.4568 30.6334 13.0504 30.2779C12.6441 29.9224 12.4158 29.4401 12.4158 28.9373V16.6665C12.4158 16.1142 12.8635 15.6665 13.4158 15.6665H26.5825ZM22.1661 18.9603C22.7405 18.9603 23.2061 19.4259 23.2061 20.0003V26.5003C23.2061 27.0747 22.7405 27.5403 22.1661 27.5403C21.5917 27.5403 21.1261 27.0747 21.1261 26.5003V20.0003C21.1261 19.4259 21.5917 18.9603 22.1661 18.9603ZM18.8732 20.0003C18.8732 19.4259 18.4076 18.9603 17.8332 18.9603C17.2588 18.9603 16.7932 19.4259 16.7932 20.0003V26.5003C16.7932 27.0747 17.2588 27.5403 17.8332 27.5403C18.4076 27.5403 18.8732 27.0747 18.8732 26.5003V20.0003Z" fill="#5E92F5"/>
<path fill-rule="evenodd" clip-rule="evenodd" d="M22.1673 18.9602C22.7417 18.9602 23.2073 19.4258 23.2073 20.0002V26.5002C23.2073 27.0746 22.7417 27.5402 22.1673 27.5402C21.593 27.5402 21.1273 27.0746 21.1273 26.5002V20.0002C21.1273 19.4258 21.593 18.9602 22.1673 18.9602Z" fill="#3E6AC8"/>
<path fill-rule="evenodd" clip-rule="evenodd" d="M17.8332 18.9602C18.4075 18.9602 18.8732 19.4258 18.8732 20.0002V26.5002C18.8732 27.0746 18.4075 27.5402 17.8332 27.5402C17.2588 27.5402 16.7932 27.0746 16.7932 26.5002V20.0002C16.7932 19.4258 17.2588 18.9602 17.8332 18.9602Z" fill="#3E6AC8"/>
<path d="M16.1 9.30005C16.1 8.74776 16.5477 8.30005 17.1 8.30005H22.9C23.4523 8.30005 23.9 8.74776 23.9 9.30005V12.2H16.1V9.30005Z" fill="#5E92F5"/>
<rect x="9.16708" y="11.3335" width="21.6667" height="2.16667" rx="1" fill="#5E92F5"/>
</svg>
