<svg width="32" height="32" viewBox="0 0 32 32" fill="none" xmlns="http://www.w3.org/2000/svg">
<path d="M9.40039 4C7.74354 4 6.40039 5.34315 6.40039 7V25C6.40039 26.6569 7.74353 28 9.40039 28H22.6004C24.2572 28 25.6004 26.6569 25.6004 25V10L19.6004 4H9.40039Z" fill="#BECBDD"/>
<path d="M19.6003 4V8.66755C19.6003 9.02094 19.7408 9.35986 19.9907 9.60974C20.2406 9.85962 20.5795 10 20.9329 10H25.6002L19.6003 4Z" fill="#9BABC0"/>
<rect x="10" y="12" width="12" height="2.56" rx="1.28" fill="#9BABC0"/>
<rect x="10" y="16.5601" width="12" height="2.56" rx="1.28" fill="#9BABC0"/>
<rect x="10" y="21.1199" width="12" height="2.56" rx="1.28" fill="#9BABC0"/>
</svg>
