<svg width="40" height="40" viewBox="0 0 40 40" fill="none" xmlns="http://www.w3.org/2000/svg">
<rect width="40" height="40" rx="14" fill="#E4EAF9"/>
<path d="M20 9C13.9249 9 9 13.9249 9 20C9 22.6338 9.92679 25.0527 11.4701 26.9461L9.36454 28.9722C9.01808 29.3056 8.90887 29.816 9.08859 30.262C9.26831 30.7079 9.70092 31 10.1817 31H20C26.0751 31 31 26.0751 31 20C31 13.9249 26.0751 9 20 9Z" fill="#5E92F5"/>
<path fill-rule="evenodd" clip-rule="evenodd" d="M16.4999 20.1396C16.4999 20.9901 15.8104 21.6796 14.9599 21.6796C14.1094 21.6796 13.4199 20.9901 13.4199 20.1396C13.4199 19.2891 14.1094 18.5996 14.9599 18.5996C15.8104 18.5996 16.4999 19.2891 16.4999 20.1396ZM21.4463 20.1396C21.4463 20.9901 20.7568 21.6796 19.9063 21.6796C19.0557 21.6796 18.3663 20.9901 18.3663 20.1396C18.3663 19.2891 19.0557 18.5996 19.9063 18.5996C20.7568 18.5996 21.4463 19.2891 21.4463 20.1396ZM25.04 21.6796C25.8905 21.6796 26.5799 20.9901 26.5799 20.1396C26.5799 19.2891 25.8905 18.5996 25.04 18.5996C24.1894 18.5996 23.5 19.2891 23.5 20.1396C23.5 20.9901 24.1894 21.6796 25.04 21.6796Z" fill="#3E6AC8"/>
</svg>
