<svg width="40" height="40" viewBox="0 0 40 40" fill="none" xmlns="http://www.w3.org/2000/svg">
<rect width="40" height="40" rx="14" fill="#E4EAF9"/>
<mask id="mask0_5327_29685" style="mask-type:alpha" maskUnits="userSpaceOnUse" x="10" y="11" width="19" height="18">
<circle cx="19.5" cy="20" r="9" fill="#6291F3"/>
</mask>
<g mask="url(#mask0_5327_29685)">
<circle cx="19.5" cy="20" r="9" fill="#5E92F5"/>
<path d="M17.9998 15C17.5998 13 19.4998 13.1666 20.4998 13.5C21.3335 13.6838 21.4998 12 23.4998 12C25.4998 12 28.4998 15.5 28.4998 17C28.4998 18.5 25.4998 18.5 24.9998 19.5C24.4998 20.5 22.9998 20.5 21.9998 20.5C20.9998 20.5 19.9998 19 19.9998 17.5C19.9998 16 18.4998 17.5 17.9998 15Z" fill="#3E6AC8"/>
<path d="M16.5 26.9999C12.9 26.1999 12 21.9999 12 19.9999C12 18.9999 14 17.4999 15.5 18.4999C16.7 19.2999 15.3333 21.1666 14.5 21.9999C14.5 22.9999 16.5 22.9999 18.5 21.9999C20.5 20.9999 20.5 22.9999 21 24.9999C21.5 26.9999 21 27.9999 16.5 26.9999Z" fill="#3E6AC8"/>
</g>
<path d="M15.8464 7.15112C11.7316 8.4804 8.48063 11.7314 7.15137 15.8462" stroke="#5E92F5" stroke-width="2.4" stroke-linecap="round" stroke-dasharray="0.1 4"/>
<path d="M6.5 20C6.5 27.4558 12.5442 33.5 20 33.5C27.4558 33.5 33.5 27.4558 33.5 20C33.5 12.5442 27.4558 6.5 20 6.5" stroke="#5E92F5" stroke-width="2" stroke-linecap="round"/>
</svg>
