<svg width="32" height="32" viewBox="0 0 32 32" fill="none" xmlns="http://www.w3.org/2000/svg">
<path d="M0 12C0 5.37258 5.37258 0 12 0H20C26.6274 0 32 5.37258 32 12V20C32 26.6274 26.6274 32 20 32H12C5.37258 32 0 26.6274 0 20V12Z" fill="#E4EBF2"/>
<circle cx="21.625" cy="15.0625" r="2.8125" fill="#9BABC0"/>
<path d="M10.375 16.9375H14.125V22.5625C14.125 23.598 13.2855 24.4375 12.25 24.4375C11.2145 24.4375 10.375 23.598 10.375 22.5625V16.9375Z" fill="#9BABC0"/>
<path fill-rule="evenodd" clip-rule="evenodd" d="M20.6875 7.5625C21.625 7.5625 21.625 8.03125 21.625 9.4375V20.6875C21.625 22.0937 21.625 22.5625 20.6875 22.5625V22.5625L14.125 18.8125H11.3125C9.24143 18.8125 7.5625 17.1336 7.5625 15.0625C7.5625 12.9914 9.24143 11.3125 11.3125 11.3125H14.125L20.6875 7.5625ZM10.1875 14.875C10.7053 14.875 11.125 14.4553 11.125 13.9375C11.125 13.4197 10.7053 13 10.1875 13C9.66973 13 9.25 13.4197 9.25 13.9375C9.25 14.4553 9.66973 14.875 10.1875 14.875Z" fill="#BECBDD"/>
</svg>
