<svg width="40" height="40" viewBox="0 0 40 40" fill="none" xmlns="http://www.w3.org/2000/svg">
<path d="M11.7505 5C9.67942 5 8.00049 6.67893 8.00049 8.75V31.25C8.00049 33.3211 9.67942 35 11.7505 35H28.2505C30.3216 35 32.0005 33.3211 32.0005 31.25L32.0005 12.5L24.5005 5H11.7505Z" fill="#BECBDD"/>
<path d="M26.4609 19.6883C27.2256 19.6883 27.8455 19.0684 27.8455 18.3037C27.8455 17.539 27.2256 16.9191 26.4609 16.9191H16.8804L17.2859 16.5136C17.8267 15.9729 17.8267 15.0962 17.2859 14.5554C16.7452 14.0147 15.8685 14.0147 15.3278 14.5554L12.5586 17.3247C12.3961 17.4871 12.2825 17.6798 12.2177 17.8847C12.1944 17.9579 12.1771 18.0337 12.1663 18.1117C12.1481 18.2421 12.1486 18.3747 12.1676 18.5051C12.2092 18.7897 12.3395 19.0638 12.5586 19.2828L15.3278 22.0521C15.8685 22.5928 16.7452 22.5928 17.2859 22.0521C17.8267 21.5113 17.8267 20.6346 17.2859 20.0939L16.8804 19.6883H26.4609Z" fill="#9BABC0"/>
<path d="M13.5379 24.7653C12.7732 24.7653 12.1533 25.3853 12.1533 26.15C12.1533 26.9147 12.7732 27.5346 13.5379 27.5346L23.1184 27.5346L22.7129 27.9401C22.1721 28.4808 22.1721 29.3575 22.7129 29.8982C23.2536 30.439 24.1303 30.439 24.671 29.8982L27.4402 27.129C27.6037 26.9655 27.7178 26.7713 27.7824 26.5649C27.805 26.493 27.8219 26.4185 27.8325 26.342C27.8506 26.2118 27.8502 26.0795 27.8313 25.9494C27.7898 25.6645 27.6595 25.3901 27.4402 25.1709L24.671 22.4016C24.1303 21.8609 23.2536 21.8609 22.7129 22.4016C22.1721 22.9424 22.1721 23.8191 22.7129 24.3598L23.1184 24.7653L13.5379 24.7653Z" fill="#9BABC0"/>
<path d="M24.5005 5V10.8344C24.5005 11.2762 24.6761 11.6998 24.9884 12.0122C25.3008 12.3245 25.7244 12.5 26.1662 12.5H32.0004L24.5005 5Z" fill="#9BABC0"/>
</svg>
