<svg width="24" height="24" viewBox="0 0 24 24" fill="none" xmlns="http://www.w3.org/2000/svg">
<path d="M9.23221 7.1347C9.23221 5.58628 10.5105 4.33098 12.0666 4.36788C13.5774 4.40339 14.7679 5.6754 14.7679 7.18691V8.16163C14.7679 8.58077 14.99 8.96926 15.3514 9.18161L16.7153 9.98437C16.9012 10.0937 17.1351 9.96 17.1351 9.74417V7.1347C17.1351 4.29895 14.8362 2 12.0004 2C9.16467 2 6.86572 4.29895 6.86572 7.1347V9.74417C6.86572 9.9593 7.09966 10.0937 7.28555 9.98437L8.64946 9.18161C9.01081 8.96926 9.2329 8.58077 9.2329 8.16163V7.1347H9.23221Z" fill="#9BABC0"/>
<path d="M17.7581 21.4666H4.57147C4.18716 21.4666 3.87524 21.1546 3.87524 20.7703V13.0554C3.87524 11.7479 4.93491 10.6882 6.24242 10.6882H19.429C19.8133 10.6882 20.1252 11.0001 20.1252 11.3845V19.0994C20.1252 20.4069 19.0656 21.4666 17.7581 21.4666Z" fill="#BECBDD"/>
<path fill-rule="evenodd" clip-rule="evenodd" d="M12.6974 16.0989C13.3207 15.8291 13.7569 15.2085 13.7569 14.4861C13.7569 13.5159 12.9704 12.7295 12.0003 12.7295C11.0302 12.7295 10.2437 13.5159 10.2437 14.4861C10.2437 15.2087 10.68 15.8293 11.3035 16.099V17.8539C11.3035 18.0384 11.3773 18.2159 11.5082 18.3468L12.3409 19.1788C12.4725 19.3104 12.6974 19.2171 12.6974 19.0312V16.0989Z" fill="#9BABC0"/>
</svg>
