<svg width="20" height="20" viewBox="0 0 20 20" fill="none" xmlns="http://www.w3.org/2000/svg">
<path d="M5.87524 2.5C4.83971 2.5 4.00024 3.33947 4.00024 4.375V15.625C4.00024 16.6605 4.83971 17.5 5.87524 17.5H14.1252C15.1608 17.5 16.0002 16.6605 16.0002 15.625L16.0002 6.25L12.2502 2.5H5.87524Z" fill="#BECBDD"/>
<path d="M12.2202 9.77365C12.9343 9.77365 13.5132 9.19472 13.5132 8.48057C13.5132 7.76643 12.9343 7.1875 12.2202 7.1875C11.506 7.1875 10.9271 7.76643 10.9271 8.48057C10.9271 8.50339 10.9277 8.52607 10.9289 8.54859L8.65744 9.98715C8.42698 9.77443 8.11898 9.64447 7.78062 9.64447C7.06648 9.64447 6.48755 10.2234 6.48755 10.9375C6.48755 11.6517 7.06648 12.2306 7.78062 12.2306C8.11905 12.2306 8.42711 12.1006 8.65759 11.8878L10.9289 13.3263C10.9277 13.3488 10.9271 13.3715 10.9271 13.3944C10.9271 14.1085 11.506 14.6874 12.2202 14.6874C12.9343 14.6874 13.5132 14.1085 13.5132 13.3944C13.5132 12.6802 12.9343 12.1013 12.2202 12.1013C11.8941 12.1013 11.5962 12.222 11.3687 12.4212L9.07336 10.9674C9.07358 10.9575 9.0737 10.9475 9.0737 10.9375C9.0737 10.9275 9.07358 10.9174 9.07335 10.9074L11.3687 9.45373C11.5961 9.65292 11.8941 9.77365 12.2202 9.77365Z" fill="#9BABC0"/>
<path d="M12.2502 2.5V5.41722C12.2502 5.63808 12.338 5.84991 12.4942 6.00609C12.6504 6.16226 12.8622 6.25 13.0831 6.25H16.0002L12.2502 2.5Z" fill="#9BABC0"/>
</svg>
