<svg width="40" height="40" viewBox="0 0 40 40" fill="none" xmlns="http://www.w3.org/2000/svg">
<rect width="40" height="40" rx="14" fill="#E4EBF2"/>
<path d="M26.5828 15.6665C27.135 15.6667 27.5828 16.1143 27.5828 16.6665V28.937C27.5828 29.4398 27.3543 29.9223 26.9481 30.2778C26.5417 30.6334 25.9905 30.8335 25.4158 30.8335H14.5828C14.0082 30.8335 13.4569 30.6333 13.0506 30.2778C12.6443 29.9223 12.4158 29.4398 12.4158 28.937V16.6665C12.4158 16.1142 12.8635 15.6665 13.4158 15.6665H26.5828ZM17.8328 18.9604C17.2586 18.9606 16.7928 19.4262 16.7928 20.0005V26.5005C16.7929 27.0747 17.2587 27.5403 17.8328 27.5405C18.4071 27.5405 18.8728 27.0748 18.8729 26.5005V20.0005C18.8729 19.4261 18.4072 18.9604 17.8328 18.9604ZM22.1658 18.9604C21.5916 18.9606 21.1258 19.4262 21.1258 20.0005V26.5005C21.1259 27.0747 21.5916 27.5404 22.1658 27.5405C22.7401 27.5405 23.2058 27.0748 23.2059 26.5005V20.0005C23.2059 19.4261 22.7402 18.9604 22.1658 18.9604Z" fill="#BECBDD"/>
<path fill-rule="evenodd" clip-rule="evenodd" d="M22.1673 18.9602C22.7417 18.9602 23.2073 19.4258 23.2073 20.0002V26.5002C23.2073 27.0746 22.7417 27.5402 22.1673 27.5402C21.593 27.5402 21.1273 27.0746 21.1273 26.5002V20.0002C21.1273 19.4258 21.593 18.9602 22.1673 18.9602Z" fill="#9BABC0"/>
<path fill-rule="evenodd" clip-rule="evenodd" d="M17.8332 18.9602C18.4075 18.9602 18.8732 19.4258 18.8732 20.0002V26.5002C18.8732 27.0746 18.4075 27.5402 17.8332 27.5402C17.2588 27.5402 16.7932 27.0746 16.7932 26.5002V20.0002C16.7932 19.4258 17.2588 18.9602 17.8332 18.9602Z" fill="#9BABC0"/>
<path d="M16.1 9.30005C16.1 8.74776 16.5477 8.30005 17.1 8.30005H22.9C23.4523 8.30005 23.9 8.74776 23.9 9.30005V12.2H16.1V9.30005Z" fill="#BECBDD"/>
<rect x="9.16708" y="11.3335" width="21.6667" height="2.16667" rx="1" fill="#BECBDD"/>
</svg>
