<svg width="48" height="48" viewBox="0 0 48 48" fill="none" xmlns="http://www.w3.org/2000/svg">
<path d="M14.1006 6C11.6153 6 9.60059 8.01472 9.60059 10.5V37.5C9.60059 39.9853 11.6153 42 14.1006 42H33.9006C36.3859 42 38.4006 39.9853 38.4006 37.5V15L29.4006 6H14.1006Z" fill="#BECBDD"/>
<path d="M29.4006 6V13.0013C29.4006 13.5314 29.6114 14.0398 29.9862 14.4146C30.361 14.7894 30.8694 15 31.3995 15H38.4005L29.4006 6Z" fill="#9BABC0"/>
<rect x="15" y="18" width="18" height="3.84" rx="1.92" fill="#9BABC0"/>
<rect x="15" y="24.8398" width="18" height="3.84" rx="1.92" fill="#9BABC0"/>
<rect x="15" y="31.6799" width="18" height="3.84" rx="1.92" fill="#9BABC0"/>
</svg>
