<svg width="40" height="40" viewBox="0 0 40 40" fill="none" xmlns="http://www.w3.org/2000/svg">
<rect width="40" height="40" rx="14" fill="#E4EAF9"/>
<path fill-rule="evenodd" clip-rule="evenodd" d="M13.4004 8C11.7435 8 10.4004 9.34315 10.4004 11V29C10.4004 30.6569 11.7435 32 13.4004 32H26.6004C28.2572 32 29.6004 30.6569 29.6004 29L29.6004 14L23.6004 8H13.4004Z" fill="#5E92F5"/>
<path fill-rule="evenodd" clip-rule="evenodd" d="M25.1687 19.7508C25.7804 19.7508 26.2764 19.2549 26.2764 18.6431C26.2764 18.0314 25.7804 17.5354 25.1687 17.5354H17.5043L17.8287 17.211C18.2613 16.7784 18.2613 16.0771 17.8287 15.6445C17.3962 15.2119 16.6948 15.2119 16.2622 15.6445L14.0468 17.8599C13.9169 17.9898 13.826 18.144 13.7741 18.3079C13.7555 18.3665 13.7417 18.4271 13.733 18.4895C13.7185 18.5938 13.7189 18.6999 13.7341 18.8042C13.7674 19.0319 13.8716 19.2512 14.0468 19.4264L16.2622 21.6418C16.6948 22.0744 17.3962 22.0744 17.8287 21.6418C18.2613 21.2092 18.2613 20.5079 17.8287 20.0753L17.5043 19.7508H25.1687Z" fill="#3E6AC8"/>
<path fill-rule="evenodd" clip-rule="evenodd" d="M14.8303 23.8124C14.2186 23.8124 13.7227 24.3083 13.7227 24.9201C13.7227 25.5319 14.2186 26.0278 14.8303 26.0278L22.4947 26.0278L22.1703 26.3522C21.7377 26.7848 21.7377 27.4861 22.1703 27.9187C22.6029 28.3513 23.3042 28.3513 23.7368 27.9187L25.9522 25.7033C26.083 25.5725 26.1742 25.4172 26.2259 25.2521C26.244 25.1945 26.2575 25.1349 26.266 25.0738C26.2805 24.9696 26.2802 24.8638 26.265 24.7597C26.2318 24.5318 26.1276 24.3122 25.9522 24.1368L23.7368 21.9214C23.3042 21.4889 22.6029 21.4889 22.1703 21.9214C21.7377 22.354 21.7377 23.0554 22.1703 23.488L22.4947 23.8124L14.8303 23.8124Z" fill="#3E6AC8"/>
<path d="M23.6004 8V12.6676C23.6004 13.0209 23.7409 13.3599 23.9907 13.6097C24.2406 13.8596 24.5796 14 24.9329 14H29.6003L23.6004 8Z" fill="#3E6AC8"/>
</svg>
