<svg width="32" height="32" viewBox="0 0 32 32" fill="none" xmlns="http://www.w3.org/2000/svg">
<path d="M12.3096 9.51301C12.3096 7.44846 14.014 5.77472 16.0887 5.82392C18.1032 5.87126 19.6906 7.56728 19.6906 9.58263V10.8823C19.6906 11.4411 19.9867 11.9591 20.4685 12.2422L22.2871 13.3126C22.5349 13.4583 22.8468 13.2801 22.8468 12.9923V9.51301C22.8468 5.73202 19.7816 2.66675 16.0006 2.66675C12.2196 2.66675 9.1543 5.73202 9.1543 9.51301V12.9923C9.1543 13.2791 9.46621 13.4583 9.71407 13.3126L11.5326 12.2422C12.0144 11.9591 12.3105 11.4411 12.3105 10.8823V9.51301H12.3096Z" fill="#9BABC0"/>
<path d="M23.6774 28.6221H6.0953C5.58287 28.6221 5.16699 28.2062 5.16699 27.6938V17.4072C5.16699 15.6639 6.57987 14.251 8.32323 14.251H25.9054C26.4178 14.251 26.8337 14.6669 26.8337 15.1793V25.4658C26.8337 27.2092 25.4208 28.6221 23.6774 28.6221Z" fill="#BECBDD"/>
<path fill-rule="evenodd" clip-rule="evenodd" d="M16.9298 21.4655C17.761 21.1058 18.3425 20.2783 18.3425 19.315C18.3425 18.0215 17.2939 16.9729 16.0004 16.9729C14.7069 16.9729 13.6583 18.0215 13.6583 19.315C13.6583 20.2785 14.24 21.106 15.0714 21.4656V23.8054C15.0714 24.0514 15.1697 24.2881 15.3443 24.4626L16.4545 25.572C16.63 25.7474 16.9298 25.623 16.9298 25.3752V21.4655Z" fill="#9BABC0"/>
</svg>
