<svg width="20" height="20" viewBox="0 0 20 20" fill="none" xmlns="http://www.w3.org/2000/svg">
<path d="M5.87524 2.5C4.83971 2.5 4.00024 3.33947 4.00024 4.375V15.625C4.00024 16.6605 4.83971 17.5 5.87524 17.5H14.1252C15.1608 17.5 16.0002 16.6605 16.0002 15.625L16.0002 6.25L12.2502 2.5H5.87524Z" fill="#BECBDD"/>
<path d="M13.2304 9.84417C13.6127 9.84417 13.9227 9.53422 13.9227 9.15187C13.9227 8.76951 13.6127 8.45956 13.2304 8.45956H8.44017L8.64294 8.25679C8.9133 7.98643 8.9133 7.54809 8.64294 7.27772C8.37257 7.00736 7.93423 7.00736 7.66386 7.27772L6.27925 8.66234C6.19804 8.74355 6.14122 8.83992 6.1088 8.94234C6.09719 8.97895 6.08854 9.01687 6.08313 9.05583C6.07404 9.12106 6.07426 9.18735 6.08379 9.25254C6.10459 9.39484 6.16974 9.5319 6.27925 9.64141L7.66386 11.026C7.93423 11.2964 8.37257 11.2964 8.64294 11.026C8.9133 10.7557 8.9133 10.3173 8.64294 10.047L8.44015 9.84417H13.2304Z" fill="#9BABC0"/>
<path d="M6.76897 12.3827C6.38662 12.3827 6.07666 12.6926 6.07666 13.075C6.07666 13.4573 6.38662 13.7673 6.76897 13.7673L11.5592 13.7673L11.3564 13.97C11.0861 14.2404 11.0861 14.6788 11.3564 14.9491C11.6268 15.2195 12.0651 15.2195 12.3355 14.9491L13.7201 13.5645C13.8019 13.4828 13.8589 13.3856 13.8912 13.2825C13.9025 13.2465 13.9109 13.2093 13.9162 13.171C13.9253 13.1059 13.9251 13.0398 13.9156 12.9747C13.8949 12.8323 13.8297 12.695 13.7201 12.5854L12.3355 11.2008C12.0651 10.9305 11.6268 10.9305 11.3564 11.2008C11.0861 11.4712 11.0861 11.9095 11.3564 12.1799L11.5592 12.3827L6.76897 12.3827Z" fill="#9BABC0"/>
<path d="M12.2502 2.5V5.41722C12.2502 5.63808 12.338 5.84991 12.4942 6.00609C12.6504 6.16226 12.8622 6.25 13.0831 6.25H16.0002L12.2502 2.5Z" fill="#9BABC0"/>
</svg>
