<svg width="32" height="32" viewBox="0 0 32 32" fill="none" xmlns="http://www.w3.org/2000/svg">
<rect width="32" height="32" rx="11.2" fill="#E4EAF9"/>
<path d="M21.2803 6.4001C22.6057 6.40018 23.6803 7.47467 23.6803 8.8001V23.2001C23.6803 24.5255 22.6057 25.6 21.2803 25.6001H10.7203C9.39482 25.6001 8.32031 24.5256 8.32031 23.2001V8.8001C8.32031 7.47461 9.39482 6.4001 10.7203 6.4001H21.2803Z" fill="#5E92F5"/>
<path d="M11.2 13.7063C11.2 13.2058 11.6057 12.8001 12.1062 12.8001H19.8937C20.3943 12.8001 20.8 13.2058 20.8 13.7063C20.8 14.2069 20.3943 14.6126 19.8937 14.6126H12.1062C11.6057 14.6126 11.2 14.2069 11.2 13.7063Z" fill="#3E6AC8"/>
<path d="M11.2 17.3532C11.2 16.8527 11.6057 16.447 12.1062 16.447H19.8937C20.3943 16.447 20.8 16.8527 20.8 17.3532C20.8 17.8537 20.3943 18.2595 19.8937 18.2595H12.1062C11.6057 18.2595 11.2 17.8537 11.2 17.3532Z" fill="#3E6AC8"/>
<path d="M11.2 21.0001C11.2 20.4996 11.6057 20.0938 12.1062 20.0938H19.8937C20.3943 20.0938 20.8 20.4996 20.8 21.0001C20.8 21.5006 20.3943 21.9063 19.8937 21.9063H12.1062C11.6057 21.9063 11.2 21.5006 11.2 21.0001Z" fill="#3E6AC8"/>
<path d="M12 6.4001C12 5.95827 12.3582 5.6001 12.8 5.6001H19.2C19.6418 5.6001 20 5.95827 20 6.4001V7.70322C20 8.14505 19.6418 8.50322 19.2 8.50322H12.8C12.3582 8.50322 12 8.14505 12 7.70322V6.4001Z" fill="#3E6AC8"/>
<path d="M27.6212 19.0201C27.6212 21.6991 25.4494 23.8709 22.7704 23.8709C20.0914 23.8709 17.9197 21.6991 17.9197 19.0201C17.9197 16.3411 20.0914 14.1693 22.7704 14.1693C25.4494 14.1693 27.6212 16.3411 27.6212 19.0201Z" fill="#3E6AC8"/>
<path d="M24.8703 17.1626C25.112 16.9048 25.5171 16.8914 25.775 17.1329C26.0328 17.3746 26.0462 17.7797 25.8047 18.0376L23.2516 20.761C22.8092 21.2329 22.0605 21.2328 21.618 20.761L20.3336 19.3923C20.0918 19.1345 20.1047 18.7294 20.3625 18.4876C20.6203 18.2459 21.0246 18.2588 21.2664 18.5165L22.4344 19.7603L24.8703 17.1626Z" fill="#E4EAF9"/>
</svg>
