<svg width="48" height="48" viewBox="0 0 48 48" fill="none" xmlns="http://www.w3.org/2000/svg">
<path d="M14.1006 6C11.6153 6 9.60059 8.01472 9.60059 10.5V37.5C9.60059 39.9853 11.6153 42 14.1006 42H33.9006C36.3859 42 38.4006 39.9853 38.4006 37.5L38.4006 15L29.4006 6H14.1006Z" fill="#BECBDD"/>
<path d="M29.3284 23.4568C31.0423 23.4568 32.4317 22.0673 32.4317 20.3534C32.4317 18.6394 31.0423 17.25 29.3284 17.25C27.6144 17.25 26.225 18.6394 26.225 20.3534C26.225 20.4081 26.2264 20.4626 26.2292 20.5166L20.7778 23.9692C20.2247 23.4586 19.4855 23.1467 18.6734 23.1467C16.9595 23.1467 15.5701 24.5362 15.5701 26.2501C15.5701 27.9641 16.9595 29.3535 18.6734 29.3535C19.4857 29.3535 20.225 29.0415 20.7782 28.5307L26.2292 31.9831C26.2264 32.0372 26.225 32.0917 26.225 32.1465C26.225 33.8604 27.6144 35.2498 29.3284 35.2498C31.0423 35.2498 32.4317 33.8604 32.4317 32.1465C32.4317 30.4325 31.0423 29.0431 29.3284 29.0431C28.5457 29.0431 27.8308 29.3328 27.2849 29.8108L21.776 26.3219C21.7766 26.298 21.7768 26.2741 21.7768 26.2501C21.7768 26.2259 21.7765 26.2019 21.776 26.1778L27.2848 22.689C27.8307 23.167 28.5457 23.4568 29.3284 23.4568Z" fill="#9BABC0"/>
<path d="M29.4006 6V13.0013C29.4006 13.5314 29.6114 14.0398 29.9862 14.4146C30.361 14.7894 30.8694 15 31.3995 15H38.4005L29.4006 6Z" fill="#9BABC0"/>
</svg>
