<svg width="40" height="40" viewBox="0 0 40 40" fill="none" xmlns="http://www.w3.org/2000/svg">
<rect width="40" height="40" rx="14" fill="#E4EAF9"/>
<path d="M12 9.5C12 8.11929 13.1193 7 14.5 7H26.1667C27.5474 7 28.6667 8.11929 28.6667 9.5V31.1667C28.6667 32.5474 27.5474 33.6667 26.1667 33.6667H14.5C13.1193 33.6667 12 32.5474 12 31.1667V9.5Z" fill="#5E92F5"/>
<path fill-rule="evenodd" clip-rule="evenodd" d="M26.1667 9H14.5C14.2239 9 14 9.22386 14 9.5V31.1667C14 31.4428 14.2239 31.6667 14.5 31.6667H26.1667C26.4428 31.6667 26.6667 31.4428 26.6667 31.1667V9.5C26.6667 9.22386 26.4428 9 26.1667 9ZM14.5 7C13.1193 7 12 8.11929 12 9.5V31.1667C12 32.5474 13.1193 33.6667 14.5 33.6667H26.1667C27.5474 33.6667 28.6667 32.5474 28.6667 31.1667V9.5C28.6667 8.11929 27.5474 7 26.1667 7H14.5Z" fill="#3E6AC8"/>
<path fill-rule="evenodd" clip-rule="evenodd" d="M17.666 11.5835C17.666 11.0312 18.1137 10.5835 18.666 10.5835H21.9993C22.5516 10.5835 22.9993 11.0312 22.9993 11.5835C22.9993 12.1358 22.5516 12.5835 21.9993 12.5835H18.666C18.1137 12.5835 17.666 12.1358 17.666 11.5835Z" fill="#3E6AC8"/>
</svg>
