<svg width="40" height="40" viewBox="0 0 40 40" fill="none" xmlns="http://www.w3.org/2000/svg">
<path d="M11.7505 5C9.67942 5 8.00049 6.67893 8.00049 8.75V31.25C8.00049 33.3211 9.67942 35 11.7505 35H28.2505C30.3216 35 32.0005 33.3211 32.0005 31.25V12.5L24.5005 5H11.7505Z" fill="#BECBDD"/>
<path d="M24.5005 5V10.8344C24.5005 11.2762 24.6761 11.6998 24.9884 12.0122C25.3008 12.3245 25.7244 12.5 26.1662 12.5H32.0004L24.5005 5Z" fill="#9BABC0"/>
<rect x="12.5" y="15" width="15" height="3.2" rx="1.6" fill="#9BABC0"/>
<rect x="12.5" y="20.7" width="15" height="3.2" rx="1.6" fill="#9BABC0"/>
<rect x="12.5" y="26.3999" width="15" height="3.2" rx="1.6" fill="#9BABC0"/>
</svg>
