<svg width="40" height="40" viewBox="0 0 40 40" fill="none" xmlns="http://www.w3.org/2000/svg">
<rect width="40" height="40" rx="14" fill="#E4EAF9"/>
<circle cx="27.5" cy="18.75" r="3.75" fill="#3E6AC8"/>
<path d="M12.5 21.25H17.5V28.75C17.5 30.1307 16.3807 31.25 15 31.25C13.6193 31.25 12.5 30.1307 12.5 28.75V21.25Z" fill="#3E6AC8"/>
<path fill-rule="evenodd" clip-rule="evenodd" d="M26.25 8.75C27.5 8.75 27.5 9.375 27.5 11.25V26.2499C27.5 28.1249 27.5 28.7499 26.25 28.7499V28.75L17.5 23.75H13.75C10.9886 23.75 8.75 21.5114 8.75 18.75C8.75 15.9886 10.9886 13.75 13.75 13.75H17.5L26.25 8.75ZM12.25 18.5C12.9404 18.5 13.5 17.9404 13.5 17.25C13.5 16.5596 12.9404 16 12.25 16C11.5596 16 11 16.5596 11 17.25C11 17.9404 11.5596 18.5 12.25 18.5Z" fill="#5E92F5"/>
</svg>
