<svg width="32" height="32" viewBox="0 0 32 32" fill="none" xmlns="http://www.w3.org/2000/svg">
<path d="M0 12C0 5.37258 5.37258 0 12 0H20C26.6274 0 32 5.37258 32 12V20C32 26.6274 26.6274 32 20 32H12C5.37258 32 0 26.6274 0 20V12Z" fill="#E4EBF2"/>
<path d="M13.2322 11.1347C13.2322 9.58628 14.5105 8.33098 16.0666 8.36788C17.5774 8.40339 18.7679 9.6754 18.7679 11.1869V12.1616C18.7679 12.5808 18.99 12.9693 19.3514 13.1816L20.7153 13.9844C20.9012 14.0937 21.1351 13.96 21.1351 13.7442V11.1347C21.1351 8.29895 18.8362 6 16.0004 6C13.1647 6 10.8657 8.29895 10.8657 11.1347V13.7442C10.8657 13.9593 11.0997 14.0937 11.2855 13.9844L12.6495 13.1816C13.0108 12.9693 13.2329 12.5808 13.2329 12.1616V11.1347H13.2322Z" fill="#9BABC0"/>
<path d="M21.7581 25.4666H8.57147C8.18716 25.4666 7.87524 25.1546 7.87524 24.7703V17.0554C7.87524 15.7479 8.93491 14.6882 10.2424 14.6882H23.429C23.8133 14.6882 24.1252 15.0001 24.1252 15.3845V23.0994C24.1252 24.4069 23.0656 25.4666 21.7581 25.4666Z" fill="#BECBDD"/>
<path fill-rule="evenodd" clip-rule="evenodd" d="M16.6974 20.0989C17.3207 19.8291 17.7569 19.2085 17.7569 18.4861C17.7569 17.5159 16.9704 16.7295 16.0003 16.7295C15.0302 16.7295 14.2437 17.5159 14.2437 18.4861C14.2437 19.2087 14.68 19.8293 15.3035 20.099V21.8539C15.3035 22.0384 15.3773 22.2159 15.5082 22.3468L16.3409 23.1788C16.4725 23.3104 16.6974 23.2171 16.6974 23.0312V20.0989Z" fill="#9BABC0"/>
</svg>
