<svg width="32" height="32" viewBox="0 0 32 32" fill="none" xmlns="http://www.w3.org/2000/svg">
<path d="M0 12C0 5.37258 5.37258 0 12 0H20C26.6274 0 32 5.37258 32 12V20C32 26.6274 26.6274 32 20 32H12C5.37258 32 0 26.6274 0 20V12Z" fill="#E4EBF2"/>
<path d="M11.0503 7C9.80765 7 8.80029 8.00736 8.80029 9.25V22.75C8.80029 23.9926 9.80765 25 11.0503 25H20.9503C22.1929 25 23.2003 23.9926 23.2003 22.75V11.5L18.7003 7H11.0503Z" fill="#BECBDD"/>
<path d="M18.7003 7V10.5007C18.7003 10.7657 18.8056 11.0199 18.9931 11.2073C19.1805 11.3947 19.4347 11.5 19.6997 11.5H23.2002L18.7003 7Z" fill="#9BABC0"/>
<rect x="11.5" y="13" width="9" height="1.92" rx="0.96" fill="#9BABC0"/>
<rect x="11.5" y="16.4199" width="9" height="1.92" rx="0.96" fill="#9BABC0"/>
<rect x="11.5" y="19.8398" width="9" height="1.92" rx="0.96" fill="#9BABC0"/>
</svg>
