<svg width="32" height="32" viewBox="0 0 32 32" fill="none" xmlns="http://www.w3.org/2000/svg">
<path d="M9.40039 4C7.74354 4 6.40039 5.34315 6.40039 7V25C6.40039 26.6569 7.74353 28 9.40039 28H22.6004C24.2572 28 25.6004 26.6569 25.6004 25L25.6004 10L19.6004 4H9.40039Z" fill="#BECBDD"/>
<path d="M19.5522 15.6378C20.6948 15.6378 21.6211 14.7116 21.6211 13.5689C21.6211 12.4263 20.6948 11.5 19.5522 11.5C18.4096 11.5 17.4833 12.4263 17.4833 13.5689C17.4833 13.6054 17.4842 13.6417 17.4861 13.6777L13.8518 15.9794C13.4831 15.6391 12.9903 15.4312 12.4489 15.4312C11.3063 15.4312 10.38 16.3574 10.38 17.5001C10.38 18.6427 11.3063 19.569 12.4489 19.569C12.9904 19.569 13.4833 19.361 13.8521 19.0205L17.4861 21.322C17.4842 21.3581 17.4833 21.3944 17.4833 21.431C17.4833 22.5736 18.4096 23.4999 19.5522 23.4999C20.6948 23.4999 21.6211 22.5736 21.6211 21.431C21.6211 20.2883 20.6948 19.3621 19.5522 19.3621C19.0304 19.3621 18.5538 19.5552 18.1899 19.8739L14.5173 17.5479C14.5177 17.532 14.5178 17.5161 14.5178 17.5001C14.5178 17.484 14.5177 17.4679 14.5173 17.4519L18.1898 15.126C18.5537 15.4447 19.0304 15.6378 19.5522 15.6378Z" fill="#9BABC0"/>
<path d="M19.6003 4V8.66755C19.6003 9.02094 19.7408 9.35986 19.9907 9.60974C20.2406 9.85962 20.5795 10 20.9329 10H25.6002L19.6003 4Z" fill="#9BABC0"/>
</svg>
