<svg width="32" height="32" viewBox="0 0 32 32" fill="none" xmlns="http://www.w3.org/2000/svg">
<rect width="32" height="32" rx="11.2" fill="#E4EBF2"/>
<path d="M16 7.19995C11.1399 7.19995 7.2 11.1398 7.2 16C7.2 18.107 7.94143 20.0421 9.17612 21.5568L7.49163 23.1777C7.21446 23.4444 7.12709 23.8527 7.27087 24.2095C7.41464 24.5663 7.76073 24.8 8.14539 24.8H16C20.8601 24.8 24.8 20.8601 24.8 16C24.8 11.1398 20.8601 7.19995 16 7.19995Z" fill="#BECBDD"/>
<path fill-rule="evenodd" clip-rule="evenodd" d="M13.1999 16.1116C13.1999 16.7921 12.6483 17.3436 11.9679 17.3436C11.2875 17.3436 10.7359 16.7921 10.7359 16.1116C10.7359 15.4312 11.2875 14.8796 11.9679 14.8796C12.6483 14.8796 13.1999 15.4312 13.1999 16.1116ZM17.157 16.1117C17.157 16.7921 16.6054 17.3437 15.925 17.3437C15.2446 17.3437 14.693 16.7921 14.693 16.1117C14.693 15.4313 15.2446 14.8797 15.925 14.8797C16.6054 14.8797 17.157 15.4313 17.157 16.1117ZM20.032 17.3437C20.7124 17.3437 21.264 16.7921 21.264 16.1117C21.264 15.4313 20.7124 14.8797 20.032 14.8797C19.3515 14.8797 18.8 15.4313 18.8 16.1117C18.8 16.7921 19.3515 17.3437 20.032 17.3437Z" fill="#9BABC0"/>
</svg>
