<svg width="48" height="48" viewBox="0 0 48 48" fill="none" xmlns="http://www.w3.org/2000/svg">
<path d="M14.1006 6C11.6153 6 9.60059 8.01472 9.60059 10.5V37.5C9.60059 39.9853 11.6153 42 14.1006 42H33.9006C36.3859 42 38.4006 39.9853 38.4006 37.5L38.4006 15L29.4006 6H14.1006Z" fill="#5E92F5"/>
<path d="M31.753 23.6261C32.6707 23.6261 33.4146 22.8822 33.4146 21.9646C33.4146 21.0469 32.6707 20.303 31.753 20.303H20.2565L20.7431 19.8164C21.392 19.1675 21.392 18.1155 20.7431 17.4666C20.0942 16.8178 19.0422 16.8178 18.3933 17.4666L15.0703 20.7897C14.8754 20.9846 14.739 21.2159 14.6612 21.4617C14.6333 21.5496 14.6126 21.6406 14.5996 21.7341C14.5778 21.8906 14.5783 22.0497 14.6012 22.2062C14.6511 22.5477 14.8075 22.8767 15.0703 23.1395L18.3933 26.4626C19.0422 27.1114 20.0942 27.1114 20.7431 26.4626C21.392 25.8137 21.392 24.7617 20.7431 24.1128L20.2564 23.6261H31.753Z" fill="#3E6AC8"/>
<path d="M16.2455 29.7186C15.3279 29.7186 14.584 30.4625 14.584 31.3801C14.584 32.2978 15.3279 33.0417 16.2455 33.0417L27.7421 33.0417L27.2554 33.5283C26.6066 34.1772 26.6066 35.2292 27.2554 35.8781C27.9043 36.527 28.9563 36.527 29.6052 35.8781L32.9283 32.555C33.1245 32.3588 33.2614 32.1258 33.3389 31.8781C33.366 31.7918 33.3862 31.7024 33.399 31.6106C33.4207 31.4544 33.4202 31.2956 33.3975 31.1395C33.3478 30.7976 33.1913 30.4683 32.9283 30.2052L29.6052 26.8822C28.9563 26.2333 27.9043 26.2333 27.2554 26.8822C26.6066 27.531 26.6066 28.5831 27.2554 29.2319L27.7421 29.7186L16.2455 29.7186Z" fill="#3E6AC8"/>
<path d="M29.4006 6V13.0013C29.4006 13.5314 29.6113 14.0398 29.9861 14.4146C30.3609 14.7894 30.8693 15 31.3994 15H38.4004L29.4006 6Z" fill="#3E6AC8"/>
</svg>
