<svg width="32" height="32" viewBox="0 0 32 32" fill="none" xmlns="http://www.w3.org/2000/svg">
<path d="M0 12C0 5.37258 5.37258 0 12 0H20C26.6274 0 32 5.37258 32 12V20C32 26.6274 26.6274 32 20 32H12C5.37258 32 0 26.6274 0 20V12Z" fill="#E4EBF2"/>
<path d="M11.0503 7C9.80765 7 8.80029 8.00736 8.80029 9.25V22.75C8.80029 23.9926 9.80765 25 11.0503 25H20.9503C22.1929 25 23.2003 23.9926 23.2003 22.75L23.2003 11.5L18.7003 7H11.0503Z" fill="#BECBDD"/>
<path d="M19.8765 15.8131C20.3353 15.8131 20.7073 15.4411 20.7073 14.9823C20.7073 14.5235 20.3353 14.1515 19.8765 14.1515H14.1282L14.3715 13.9082C14.696 13.5838 14.696 13.0578 14.3715 12.7333C14.0471 12.4089 13.5211 12.4089 13.1967 12.7333L11.5351 14.3949C11.4377 14.4923 11.3695 14.608 11.3306 14.7309C11.3166 14.7748 11.3063 14.8203 11.2998 14.867C11.2889 14.9453 11.2891 15.0249 11.3006 15.1031C11.3255 15.2739 11.4037 15.4383 11.5351 15.5697L13.1967 17.2313C13.5211 17.5557 14.0471 17.5557 14.3715 17.2313C14.696 16.9068 14.696 16.3808 14.3715 16.0564L14.1282 15.8131H19.8765Z" fill="#9BABC0"/>
<path d="M12.1228 18.8593C11.6639 18.8593 11.292 19.2313 11.292 19.6901C11.292 20.1489 11.6639 20.5208 12.1228 20.5208L17.871 20.5208L17.6277 20.7642C17.3033 21.0886 17.3033 21.6146 17.6277 21.939C17.9522 22.2635 18.4782 22.2635 18.8026 21.939L20.4641 20.2775C20.5622 20.1794 20.6307 20.0629 20.6695 19.9391C20.683 19.8959 20.6931 19.8512 20.6995 19.8053C20.7104 19.7272 20.7101 19.6478 20.6988 19.5698C20.6739 19.3988 20.5957 19.2342 20.4641 19.1026L18.8026 17.4411C18.4782 17.1166 17.9522 17.1166 17.6277 17.4411C17.3033 17.7655 17.3033 18.2915 17.6277 18.616L17.8711 18.8593L12.1228 18.8593Z" fill="#9BABC0"/>
<path d="M18.7003 7V10.5007C18.7003 10.7657 18.8056 11.0199 18.9931 11.2073C19.1805 11.3947 19.4347 11.5 19.6997 11.5H23.2002L18.7003 7Z" fill="#9BABC0"/>
</svg>
