<svg width="32" height="32" viewBox="0 0 32 32" fill="none" xmlns="http://www.w3.org/2000/svg">
<path d="M9.40039 4C7.74354 4 6.40039 5.34315 6.40039 7V25C6.40039 26.6569 7.74353 28 9.40039 28H22.6004C24.2572 28 25.6004 26.6569 25.6004 25L25.6004 10L19.6004 4H9.40039Z" fill="#5E92F5"/>
<path d="M21.1687 15.7508C21.7804 15.7508 22.2764 15.2549 22.2764 14.6431C22.2764 14.0314 21.7804 13.5354 21.1687 13.5354H13.5043L13.8287 13.211C14.2613 12.7784 14.2613 12.0771 13.8287 11.6445C13.3962 11.2119 12.6948 11.2119 12.2622 11.6445L10.0468 13.8599C9.91691 13.9898 9.826 14.144 9.77412 14.3079C9.75555 14.3665 9.74171 14.4271 9.73306 14.4895C9.71852 14.5938 9.71887 14.6999 9.73411 14.8042C9.76739 15.0319 9.87163 15.2512 10.0468 15.4264L12.2622 17.6418C12.6948 18.0744 13.3962 18.0744 13.8287 17.6418C14.2613 17.2092 14.2613 16.5079 13.8287 16.0753L13.5043 15.7508H21.1687Z" fill="#3E6AC8"/>
<path d="M10.8303 19.8123C10.2186 19.8123 9.72266 20.3083 9.72266 20.92C9.72266 21.5318 10.2186 22.0277 10.8303 22.0277L18.4947 22.0277L18.1703 22.3521C17.7377 22.7847 17.7377 23.4861 18.1703 23.9186C18.6029 24.3512 19.3042 24.3512 19.7368 23.9186L21.9522 21.7033C22.083 21.5725 22.1742 21.4171 22.2259 21.252C22.244 21.1944 22.2575 21.1349 22.266 21.0737C22.2805 20.9695 22.2802 20.8637 22.265 20.7596C22.2318 20.5317 22.1276 20.3121 21.9522 20.1367L19.7368 17.9214C19.3042 17.4888 18.6029 17.4888 18.1703 17.9214C17.7377 18.3539 17.7377 19.0553 18.1703 19.4879L18.4947 19.8123L10.8303 19.8123Z" fill="#3E6AC8"/>
<path d="M19.6004 4V8.66755C19.6004 9.02094 19.7409 9.35986 19.9908 9.60974C20.2406 9.85962 20.5796 10 20.9329 10H25.6003L19.6004 4Z" fill="#3E6AC8"/>
</svg>
