<svg width="20" height="20" viewBox="0 0 20 20" fill="none" xmlns="http://www.w3.org/2000/svg">
<path d="M7.69351 5.94566C7.69351 4.65532 8.75874 3.60923 10.0555 3.63998C11.3145 3.66957 12.3066 4.72958 12.3066 5.98918V6.80144C12.3066 7.15072 12.4917 7.47447 12.7928 7.65142L13.9294 8.32039C14.0843 8.41148 14.2793 8.30008 14.2793 8.12022V5.94566C14.2793 3.58254 12.3635 1.66675 10.0003 1.66675C7.63723 1.66675 5.72144 3.58254 5.72144 5.94566V8.12022C5.72144 8.2995 5.91638 8.41148 6.07129 8.32039L7.20789 7.65142C7.50901 7.47447 7.69409 7.15072 7.69409 6.80144V5.94566H7.69351Z" fill="#3E6AC8"/>
<path d="M14.7984 17.8889H3.80956C3.4893 17.8889 3.22937 17.629 3.22937 17.3087V10.8796C3.22937 9.79003 4.11242 8.90698 5.20202 8.90698H16.1908C16.5111 8.90698 16.771 9.16691 16.771 9.48717V15.9163C16.771 17.0059 15.888 17.8889 14.7984 17.8889Z" fill="#5E92F5"/>
<path fill-rule="evenodd" clip-rule="evenodd" d="M10.5812 13.416C11.1006 13.1912 11.4641 12.674 11.4641 12.072C11.4641 11.2635 10.8087 10.6082 10.0003 10.6082C9.19181 10.6082 8.53644 11.2635 8.53644 12.072C8.53644 12.6741 8.90001 13.1914 9.41962 13.4161V14.8785C9.41962 15.0322 9.48112 15.1802 9.59019 15.2892L10.2841 15.9826C10.3938 16.0922 10.5812 16.0145 10.5812 15.8596V13.416Z" fill="#3E6AC8"/>
</svg>
