<svg width="24" height="24" viewBox="0 0 24 24" fill="none" xmlns="http://www.w3.org/2000/svg">
<path d="M7.05029 3C5.80765 3 4.80029 4.00736 4.80029 5.25V18.75C4.80029 19.9926 5.80765 21 7.05029 21H16.9503C18.1929 21 19.2003 19.9926 19.2003 18.75L19.2003 7.5L14.7003 3H7.05029Z" fill="#5E92F5"/>
<path d="M14.6642 11.7284C15.5212 11.7284 16.2159 11.0337 16.2159 10.1767C16.2159 9.31971 15.5212 8.625 14.6642 8.625C13.8072 8.625 13.1125 9.31971 13.1125 10.1767C13.1125 10.2041 13.1132 10.2313 13.1146 10.2583L10.3889 11.9846C10.1124 11.7293 9.74275 11.5734 9.33672 11.5734C8.47975 11.5734 7.78503 12.2681 7.78503 13.1251C7.78503 13.982 8.47975 14.6767 9.33672 14.6767C9.74284 14.6767 10.1125 14.5207 10.3891 14.2654L13.1146 15.9915C13.1132 16.0186 13.1125 16.0458 13.1125 16.0732C13.1125 16.9302 13.8072 17.6249 14.6642 17.6249C15.5212 17.6249 16.2159 16.9302 16.2159 16.0732C16.2159 15.2163 15.5212 14.5215 14.6642 14.5215C14.2729 14.5215 13.9154 14.6664 13.6424 14.9054L10.888 13.1609C10.8883 13.149 10.8884 13.137 10.8884 13.1251C10.8884 13.113 10.8883 13.1009 10.888 13.0889L13.6424 11.3445C13.9153 11.5835 14.2728 11.7284 14.6642 11.7284Z" fill="#3E6AC8"/>
<path d="M14.7003 3V6.50067C14.7003 6.7657 14.8057 7.0199 14.9931 7.2073C15.1805 7.39471 15.4347 7.5 15.6997 7.5H19.2002L14.7003 3Z" fill="#3E6AC8"/>
</svg>
