<svg width="40" height="40" viewBox="0 0 40 40" fill="none" xmlns="http://www.w3.org/2000/svg">
<rect width="40" height="40" rx="14" fill="#E4EBF2"/>
<path d="M26.6004 8C28.2572 8.0001 29.6004 9.34321 29.6004 11V29C29.6004 30.6568 28.2572 31.9999 26.6004 32H13.4004C11.7435 32 10.4004 30.6569 10.4004 29V11C10.4004 9.34315 11.7435 8 13.4004 8H26.6004Z" fill="#BECBDD"/>
<path d="M14 17.1328C14 16.5072 14.5072 16 15.1328 16H24.8672C25.4928 16 26 16.5072 26 17.1328C26 17.7584 25.4928 18.2656 24.8672 18.2656H15.1328C14.5072 18.2656 14 17.7584 14 17.1328Z" fill="#9BABC0"/>
<path d="M14 21.6914C14 21.0658 14.5072 20.5586 15.1328 20.5586H24.8672C25.4928 20.5586 26 21.0658 26 21.6914C26 22.317 25.4928 22.8242 24.8672 22.8242H15.1328C14.5072 22.8242 14 22.317 14 21.6914Z" fill="#9BABC0"/>
<path d="M14 26.25C14 25.6244 14.5072 25.1172 15.1328 25.1172H24.8672C25.4928 25.1172 26 25.6244 26 26.25C26 26.8756 25.4928 27.3828 24.8672 27.3828H15.1328C14.5072 27.3828 14 26.8756 14 26.25Z" fill="#9BABC0"/>
<path d="M15 8C15 7.44772 15.4477 7 16 7H24C24.5523 7 25 7.44772 25 8V9.62891C25 10.1812 24.5523 10.6289 24 10.6289H16C15.4477 10.6289 15 10.1812 15 9.62891V8Z" fill="#9BABC0"/>
<path d="M34.5265 23.775C34.5265 27.1238 31.8118 29.8385 28.463 29.8385C25.1143 29.8385 22.3996 27.1238 22.3996 23.775C22.3996 20.4263 25.1143 17.7116 28.463 17.7116C31.8118 17.7116 34.5265 20.4263 34.5265 23.775Z" fill="#9BABC0"/>
<path d="M31.0879 21.4531C31.39 21.1309 31.8964 21.1141 32.2188 21.416C32.541 21.7181 32.5577 22.2245 32.2559 22.5469L29.0645 25.9512C28.5115 26.5409 27.5756 26.5408 27.0225 25.9512L25.417 24.2402C25.1147 23.918 25.1309 23.4117 25.4531 23.1094C25.7753 22.8072 26.2808 22.8234 26.583 23.1455L28.043 24.7002L31.0879 21.4531Z" fill="#E4EAF9"/>
</svg>
