<svg width="24" height="24" viewBox="0 0 24 24" fill="none" xmlns="http://www.w3.org/2000/svg">
<path d="M7.05029 3C5.80765 3 4.80029 4.00736 4.80029 5.25V18.75C4.80029 19.9926 5.80765 21 7.05029 21H16.9503C18.1929 21 19.2003 19.9926 19.2003 18.75L19.2003 7.5L14.7003 3H7.05029Z" fill="#BECBDD"/>
<path d="M15.8765 11.8131C16.3353 11.8131 16.7073 11.4411 16.7073 10.9823C16.7073 10.5235 16.3353 10.1515 15.8765 10.1515H10.1282L10.3716 9.9082C10.696 9.58377 10.696 9.05775 10.3716 8.73332C10.0471 8.40888 9.52111 8.40888 9.19667 8.73332L7.53514 10.3949C7.43768 10.4923 7.3695 10.608 7.33059 10.7309C7.31666 10.7748 7.30628 10.8203 7.2998 10.867C7.28889 10.9453 7.28915 11.0249 7.30059 11.1031C7.32554 11.2739 7.40373 11.4383 7.53514 11.5697L9.19667 13.2313C9.52111 13.5557 10.0471 13.5557 10.3716 13.2313C10.696 12.9068 10.696 12.3808 10.3716 12.0564L10.1282 11.8131H15.8765Z" fill="#9BABC0"/>
<path d="M8.12276 14.8593C7.66394 14.8593 7.29199 15.2313 7.29199 15.6901C7.29199 16.1489 7.66394 16.5208 8.12276 16.5208L13.871 16.5208L13.6277 16.7642C13.3033 17.0886 13.3033 17.6146 13.6277 17.939C13.9522 18.2635 14.4782 18.2635 14.8026 17.939L16.4641 16.2775C16.5622 16.1794 16.6307 16.0629 16.6695 15.9391C16.683 15.8959 16.6931 15.8512 16.6995 15.8053C16.7104 15.7272 16.7101 15.6478 16.6988 15.5698C16.6739 15.3988 16.5957 15.2342 16.4641 15.1026L14.8026 13.4411C14.4782 13.1166 13.9522 13.1166 13.6277 13.4411C13.3033 13.7655 13.3033 14.2915 13.6277 14.616L13.8711 14.8593L8.12276 14.8593Z" fill="#9BABC0"/>
<path d="M14.7003 3V6.50067C14.7003 6.7657 14.8057 7.0199 14.9931 7.2073C15.1805 7.39471 15.4347 7.5 15.6997 7.5H19.2002L14.7003 3Z" fill="#9BABC0"/>
</svg>
