<svg width="40" height="40" viewBox="0 0 40 40" fill="none" xmlns="http://www.w3.org/2000/svg">
<rect width="40" height="40" rx="14" fill="#E4EBF2"/>
<ellipse cx="20" cy="29.3214" rx="12.5" ry="3.57143" fill="#BECBDD"/>
<path fill-rule="evenodd" clip-rule="evenodd" d="M20.2795 29.0189C21.6508 27.5118 27.5886 20.6645 27.5886 15.0952C27.5886 12.9482 26.789 10.8892 25.3657 9.37104C23.9425 7.85289 22.0121 7 19.9993 7C17.9865 7 16.0561 7.85289 14.6329 9.37104C13.2096 10.8892 12.41 12.9482 12.41 15.0952C12.41 20.6645 18.3478 27.5118 19.7191 29.0189C19.8724 29.1874 20.1262 29.1874 20.2795 29.0189ZM22.8461 15.5375C22.8461 17.1093 21.5719 18.3835 20.0001 18.3835C18.4283 18.3835 17.1541 17.1093 17.1541 15.5375C17.1541 13.9657 18.4283 12.6915 20.0001 12.6915C21.5719 12.6915 22.8461 13.9657 22.8461 15.5375Z" fill="#9BABC0"/>
</svg>
