<svg width="40" height="40" viewBox="0 0 40 40" fill="none" xmlns="http://www.w3.org/2000/svg">
<rect width="40" height="40" rx="14" fill="#E4EBF2"/>
<mask id="mask0_9194_34038" style="mask-type:alpha" maskUnits="userSpaceOnUse" x="10" y="11" width="19" height="18">
<circle cx="19.5" cy="20" r="9" fill="#6291F3"/>
</mask>
<g mask="url(#mask0_9194_34038)">
<circle cx="19.5" cy="20" r="9" fill="#BECBDD"/>
<path d="M17.9998 15C17.5998 13 19.4998 13.1666 20.4998 13.5C21.3335 13.6838 21.4998 12 23.4998 12C25.4998 12 28.4998 15.5 28.4998 17C28.4998 18.5 25.4998 18.5 24.9998 19.5C24.4998 20.5 22.9998 20.5 21.9998 20.5C20.9998 20.5 19.9998 19 19.9998 17.5C19.9998 16 18.4998 17.5 17.9998 15Z" fill="#9BABC0"/>
<path d="M16.5 26.9999C12.9 26.1999 12 21.9999 12 19.9999C12 18.9999 14 17.4999 15.5 18.4999C16.7 19.2999 15.3333 21.1666 14.5 21.9999C14.5 22.9999 16.5 22.9999 18.5 21.9999C20.5 20.9999 20.5 22.9999 21 24.9999C21.5 26.9999 21 27.9999 16.5 26.9999Z" fill="#9BABC0"/>
</g>
<path fill-rule="evenodd" clip-rule="evenodd" d="M16.9883 6.78212C17.192 7.41277 16.846 8.08917 16.2153 8.2929L16.1703 8.30753C15.5405 8.51371 14.8627 8.17024 14.6565 7.54039C14.4504 6.91053 14.7938 6.2328 15.4237 6.02662L15.4775 6.00911C16.1082 5.80538 16.7846 6.15147 16.9883 6.78212ZM13.0855 8.34101C13.4731 8.87855 13.3516 9.62857 12.8141 10.0162C12.7885 10.0347 12.763 10.0532 12.7376 10.0718C12.203 10.4636 11.4521 10.3479 11.0603 9.81331C10.6686 9.27876 10.7843 8.52783 11.3189 8.13606C11.3492 8.11381 11.3797 8.09167 11.4102 8.06964C11.9478 7.68198 12.6978 7.80347 13.0855 8.34101ZM9.81366 11.06C10.3482 11.4518 10.464 12.2027 10.0722 12.7373C10.0536 12.7627 10.035 12.7882 10.0166 12.8138C9.62892 13.3513 8.8789 13.4728 8.34136 13.0851C7.80382 12.6975 7.68232 11.9475 8.06998 11.4099C8.09201 11.3794 8.11415 11.3489 8.13641 11.3185C8.52817 10.784 9.2791 10.6682 9.81366 11.06ZM7.54074 14.6562C8.1706 14.8624 8.51407 15.5401 8.30789 16.17L8.29326 16.215C8.08954 16.8456 7.41314 17.1917 6.78249 16.988C6.15184 16.7843 5.80574 16.1079 6.00947 15.4772L6.02698 15.4234C6.23315 14.7935 6.91089 14.45 7.54074 14.6562Z" fill="#BECBDD"/>
<path fill-rule="evenodd" clip-rule="evenodd" d="M19 6.5C19 5.94772 19.4477 5.5 20 5.5C28.0081 5.5 34.5 11.9919 34.5 20C34.5 28.0081 28.0081 34.5 20 34.5C11.9919 34.5 5.5 28.0081 5.5 20C5.5 19.4477 5.94772 19 6.5 19C7.05228 19 7.5 19.4477 7.5 20C7.5 26.9036 13.0964 32.5 20 32.5C26.9036 32.5 32.5 26.9036 32.5 20C32.5 13.0964 26.9036 7.5 20 7.5C19.4477 7.5 19 7.05228 19 6.5Z" fill="#BECBDD"/>
</svg>
