<svg width="20" height="20" viewBox="0 0 20 20" fill="none" xmlns="http://www.w3.org/2000/svg">
<path d="M5.87524 2.5C4.83971 2.5 4.00024 3.33947 4.00024 4.375V15.625C4.00024 16.6605 4.83971 17.5 5.87524 17.5H14.1252C15.1608 17.5 16.0002 16.6605 16.0002 15.625V6.25L12.2502 2.5H5.87524Z" fill="#5E92F5"/>
<path d="M12.2502 2.5V5.41722C12.2502 5.63808 12.338 5.84991 12.4942 6.00609C12.6504 6.16226 12.8622 6.25 13.0831 6.25H16.0002L12.2502 2.5Z" fill="#3E6AC8"/>
<rect x="6.25" y="7.5" width="7.5" height="1.6" rx="0.8" fill="#3E6AC8"/>
<rect x="6.25" y="10.3501" width="7.5" height="1.6" rx="0.8" fill="#3E6AC8"/>
<rect x="6.25" y="13.2" width="7.5" height="1.6" rx="0.8" fill="#3E6AC8"/>
</svg>
