<svg width="40" height="40" viewBox="0 0 40 40" fill="none" xmlns="http://www.w3.org/2000/svg">
<path d="M15.387 11.8911C15.387 9.31039 17.5175 7.21821 20.1109 7.27972C22.629 7.33889 24.6132 9.45892 24.6132 11.9781V13.6026C24.6132 14.3012 24.9834 14.9487 25.5856 15.3026L27.8588 16.6405C28.1686 16.8227 28.5585 16.5999 28.5585 16.2402V11.8911C28.5585 7.16484 24.7269 3.33325 20.0007 3.33325C15.2745 3.33325 11.4429 7.16484 11.4429 11.8911V16.2402C11.4429 16.5988 11.8328 16.8227 12.1426 16.6405L14.4158 15.3026C15.018 14.9487 15.3882 14.3012 15.3882 13.6026V11.8911H15.387Z" fill="#9BABC0"/>
<path d="M29.5968 35.7773H7.61912C6.97859 35.7773 6.45874 35.2575 6.45874 34.617V21.7588C6.45874 19.5796 8.22484 17.8135 10.404 17.8135H32.3817C33.0222 17.8135 33.5421 18.3333 33.5421 18.9739V31.832C33.5421 34.0112 31.776 35.7773 29.5968 35.7773Z" fill="#BECBDD"/>
<path fill-rule="evenodd" clip-rule="evenodd" d="M21.1623 26.8315C22.2012 26.3819 22.9281 25.3476 22.9281 24.1435C22.9281 22.5266 21.6174 21.2158 20.0005 21.2158C18.3836 21.2158 17.0728 22.5266 17.0728 24.1435C17.0728 25.3478 17.8 26.3822 18.8392 26.8317V29.7564C18.8392 30.0639 18.9622 30.3598 19.1803 30.578L20.5681 31.9647C20.7875 32.184 21.1623 32.0285 21.1623 31.7187V26.8315Z" fill="#9BABC0"/>
</svg>
