<svg width="40" height="40" viewBox="0 0 40 40" fill="none" xmlns="http://www.w3.org/2000/svg">
<rect width="40" height="40" rx="14" fill="#E4EBF2"/>
<path d="M16.1426 13.8463C16.1426 11.7817 17.847 10.108 19.9218 10.1572C21.9362 10.2045 23.5236 11.9005 23.5236 13.9159V15.2155C23.5236 15.7744 23.8197 16.2924 24.3015 16.5755L26.1201 17.6458C26.3679 17.7916 26.6798 17.6133 26.6798 17.3256V13.8463C26.6798 10.0653 23.6146 7 19.8336 7C16.0526 7 12.9873 10.0653 12.9873 13.8463V17.3256C12.9873 17.6124 13.2992 17.7916 13.5471 17.6458L15.3656 16.5755C15.8474 16.2924 16.1435 15.7744 16.1435 15.2155V13.8463H16.1426Z" fill="#9BABC0"/>
<path d="M27.5104 32.9553H9.92831C9.41588 32.9553 9 32.5394 9 32.027V21.7405C9 19.9971 10.4129 18.5842 12.1562 18.5842H29.7384C30.2508 18.5842 30.6667 19.0001 30.6667 19.5125V29.7991C30.6667 31.5424 29.2538 32.9553 27.5104 32.9553Z" fill="#BECBDD"/>
<path fill-rule="evenodd" clip-rule="evenodd" d="M20.7628 25.7987C21.594 25.439 22.1755 24.6115 22.1755 23.6483C22.1755 22.3548 21.1269 21.3062 19.8334 21.3062C18.5399 21.3062 17.4913 22.3548 17.4913 23.6483C17.4913 24.6117 18.073 25.4393 18.9044 25.7989V28.1386C18.9044 28.3846 19.0028 28.6214 19.1773 28.7959L20.2875 29.9052C20.463 30.0807 20.7628 29.9563 20.7628 29.7084V25.7987Z" fill="#9BABC0"/>
</svg>
