<svg width="32" height="32" viewBox="0 0 32 32" fill="none" xmlns="http://www.w3.org/2000/svg">
<rect width="32" height="32" rx="12" fill="#BECBDD"/>
<rect x="0.5" y="0.5" width="31" height="31" rx="11.5" stroke="black" stroke-opacity="0.1"/>
<g filter="url(#filter0_d_5327_27716)">
<path d="M18.8525 9.75L14.499 14.1035C14.4029 14.1996 14.3347 14.3203 14.3018 14.4521L13.5225 17.5684C13.4587 17.8239 13.5335 18.094 13.7197 18.2803C13.906 18.4665 14.1761 18.5413 14.4316 18.4775L17.5479 17.6982C17.6797 17.6653 17.8004 17.5971 17.8965 17.501L22.25 13.1475V21.75C22.25 22.8546 21.3546 23.75 20.25 23.75H10.25C9.14543 23.75 8.25 22.8546 8.25 21.75V11.75C8.25 10.6454 9.14543 9.75 10.25 9.75H18.8525ZM23.5977 7.5C23.837 7.50002 24.0661 7.59543 24.2354 7.76465C24.4046 7.93387 24.5 8.16304 24.5 8.40234C24.5 8.64168 24.4046 8.87178 24.2354 9.04102L16.9824 16.2939L15.2812 16.7188L15.7061 15.0176L22.959 7.76465C23.1282 7.59541 23.3583 7.5 23.5977 7.5Z" fill="white"/>
</g>
<defs>
<filter id="filter0_d_5327_27716" x="2" y="2" width="28" height="28" filterUnits="userSpaceOnUse" color-interpolation-filters="sRGB">
<feFlood flood-opacity="0" result="BackgroundImageFix"/>
<feColorMatrix in="SourceAlpha" type="matrix" values="0 0 0 0 0 0 0 0 0 0 0 0 0 0 0 0 0 0 127 0" result="hardAlpha"/>
<feOffset/>
<feGaussianBlur stdDeviation="2"/>
<feColorMatrix type="matrix" values="0 0 0 0 0 0 0 0 0 0 0 0 0 0 0 0 0 0 0.2 0"/>
<feBlend mode="normal" in2="BackgroundImageFix" result="effect1_dropShadow_5327_27716"/>
<feBlend mode="normal" in="SourceGraphic" in2="effect1_dropShadow_5327_27716" result="shape"/>
</filter>
</defs>
</svg>
