<svg width="32" height="32" viewBox="0 0 32 32" fill="none" xmlns="http://www.w3.org/2000/svg">
<rect width="32" height="32" rx="12" fill="#BECBDD"/>
<rect x="0.5" y="0.5" width="31" height="31" rx="11.5" stroke="black" stroke-opacity="0.1"/>
<g filter="url(#filter0_d_5327_27708)">
<path d="M13.4404 12.5078L9.93166 12.5078L11.686 10.7534L13.4404 8.99904L13.4404 12.5078Z" fill="#BECBDD"/>
<path fill-rule="evenodd" clip-rule="evenodd" d="M12.5088 7.66602H20.158C21.2625 7.66602 22.158 8.56145 22.158 9.66602V15.2946C21.9496 15.2325 21.7288 15.1992 21.5002 15.1992C20.2299 15.1992 19.2002 16.2289 19.2002 17.4992V18.7079C18.5468 18.6512 17.8739 18.8728 17.3738 19.3728C16.4756 20.2711 16.4756 21.7273 17.3738 22.6255L19.081 24.3327H11C9.89543 24.3327 9 23.4372 9 22.3327L9.00005 11.1748L12.5088 7.66602ZM22.158 16.8849V22.3327C22.158 23.1689 21.6447 23.8853 20.9161 24.184C20.8982 24.1687 20.8807 24.1525 20.8638 24.1356L18.3638 21.6356C18.0123 21.2841 18.0123 20.7143 18.3638 20.3628C18.5907 20.1359 18.9087 20.0554 19.2002 20.1216C19.3601 20.1579 19.5121 20.2383 19.6366 20.3628L20.6002 21.3264V17.4992C20.6002 17.0021 21.0031 16.5992 21.5002 16.5992C21.7598 16.5992 21.9937 16.7091 22.158 16.8849ZM9.92872 12.5078L11.6831 10.7534L13.4375 8.99904L13.4375 12.5078L9.92872 12.5078Z" fill="white"/>
<path fill-rule="evenodd" clip-rule="evenodd" d="M18.3632 20.3633C18.7147 20.0118 19.2845 20.0118 19.636 20.3633L20.5996 21.3269V17.4997C20.5996 17.0026 21.0026 16.5997 21.4996 16.5997C21.9967 16.5997 22.3996 17.0026 22.3996 17.4997V21.3269L23.3632 20.3633C23.7147 20.0118 24.2845 20.0118 24.636 20.3633C24.9875 20.7147 24.9875 21.2846 24.636 21.6361L22.136 24.1361C21.7845 24.4875 21.2147 24.4875 20.8632 24.1361L18.3632 21.6361C18.0117 21.2846 18.0117 20.7147 18.3632 20.3633Z" fill="white"/>
</g>
<defs>
<filter id="filter0_d_5327_27708" x="2" y="2" width="28" height="28" filterUnits="userSpaceOnUse" color-interpolation-filters="sRGB">
<feFlood flood-opacity="0" result="BackgroundImageFix"/>
<feColorMatrix in="SourceAlpha" type="matrix" values="0 0 0 0 0 0 0 0 0 0 0 0 0 0 0 0 0 0 127 0" result="hardAlpha"/>
<feOffset/>
<feGaussianBlur stdDeviation="2"/>
<feColorMatrix type="matrix" values="0 0 0 0 0 0 0 0 0 0 0 0 0 0 0 0 0 0 0.2 0"/>
<feBlend mode="normal" in2="BackgroundImageFix" result="effect1_dropShadow_5327_27708"/>
<feBlend mode="normal" in="SourceGraphic" in2="effect1_dropShadow_5327_27708" result="shape"/>
</filter>
</defs>
</svg>
