<svg width="32" height="32" viewBox="0 0 32 32" fill="none" xmlns="http://www.w3.org/2000/svg">
<rect width="32" height="32" rx="12" fill="#5E92F5"/>
<rect x="0.5" y="0.5" width="31" height="31" rx="11.5" stroke="black" stroke-opacity="0.1"/>
<g filter="url(#filter0_d_20577_1614)">
<path d="M16.0003 24.3332C20.6027 24.3332 24.3337 20.6022 24.3337 15.9998C24.3337 11.3975 20.6027 7.6665 16.0003 7.6665C11.398 7.6665 7.66699 11.3975 7.66699 15.9998C7.66699 20.6022 11.398 24.3332 16.0003 24.3332Z" fill="white"/>
<path d="M15.1 19.9263V16.1C15.1 15.6028 15.5028 15.2 16 15.2C16.4972 15.2 16.9 15.6028 16.9 16.1V19.9263C16.8998 20.4233 16.497 20.8263 16 20.8263C15.503 20.8263 15.1002 20.4233 15.1 19.9263Z" fill="#5E92F5"/>
<circle cx="16" cy="12.45" r="1.25" fill="#5E92F5"/>
</g>
<defs>
<filter id="filter0_d_20577_1614" x="2" y="2" width="28" height="28" filterUnits="userSpaceOnUse" color-interpolation-filters="sRGB">
<feFlood flood-opacity="0" result="BackgroundImageFix"/>
<feColorMatrix in="SourceAlpha" type="matrix" values="0 0 0 0 0 0 0 0 0 0 0 0 0 0 0 0 0 0 127 0" result="hardAlpha"/>
<feOffset/>
<feGaussianBlur stdDeviation="2"/>
<feColorMatrix type="matrix" values="0 0 0 0 0 0 0 0 0 0 0 0 0 0 0 0 0 0 0.2 0"/>
<feBlend mode="normal" in2="BackgroundImageFix" result="effect1_dropShadow_20577_1614"/>
<feBlend mode="normal" in="SourceGraphic" in2="effect1_dropShadow_20577_1614" result="shape"/>
</filter>
</defs>
</svg>
