<svg width="32" height="32" viewBox="0 0 32 32" fill="none" xmlns="http://www.w3.org/2000/svg">
<rect width="32" height="32" rx="12" fill="#BECBDD"/>
<rect x="0.5" y="0.5" width="31" height="31" rx="11.5" stroke="black" stroke-opacity="0.1"/>
<g clip-path="url(#clip0_5327_27715)" filter="url(#filter0_d_5327_27715)">
<path d="M9.70745 18.6425C9.58325 18.3966 9.71484 18.1068 9.98056 18.041L13.7445 17.1094C14.0102 17.0437 14.278 17.2346 14.3003 17.5057L14.4206 18.9684C14.5033 19.9736 13.852 20.875 12.8667 21.1188C11.8814 21.3627 10.8381 20.8808 10.3776 19.9691L9.70745 18.6425Z" fill="white"/>
<path d="M8.69931 9.35167C8.91748 8.69594 9.31541 8.11652 9.85016 7.67594L10.0504 7.51095C10.4052 7.21861 10.831 7.01968 11.2893 6.93204L11.3272 6.9248C11.9939 6.79732 12.6922 6.92131 13.2849 7.27238C13.731 7.53665 14.0959 7.91713 14.3379 8.37018L14.4209 8.52561C14.5729 8.8103 14.6828 9.11395 14.7473 9.4271L14.7827 9.59892C14.8825 10.0842 14.901 10.58 14.8374 11.0664L14.7312 11.8787L14.269 13.5459C14.1024 14.1471 14.0008 14.7657 13.9658 15.3915C13.95 15.6758 13.7516 15.9133 13.4723 15.9824L10.1682 16.8002C9.60034 16.9408 9.00823 16.6098 8.82971 16.052L8.62415 15.4097C8.35442 14.5669 8.20182 13.6951 8.17059 12.8186L8.15077 12.2626C8.1239 11.5083 8.23107 10.759 8.46746 10.0485L8.69931 9.35167Z" fill="white"/>
<path d="M20.4181 23.4263C20.6062 23.2212 20.5563 22.9095 20.3144 22.7781L16.963 20.9576C16.7211 20.8261 16.4065 20.9399 16.3089 21.1942L15.7624 22.6186C15.4074 23.5437 15.7874 24.559 16.6676 25.0371C17.5479 25.5153 18.6799 25.3214 19.3643 24.5752L20.4181 23.4263Z" fill="white"/>
<path d="M24.0158 14.6906C23.9915 14.0197 23.7739 13.3733 23.3866 12.8216L23.2343 12.6046C22.9751 12.2354 22.6167 11.9363 22.1981 11.7378C21.5759 11.4429 20.8479 11.385 20.1691 11.5794C19.6727 11.7215 19.2237 11.991 18.8723 12.3576L18.73 12.506C18.5044 12.7413 18.3141 13.0047 18.1645 13.2885L18.0803 13.4483C17.8464 13.8922 17.688 14.367 17.6113 14.8544L17.4845 15.6604L17.4584 17.3866C17.4491 18.0049 17.3727 18.6225 17.2305 19.2297C17.1644 19.5119 17.2948 19.7974 17.5541 19.9382L20.4534 21.5132C20.983 21.8009 21.6696 21.6307 22.0051 21.1286L22.3793 20.5687C22.8752 19.8265 23.2669 19.0278 23.5439 18.1935L23.7289 17.6363C23.9638 16.9289 24.0702 16.192 24.0436 15.4576L24.0158 14.6906Z" fill="white"/>
</g>
<defs>
<filter id="filter0_d_5327_27715" x="2" y="2" width="28" height="28" filterUnits="userSpaceOnUse" color-interpolation-filters="sRGB">
<feFlood flood-opacity="0" result="BackgroundImageFix"/>
<feColorMatrix in="SourceAlpha" type="matrix" values="0 0 0 0 0 0 0 0 0 0 0 0 0 0 0 0 0 0 127 0" result="hardAlpha"/>
<feOffset/>
<feGaussianBlur stdDeviation="2"/>
<feColorMatrix type="matrix" values="0 0 0 0 0 0 0 0 0 0 0 0 0 0 0 0 0 0 0.2 0"/>
<feBlend mode="normal" in2="BackgroundImageFix" result="effect1_dropShadow_5327_27715"/>
<feBlend mode="normal" in="SourceGraphic" in2="effect1_dropShadow_5327_27715" result="shape"/>
</filter>
<clipPath id="clip0_5327_27715">
<rect width="20" height="20" fill="white" transform="translate(6 6)"/>
</clipPath>
</defs>
</svg>
