<svg width="32" height="32" viewBox="0 0 32 32" fill="none" xmlns="http://www.w3.org/2000/svg">
<rect width="32" height="32" rx="12" fill="#BECBDD"/>
<rect x="0.5" y="0.5" width="31" height="31" rx="11.5" stroke="black" stroke-opacity="0.1"/>
<g filter="url(#filter0_d_5327_27711)">
<path d="M14.25 20.2H17.75V22.2H14.25V20.2Z" fill="white"/>
<rect x="11" y="22" width="10" height="2.2" rx="1.1" fill="white"/>
<path d="M7 10C7 8.89543 7.89543 8 9 8H23C24.1046 8 25 8.89543 25 10V16C25 16.2761 24.7761 16.5 24.5 16.5H7.5C7.22386 16.5 7 16.2761 7 16V10Z" fill="white"/>
<path d="M7 18.5C7 18.2239 7.22386 18 7.5 18H24.5C24.7761 18 25 18.2239 25 18.5V18.8C25 19.5732 24.3732 20.2 23.6 20.2H8.4C7.6268 20.2 7 19.5732 7 18.8V18.5Z" fill="white"/>
</g>
<defs>
<filter id="filter0_d_5327_27711" x="2" y="2" width="28" height="28" filterUnits="userSpaceOnUse" color-interpolation-filters="sRGB">
<feFlood flood-opacity="0" result="BackgroundImageFix"/>
<feColorMatrix in="SourceAlpha" type="matrix" values="0 0 0 0 0 0 0 0 0 0 0 0 0 0 0 0 0 0 127 0" result="hardAlpha"/>
<feOffset/>
<feGaussianBlur stdDeviation="2"/>
<feColorMatrix type="matrix" values="0 0 0 0 0 0 0 0 0 0 0 0 0 0 0 0 0 0 0.2 0"/>
<feBlend mode="normal" in2="BackgroundImageFix" result="effect1_dropShadow_5327_27711"/>
<feBlend mode="normal" in="SourceGraphic" in2="effect1_dropShadow_5327_27711" result="shape"/>
</filter>
</defs>
</svg>
