<svg width="32" height="32" viewBox="0 0 32 32" fill="none" xmlns="http://www.w3.org/2000/svg">
<rect width="32" height="32" rx="12" fill="#BECBDD"/>
<rect x="0.5" y="0.5" width="31" height="31" rx="11.5" stroke="black" stroke-opacity="0.1"/>
<g filter="url(#filter0_d_5327_27697)">
<path d="M20.8 24.7002C22.4568 24.7002 23.8 23.357 23.8 21.7002C23.8 20.0433 22.4568 18.7002 20.8 18.7002C19.1431 18.7002 17.8 20.0433 17.8 21.7002C17.8 23.357 19.1431 24.7002 20.8 24.7002Z" fill="white"/>
<path d="M10.5 19C12.1569 19 13.5 17.6569 13.5 16C13.5 14.3431 12.1569 13 10.5 13C8.84315 13 7.5 14.3431 7.5 16C7.5 17.6569 8.84315 19 10.5 19Z" fill="white"/>
<path d="M12.8 17L18.8 20.8" stroke="white" stroke-width="1.6" stroke-linecap="round" stroke-linejoin="round"/>
<path d="M20.8 13.2998C22.4568 13.2998 23.8 11.9567 23.8 10.2998C23.8 8.64295 22.4568 7.2998 20.8 7.2998C19.1431 7.2998 17.8 8.64295 17.8 10.2998C17.8 11.9567 19.1431 13.2998 20.8 13.2998Z" fill="white"/>
<path d="M18.8 11.2002L12.8 15.0002" stroke="white" stroke-width="1.6" stroke-linecap="round" stroke-linejoin="round"/>
</g>
<defs>
<filter id="filter0_d_5327_27697" x="2" y="2" width="28" height="28" filterUnits="userSpaceOnUse" color-interpolation-filters="sRGB">
<feFlood flood-opacity="0" result="BackgroundImageFix"/>
<feColorMatrix in="SourceAlpha" type="matrix" values="0 0 0 0 0 0 0 0 0 0 0 0 0 0 0 0 0 0 127 0" result="hardAlpha"/>
<feOffset/>
<feGaussianBlur stdDeviation="2"/>
<feColorMatrix type="matrix" values="0 0 0 0 0 0 0 0 0 0 0 0 0 0 0 0 0 0 0.2 0"/>
<feBlend mode="normal" in2="BackgroundImageFix" result="effect1_dropShadow_5327_27697"/>
<feBlend mode="normal" in="SourceGraphic" in2="effect1_dropShadow_5327_27697" result="shape"/>
</filter>
</defs>
</svg>
