<svg width="32" height="32" viewBox="0 0 32 32" fill="none" xmlns="http://www.w3.org/2000/svg">
<rect width="32" height="32" rx="12" fill="#F77E6E"/>
<rect x="0.5" y="0.5" width="31" height="31" rx="11.5" stroke="black" stroke-opacity="0.1"/>
<g filter="url(#filter0_d_20569_2173)">
<path fill-rule="evenodd" clip-rule="evenodd" d="M20.8327 12.6665C21.385 12.6665 21.8327 13.1142 21.8327 13.6665V22.8748C21.8327 23.2616 21.6571 23.6325 21.3445 23.906C21.032 24.1795 20.608 24.3332 20.166 24.3332H11.8327C11.3907 24.3332 10.9667 24.1795 10.6542 23.906C10.3416 23.6325 10.166 23.2616 10.166 22.8748V13.6665C10.166 13.1142 10.6137 12.6665 11.166 12.6665H20.8327ZM17.6662 15.2002C18.108 15.2002 18.4662 15.5584 18.4662 16.0002V21.0002C18.4662 21.442 18.108 21.8002 17.6662 21.8002C17.2244 21.8002 16.8662 21.442 16.8662 21.0002V16.0002C16.8662 15.5584 17.2244 15.2002 17.6662 15.2002ZM15.1332 16.0002C15.1332 15.5584 14.775 15.2002 14.3332 15.2002C13.8914 15.2002 13.5332 15.5584 13.5332 16.0002V21.0002C13.5332 21.442 13.8914 21.8002 14.3332 21.8002C14.775 21.8002 15.1332 21.442 15.1332 21.0002V16.0002Z" fill="white"/>
<path fill-rule="evenodd" clip-rule="evenodd" d="M17.6672 15.2002C18.109 15.2002 18.4672 15.5584 18.4672 16.0002V21.0002C18.4672 21.442 18.109 21.8002 17.6672 21.8002C17.2254 21.8002 16.8672 21.442 16.8672 21.0002V16.0002C16.8672 15.5584 17.2254 15.2002 17.6672 15.2002Z" fill="#F77E6E"/>
<path fill-rule="evenodd" clip-rule="evenodd" d="M14.3332 15.2002C14.775 15.2002 15.1332 15.5584 15.1332 16.0002V21.0002C15.1332 21.442 14.775 21.8002 14.3332 21.8002C13.8914 21.8002 13.5332 21.442 13.5332 21.0002V16.0002C13.5332 15.5584 13.8914 15.2002 14.3332 15.2002Z" fill="#F77E6E"/>
<path d="M13 8C13 7.44772 13.4477 7 14 7H18C18.5523 7 19 7.44772 19 8V10H13V8Z" fill="white"/>
<rect x="7.66699" y="9.3335" width="16.6667" height="1.66667" rx="0.833333" fill="white"/>
</g>
<defs>
<filter id="filter0_d_20569_2173" x="2" y="2" width="28" height="28" filterUnits="userSpaceOnUse" color-interpolation-filters="sRGB">
<feFlood flood-opacity="0" result="BackgroundImageFix"/>
<feColorMatrix in="SourceAlpha" type="matrix" values="0 0 0 0 0 0 0 0 0 0 0 0 0 0 0 0 0 0 127 0" result="hardAlpha"/>
<feOffset/>
<feGaussianBlur stdDeviation="2"/>
<feColorMatrix type="matrix" values="0 0 0 0 0 0 0 0 0 0 0 0 0 0 0 0 0 0 0.2 0"/>
<feBlend mode="normal" in2="BackgroundImageFix" result="effect1_dropShadow_20569_2173"/>
<feBlend mode="normal" in="SourceGraphic" in2="effect1_dropShadow_20569_2173" result="shape"/>
</filter>
</defs>
</svg>
