<svg width="32" height="32" viewBox="0 0 32 32" fill="none" xmlns="http://www.w3.org/2000/svg">
<rect width="32" height="32" rx="12" fill="#BECBDD"/>
<rect x="0.5" y="0.5" width="31" height="31" rx="11.5" stroke="black" stroke-opacity="0.1"/>
<g filter="url(#filter0_d_5327_27729)">
<path d="M13.4404 12.5078L9.93166 12.5078L11.686 10.7534L13.4404 8.99904L13.4404 12.5078Z" fill="#BECBDD"/>
<path fill-rule="evenodd" clip-rule="evenodd" d="M12.5088 7.66602H20.158C21.2625 7.66602 22.158 8.56145 22.158 9.66602V9.90105L14.6095 17.4496C14.5195 17.5395 14.4557 17.6522 14.4249 17.7756L13.5826 21.1448C13.5228 21.3839 13.5929 21.6369 13.7672 21.8112C13.9415 21.9855 14.1944 22.0556 14.4336 21.9958L17.8028 21.1535C17.9262 21.1226 18.0388 21.0588 18.1288 20.9689L22.158 16.9397V22.3327C22.158 23.4373 21.2625 24.3327 20.158 24.3327H11C9.89543 24.3327 9 23.4372 9 22.3327L9.00005 11.1748L12.5088 7.66602ZM11.6831 10.7534L9.92872 12.5078L13.4375 12.5078L13.4375 8.99904L11.6831 10.7534Z" fill="white"/>
<path fill-rule="evenodd" clip-rule="evenodd" d="M23.3018 10.7191C23.4951 10.5258 23.7573 10.4172 24.0306 10.4172C24.304 10.4172 24.5662 10.5258 24.7595 10.7191C24.9528 10.9125 25.0614 11.1746 25.0614 11.448C25.0614 11.7214 24.9528 11.9836 24.7595 12.1769L17.2883 19.6481L15.3447 20.134L15.8306 18.1903L23.3018 10.7191Z" fill="white"/>
</g>
<defs>
<filter id="filter0_d_5327_27729" x="2" y="2" width="28" height="28" filterUnits="userSpaceOnUse" color-interpolation-filters="sRGB">
<feFlood flood-opacity="0" result="BackgroundImageFix"/>
<feColorMatrix in="SourceAlpha" type="matrix" values="0 0 0 0 0 0 0 0 0 0 0 0 0 0 0 0 0 0 127 0" result="hardAlpha"/>
<feOffset/>
<feGaussianBlur stdDeviation="2"/>
<feColorMatrix type="matrix" values="0 0 0 0 0 0 0 0 0 0 0 0 0 0 0 0 0 0 0.2 0"/>
<feBlend mode="normal" in2="BackgroundImageFix" result="effect1_dropShadow_5327_27729"/>
<feBlend mode="normal" in="SourceGraphic" in2="effect1_dropShadow_5327_27729" result="shape"/>
</filter>
</defs>
</svg>
