<svg width="32" height="32" viewBox="0 0 32 32" fill="none" xmlns="http://www.w3.org/2000/svg">
<rect width="32" height="32" rx="12" fill="#BECBDD"/>
<rect x="0.5" y="0.5" width="31" height="31" rx="11.5" stroke="black" stroke-opacity="0.1"/>
<g filter="url(#filter0_d_5327_27706)">
<path fill-rule="evenodd" clip-rule="evenodd" d="M7.53548 15.1138C7.17679 15.6575 7.17679 16.3424 7.53549 16.8861C8.68042 18.6214 11.6236 22.3 16 22.3C20.3764 22.3 23.3196 18.6214 24.4645 16.8861C24.8232 16.3424 24.8232 15.6575 24.4645 15.1138C23.3196 13.3785 20.3764 9.69995 16 9.69995C11.6236 9.69995 8.68042 13.3785 7.53548 15.1138ZM18.6998 16C18.6998 17.4912 17.491 18.7 15.9998 18.7C14.5086 18.7 13.2998 17.4912 13.2998 16C13.2998 14.5089 14.5086 13.3 15.9998 13.3C17.491 13.3 18.6998 14.5089 18.6998 16Z" fill="white"/>
<path d="M15.9998 18.7003C17.491 18.7003 18.6998 17.4915 18.6998 16.0003C18.6998 14.5091 17.491 13.3003 15.9998 13.3003C14.5086 13.3003 13.2998 14.5091 13.2998 16.0003C13.2998 17.4915 14.5086 18.7003 15.9998 18.7003Z" fill="#BECBDD"/>
</g>
<defs>
<filter id="filter0_d_5327_27706" x="2" y="2" width="28" height="28" filterUnits="userSpaceOnUse" color-interpolation-filters="sRGB">
<feFlood flood-opacity="0" result="BackgroundImageFix"/>
<feColorMatrix in="SourceAlpha" type="matrix" values="0 0 0 0 0 0 0 0 0 0 0 0 0 0 0 0 0 0 127 0" result="hardAlpha"/>
<feOffset/>
<feGaussianBlur stdDeviation="2"/>
<feColorMatrix type="matrix" values="0 0 0 0 0 0 0 0 0 0 0 0 0 0 0 0 0 0 0.2 0"/>
<feBlend mode="normal" in2="BackgroundImageFix" result="effect1_dropShadow_5327_27706"/>
<feBlend mode="normal" in="SourceGraphic" in2="effect1_dropShadow_5327_27706" result="shape"/>
</filter>
</defs>
</svg>
