<svg width="32" height="32" viewBox="0 0 32 32" fill="none" xmlns="http://www.w3.org/2000/svg">
<rect width="32" height="32" rx="12" fill="#BECBDD"/>
<rect x="0.5" y="0.5" width="31" height="31" rx="11.5" stroke="black" stroke-opacity="0.1"/>
<g filter="url(#filter0_d_5327_27722)">
<path fill-rule="evenodd" clip-rule="evenodd" d="M21 11H11V21H21V11ZM14.2903 18.7047C14.3831 18.7983 14.4935 18.8725 14.6152 18.9232C14.7369 18.9739 14.8674 19 14.9991 19C15.1309 19 15.2614 18.9739 15.3831 18.9232C15.5048 18.8725 15.6152 18.7983 15.708 18.7047L19.7014 14.7113C19.8894 14.5233 19.995 14.2683 19.995 14.0024C19.995 13.7366 19.8894 13.4816 19.7014 13.2936C19.5134 13.1056 19.2584 13 18.9926 13C18.7267 13 18.4717 13.1056 18.2837 13.2936L14.9991 16.5882L13.7113 15.2903C13.6182 15.1972 13.5077 15.1234 13.3861 15.073C13.2644 15.0226 13.1341 14.9967 13.0024 14.9967C12.7366 14.9967 12.4816 15.1023 12.2936 15.2903C12.2005 15.3834 12.1267 15.4939 12.0763 15.6155C12.0259 15.7372 12 15.8675 12 15.9991C12 16.265 12.1056 16.52 12.2936 16.708L14.2903 18.7047Z" fill="white"/>
<path fill-rule="evenodd" clip-rule="evenodd" d="M9.5 8.4H19.5C20.1075 8.4 20.6 8.89249 20.6 9.5V10H12.5C11.1193 10 10 11.1193 10 12.5V20.6H9.5C8.89249 20.6 8.4 20.1075 8.4 19.5V9.5C8.4 8.89249 8.89249 8.4 9.5 8.4ZM10 22H9.5C8.11929 22 7 20.8807 7 19.5V9.5C7 8.11929 8.11929 7 9.5 7H19.5C20.8807 7 22 8.11929 22 9.5V10H22.5C23.8807 10 25 11.1193 25 12.5V22.5C25 23.8807 23.8807 25 22.5 25H12.5C11.1193 25 10 23.8807 10 22.5V22ZM22 11.4H22.5C23.1075 11.4 23.6 11.8925 23.6 12.5V22.5C23.6 23.1075 23.1075 23.6 22.5 23.6H12.5C11.8925 23.6 11.4 23.1075 11.4 22.5V22H19.5C20.8807 22 22 20.8807 22 19.5V11.4ZM20.6 11.4V19.5C20.6 20.1075 20.1075 20.6 19.5 20.6H11.4V12.5C11.4 11.8925 11.8925 11.4 12.5 11.4H20.6Z" fill="white"/>
<path d="M14.6152 18.9232C14.4935 18.8725 14.3831 18.7983 14.2903 18.7047L12.2936 16.708C12.1056 16.52 12 16.265 12 15.9991C12 15.8675 12.0259 15.7372 12.0763 15.6155C12.1267 15.4939 12.2005 15.3834 12.2936 15.2903C12.4816 15.1023 12.7366 14.9967 13.0024 14.9967C13.1341 14.9967 13.2644 15.0226 13.3861 15.073C13.5077 15.1234 13.6182 15.1972 13.7113 15.2903L14.9991 16.5882L18.2837 13.2936C18.4717 13.1056 18.7267 13 18.9926 13C19.2584 13 19.5134 13.1056 19.7014 13.2936C19.8894 13.4816 19.995 13.7366 19.995 14.0024C19.995 14.2683 19.8894 14.5233 19.7014 14.7113L15.708 18.7047C15.6152 18.7983 15.5048 18.8725 15.3831 18.9232C15.2614 18.9739 15.1309 19 14.9991 19C14.8674 19 14.7369 18.9739 14.6152 18.9232Z" fill="#BECBDD"/>
</g>
<defs>
<filter id="filter0_d_5327_27722" x="2" y="2" width="28" height="28" filterUnits="userSpaceOnUse" color-interpolation-filters="sRGB">
<feFlood flood-opacity="0" result="BackgroundImageFix"/>
<feColorMatrix in="SourceAlpha" type="matrix" values="0 0 0 0 0 0 0 0 0 0 0 0 0 0 0 0 0 0 127 0" result="hardAlpha"/>
<feOffset/>
<feGaussianBlur stdDeviation="2"/>
<feColorMatrix type="matrix" values="0 0 0 0 0 0 0 0 0 0 0 0 0 0 0 0 0 0 0.2 0"/>
<feBlend mode="normal" in2="BackgroundImageFix" result="effect1_dropShadow_5327_27722"/>
<feBlend mode="normal" in="SourceGraphic" in2="effect1_dropShadow_5327_27722" result="shape"/>
</filter>
</defs>
</svg>
