<svg width="32" height="32" viewBox="0 0 32 32" fill="none" xmlns="http://www.w3.org/2000/svg">
<rect width="32" height="32" rx="12" fill="#F6C243"/>
<rect x="0.5" y="0.5" width="31" height="31" rx="11.5" stroke="black" stroke-opacity="0.1"/>
<g filter="url(#filter0_d_20569_2136)">
<path fill-rule="evenodd" clip-rule="evenodd" d="M22.1506 11.1256C21.9529 10.5233 21.4767 10.0472 20.8744 9.84939L15.7062 15.0176L15.2808 16.7192L16.9824 16.2938L22.1506 11.1256ZM22.25 13.1476L17.8962 17.5014C17.8001 17.5975 17.6796 17.6657 17.5478 17.6986L14.4319 18.4776C14.1763 18.5415 13.906 18.4666 13.7197 18.2803C13.5334 18.094 13.4585 17.8237 13.5224 17.5681L14.3014 14.4522C14.3343 14.3204 14.4025 14.1999 14.4986 14.1038L18.8525 9.75H10.25C9.14543 9.75 8.25 10.6454 8.25 11.75V21.75C8.25 22.8546 9.14543 23.75 10.25 23.75H20.25C21.3546 23.75 22.25 22.8546 22.25 21.75V13.1476Z" fill="white"/>
<path fill-rule="evenodd" clip-rule="evenodd" d="M22.9595 7.76432C23.1287 7.59508 23.3582 7.5 23.5976 7.5C23.8369 7.5 24.0665 7.59508 24.2357 7.76432C24.4049 7.93356 24.5 8.16309 24.5 8.40243C24.5 8.64177 24.4049 8.87131 24.2357 9.04055L16.9824 16.2938L15.2808 16.7192L15.7062 15.0176L22.9595 7.76432Z" fill="white"/>
</g>
<defs>
<filter id="filter0_d_20569_2136" x="2" y="2" width="28" height="28" filterUnits="userSpaceOnUse" color-interpolation-filters="sRGB">
<feFlood flood-opacity="0" result="BackgroundImageFix"/>
<feColorMatrix in="SourceAlpha" type="matrix" values="0 0 0 0 0 0 0 0 0 0 0 0 0 0 0 0 0 0 127 0" result="hardAlpha"/>
<feOffset/>
<feGaussianBlur stdDeviation="2"/>
<feColorMatrix type="matrix" values="0 0 0 0 0 0 0 0 0 0 0 0 0 0 0 0 0 0 0.2 0"/>
<feBlend mode="normal" in2="BackgroundImageFix" result="effect1_dropShadow_20569_2136"/>
<feBlend mode="normal" in="SourceGraphic" in2="effect1_dropShadow_20569_2136" result="shape"/>
</filter>
</defs>
</svg>
