<svg width="32" height="32" viewBox="0 0 32 32" fill="none" xmlns="http://www.w3.org/2000/svg">
<rect width="32" height="32" rx="12" fill="#BECBDD"/>
<rect x="0.5" y="0.5" width="31" height="31" rx="11.5" stroke="black" stroke-opacity="0.1"/>
<g filter="url(#filter0_d_5327_27696)">
<path d="M7.02564 12.7614L6.2378 12.9003C6.31452 13.3354 6.72945 13.6259 7.16456 13.5492L7.02564 12.7614ZM7.31883 9.8171C7.24211 9.38198 6.82718 9.09145 6.39207 9.16817C5.95695 9.24489 5.66642 9.65982 5.74314 10.0949L7.31883 9.8171ZM9.70374 13.1015C10.1389 13.0248 10.4294 12.6098 10.3527 12.1747C10.2759 11.7396 9.86102 11.4491 9.42591 11.5258L9.70374 13.1015ZM24.9742 19.2384L25.7621 19.0995C25.6854 18.6644 25.2704 18.3739 24.8353 18.4506L24.9742 19.2384ZM22.2961 18.8983C21.861 18.975 21.5705 19.3899 21.6472 19.8251C21.7239 20.2602 22.1389 20.5507 22.574 20.474L22.2961 18.8983ZM24.681 22.1827C24.7578 22.6178 25.1727 22.9083 25.6078 22.8316C26.0429 22.7549 26.3335 22.34 26.2567 21.9048L24.681 22.1827ZM7.59967 18.4626C7.47531 18.0386 7.03081 17.7958 6.60685 17.9201C6.18288 18.0445 5.93999 18.489 6.06434 18.9129L7.59967 18.4626ZM24.4002 13.5372C24.5246 13.9611 24.9691 14.204 25.393 14.0797C25.817 13.9553 26.0599 13.5108 25.9355 13.0869L24.4002 13.5372ZM7.77644 13.0376C8.8155 10.2136 11.2977 7.99948 14.49 7.4366L14.2122 5.8609C10.4394 6.52614 7.50367 9.14534 6.27485 12.4851L7.77644 13.0376ZM7.81349 12.6224L7.31883 9.8171L5.74314 10.0949L6.2378 12.9003L7.81349 12.6224ZM7.16456 13.5492L9.70374 13.1015L9.42591 11.5258L6.88673 11.9735L7.16456 13.5492ZM24.2234 18.9622C23.1844 21.7862 20.7021 24.0003 17.5099 24.5632L17.7877 26.1389C21.5605 25.4736 24.4962 22.8544 25.725 19.5147L24.2234 18.9622ZM24.8353 18.4506L22.2961 18.8983L22.574 20.474L25.1132 20.0263L24.8353 18.4506ZM24.1864 19.3773L24.681 22.1827L26.2567 21.9048L25.7621 19.0995L24.1864 19.3773ZM17.5099 24.5632C13.0691 25.3462 8.82957 22.6559 7.59967 18.4626L6.06434 18.9129C7.52333 23.8873 12.5428 27.0637 17.7877 26.1389L17.5099 24.5632ZM14.49 7.4366C18.9308 6.65356 23.1703 9.34386 24.4002 13.5372L25.9355 13.0869C24.4765 8.11252 19.4571 4.93609 14.2122 5.8609L14.49 7.4366Z" fill="white"/>
<path d="M6.49994 9.7832L7.02088 12.7376L9.97531 12.2167" fill="white"/>
<path d="M6.49994 9.7832L7.02088 12.7376L9.97531 12.2167L6.49994 9.7832Z" stroke="white" stroke-width="1.8" stroke-linecap="round" stroke-linejoin="round"/>
<path d="M25.4999 22.2168L24.979 19.2624L22.0246 19.7833" fill="white"/>
<path d="M25.4999 22.2168L24.979 19.2624L22.0246 19.7833L25.4999 22.2168Z" stroke="white" stroke-width="1.8" stroke-linecap="round" stroke-linejoin="round"/>
<ellipse cx="15.9999" cy="12.4" rx="3.5" ry="1.4" fill="white" stroke="white" stroke-width="1.2"/>
<path d="M19.4999 14.7334C19.4999 15.5066 17.9329 16.1334 15.9999 16.1334C14.0669 16.1334 12.4999 15.5066 12.4999 14.7334" stroke="white" stroke-width="1.2" stroke-linecap="round"/>
<path d="M19.4999 17.0667C19.4999 17.8398 17.9329 18.4667 15.9999 18.4667C14.0669 18.4667 12.4999 17.8398 12.4999 17.0667" stroke="white" stroke-width="1.2" stroke-linecap="round"/>
<path d="M19.4999 19.3999C19.4999 20.1731 17.9329 20.7999 15.9999 20.7999C14.0669 20.7999 12.4999 20.1731 12.4999 19.3999" stroke="white" stroke-width="1.2" stroke-linecap="round"/>
<path d="M12.4999 12.6799V19.3999" stroke="white" stroke-width="1.2" stroke-linecap="round"/>
<path d="M19.4999 12.6799V19.3999" stroke="white" stroke-width="1.2" stroke-linecap="round"/>
</g>
<defs>
<filter id="filter0_d_5327_27696" x="1.59991" y="1.70093" width="28.8" height="28.5979" filterUnits="userSpaceOnUse" color-interpolation-filters="sRGB">
<feFlood flood-opacity="0" result="BackgroundImageFix"/>
<feColorMatrix in="SourceAlpha" type="matrix" values="0 0 0 0 0 0 0 0 0 0 0 0 0 0 0 0 0 0 127 0" result="hardAlpha"/>
<feOffset/>
<feGaussianBlur stdDeviation="2"/>
<feComposite in2="hardAlpha" operator="out"/>
<feColorMatrix type="matrix" values="0 0 0 0 0 0 0 0 0 0 0 0 0 0 0 0 0 0 0.2 0"/>
<feBlend mode="normal" in2="BackgroundImageFix" result="effect1_dropShadow_5327_27696"/>
<feBlend mode="normal" in="SourceGraphic" in2="effect1_dropShadow_5327_27696" result="shape"/>
</filter>
</defs>
</svg>
