<svg width="32" height="32" viewBox="0 0 32 32" fill="none" xmlns="http://www.w3.org/2000/svg">
<rect width="32" height="32" rx="12" fill="#BECBDD"/>
<rect x="0.5" y="0.5" width="31" height="31" rx="11.5" stroke="black" stroke-opacity="0.1"/>
<g filter="url(#filter0_d_5327_27700)">
<path d="M15.2998 11.7C15.2998 13.3568 13.9567 14.7 12.2998 14.7C10.643 14.7 9.2998 13.3568 9.2998 11.7C9.2998 10.0431 10.643 8.69995 12.2998 8.69995C13.9567 8.69995 15.2998 10.0431 15.2998 11.7Z" fill="white"/>
<path d="M21.1834 22.562C21.7843 22.1856 22.3852 21.749 22.9436 21.2593C24.4907 19.9025 25.4 18.6603 25.4 17.1256V13.4516L20.7 10.8511L16 13.4516V17.1256C16 18.6603 16.9093 19.9025 18.4564 21.2593C19.0148 21.749 19.6157 22.1856 20.2166 22.562C20.3892 22.6702 20.5513 22.7667 20.7 22.8511C20.8487 22.7667 21.0108 22.6702 21.1834 22.562Z" fill="white"/>
<path d="M20.7002 14.0515V16.6515" stroke="#BECBDD" stroke-width="1.8" stroke-linecap="round"/>
<path d="M20.7002 19.5515V19.6515" stroke="#BECBDD" stroke-width="1.8" stroke-linecap="round"/>
<path fill-rule="evenodd" clip-rule="evenodd" d="M14.4002 16.499H9.54655C7.76069 16.499 6.53051 18.3863 7.17203 20.1419L7.68112 21.5351C8.05922 22.5698 9.0031 23.2524 10.0556 23.2524H14.6072C15.5003 23.2524 16.3151 22.761 16.7725 21.9801C15.4052 20.6736 14.4002 19.3259 14.4002 17.3365V16.499Z" fill="white"/>
</g>
<defs>
<filter id="filter0_d_5327_27700" x="2" y="2" width="28" height="28" filterUnits="userSpaceOnUse" color-interpolation-filters="sRGB">
<feFlood flood-opacity="0" result="BackgroundImageFix"/>
<feColorMatrix in="SourceAlpha" type="matrix" values="0 0 0 0 0 0 0 0 0 0 0 0 0 0 0 0 0 0 127 0" result="hardAlpha"/>
<feOffset/>
<feGaussianBlur stdDeviation="2"/>
<feColorMatrix type="matrix" values="0 0 0 0 0 0 0 0 0 0 0 0 0 0 0 0 0 0 0.2 0"/>
<feBlend mode="normal" in2="BackgroundImageFix" result="effect1_dropShadow_5327_27700"/>
<feBlend mode="normal" in="SourceGraphic" in2="effect1_dropShadow_5327_27700" result="shape"/>
</filter>
</defs>
</svg>
