<svg width="32" height="32" viewBox="0 0 32 32" fill="none" xmlns="http://www.w3.org/2000/svg">
<rect width="32" height="32" rx="12" fill="#BECBDD"/>
<rect x="0.5" y="0.5" width="31" height="31" rx="11.5" stroke="black" stroke-opacity="0.1"/>
<rect width="32" height="32" rx="12" fill="#BECBDD"/>
<rect x="0.5" y="0.5" width="31" height="31" rx="11.5" stroke="black" stroke-opacity="0.1"/>
<g filter="url(#filter0_d_5327_27712)">
<path fill-rule="evenodd" clip-rule="evenodd" d="M7 11C7 9.89543 7.89543 9 9 9H23C24.1046 9 25 9.89543 25 11V21C25 22.1046 24.1046 23 23 23H9C7.89543 23 7 22.1046 7 21V11ZM8.90039 10.7007H13.2004V12.3007H10.5004V15.0007H8.90039V10.7007ZM18.7996 21.3008H23.0996V17.0007H21.4996V19.7008H18.7996V21.3008ZM23.0996 10.7007V15.0007H21.4996V12.3007H18.7996L18.7996 10.7007L23.0996 10.7007ZM8.90039 17.0007L8.90039 21.3008L13.2004 21.3008V19.7008H10.5004L10.5004 17.0007H8.90039Z" fill="white"/>
<path fill-rule="evenodd" clip-rule="evenodd" d="M8.90039 10.7007H13.2004V12.3007H10.5004V15.0007H8.90039V10.7007Z" fill="#BECBDD"/>
<path fill-rule="evenodd" clip-rule="evenodd" d="M23.0996 21.3008L18.7996 21.3008L18.7996 19.7008L21.4996 19.7008L21.4996 17.0007L23.0996 17.0007L23.0996 21.3008Z" fill="#BECBDD"/>
<path fill-rule="evenodd" clip-rule="evenodd" d="M23.0996 10.7007L23.0996 15.0007L21.4996 15.0007L21.4996 12.3007L18.7996 12.3007L18.7996 10.7007L23.0996 10.7007Z" fill="#BECBDD"/>
<path fill-rule="evenodd" clip-rule="evenodd" d="M8.90039 21.3008L8.90039 17.0007L10.5004 17.0007L10.5004 19.7008L13.2004 19.7008L13.2004 21.3008L8.90039 21.3008Z" fill="#BECBDD"/>
</g>
<defs>
<filter id="filter0_d_5327_27712" x="2" y="2" width="28" height="28" filterUnits="userSpaceOnUse" color-interpolation-filters="sRGB">
<feFlood flood-opacity="0" result="BackgroundImageFix"/>
<feColorMatrix in="SourceAlpha" type="matrix" values="0 0 0 0 0 0 0 0 0 0 0 0 0 0 0 0 0 0 127 0" result="hardAlpha"/>
<feOffset/>
<feGaussianBlur stdDeviation="2"/>
<feColorMatrix type="matrix" values="0 0 0 0 0 0 0 0 0 0 0 0 0 0 0 0 0 0 0.2 0"/>
<feBlend mode="normal" in2="BackgroundImageFix" result="effect1_dropShadow_5327_27712"/>
<feBlend mode="normal" in="SourceGraphic" in2="effect1_dropShadow_5327_27712" result="shape"/>
</filter>
</defs>
</svg>
