<svg width="32" height="32" viewBox="0 0 32 32" fill="none" xmlns="http://www.w3.org/2000/svg">
<rect width="32" height="32" rx="12" fill="#BECBDD"/>
<rect x="0.5" y="0.5" width="31" height="31" rx="11.5" stroke="black" stroke-opacity="0.1"/>
<g filter="url(#filter0_d_5327_27719)">
<path d="M22.1055 22.4866C21.6091 23.7785 20.3698 24.6309 18.988 24.6309L13.012 24.6309C11.6302 24.6309 10.3909 23.7785 9.8945 22.4866L9.22611 20.747C8.38384 18.555 9.99897 16.1985 12.3437 16.1985L19.6563 16.1985C22.001 16.1985 23.6162 18.555 22.7739 20.747L22.1055 22.4866Z" fill="white"/>
<path d="M19.721 11.0465C19.721 13.1163 18.0431 14.7942 15.9733 14.7942C13.9035 14.7942 12.2256 13.1163 12.2256 11.0465C12.2256 8.97673 13.9035 7.29883 15.9733 7.29883C18.0431 7.29883 19.721 8.97673 19.721 11.0465Z" fill="white"/>
</g>
<defs>
<filter id="filter0_d_5327_27719" x="2" y="2" width="28" height="28" filterUnits="userSpaceOnUse" color-interpolation-filters="sRGB">
<feFlood flood-opacity="0" result="BackgroundImageFix"/>
<feColorMatrix in="SourceAlpha" type="matrix" values="0 0 0 0 0 0 0 0 0 0 0 0 0 0 0 0 0 0 127 0" result="hardAlpha"/>
<feOffset/>
<feGaussianBlur stdDeviation="2"/>
<feComposite in2="hardAlpha" operator="out"/>
<feColorMatrix type="matrix" values="0 0 0 0 0 0 0 0 0 0 0 0 0 0 0 0 0 0 0.2 0"/>
<feBlend mode="normal" in2="BackgroundImageFix" result="effect1_dropShadow_5327_27719"/>
<feBlend mode="normal" in="SourceGraphic" in2="effect1_dropShadow_5327_27719" result="shape"/>
</filter>
</defs>
</svg>
