<svg width="32" height="32" viewBox="0 0 32 32" fill="none" xmlns="http://www.w3.org/2000/svg">
<rect width="32" height="32" rx="12" fill="#BECBDD"/>
<rect x="0.5" y="0.5" width="31" height="31" rx="11.5" stroke="black" stroke-opacity="0.1"/>
<g filter="url(#filter0_d_5327_27702)">
<path d="M13.4404 12.5078L9.93166 12.5078L11.686 10.7534L13.4404 8.99904L13.4404 12.5078Z" fill="#BECBDD"/>
<path fill-rule="evenodd" clip-rule="evenodd" d="M12.5088 7.66602H20.158C21.2625 7.66602 22.158 8.56145 22.158 9.66602V15.2949C21.3748 15.0618 20.4918 15.2545 19.8735 15.8729L17.3735 18.3729C16.4752 19.2711 16.4752 20.7274 17.3735 21.6256C17.8735 22.1256 18.5464 22.3472 19.1998 22.2906V23.4992C19.1998 23.7932 19.2549 24.0743 19.3555 24.3327H11C9.89543 24.3327 9 23.4372 9 22.3327L9.00005 11.1748L12.5088 7.66602ZM22.158 16.8846V22.3327C22.158 23.169 21.6446 23.8854 20.9159 24.1841C20.7224 24.019 20.5998 23.7734 20.5998 23.4992V19.672L19.6362 20.6356C19.5117 20.7601 19.3597 20.8405 19.1998 20.8768C18.9083 20.943 18.5903 20.8626 18.3634 20.6356C18.0119 20.2841 18.0119 19.7143 18.3634 19.3628L20.8634 16.8628C21.2149 16.5114 21.7847 16.5114 22.1362 16.8628L22.158 16.8846ZM9.92872 12.5078L11.6831 10.7534L13.4375 8.99904L13.4375 12.5078L9.92872 12.5078Z" fill="white"/>
<path fill-rule="evenodd" clip-rule="evenodd" d="M24.6368 20.6365C24.2853 20.988 23.7155 20.988 23.364 20.6365L22.4004 19.6729V23.5001C22.4004 23.9972 21.9974 24.4001 21.5004 24.4001C21.0033 24.4001 20.6004 23.9972 20.6004 23.5001V19.6729L19.6368 20.6365C19.2853 20.988 18.7155 20.988 18.364 20.6365C18.0125 20.285 18.0125 19.7152 18.364 19.3637L20.864 16.8637C21.2155 16.5122 21.7853 16.5122 22.1368 16.8637L24.6368 19.3637C24.9883 19.7152 24.9883 20.285 24.6368 20.6365Z" fill="white"/>
</g>
<defs>
<filter id="filter0_d_5327_27702" x="2" y="2" width="28" height="28" filterUnits="userSpaceOnUse" color-interpolation-filters="sRGB">
<feFlood flood-opacity="0" result="BackgroundImageFix"/>
<feColorMatrix in="SourceAlpha" type="matrix" values="0 0 0 0 0 0 0 0 0 0 0 0 0 0 0 0 0 0 127 0" result="hardAlpha"/>
<feOffset/>
<feGaussianBlur stdDeviation="2"/>
<feColorMatrix type="matrix" values="0 0 0 0 0 0 0 0 0 0 0 0 0 0 0 0 0 0 0.2 0"/>
<feBlend mode="normal" in2="BackgroundImageFix" result="effect1_dropShadow_5327_27702"/>
<feBlend mode="normal" in="SourceGraphic" in2="effect1_dropShadow_5327_27702" result="shape"/>
</filter>
</defs>
</svg>
