<svg width="32" height="32" viewBox="0 0 32 32" fill="none" xmlns="http://www.w3.org/2000/svg">
<rect width="32" height="32" rx="12" fill="#BECBDD"/>
<rect x="0.5" y="0.5" width="31" height="31" rx="11.5" stroke="black" stroke-opacity="0.1"/>
<g filter="url(#filter0_d_20575_2423)">
<path d="M11.96 8.2C11.96 7.8134 12.2734 7.5 12.66 7.5C13.0466 7.5 13.36 7.8134 13.36 8.2V10.5333C13.36 10.9199 13.0466 11.2333 12.66 11.2333C12.2734 11.2333 11.96 10.9199 11.96 10.5333V8.2Z" fill="white"/>
<path d="M18.64 8.2C18.64 7.8134 18.9534 7.5 19.34 7.5C19.7266 7.5 20.04 7.8134 20.04 8.2V10.5333C20.04 10.9199 19.7266 11.2333 19.34 11.2333C18.9534 11.2333 18.64 10.9199 18.64 10.5333V8.2Z" fill="white"/>
<path d="M24 22C24 23.1046 23.1046 24 22 24H10C8.89543 24 8 23.1046 8 22V15.1328H24V22Z" fill="white"/>
<path d="M17.1084 10.375C17.1084 11.6037 18.1044 12.6004 19.333 12.6006C20.5618 12.6006 21.5586 11.6038 21.5586 10.375V9H22C23.1046 9 24 9.89543 24 11V13.5996H8V11C8 9.89543 8.89543 9 10 9H10.4424V10.375C10.4424 11.6038 11.4382 12.6006 12.667 12.6006C13.8958 12.6005 14.8916 11.6038 14.8916 10.375V9H17.1084V10.375Z" fill="white"/>
</g>
<defs>
<filter id="filter0_d_20575_2423" x="4" y="3.5" width="24" height="24.5" filterUnits="userSpaceOnUse" color-interpolation-filters="sRGB">
<feFlood flood-opacity="0" result="BackgroundImageFix"/>
<feColorMatrix in="SourceAlpha" type="matrix" values="0 0 0 0 0 0 0 0 0 0 0 0 0 0 0 0 0 0 127 0" result="hardAlpha"/>
<feOffset/>
<feGaussianBlur stdDeviation="2"/>
<feComposite in2="hardAlpha" operator="out"/>
<feColorMatrix type="matrix" values="0 0 0 0 0 0 0 0 0 0 0 0 0 0 0 0 0 0 0.2 0"/>
<feBlend mode="normal" in2="BackgroundImageFix" result="effect1_dropShadow_20575_2423"/>
<feBlend mode="normal" in="SourceGraphic" in2="effect1_dropShadow_20575_2423" result="shape"/>
</filter>
</defs>
</svg>
