<svg width="32" height="32" viewBox="0 0 32 32" fill="none" xmlns="http://www.w3.org/2000/svg">
<rect width="32" height="32" rx="12" fill="#BECBDD"/>
<rect x="0.5" y="0.5" width="31" height="31" rx="11.5" stroke="black" stroke-opacity="0.1"/>
<g filter="url(#filter0_d_5327_27732)">
<path d="M19 7.5H11C9.89543 7.5 9 8.39543 9 9.5V22.5C9 23.6046 9.89543 24.5 11 24.5H21C22.1046 24.5 23 23.6046 23 22.5V11.5L19 7.5Z" fill="white"/>
<path d="M18 12.5L22 12.5L20 10.5L18 8.5L18 12.5Z" fill="#BECBDD"/>
<path d="M19.0528 20.8256C18.8045 21.4655 18.1849 21.8877 17.494 21.8877L14.506 21.8877C13.8151 21.8877 13.1955 21.4655 12.9472 20.8256L12.6131 19.964C12.1919 18.8783 12.9995 17.7111 14.1718 17.7111L17.8282 17.7111C19.0005 17.7111 19.8081 18.8783 19.3869 19.964L19.0528 20.8256Z" fill="#BECBDD"/>
<path d="M17.8513 14.8553C17.8513 15.88 17.0206 16.7106 15.9959 16.7106C14.9713 16.7106 14.1406 15.88 14.1406 14.8553C14.1406 13.8307 14.9713 13 15.9959 13C17.0206 13 17.8513 13.8307 17.8513 14.8553Z" fill="#BECBDD"/>
</g>
<defs>
<filter id="filter0_d_5327_27732" x="2" y="2" width="28" height="28" filterUnits="userSpaceOnUse" color-interpolation-filters="sRGB">
<feFlood flood-opacity="0" result="BackgroundImageFix"/>
<feColorMatrix in="SourceAlpha" type="matrix" values="0 0 0 0 0 0 0 0 0 0 0 0 0 0 0 0 0 0 127 0" result="hardAlpha"/>
<feOffset/>
<feGaussianBlur stdDeviation="2"/>
<feColorMatrix type="matrix" values="0 0 0 0 0 0 0 0 0 0 0 0 0 0 0 0 0 0 0.2 0"/>
<feBlend mode="normal" in2="BackgroundImageFix" result="effect1_dropShadow_5327_27732"/>
<feBlend mode="normal" in="SourceGraphic" in2="effect1_dropShadow_5327_27732" result="shape"/>
</filter>
</defs>
</svg>
