<svg width="32" height="32" viewBox="0 0 32 32" fill="none" xmlns="http://www.w3.org/2000/svg">
<rect width="32" height="32" rx="12" fill="#BECBDD"/>
<rect x="0.5" y="0.5" width="31" height="31" rx="11.5" stroke="black" stroke-opacity="0.1"/>
<g filter="url(#filter0_d_5327_27733)">
<path d="M19 18H13C12.4477 18 12 18.4477 12 19V23C12 23.5523 12.4477 24 13 24H19C19.5523 24 20 23.5523 20 23V19C20 18.4477 19.5523 18 19 18Z" fill="white"/>
<path d="M19 7.5H13C12.4477 7.5 12 7.94772 12 8.5V11C12 11.2761 12.2239 11.5 12.5 11.5H19.5C19.7761 11.5 20 11.2761 20 11V8.5C20 7.94772 19.5523 7.5 19 7.5Z" fill="white"/>
<path d="M23 13H9C7.89543 13 7 13.8954 7 15V20C7 20.5523 7.44772 21 8 21H9.875C10.1511 21 10.375 20.7761 10.375 20.5V17.9286C10.375 17.1001 11.0466 16.4286 11.875 16.4286H20.125C20.9534 16.4286 21.625 17.1001 21.625 17.9286V20.5C21.625 20.7761 21.8489 21 22.125 21H24C24.5523 21 25 20.5523 25 20V15C25 13.8954 24.1046 13 23 13Z" fill="white"/>
</g>
<defs>
<filter id="filter0_d_5327_27733" x="2" y="2" width="28" height="28" filterUnits="userSpaceOnUse" color-interpolation-filters="sRGB">
<feFlood flood-opacity="0" result="BackgroundImageFix"/>
<feColorMatrix in="SourceAlpha" type="matrix" values="0 0 0 0 0 0 0 0 0 0 0 0 0 0 0 0 0 0 127 0" result="hardAlpha"/>
<feOffset/>
<feGaussianBlur stdDeviation="2"/>
<feColorMatrix type="matrix" values="0 0 0 0 0 0 0 0 0 0 0 0 0 0 0 0 0 0 0.2 0"/>
<feBlend mode="normal" in2="BackgroundImageFix" result="effect1_dropShadow_5327_27733"/>
<feBlend mode="normal" in="SourceGraphic" in2="effect1_dropShadow_5327_27733" result="shape"/>
</filter>
</defs>
</svg>
