<svg width="32" height="32" viewBox="0 0 32 32" fill="none" xmlns="http://www.w3.org/2000/svg">
<rect width="32" height="32" rx="12" fill="#F77E6E"/>
<rect x="0.5" y="0.5" width="31" height="31" rx="11.5" stroke="black" stroke-opacity="0.1"/>
<g filter="url(#filter0_d_20577_1589)">
<path d="M8.34998 10.0002V14.5002H12.85" fill="white"/>
<path d="M8.34998 10.0002V14.5002H12.85L8.34998 10.0002Z" stroke="white" stroke-width="2" stroke-linecap="round" stroke-linejoin="round"/>
<path d="M9.25 13.75L11.6801 11.2301C12.7158 10.1961 14.0595 9.52681 15.5087 9.32292C16.9578 9.11903 18.434 9.39163 19.7148 10.0997C20.9955 10.8077 22.0115 11.9128 22.6096 13.2484C23.2077 14.5841 23.3555 16.0779 23.0308 17.5049C22.7061 18.9318 21.9264 20.2146 20.8092 21.1599C19.6921 22.1052 18.298 22.6618 16.8369 22.7459C15.3759 22.83 13.9271 22.437 12.7089 21.6261C11.7932 21.0166 11.045 20.1957 10.5233 19.2394" stroke="white" stroke-width="2" stroke-linecap="round" stroke-linejoin="round"/>
</g>
<defs>
<filter id="filter0_d_20577_1589" x="2" y="2" width="28" height="28" filterUnits="userSpaceOnUse" color-interpolation-filters="sRGB">
<feFlood flood-opacity="0" result="BackgroundImageFix"/>
<feColorMatrix in="SourceAlpha" type="matrix" values="0 0 0 0 0 0 0 0 0 0 0 0 0 0 0 0 0 0 127 0" result="hardAlpha"/>
<feOffset/>
<feGaussianBlur stdDeviation="2"/>
<feColorMatrix type="matrix" values="0 0 0 0 0 0 0 0 0 0 0 0 0 0 0 0 0 0 0.2 0"/>
<feBlend mode="normal" in2="BackgroundImageFix" result="effect1_dropShadow_20577_1589"/>
<feBlend mode="normal" in="SourceGraphic" in2="effect1_dropShadow_20577_1589" result="shape"/>
</filter>
</defs>
</svg>
