<svg width="20" height="20" viewBox="0 0 20 20" fill="none" xmlns="http://www.w3.org/2000/svg">
<path fill-rule="evenodd" clip-rule="evenodd" d="M7.86442 1.19995C5.69781 1.19995 3.94141 2.95634 3.94141 5.12296C3.94141 7.28958 5.69781 9.04597 7.86442 9.04597C10.031 9.04597 11.7874 7.28958 11.7874 5.12296C11.7874 2.95634 10.031 1.19995 7.86442 1.19995ZM5.54141 5.12296C5.54141 3.84 6.58146 2.79995 7.86442 2.79995C9.14739 2.79995 10.1874 3.84 10.1874 5.12296C10.1874 6.40592 9.14739 7.44597 7.86442 7.44597C6.58146 7.44597 5.54141 6.40592 5.54141 5.12296Z" fill="currentColor"/>
<path d="M10.3585 18.8007C11.3484 18.8007 12.27 18.3941 12.932 17.7132C13.24 17.3964 13.2329 16.8899 12.9161 16.5819C12.5993 16.2739 12.0929 16.2811 11.7849 16.5979C11.4174 16.9758 10.9067 17.2007 10.3585 17.2007H5.36996C4.54732 17.2007 3.8096 16.6941 3.51409 15.9264L2.95613 14.4768C2.45473 13.1742 3.41622 11.7739 4.812 11.7739H7.86349C8.30531 11.7739 8.66349 11.4157 8.66349 10.9739C8.66349 10.5321 8.30531 10.1739 7.86349 10.1739L4.812 10.1739C2.29319 10.1739 0.558115 12.7009 1.46293 15.0516L2.02089 16.5012C2.55417 17.8866 3.88544 18.8007 5.36996 18.8007H10.3585Z" fill="currentColor"/>
<path d="M14.6059 6.32446C15.0477 6.32446 15.4059 6.68264 15.4059 7.12446V9.69568H17.977C18.4189 9.69568 18.777 10.0539 18.777 10.4957C18.777 10.9375 18.4189 11.2957 17.977 11.2957H15.4059V13.8669C15.4059 14.3087 15.0477 14.6669 14.6059 14.6669C14.1641 14.6669 13.8059 14.3087 13.8059 13.8669V11.2957H11.2346C10.7928 11.2957 10.4346 10.9375 10.4346 10.4957C10.4346 10.0539 10.7928 9.69568 11.2346 9.69568H13.8059V7.12446C13.8059 6.68264 14.1641 6.32446 14.6059 6.32446Z" fill="currentColor"/>
</svg>
