<svg width="20" height="20" viewBox="0 0 20 20" fill="none" xmlns="http://www.w3.org/2000/svg">
<g clip-path="url(#clip0_3031_1101)">
<path fill-rule="evenodd" clip-rule="evenodd" d="M6.33355 5.9652C6.94303 4.47238 9.05697 4.47237 9.66646 5.9652L10.9011 8.9893C10.9215 9.03906 10.9609 9.07855 11.0107 9.09887L14.0348 10.3335C15.5276 10.943 15.5276 13.057 14.0348 13.6665L11.0107 14.9011C10.9609 14.9215 10.9215 14.9609 10.9011 15.0107L9.66646 18.0348C9.05697 19.5276 6.94304 19.5276 6.33355 18.0348L5.09887 15.0107C5.07855 14.9609 5.03906 14.9215 4.9893 14.9011L1.9652 13.6665C0.472376 13.057 0.472373 10.943 1.9652 10.3335L4.9893 9.09887C5.03906 9.07855 5.07855 9.03906 5.09887 8.9893L6.33355 5.9652ZM8.18517 6.56998C8.11744 6.40411 7.88256 6.40411 7.81484 6.56998L6.58016 9.59408C6.39732 10.0419 6.04192 10.3973 5.59408 10.5802L2.56998 11.8148C2.40411 11.8826 2.40411 12.1174 2.56998 12.1852L5.59408 13.4198C6.04192 13.6027 6.39732 13.9581 6.58016 14.4059L7.81484 17.43C7.88256 17.5959 8.11744 17.5959 8.18517 17.43L9.41985 14.4059C9.60269 13.9581 9.95809 13.6027 10.4059 13.4198L13.43 12.1852C13.5959 12.1174 13.5959 11.8826 13.43 11.8148L10.4059 10.5802C9.95809 10.3973 9.60269 10.0419 9.41985 9.59408L8.18517 6.56998Z" fill="currentColor"/>
<path fill-rule="evenodd" clip-rule="evenodd" d="M15.5 0.400024C15.7438 0.400024 15.9634 0.547531 16.0555 0.773231L16.9749 3.02513L19.2268 3.94454C19.4525 4.03669 19.6 4.25624 19.6 4.50002C19.6 4.74381 19.4525 4.96336 19.2268 5.05551L16.9749 5.97492L16.0555 8.22682C15.9634 8.45252 15.7438 8.60002 15.5 8.60002C15.2562 8.60002 15.0367 8.45252 14.9445 8.22682L14.0251 5.97492L11.7732 5.05551C11.5475 4.96336 11.4 4.74381 11.4 4.50002C11.4 4.25624 11.5475 4.03669 11.7732 3.94454L14.0251 3.02513L14.9445 0.773231C15.0367 0.547531 15.2562 0.400024 15.5 0.400024ZM15.5 2.58737L15.0408 3.71212C14.9799 3.8614 14.8614 3.97986 14.7121 4.04081L13.5874 4.50002L14.7121 4.95924C14.8614 5.02018 14.9799 5.13865 15.0408 5.28793L15.5 6.41268L15.9592 5.28793C16.0202 5.13865 16.1386 5.02018 16.2879 4.95924L17.4127 4.50002L16.2879 4.04081C16.1386 3.97986 16.0202 3.8614 15.9592 3.71212L15.5 2.58737Z" fill="currentColor"/>
</g>
<defs>
<clipPath id="clip0_3031_1101">
<rect width="20" height="20" fill="white"/>
</clipPath>
</defs>
</svg>
