<svg width="20" height="20" viewBox="0 0 20 20" fill="none" xmlns="http://www.w3.org/2000/svg">
<path fill-rule="evenodd" clip-rule="evenodd" d="M10.6961 1.09735C10.3514 1.03288 10.0016 1 9.65171 1C8.1625 1 6.67329 1.59569 5.5812 2.58849C4.48911 3.77986 3.89342 5.1698 3.89342 6.75829C3.89342 11.9209 1.80852 13.5094 1.80852 13.5094C1.51068 13.708 1.4114 14.1051 1.51068 14.4029C1.51068 14.7008 1.9078 14.8993 2.20565 14.8993H17.0978C17.3956 14.8993 17.7927 14.7008 17.892 14.3036C17.9913 14.1051 17.7927 13.708 17.5942 13.5094C17.5942 13.5094 16.5111 12.7217 15.8703 10.4528C15.403 10.7017 14.8952 10.873 14.3607 10.9515C14.5715 11.6813 14.827 12.2954 15.095 12.8069C15.1902 12.9887 15.2864 13.1564 15.382 13.3108H3.98189C4.07839 13.149 4.17565 12.9724 4.27176 12.7802C4.91468 11.4944 5.48192 9.55936 5.48192 6.75829C5.48192 5.63132 5.88295 4.63235 6.70247 3.71674C7.45493 3.05513 8.45495 2.64372 9.44773 2.59366C9.77648 2.01378 10.2007 1.50614 10.6961 1.09735ZM1.80852 13.5094L2.76978 14.771L2.77134 14.7697C2.76371 14.7608 2.72261 14.7079 2.48977 14.4029L1.80852 13.5094Z" fill="currentColor"/>
<path d="M8.94968 16.9828C8.72957 16.6034 8.24355 16.4742 7.86412 16.6943C7.48469 16.9144 7.35553 17.4004 7.57563 17.7799C7.7909 18.151 8.09989 18.459 8.47166 18.6732C8.84343 18.8873 9.26493 19 9.69395 19C10.123 19 10.5445 18.8873 10.9162 18.6732C11.288 18.459 11.597 18.151 11.8123 17.7799C12.0324 17.4004 11.9032 16.9144 11.5238 16.6943C11.1443 16.4742 10.6583 16.6034 10.4382 16.9828C10.3626 17.1132 10.254 17.2214 10.1234 17.2967C9.99279 17.3719 9.84469 17.4115 9.69395 17.4115C9.54321 17.4115 9.39512 17.3719 9.2645 17.2967C9.13388 17.2214 9.02531 17.1132 8.94968 16.9828Z" fill="currentColor"/>
<path fill-rule="evenodd" clip-rule="evenodd" d="M16.9791 7.23358C16.9546 7.09841 16.9711 6.95901 17.0266 6.83333C17.0794 6.7101 17.1671 6.60499 17.2789 6.53096C17.3907 6.45693 17.5217 6.4172 17.6558 6.41667H17.6933C17.9143 6.41667 18.1262 6.32887 18.2825 6.17259C18.4388 6.01631 18.5266 5.80435 18.5266 5.58333C18.5266 5.36232 18.4388 5.15036 18.2825 4.99408C18.1262 4.8378 17.9143 4.75 17.6933 4.75H17.6224C17.4883 4.74946 17.3574 4.70974 17.2456 4.6357C17.1338 4.56167 17.0461 4.45657 16.9933 4.33333V4.3C16.9378 4.17433 16.9212 4.03492 16.9458 3.89975C16.9703 3.76459 17.0347 3.63987 17.1308 3.54167L17.1558 3.51667C17.2332 3.43927 17.2947 3.34737 17.3366 3.2462C17.3786 3.14504 17.4002 3.0366 17.4002 2.92708C17.4002 2.81757 17.3786 2.70913 17.3366 2.60797C17.2947 2.5068 17.2332 2.41489 17.1558 2.3375C17.0784 2.26002 16.9865 2.19855 16.8853 2.15662C16.7841 2.11468 16.6757 2.09309 16.5662 2.09309C16.4567 2.09309 16.3482 2.11468 16.2471 2.15662C16.1459 2.19855 16.054 2.26002 15.9766 2.3375L15.9516 2.3625C15.8534 2.45856 15.7287 2.52299 15.5935 2.5475C15.4583 2.57201 15.3189 2.55546 15.1933 2.5C15.07 2.44718 14.9649 2.35948 14.8909 2.24769C14.8169 2.13591 14.7771 2.00491 14.7766 1.87083V1.83333C14.7766 1.61232 14.6888 1.40036 14.5325 1.24408C14.3762 1.0878 14.1643 1 13.9433 1C13.7222 1 13.5103 1.0878 13.354 1.24408C13.1977 1.40036 13.1099 1.61232 13.1099 1.83333V1.90417C13.1094 2.03824 13.0697 2.16924 12.9956 2.28103C12.9216 2.39281 12.8165 2.48052 12.6933 2.53333H12.6599C12.5343 2.5888 12.3948 2.60534 12.2597 2.58083C12.1245 2.55633 11.9998 2.49189 11.9016 2.39583L11.8766 2.37083C11.7992 2.29335 11.7073 2.23189 11.6061 2.18995C11.505 2.14801 11.3965 2.12643 11.287 2.12643C11.1775 2.12643 11.0691 2.14801 10.9679 2.18995C10.8667 2.23189 10.7748 2.29335 10.6974 2.37083C10.6199 2.44823 10.5585 2.54013 10.5165 2.6413C10.4746 2.74246 10.453 2.8509 10.453 2.96042C10.453 3.06993 10.4746 3.17837 10.5165 3.27953C10.5585 3.3807 10.6199 3.47261 10.6974 3.55L10.7224 3.575C10.8185 3.6732 10.8829 3.79792 10.9074 3.93309C10.9319 4.06825 10.9154 4.20766 10.8599 4.33333C10.8123 4.46281 10.7268 4.57496 10.6146 4.65521C10.5024 4.73547 10.3687 4.78011 10.2308 4.78333H10.1933C9.97224 4.78333 9.76028 4.87113 9.604 5.02741C9.44772 5.18369 9.35992 5.39565 9.35992 5.61667C9.35992 5.83768 9.44772 6.04964 9.604 6.20592C9.76028 6.3622 9.97224 6.45 10.1933 6.45H10.2641C10.3982 6.45053 10.5292 6.49026 10.641 6.56429C10.7527 6.63833 10.8404 6.74343 10.8933 6.86667C10.9487 6.99234 10.9653 7.13175 10.9408 7.26691C10.9163 7.40208 10.8518 7.5268 10.7558 7.625L10.7308 7.65C10.6533 7.72739 10.5918 7.8193 10.5499 7.92047C10.5079 8.02163 10.4864 8.13007 10.4864 8.23958C10.4864 8.3491 10.5079 8.45753 10.5499 8.5587C10.5918 8.65986 10.6533 8.75177 10.7308 8.82917C10.8082 8.90665 10.9001 8.96811 11.0012 9.01005C11.1024 9.05199 11.2108 9.07357 11.3203 9.07357C11.4299 9.07357 11.5383 9.05199 11.6395 9.01005C11.7406 8.96811 11.8325 8.90665 11.9099 8.82917L11.9349 8.80417C12.0331 8.70811 12.1578 8.64367 12.293 8.61916C12.4282 8.59466 12.5676 8.6112 12.6933 8.66667C12.8227 8.71428 12.9349 8.79975 13.0151 8.91196C13.0954 9.02416 13.14 9.15792 13.1433 9.29583V9.33333C13.1433 9.55435 13.2311 9.76631 13.3873 9.92259C13.5436 10.0789 13.7556 10.1667 13.9766 10.1667C14.1976 10.1667 14.4096 10.0789 14.5658 9.92259C14.7221 9.76631 14.8099 9.55435 14.8099 9.33333V9.2625C14.8105 9.12842 14.8502 8.99743 14.9242 8.88564C14.9983 8.77385 15.1034 8.68615 15.2266 8.63333C15.3523 8.57787 15.4917 8.56132 15.6268 8.58583C15.762 8.61034 15.8867 8.67478 15.9849 8.77083L16.0099 8.79583C16.0873 8.87331 16.1792 8.93478 16.2804 8.97672C16.3816 9.01865 16.49 9.04024 16.5995 9.04024C16.709 9.04024 16.8175 9.01865 16.9186 8.97672C17.0198 8.93478 17.1117 8.87331 17.1891 8.79583C17.2666 8.71844 17.328 8.62653 17.37 8.52537C17.4119 8.4242 17.4335 8.31576 17.4335 8.20625C17.4335 8.09674 17.4119 7.9883 17.37 7.88713C17.328 7.78597 17.2666 7.69406 17.1891 7.61667L17.1641 7.59167C17.068 7.49347 17.0036 7.36874 16.9791 7.23358ZM15.4433 5.58325C15.4433 6.41168 14.7717 7.08325 13.9433 7.08325C13.1149 7.08325 12.4433 6.41168 12.4433 5.58325C12.4433 4.75482 13.1149 4.08325 13.9433 4.08325C14.7717 4.08325 15.4433 4.75482 15.4433 5.58325Z" fill="currentColor"/>
</svg>
