<svg width="20" height="20" viewBox="0 0 20 20" fill="none" xmlns="http://www.w3.org/2000/svg">
<path d="M10.8 4.16664C10.8 3.72481 10.4418 3.36664 9.99995 3.36664C9.55812 3.36664 9.19995 3.72481 9.19995 4.16664V13.9019L4.73238 9.43433C4.41997 9.12191 3.91343 9.12191 3.60101 9.43433C3.28859 9.74675 3.28859 10.2533 3.60101 10.5657L9.42937 16.3941C9.50593 16.4719 9.59832 16.5342 9.70133 16.5757C9.77173 16.6041 9.84709 16.6227 9.92574 16.6299C9.98576 16.6355 10.0463 16.6343 10.1061 16.6263C10.1446 16.6212 10.1822 16.6134 10.2187 16.603C10.3458 16.567 10.4657 16.499 10.5657 16.399L16.3991 10.5657C16.7115 10.2533 16.7115 9.74675 16.3991 9.43433C16.0866 9.12191 15.5801 9.12191 15.2677 9.43433L10.8 13.9021V4.16664Z" fill="currentColor"/>
</svg>
