<svg width="20" height="20" viewBox="0 0 20 20" fill="none" xmlns="http://www.w3.org/2000/svg">
<path d="M10.0184 3.3667C10.0549 3.36758 10.0907 3.37182 10.1258 3.37744C10.2865 3.40309 10.4414 3.47624 10.5652 3.6001L16.3983 9.43408C16.7105 9.7465 16.7106 10.2526 16.3983 10.5649C16.0858 10.8774 15.5788 10.8774 15.2664 10.5649L10.7986 6.09717L10.7986 15.8335C10.7986 16.2752 10.4405 16.6332 9.99884 16.6333C9.55706 16.6333 9.19911 16.2753 9.19904 15.8335L9.19904 6.09717L4.73126 10.5649C4.41885 10.8772 3.91279 10.8773 3.6004 10.5649C3.28802 10.2526 3.28809 9.74651 3.6004 9.43408L9.43341 3.6001C9.55657 3.47696 9.71024 3.40349 9.86993 3.37744C9.90537 3.37171 9.9415 3.36761 9.97833 3.3667C9.99168 3.36635 10.005 3.36638 10.0184 3.3667Z" fill="currentColor"/>
</svg>
