<svg width="20" height="20" viewBox="0 0 20 20" fill="none" xmlns="http://www.w3.org/2000/svg">
<path d="M10 1.66669C8.35182 1.66669 6.74066 2.15543 5.37025 3.07111C3.99984 3.98679 2.93174 5.28827 2.30101 6.81099C1.67027 8.33371 1.50525 10.0093 1.82679 11.6258C2.14833 13.2423 2.94201 14.7271 4.10744 15.8926C5.27288 17.058 6.75774 17.8517 8.37425 18.1732C9.99076 18.4948 11.6663 18.3297 13.189 17.699C14.7117 17.0683 16.0132 16.0002 16.9289 14.6298C17.8446 13.2594 18.3333 11.6482 18.3333 10C18.3333 8.90567 18.1178 7.82204 17.699 6.81099C17.2802 5.79995 16.6664 4.88129 15.8926 4.10746C15.1187 3.33364 14.2001 2.71981 13.189 2.30102C12.178 1.88224 11.0944 1.66669 10 1.66669V1.66669ZM10 16.6667C8.23189 16.6667 6.5362 15.9643 5.28596 14.7141C4.03571 13.4638 3.33333 11.7681 3.33333 10C3.33149 8.51947 3.82751 7.08131 4.74167 5.91669L14.0833 15.2584C12.9187 16.1725 11.4805 16.6685 10 16.6667V16.6667ZM15.2583 14.0834L5.91667 4.74169C7.08129 3.82753 8.51946 3.33151 10 3.33335C11.7681 3.33335 13.4638 4.03573 14.714 5.28598C15.9643 6.53622 16.6667 8.23191 16.6667 10C16.6685 11.4806 16.1725 12.9187 15.2583 14.0834Z" fill="currentColor"/>
</svg>
