<svg width="20" height="20" viewBox="0 0 20 20" fill="none" xmlns="http://www.w3.org/2000/svg">
<path fill-rule="evenodd" clip-rule="evenodd" d="M1.69995 15C1.69995 14.5582 2.05812 14.2 2.49995 14.2H17.5C17.9418 14.2 18.2999 14.5582 18.2999 15C18.2999 15.4418 17.9418 15.8 17.5 15.8H2.49995C2.05812 15.8 1.69995 15.4418 1.69995 15Z" fill="currentColor"/>
<path fill-rule="evenodd" clip-rule="evenodd" d="M1.69995 10C1.69995 9.55818 2.05812 9.20001 2.49995 9.20001H17.5C17.9418 9.20001 18.2999 9.55818 18.2999 10C18.2999 10.4418 17.9418 10.8 17.5 10.8H2.49995C2.05812 10.8 1.69995 10.4418 1.69995 10Z" fill="currentColor"/>
<path fill-rule="evenodd" clip-rule="evenodd" d="M1.69995 5.00001C1.69995 4.55818 2.05812 4.20001 2.49995 4.20001H17.5C17.9418 4.20001 18.2999 4.55818 18.2999 5.00001C18.2999 5.44184 17.9418 5.80001 17.5 5.80001H2.49995C2.05812 5.80001 1.69995 5.44184 1.69995 5.00001Z" fill="currentColor"/>
</svg>
