<svg width="20" height="20" viewBox="0 0 20 20" fill="none" xmlns="http://www.w3.org/2000/svg">
<path fill-rule="evenodd" clip-rule="evenodd" d="M13.2835 1C13.7189 1 14.0718 1.35295 14.0718 1.78833V2.64219H15.7471C17.0895 2.64219 18.1778 3.73044 18.1778 5.07287V16.5693C18.1778 17.9118 17.0895 19 15.7471 19H4.25063C2.9082 19 1.81995 17.9118 1.81995 16.5693V5.07287C1.81995 3.73044 2.9082 2.64219 4.25063 2.64219H5.9259V1.78833C5.9259 1.35295 6.27885 1 6.71423 1C7.14961 1 7.50256 1.35295 7.50256 1.78833V2.64219H12.4951V1.78833C12.4951 1.35295 12.8481 1 13.2835 1ZM5.9259 4.21885V5.07303C5.9259 5.50841 6.27885 5.86136 6.71423 5.86136C7.14961 5.86136 7.50256 5.50841 7.50256 5.07303V4.21885H12.4951V5.07303C12.4951 5.50841 12.8481 5.86136 13.2835 5.86136C13.7189 5.86136 14.0718 5.50841 14.0718 5.07303V4.21885H15.7471C16.2187 4.21885 16.6011 4.60121 16.6011 5.07287V7.56924H3.3966V5.07287C3.3966 4.60121 3.77896 4.21885 4.25063 4.21885H5.9259ZM16.6011 9.1459V16.5693C16.6011 17.041 16.2187 17.4233 15.7471 17.4233H4.25063C3.77896 17.4233 3.3966 17.041 3.3966 16.5693V9.1459H16.6011Z" fill="currentColor"/>
</svg>
