<svg width="20" height="20" viewBox="0 0 20 20" fill="none" xmlns="http://www.w3.org/2000/svg">
<path d="M1.43457 1.43457C1.74699 1.12215 2.25301 1.12215 2.56543 1.43457L18.5654 17.4346L18.6201 17.4951C18.8766 17.8093 18.8584 18.2725 18.5654 18.5654C18.2725 18.8584 17.8093 18.8766 17.4951 18.6201L17.4346 18.5654L16.2139 17.3457H3.4541C2.85642 17.3456 2.28303 17.1081 1.86035 16.6855C1.43754 16.2627 1.2002 15.6888 1.2002 15.0908V7.09082C1.20022 6.49299 1.43767 5.91984 1.86035 5.49707C2.28306 5.07437 2.85632 4.83606 3.4541 4.83594H3.7041L1.43457 2.56543C1.12215 2.25301 1.12215 1.74699 1.43457 1.43457ZM17.2002 13.8838V7.09082C17.2002 6.91726 17.1305 6.75066 17.0078 6.62793C16.8852 6.50548 16.7192 6.43664 16.5459 6.43652H13.6367C13.3692 6.43652 13.1191 6.30264 12.9707 6.08008L11.7539 4.25488H7.81836C7.37653 4.25488 7.01855 3.89593 7.01855 3.4541C7.01879 3.01248 7.37668 2.6543 7.81836 2.6543H12.1816C12.4491 2.6543 12.6993 2.78818 12.8477 3.01074L14.0645 4.83594H16.5459C17.1437 4.83606 17.7169 5.07437 18.1396 5.49707C18.5623 5.91984 18.7998 6.49299 18.7998 7.09082V13.8838C18.7997 14.3255 18.4418 14.6836 18 14.6836C17.5582 14.6836 17.2003 14.3255 17.2002 13.8838ZM8.31934 9.45117C8.26432 9.52211 8.21273 9.59607 8.16699 9.67383C8.00995 9.94089 7.91343 10.2394 7.88477 10.5479C7.85615 10.8563 7.89581 11.1676 8.00098 11.459C8.10619 11.7503 8.27412 12.0153 8.49316 12.2344C8.71226 12.4534 8.97713 12.6214 9.26855 12.7266C9.56002 12.8318 9.87115 12.8714 10.1797 12.8428C10.4882 12.8141 10.7866 12.7176 11.0537 12.5605C11.1314 12.5148 11.2045 12.4622 11.2754 12.4072L8.31934 9.45117ZM2.7998 15.0908C2.7998 15.2644 2.86944 15.431 2.99219 15.5537C3.11481 15.6762 3.28077 15.745 3.4541 15.7451H14.6133L12.4121 13.5439C12.2422 13.6912 12.0602 13.8248 11.8652 13.9395C11.3956 14.2157 10.8707 14.3851 10.3281 14.4355C9.78552 14.486 9.23817 14.4164 8.72559 14.2314C8.21303 14.0465 7.74765 13.7505 7.3623 13.3652C6.97699 12.9799 6.68111 12.5145 6.49609 12.002C6.31108 11.4893 6.24059 10.9421 6.29102 10.3994C6.34143 9.85688 6.51091 9.33198 6.78711 8.86231C6.90185 8.66722 7.03428 8.48351 7.18164 8.31348L5.30469 6.43652H3.4541C3.28081 6.43664 3.1148 6.50548 2.99219 6.62793C2.86946 6.75066 2.79983 6.91726 2.7998 7.09082V15.0908Z" fill="currentColor"/>
</svg>
