<svg width="20" height="20" viewBox="0 0 20 20" fill="none" xmlns="http://www.w3.org/2000/svg">
<path fill-rule="evenodd" clip-rule="evenodd" d="M2.19995 5C2.19995 4.00588 3.00584 3.2 3.99995 3.2H6.99995C7.99406 3.2 8.79995 4.00588 8.79995 5V7C8.79995 7.99411 7.99406 8.8 6.99995 8.8H3.99995C3.00584 8.8 2.19995 7.99411 2.19995 7V5ZM3.99995 4.8C3.88949 4.8 3.79995 4.88954 3.79995 5V7C3.79995 7.11045 3.88949 7.2 3.99995 7.2H6.99995C7.11041 7.2 7.19995 7.11045 7.19995 7V5C7.19995 4.88954 7.11041 4.8 6.99995 4.8H3.99995Z" fill="currentColor"/>
<path fill-rule="evenodd" clip-rule="evenodd" d="M11.2 5C11.2 4.00588 12.0058 3.2 13 3.2H16C16.9941 3.2 17.8 4.00588 17.8 5V7C17.8 7.99411 16.9941 8.8 16 8.8H13C12.0058 8.8 11.2 7.99411 11.2 7V5ZM13 4.8C12.8895 4.8 12.8 4.88954 12.8 5V7C12.8 7.11045 12.8895 7.2 13 7.2H16C16.1104 7.2 16.2 7.11045 16.2 7V5C16.2 4.88954 16.1104 4.8 16 4.8H13Z" fill="currentColor"/>
<path fill-rule="evenodd" clip-rule="evenodd" d="M2.19995 13C2.19995 12.0059 3.00584 11.2 3.99995 11.2H6.99995C7.99406 11.2 8.79995 12.0059 8.79995 13V15C8.79995 15.9941 7.99406 16.8 6.99995 16.8H3.99995C3.00584 16.8 2.19995 15.9941 2.19995 15V13ZM3.99995 12.8C3.88949 12.8 3.79995 12.8895 3.79995 13V15C3.79995 15.1105 3.88949 15.2 3.99995 15.2H6.99995C7.11041 15.2 7.19995 15.1105 7.19995 15V13C7.19995 12.8895 7.11041 12.8 6.99995 12.8H3.99995Z" fill="currentColor"/>
<path fill-rule="evenodd" clip-rule="evenodd" d="M11.2 13C11.2 12.0059 12.0058 11.2 13 11.2H16C16.9941 11.2 17.8 12.0059 17.8 13V15C17.8 15.9941 16.9941 16.8 16 16.8H13C12.0058 16.8 11.2 15.9941 11.2 15V13ZM13 12.8C12.8895 12.8 12.8 12.8895 12.8 13V15C12.8 15.1105 12.8895 15.2 13 15.2H16C16.1104 15.2 16.2 15.1105 16.2 15V13C16.2 12.8895 16.1104 12.8 16 12.8H13Z" fill="currentColor"/>
</svg>
