<svg width="20" height="20" viewBox="0 0 20 20" fill="none" xmlns="http://www.w3.org/2000/svg">
<path fill-rule="evenodd" clip-rule="evenodd" d="M2.19995 5C2.19995 4.00588 3.00584 3.2 3.99995 3.2H16C16.9941 3.2 17.8 4.00588 17.8 5V7C17.8 7.99411 16.9941 8.8 16 8.8H3.99995C3.00584 8.8 2.19995 7.99411 2.19995 7V5ZM3.99995 4.8C3.88949 4.8 3.79995 4.88954 3.79995 5V7C3.79995 7.11045 3.88949 7.2 3.99995 7.2H16C16.1104 7.2 16.2 7.11045 16.2 7V5C16.2 4.88954 16.1104 4.8 16 4.8H3.99995Z" fill="currentColor"/>
<path fill-rule="evenodd" clip-rule="evenodd" d="M2.19995 13C2.19995 12.0059 3.00584 11.2 3.99995 11.2H16C16.9941 11.2 17.8 12.0059 17.8 13V15C17.8 15.9941 16.9941 16.8 16 16.8H3.99995C3.00584 16.8 2.19995 15.9941 2.19995 15V13ZM3.99995 12.8C3.88949 12.8 3.79995 12.8895 3.79995 13V15C3.79995 15.1105 3.88949 15.2 3.99995 15.2H16C16.1104 15.2 16.2 15.1105 16.2 15V13C16.2 12.8895 16.1104 12.8 16 12.8H3.99995Z" fill="currentColor"/>
</svg>
