<svg width="20" height="20" viewBox="0 0 20 20" fill="none" xmlns="http://www.w3.org/2000/svg">
<path fill-rule="evenodd" clip-rule="evenodd" d="M4.50007 3.20001C4.71225 3.20001 4.91573 3.2843 5.06576 3.43433L7.06576 5.43433C7.37818 5.74675 7.37818 6.25328 7.06576 6.5657C6.75334 6.87812 6.24681 6.87812 5.93439 6.5657L5.30007 5.93138L5.30007 14.0686L5.93439 13.4343C6.24681 13.1219 6.75334 13.1219 7.06576 13.4343C7.37818 13.7467 7.37818 14.2533 7.06576 14.5657L5.06576 16.5657C4.91573 16.7157 4.71225 16.8 4.50007 16.8C4.2879 16.8 4.08442 16.7157 3.93439 16.5657L1.93439 14.5657C1.62197 14.2533 1.62197 13.7467 1.93439 13.4343C2.24681 13.1219 2.75334 13.1219 3.06576 13.4343L3.70007 14.0686L3.70007 5.93138L3.06576 6.5657C2.75334 6.87812 2.24681 6.87812 1.93439 6.5657C1.62197 6.25328 1.62197 5.74675 1.93439 5.43433L3.93439 3.43433C4.08442 3.2843 4.2879 3.20001 4.50007 3.20001Z" fill="currentColor"/>
<path fill-rule="evenodd" clip-rule="evenodd" d="M8.70005 5C8.70005 4.55818 9.05822 4.2 9.50005 4.2H17.5C17.9419 4.2 18.3001 4.55818 18.3001 5C18.3001 5.44183 17.9419 5.8 17.5 5.8H9.50005C9.05822 5.8 8.70005 5.44183 8.70005 5Z" fill="currentColor"/>
<path fill-rule="evenodd" clip-rule="evenodd" d="M8.70005 10C8.70005 9.55818 9.05822 9.2 9.50005 9.2H17.5C17.9419 9.2 18.3001 9.55818 18.3001 10C18.3001 10.4418 17.9419 10.8 17.5 10.8H9.50005C9.05822 10.8 8.70005 10.4418 8.70005 10Z" fill="currentColor"/>
<path fill-rule="evenodd" clip-rule="evenodd" d="M8.70005 15C8.70005 14.5582 9.05822 14.2 9.50005 14.2H17.5C17.9419 14.2 18.3001 14.5582 18.3001 15C18.3001 15.4418 17.9419 15.8 17.5 15.8H9.50005C9.05822 15.8 8.70005 15.4418 8.70005 15Z" fill="currentColor"/>
</svg>
