<svg width="20" height="20" viewBox="0 0 20 20" fill="none" xmlns="http://www.w3.org/2000/svg">
<path fill-rule="evenodd" clip-rule="evenodd" d="M6.29995 11.1984C6.90746 11.1984 7.39995 10.7059 7.39995 10.0984C7.39995 9.49088 6.90746 8.9984 6.29995 8.9984C5.69244 8.9984 5.19995 9.49088 5.19995 10.0984C5.19995 10.7059 5.69244 11.1984 6.29995 11.1984Z" fill="currentColor"/>
<path fill-rule="evenodd" clip-rule="evenodd" d="M9.90054 11.1988C10.5081 11.1988 11.0005 10.7063 11.0005 10.0988C11.0005 9.49128 10.5081 8.99879 9.90054 8.99879C9.29302 8.99879 8.80054 9.49128 8.80054 10.0988C8.80054 10.7063 9.29302 11.1988 9.90054 11.1988Z" fill="currentColor"/>
<path fill-rule="evenodd" clip-rule="evenodd" d="M13.5001 11.1992C14.1077 11.1992 14.6001 10.7067 14.6001 10.0992C14.6001 9.49166 14.1077 8.99918 13.5001 8.99918C12.8926 8.99918 12.4001 9.49166 12.4001 10.0992C12.4001 10.7067 12.8926 11.1992 13.5001 11.1992Z" fill="currentColor"/>
<path fill-rule="evenodd" clip-rule="evenodd" d="M9.90012 2.89996C5.92367 2.89996 2.70012 6.12351 2.70012 10.1C2.70012 12.0603 3.48248 13.8363 4.7538 15.1354C5.05477 15.4429 5.05854 15.9335 4.76233 16.2456L3.76208 17.2996L9.90012 17.3C13.2539 17.2999 16.074 15.0061 16.8733 11.9006C17.0212 11.3259 17.1001 10.7227 17.1001 10.1C17.1001 9.65813 17.4583 9.29996 17.9001 9.29996C18.3419 9.29996 18.7001 9.65813 18.7001 10.1C18.7001 10.8584 18.604 11.5955 18.4228 12.2994C17.446 16.0947 14.0017 18.9 9.90012 18.9L1.90008 18.8995C1.58032 18.8995 1.29129 18.7091 1.16507 18.4153C1.03886 18.1215 1.09971 17.7808 1.31982 17.5489L3.09432 15.6789C1.84867 14.1609 1.10012 12.2172 1.10012 10.1C1.10012 5.23985 5.04001 1.29996 9.90012 1.29996C10.3419 1.29996 10.7001 1.65813 10.7001 2.09996C10.7001 2.54179 10.3419 2.89996 9.90012 2.89996Z" fill="currentColor"/>
<path d="M16.0669 2.04442C16.0669 1.52282 15.644 1.09998 15.1224 1.09998C14.6008 1.09998 14.178 1.52282 14.178 2.04442V3.93351L12.2889 3.93332C11.7673 3.93327 11.3444 4.35607 11.3444 4.87767C11.3443 5.39927 11.7671 5.82216 12.2887 5.82221L14.178 5.8224V7.71109C14.178 8.23269 14.6008 8.65553 15.1224 8.65553C15.644 8.65553 16.0669 8.23269 16.0669 7.71109V5.82259L17.9554 5.82278C18.477 5.82283 18.8999 5.40003 18.8999 4.87843C18.9 4.35683 18.4772 3.93394 17.9556 3.93389L16.0669 3.9337V2.04442Z" fill="currentColor"/>
</svg>
