<svg width="20" height="20" viewBox="0 0 20 20" fill="none" xmlns="http://www.w3.org/2000/svg">
<path fill-rule="evenodd" clip-rule="evenodd" d="M18.0658 1.93433C18.3782 2.24676 18.3782 2.75329 18.0658 3.06571L13.598 7.53334L16.6666 7.53334C17.1084 7.53334 17.4666 7.89152 17.4666 8.33334C17.4666 8.77517 17.1084 9.13334 16.6666 9.13334L11.6666 9.13334C11.4544 9.13334 11.2509 9.04906 11.1009 8.89903C10.9509 8.749 10.8666 8.54552 10.8666 8.33334L10.8666 3.33334C10.8666 2.89152 11.2248 2.53334 11.6666 2.53334C12.1084 2.53334 12.4666 2.89152 12.4666 3.33334L12.4666 6.40201L16.9344 1.93432C17.2468 1.6219 17.7534 1.62191 18.0658 1.93433ZM2.53334 11.6667C2.53334 11.2249 2.89152 10.8667 3.33334 10.8667H8.33334C8.54552 10.8667 8.749 10.951 8.89903 11.101C9.04906 11.251 9.13335 11.4545 9.13335 11.6667L9.13334 16.6667C9.13334 17.1085 8.77517 17.4667 8.33334 17.4667C7.89152 17.4667 7.53334 17.1085 7.53334 16.6667L7.53334 13.5981L3.0657 18.0657C2.75328 18.3781 2.24674 18.3781 1.93433 18.0657C1.62191 17.7533 1.62191 17.2467 1.93433 16.9343L6.40197 12.4667H3.33334C2.89152 12.4667 2.53334 12.1085 2.53334 11.6667Z" fill="currentColor"/>
</svg>
