<svg width="20" height="20" viewBox="0 0 20 20" fill="none" xmlns="http://www.w3.org/2000/svg">
<path d="M11.6497 8.39051C12.085 8.39051 12.438 8.74345 12.438 9.17883V14.1058C12.438 14.5412 12.085 14.8942 11.6497 14.8942C11.2143 14.8942 10.8613 14.5412 10.8613 14.1058V9.17883C10.8613 8.74345 11.2143 8.39051 11.6497 8.39051Z" fill="currentColor"/>
<path d="M9.15338 9.17883C9.15338 8.74345 8.80044 8.39051 8.36506 8.39051C7.92969 8.39051 7.57674 8.74345 7.57674 9.17883V14.1058C7.57674 14.5412 7.92969 14.8942 8.36506 14.8942C8.80044 14.8942 9.15338 14.5412 9.15338 14.1058V9.17883Z" fill="currentColor"/>
<path fill-rule="evenodd" clip-rule="evenodd" d="M5.93433 4.1862V3.43066C5.93433 2.78601 6.19041 2.16776 6.64625 1.71192C7.10209 1.25609 7.72033 1 8.36498 1H11.6497C12.2943 1 12.9126 1.25609 13.3684 1.71192C13.8242 2.16776 14.0803 2.78601 14.0803 3.43066V4.1862H17.3979C17.8877 4.1862 18.2848 4.58326 18.2848 5.07306C18.2848 5.56286 17.8877 5.95992 17.3979 5.95992H16.5438V16.5693C16.5438 17.214 16.2877 17.8322 15.8319 18.2881C15.3761 18.7439 14.7578 19 14.1132 19H5.90148C5.25683 19 4.63858 18.7439 4.18275 18.2881C3.72691 17.8322 3.47082 17.214 3.47082 16.5693V5.95992H2.61687C2.12707 5.95992 1.73001 5.56286 1.73001 5.07306C1.73001 4.58326 2.12707 4.1862 2.61687 4.1862H5.93433ZM7.7611 2.82678C7.92126 2.66662 8.13848 2.57664 8.36498 2.57664H11.6497C11.8762 2.57664 12.0934 2.66662 12.2535 2.82678C12.4137 2.98694 12.5037 3.20416 12.5037 3.43066V4.1862H7.51097V3.43066C7.51097 3.20416 7.60095 2.98694 7.7611 2.82678ZM5.04746 5.95992V16.5693C5.04746 16.7958 5.13744 17.0131 5.2976 17.1732C5.45776 17.3334 5.67498 17.4234 5.90148 17.4234H14.1132C14.3397 17.4234 14.5569 17.3334 14.717 17.1732C14.8772 17.0131 14.9672 16.7958 14.9672 16.5693V5.95992H5.04746Z" fill="currentColor"/>
</svg>
