<svg width="20" height="20" viewBox="0 0 20 20" fill="none" xmlns="http://www.w3.org/2000/svg">
<g clip-path="url(#clip0_3031_1008)">
<path fill-rule="evenodd" clip-rule="evenodd" d="M5.19995 1.74995C5.19995 1.30812 5.55812 0.949951 5.99995 0.949951H11.75C11.9621 0.949951 12.1656 1.03424 12.3156 1.18427L17.3156 6.18427C17.4657 6.33429 17.55 6.53778 17.55 6.74995V12.5C17.55 12.9418 17.1918 13.3 16.75 13.3C16.3081 13.3 15.95 12.9418 15.95 12.5V7.54995H11.75C11.3081 7.54995 10.95 7.19178 10.95 6.74995V2.54995H5.99995C5.55812 2.54995 5.19995 2.19178 5.19995 1.74995ZM12.55 3.68132L14.8186 5.94995H12.55V3.68132ZM3.24995 2.69995C3.69178 2.69995 4.04995 3.05812 4.04995 3.49995V16.25C4.04995 16.9127 4.58721 17.45 5.24995 17.45H14.875C15.4687 17.45 15.95 16.9687 15.95 16.375C15.95 15.9331 16.4998 16 16.4998 16L16.9998 16.5C16.9998 16.5 17.4976 16.9805 17.4013 17.2565C17.0369 18.3007 16.0434 19.0499 14.875 19.0499H5.24995C3.70355 19.0499 2.44995 17.7963 2.44995 16.25V3.49995C2.44995 3.05812 2.80812 2.69995 3.24995 2.69995Z" fill="currentColor"/>
<path fill-rule="evenodd" clip-rule="evenodd" d="M0.267762 0.267518C0.580181 -0.0449017 1.08671 -0.0449017 1.39913 0.267518L19.7325 18.6008C20.0449 18.9133 20.0449 19.4198 19.7325 19.7322C19.42 20.0446 18.9135 20.0446 18.6011 19.7322L0.267762 1.39889C-0.0446576 1.08647 -0.0446576 0.579937 0.267762 0.267518Z" fill="currentColor"/>
</g>
<defs>
<clipPath id="clip0_3031_1008">
<rect width="20" height="20" fill="white"/>
</clipPath>
</defs>
</svg>
