<svg width="20" height="20" viewBox="0 0 20 20" fill="none" xmlns="http://www.w3.org/2000/svg">
<path fill-rule="evenodd" clip-rule="evenodd" d="M5.43451 5.43439C5.12209 5.74681 5.12209 6.25334 5.43451 6.56576L8.86882 10.0001L5.43451 13.4344C5.12209 13.7468 5.12209 14.2533 5.43451 14.5658C5.74693 14.8782 6.25346 14.8782 6.56588 14.5658L10.5659 10.5658C10.8783 10.2533 10.8783 9.74681 10.5659 9.43439L6.56588 5.43439C6.25346 5.12197 5.74693 5.12197 5.43451 5.43439Z" fill="currentColor"/>
<path fill-rule="evenodd" clip-rule="evenodd" d="M9.43451 5.43439C9.12209 5.74681 9.12209 6.25334 9.43451 6.56576L12.8688 10.0001L9.43451 13.4344C9.12209 13.7468 9.12209 14.2533 9.43451 14.5658C9.74693 14.8782 10.2535 14.8782 10.5659 14.5658L14.5659 10.5658C14.8783 10.2533 14.8783 9.74681 14.5659 9.43439L10.5659 5.43439C10.2535 5.12197 9.74693 5.12197 9.43451 5.43439Z" fill="currentColor"/>
</svg>
