<svg width="20" height="20" viewBox="0 0 20 20" fill="none" xmlns="http://www.w3.org/2000/svg">
<path fill-rule="evenodd" clip-rule="evenodd" d="M14.5655 5.43439C14.2531 5.12197 13.7465 5.12197 13.4341 5.43439L9.9998 8.8687L6.56549 5.43439C6.25307 5.12197 5.74654 5.12197 5.43412 5.43439C5.1217 5.74681 5.1217 6.25334 5.43412 6.56576L9.43412 10.5658C9.74654 10.8782 10.2531 10.8782 10.5655 10.5658L14.5655 6.56576C14.8779 6.25334 14.8779 5.74681 14.5655 5.43439Z" fill="currentColor"/>
<path fill-rule="evenodd" clip-rule="evenodd" d="M14.5655 9.43439C14.2531 9.12197 13.7465 9.12197 13.4341 9.43439L9.9998 12.8687L6.56549 9.43439C6.25307 9.12197 5.74654 9.12197 5.43412 9.43439C5.1217 9.74681 5.1217 10.2533 5.43412 10.5658L9.43412 14.5658C9.74654 14.8782 10.2531 14.8782 10.5655 14.5658L14.5655 10.5658C14.8779 10.2533 14.8779 9.74681 14.5655 9.43439Z" fill="currentColor"/>
</svg>
