<svg width="20" height="20" viewBox="0 0 20 20" fill="none" xmlns="http://www.w3.org/2000/svg">
<path d="M13.0657 7.93431C12.7533 7.62189 12.2468 7.62189 11.9343 7.93431C11.6219 8.24673 11.6219 8.75327 11.9343 9.06569L14.5686 11.7H6.49998C5.28496 11.7 4.29998 10.715 4.29998 9.49995V3.49995C4.29998 3.05812 3.94181 2.69995 3.49998 2.69995C3.05815 2.69995 2.69998 3.05812 2.69998 3.49995V9.49995C2.69998 11.5986 4.4013 13.3 6.49998 13.3H14.5687L11.9343 15.9343C11.6219 16.2467 11.6219 16.7533 11.9343 17.0657C12.2468 17.3781 12.7533 17.3781 13.0657 17.0657L17.0657 13.0657C17.1633 12.9681 17.2305 12.8515 17.2671 12.7278C17.2696 12.7192 17.272 12.7106 17.2742 12.702C17.2817 12.6732 17.2876 12.6441 17.2918 12.6148C17.2925 12.6098 17.2932 12.6048 17.2938 12.5997C17.3093 12.4755 17.2957 12.3484 17.2531 12.2293C17.2147 12.1223 17.1528 12.0219 17.0674 11.936C17.0668 11.9354 17.0663 11.9349 17.0657 11.9343" fill="currentColor"/>
<path d="M17.0657 11.9343L13.0657 7.93431Z" fill="currentColor"/>
</svg>
