<svg width="20" height="20" viewBox="0 0 20 20" fill="none" xmlns="http://www.w3.org/2000/svg">
<path d="M8.62996 6.81073C9.40612 6.81073 10.0353 6.18153 10.0353 5.40537C10.0353 4.6292 9.40612 4 8.62996 4C7.8538 4 7.22459 4.6292 7.22459 5.40537C7.22459 6.18153 7.8538 6.81073 8.62996 6.81073Z" fill="currentColor"/>
<path d="M12.4216 7.86316C12.9574 7.86316 13.3918 7.42879 13.3918 6.89297C13.3918 6.35715 12.9574 5.92278 12.4216 5.92278C11.8858 5.92278 11.4514 6.35715 11.4514 6.89297C11.4514 7.42879 11.8858 7.86316 12.4216 7.86316Z" fill="currentColor"/>
<path d="M9.75201 10.4997C10.2711 10.4997 10.7367 10.1801 10.9231 9.69559L11.1742 9.04328C11.4906 8.22128 10.8839 7.33761 10.0031 7.33761L7.25606 7.33761C6.37527 7.33761 5.76854 8.22128 6.08494 9.04327L6.33602 9.69559C6.5225 10.1801 6.98803 10.4997 7.50714 10.4997H9.75201Z" fill="currentColor"/>
<path d="M11.2739 10.4223C11.382 10.4724 11.5016 10.4999 11.6259 10.4999L13.2164 10.4999C13.5625 10.4999 13.8729 10.2868 13.9972 9.96382L14.1934 9.45407C14.4043 8.90607 13.9998 8.31696 13.4126 8.31696H11.9091C11.9547 8.62902 11.9235 8.95951 11.7987 9.28374L11.5477 9.93605C11.4793 10.1137 11.3865 10.2768 11.2739 10.4223Z" fill="currentColor"/>
<path d="M7.58051 14.0452C7.04604 14.0452 6.61276 14.4785 6.61276 15.013C6.61276 15.5474 7.04604 15.9807 7.58051 15.9807C8.11497 15.9807 8.54825 15.5474 8.54825 15.013C8.54825 14.4785 8.11497 14.0452 7.58051 14.0452Z" fill="currentColor"/>
<path d="M3.70974 15.0129C3.70974 14.4784 4.14301 14.0452 4.67748 14.0452C5.21195 14.0452 5.64522 14.4784 5.64522 15.0129C5.64522 15.5474 5.21195 15.9806 4.67748 15.9806C4.14301 15.9806 3.70974 15.5474 3.70974 15.0129Z" fill="currentColor"/>
<path fill-rule="evenodd" clip-rule="evenodd" d="M19 16.0291C19 17.2987 18.0714 18.4968 16.7302 18.4968L3.26979 18.4968C1.92859 18.4968 1 17.2987 1 16.0291L1 3.86777C1 2.59811 1.92859 1.40002 3.26979 1.40002L16.7302 1.40003C18.0714 1.40003 19 2.59811 19 3.86777L19 16.0291ZM17.4516 16.0291C17.4516 16.63 17.041 16.9484 16.7302 16.9484L3.26979 16.9484C2.959 16.9484 2.54839 16.63 2.54839 16.0291L2.54839 13.3355L17.4516 13.3355V16.0291ZM2.54839 11.7871L2.54839 3.86777C2.54839 3.26678 2.959 2.94841 3.26979 2.94841L16.7302 2.94841C17.041 2.94841 17.4516 3.26678 17.4516 3.86777L17.4516 11.7871L2.54839 11.7871Z" fill="currentColor"/>
</svg>
