<svg width="20" height="20" viewBox="0 0 20 20" fill="none" xmlns="http://www.w3.org/2000/svg">
<path d="M7.58051 14.0452C7.04604 14.0452 6.61276 14.4785 6.61276 15.013C6.61276 15.5474 7.04604 15.9807 7.58051 15.9807C8.11497 15.9807 8.54825 15.5474 8.54825 15.013C8.54825 14.4785 8.11497 14.0452 7.58051 14.0452Z" fill="currentColor"/>
<path d="M3.70974 15.0129C3.70974 14.4784 4.14301 14.0452 4.67748 14.0452C5.21195 14.0452 5.64522 14.4784 5.64522 15.0129C5.64522 15.5474 5.21195 15.9806 4.67748 15.9806C4.14301 15.9806 3.70974 15.5474 3.70974 15.0129Z" fill="currentColor"/>
<path fill-rule="evenodd" clip-rule="evenodd" d="M19 16.0291C19 17.2987 18.0714 18.4968 16.7302 18.4968L3.26979 18.4968C1.92859 18.4968 1 17.2987 1 16.0291L1 3.86777C1 2.59811 1.92859 1.40002 3.26979 1.40002L16.7302 1.40003C18.0714 1.40003 19 2.59811 19 3.86777L19 16.0291ZM17.4516 16.0291C17.4516 16.63 17.041 16.9484 16.7302 16.9484L3.26979 16.9484C2.959 16.9484 2.54839 16.63 2.54839 16.0291L2.54839 13.3355L17.4516 13.3355V16.0291ZM2.54839 11.7871L2.54839 3.86777C2.54839 3.26678 2.959 2.94841 3.26979 2.94841L16.7302 2.94841C17.041 2.94841 17.4516 3.26678 17.4516 3.86777L17.4516 11.7871L2.54839 11.7871Z" fill="currentColor"/>
</svg>
