<svg width="20" height="20" viewBox="0 0 20 20" fill="none" xmlns="http://www.w3.org/2000/svg">
<path d="M6.30001 3.00001C6.30001 2.55819 5.94184 2.20001 5.50001 2.20001C5.05818 2.20001 4.70001 2.55819 4.70001 3.00001V15.0686L3.0657 13.4343C2.75328 13.1219 2.24675 13.1219 1.93433 13.4343C1.62191 13.7467 1.62191 14.2533 1.93433 14.5657L4.92841 17.5598C4.95459 17.5865 4.98262 17.6114 5.01231 17.6343C5.04702 17.661 5.08343 17.6846 5.12112 17.7048C5.2339 17.7656 5.36293 17.8001 5.50001 17.8001C5.68359 17.8001 5.85272 17.7382 5.98772 17.6343C6.01741 17.6114 6.04544 17.5865 6.07162 17.5598L9.0657 14.5657C9.37812 14.2533 9.37812 13.7467 9.0657 13.4343C8.75328 13.1219 8.24675 13.1219 7.93433 13.4343L6.30001 15.0686V3.00001Z" fill="currentColor"/>
<path d="M13.7 17C13.7 17.4418 14.0582 17.8 14.5 17.8C14.9418 17.8 15.3 17.4418 15.3 17L15.3 4.93138L16.9343 6.5657C17.2467 6.87812 17.7533 6.87812 18.0657 6.5657C18.3781 6.25328 18.3781 5.74675 18.0657 5.43433L15.0716 2.4402C15.0454 2.41349 15.0174 2.3886 14.9877 2.36575C14.9523 2.33848 14.9152 2.31457 14.8767 2.29403C14.7645 2.23399 14.6362 2.19995 14.5 2.19995C14.3164 2.19995 14.1473 2.26178 14.0123 2.36575C13.9826 2.38863 13.9546 2.41355 13.9284 2.44029L10.9343 5.43433C10.6219 5.74675 10.6219 6.25328 10.9343 6.5657C11.2467 6.87812 11.7533 6.87812 12.0657 6.5657L13.7 4.93139V17Z" fill="currentColor"/>
</svg>
