<svg width="20" height="20" viewBox="0 0 20 20" fill="none" xmlns="http://www.w3.org/2000/svg">
<path d="M16.9999 6.30001C17.4418 6.30001 17.7999 5.94184 17.7999 5.50001C17.7999 5.05818 17.4418 4.70001 16.9999 4.70001L4.9313 4.70001L6.56561 3.0657C6.87803 2.75328 6.87803 2.24675 6.56561 1.93433C6.25319 1.62191 5.74666 1.62191 5.43424 1.93433L2.44015 4.92841C2.41343 4.95459 2.38853 4.98262 2.36567 5.01231C2.3389 5.04702 2.31538 5.08342 2.2951 5.12112C2.23434 5.23389 2.19986 5.36293 2.19986 5.50001C2.19986 5.68358 2.26169 5.85272 2.36567 5.98772C2.38853 6.0174 2.41343 6.04544 2.44016 6.07162L5.43424 9.0657C5.74666 9.37812 6.25319 9.37812 6.56561 9.0657C6.87803 8.75328 6.87803 8.24675 6.56561 7.93433L4.9313 6.30001L16.9999 6.30001Z" fill="currentColor"/>
<path d="M2.99993 13.7C2.5581 13.7 2.19992 14.0582 2.19992 14.5C2.19992 14.9418 2.5581 15.3 2.99993 15.3L15.0686 15.3L13.4342 16.9343C13.1218 17.2467 13.1218 17.7533 13.4342 18.0657C13.7467 18.3781 14.2532 18.3781 14.5656 18.0657L17.5597 15.0716C17.5865 15.0454 17.6113 15.0174 17.6342 14.9877C17.6615 14.9523 17.6854 14.9152 17.7059 14.8767C17.7659 14.7645 17.8 14.6362 17.8 14.5C17.8 14.3164 17.7382 14.1473 17.6342 14.0123C17.6113 13.9826 17.5864 13.9546 17.5596 13.9284L14.5656 10.9343C14.2532 10.6219 13.7467 10.6219 13.4342 10.9343C13.1218 11.2467 13.1218 11.7533 13.4342 12.0657L15.0686 13.7L2.99993 13.7Z" fill="currentColor"/>
</svg>
