<svg width="20" height="20" viewBox="0 0 20 20" fill="none" xmlns="http://www.w3.org/2000/svg">
<path fill-rule="evenodd" clip-rule="evenodd" d="M11.7 2.50001C11.7 2.05818 12.0582 1.70001 12.5 1.70001H17.5C17.9418 1.70001 18.3 2.05818 18.3 2.50001V7.50001C18.3 7.94184 17.9418 8.30001 17.5 8.30001C17.0582 8.30001 16.7 7.94184 16.7 7.50001V4.43138L12.2324 8.89903C11.9199 9.21145 11.4134 9.21145 11.101 8.89903C10.7886 8.58661 10.7886 8.08008 11.101 7.76766L15.5686 3.30001H12.5C12.0582 3.30001 11.7 2.94184 11.7 2.50001ZM8.89903 11.101C9.21145 11.4134 9.21145 11.9199 8.89903 12.2324L4.43138 16.7H7.50001C7.94184 16.7 8.30001 17.0582 8.30001 17.5C8.30001 17.9418 7.94184 18.3 7.50001 18.3H2.50001C2.05818 18.3 1.70001 17.9418 1.70001 17.5V12.5C1.70001 12.0582 2.05818 11.7 2.50001 11.7C2.94184 11.7 3.30001 12.0582 3.30001 12.5V15.5686L7.76766 11.101C8.08008 10.7886 8.58661 10.7886 8.89903 11.101Z" fill="currentColor"/>
</svg>
