<svg width="20" height="20" viewBox="0 0 20 20" fill="none" xmlns="http://www.w3.org/2000/svg">
<g clip-path="url(#clip0_3031_627)">
<path fill-rule="evenodd" clip-rule="evenodd" d="M5.07495 2.99995C5.07495 2.55812 5.43312 2.19995 5.87495 2.19995H7.74995C8.01743 2.19995 8.26722 2.33363 8.41559 2.55619L9.6781 4.44995H16C16.6099 4.44995 17.195 4.69227 17.6263 5.12361C18.0576 5.55494 18.3 6.13995 18.3 6.74995V13.5C18.3 13.9418 17.9418 14.3 17.5 14.3C17.0581 14.3 16.7 13.9418 16.7 13.5V6.74995C16.7 6.5643 16.6262 6.38625 16.4949 6.25498C16.3637 6.1237 16.1856 6.04995 16 6.04995H9.24995C8.98247 6.04995 8.73268 5.91627 8.58431 5.69371L7.3218 3.79995H5.87495C5.43312 3.79995 5.07495 3.44178 5.07495 2.99995ZM2.49995 5.19995C2.94178 5.19995 3.29995 5.55812 3.29995 5.99995V15C3.29995 15.1856 3.3737 15.3637 3.50498 15.4949C3.63625 15.6262 3.8143 15.7 3.99995 15.7H12.5C12.9418 15.7 13.3 16.0581 13.3 16.5C13.3 16.9418 12.9418 17.3 12.5 17.3H3.99995C3.38995 17.3 2.80494 17.0576 2.37361 16.6263C1.94227 16.195 1.69995 15.61 1.69995 15V5.99995C1.69995 5.55812 2.05812 5.19995 2.49995 5.19995Z" fill="currentColor"/>
<path fill-rule="evenodd" clip-rule="evenodd" d="M0.267762 0.267518C0.580181 -0.0449017 1.08671 -0.0449017 1.39913 0.267518L19.7325 18.6008C20.0449 18.9133 20.0449 19.4198 19.7325 19.7322C19.42 20.0446 18.9135 20.0446 18.6011 19.7322L0.267762 1.39889C-0.0446576 1.08647 -0.0446576 0.579937 0.267762 0.267518Z" fill="currentColor"/>
</g>
<defs>
<clipPath id="clip0_3031_627">
<rect width="20" height="20" fill="white"/>
</clipPath>
</defs>
</svg>
