<svg width="20" height="20" viewBox="0 0 20 20" fill="none" xmlns="http://www.w3.org/2000/svg">
<path fill-rule="evenodd" clip-rule="evenodd" d="M11.6978 2.12206C12.2815 1.84476 12.9119 1.70001 13.5519 1.70001C14.1918 1.70001 14.8222 1.84476 15.4059 2.12206C15.9891 2.39909 16.5113 2.80146 16.9461 3.30013C17.381 3.79852 17.7212 4.38457 17.9517 5.02251C18.1823 5.66043 18.3 6.34114 18.3 7.02657C18.3 7.712 18.1823 8.39271 17.9517 9.03063C17.7212 9.66856 17.381 10.2546 16.9461 10.753L10.6027 18.0259C10.4507 18.2 10.2309 18.3 9.99976 18.3C9.76863 18.3 9.54879 18.2 9.39686 18.0259L3.05331 10.7529C2.17709 9.74827 1.69995 8.4065 1.69995 7.02657C1.69995 5.64664 2.17709 4.30487 3.05331 3.30027C3.93256 2.2922 5.15044 1.70045 6.44766 1.70045C7.74488 1.70045 8.96275 2.2922 9.842 3.30027L9.99976 3.48114L10.1574 3.30041V3.30041C10.5922 2.80167 11.1146 2.39911 11.6978 2.12206ZM15.7403 4.35183C15.4421 4.0098 15.0941 3.74527 14.7194 3.56727C14.3452 3.38949 13.9488 3.30001 13.5519 3.30001C13.1549 3.30001 12.7586 3.38949 12.3843 3.56727C12.0097 3.74527 11.6616 4.0098 11.3634 4.35183L10.6027 5.22407C10.4507 5.39826 10.2309 5.49822 9.99976 5.49822C9.76863 5.49822 9.54879 5.39826 9.39686 5.22407L8.63621 4.35197C8.03479 3.66242 7.24443 3.30045 6.44766 3.30045C5.65088 3.30045 4.86053 3.66242 4.2591 4.35197C3.65464 5.04499 3.29995 6.0057 3.29995 7.02657C3.29995 8.04744 3.65464 9.00814 4.2591 9.70117L9.99976 16.2829L15.7404 9.70117C16.0389 9.35912 16.2806 8.94717 16.447 8.48681C16.6133 8.02645 16.7 7.52997 16.7 7.02657C16.7 6.52316 16.6133 6.02669 16.447 5.56632C16.2806 5.10597 16.0388 4.69388 15.7403 4.35183Z" fill="currentColor"/>
</svg>
