<svg width="20" height="20" viewBox="0 0 20 20" fill="none" xmlns="http://www.w3.org/2000/svg">
<path fill-rule="evenodd" clip-rule="evenodd" d="M7.91672 5.41665C7.91672 4.95641 8.28982 4.58332 8.75006 4.58332H15.4167C15.877 4.58332 16.2501 4.95641 16.2501 5.41665C16.2501 5.87689 15.877 6.24999 15.4167 6.24999H8.75006C8.28982 6.24999 7.91672 5.87689 7.91672 5.41665Z" fill="currentColor"/>
<path fill-rule="evenodd" clip-rule="evenodd" d="M7.91672 9.99999C7.91672 9.53975 8.28982 9.16665 8.75006 9.16665H15.4167C15.877 9.16665 16.2501 9.53975 16.2501 9.99999C16.2501 10.4602 15.877 10.8333 15.4167 10.8333H8.75006C8.28982 10.8333 7.91672 10.4602 7.91672 9.99999Z" fill="currentColor"/>
<path fill-rule="evenodd" clip-rule="evenodd" d="M7.91672 14.5833C7.91672 14.1231 8.28982 13.75 8.75006 13.75H15.4167C15.877 13.75 16.2501 14.1231 16.2501 14.5833C16.2501 15.0436 15.877 15.4167 15.4167 15.4167H8.75006C8.28982 15.4167 7.91672 15.0436 7.91672 14.5833Z" fill="currentColor"/>
<path d="M5.36913 3.57979C5.35532 3.58361 5.34528 3.5864 5.33378 3.58895L5.32415 3.5914C5.20201 3.62629 5.07295 3.67317 4.95062 3.71761C4.87924 3.74354 4.81014 3.76864 4.74604 3.79004C4.64243 3.82216 4.53461 3.87416 4.45543 3.96214C4.37056 4.05643 4.33082 4.17873 4.34715 4.31961C4.3617 4.4636 4.43371 4.57248 4.54947 4.63091C4.6495 4.6814 4.76254 4.68403 4.85445 4.6743C4.88069 4.67316 4.91556 4.66864 4.94656 4.66397C4.98051 4.65884 5.02039 4.65187 5.06084 4.64341L5.06007 4.88774C5.05787 5.52347 5.05573 6.14182 5.08868 6.78553C5.08871 6.83409 5.0895 6.91192 5.11218 6.9852C5.13809 7.06891 5.19708 7.15964 5.31496 7.19983C5.38766 7.22591 5.47647 7.23845 5.56108 7.23478C5.64215 7.23125 5.74521 7.21165 5.82743 7.14835C5.9424 7.06458 5.97853 6.94569 5.9893 6.85035C5.99464 6.80305 5.99436 6.7571 5.99329 6.71899C5.99282 6.7021 5.99227 6.68791 5.99177 6.67514C5.99099 6.65526 5.99035 6.6388 5.99035 6.62082V4.27873C5.99035 4.25213 5.99138 4.22143 5.99261 4.1849L5.99305 4.17185C5.99441 4.13098 5.99581 4.08477 5.9955 4.03814C5.99492 3.95061 5.98904 3.83752 5.9508 3.74366L5.94654 3.73474C5.8872 3.61067 5.76676 3.5672 5.68398 3.55301C5.60179 3.53892 5.51727 3.54557 5.45352 3.5602C5.4268 3.56425 5.40279 3.57056 5.38509 3.57539L5.36913 3.57979Z" fill="currentColor"/>
<path fill-rule="evenodd" clip-rule="evenodd" d="M4.16845 9.36082C4.18063 9.2268 4.23865 9.08485 4.30821 8.9647C4.37843 8.84341 4.47062 8.72674 4.56764 8.64684C4.73677 8.50724 4.95779 8.41154 5.18258 8.36531C5.40695 8.31918 5.64862 8.31966 5.86045 8.38739C6.1268 8.47042 6.35089 8.6066 6.50821 8.80564C6.66664 9.00609 6.74693 9.25721 6.74693 9.55008C6.74693 9.81951 6.70009 10.0416 6.56883 10.259C6.44185 10.4693 6.24248 10.6638 5.96285 10.8927C5.89464 10.9506 5.82173 11.0108 5.74972 11.0696C5.77763 11.0691 5.80703 11.0682 5.8374 11.0673C5.94583 11.0642 6.06667 11.0608 6.17669 11.0706L6.17827 11.0708L6.17549 11.0705L6.17669 11.0706C6.19906 11.0722 6.22622 11.0721 6.26289 11.0717C6.26509 11.0716 6.26733 11.0716 6.2696 11.0716C6.303 11.0712 6.34311 11.0707 6.38296 11.0726C6.46151 11.0762 6.58149 11.0896 6.67498 11.1698C6.77588 11.2563 6.8058 11.3958 6.80928 11.495C6.81121 11.5503 6.80579 11.608 6.79138 11.6621C6.77776 11.7132 6.75324 11.7718 6.70906 11.82C6.63093 11.9097 6.53065 11.9349 6.45317 11.9414C6.41491 11.9446 6.37804 11.9436 6.3486 11.9424C6.33881 11.942 6.33011 11.9416 6.32215 11.9412C6.30327 11.9403 6.28853 11.9397 6.27318 11.9397H4.62776C4.61844 11.9397 4.60691 11.9402 4.59036 11.9412C4.588 11.9414 4.58551 11.9415 4.58291 11.9417C4.56903 11.9425 4.55209 11.9436 4.53544 11.9441C4.50001 11.9453 4.4443 11.9457 4.38889 11.9286C4.39087 11.9291 4.39285 11.9296 4.39484 11.9301L4.38889 11.9286L4.38256 11.9265C4.38467 11.9272 4.38678 11.9279 4.38889 11.9286C4.33761 11.9147 4.28774 11.8883 4.24936 11.8429C4.21035 11.7967 4.19571 11.7456 4.19006 11.706C4.18467 11.6683 4.1863 11.632 4.18765 11.6082C4.18817 11.599 4.18866 11.5914 4.18909 11.5847C4.19003 11.57 4.19068 11.5599 4.19068 11.5484C4.19068 11.328 4.31009 11.1596 4.43368 11.0347C4.51661 10.9509 4.62079 10.8694 4.70768 10.8014C4.74339 10.7735 4.77618 10.7478 4.80338 10.7252L4.80142 10.727L4.80523 10.7237L4.80338 10.7252C4.88719 10.6511 4.97833 10.579 5.06609 10.5099C5.07156 10.5056 5.07703 10.5013 5.08248 10.497C5.16636 10.431 5.24681 10.3677 5.32109 10.3038L5.3234 10.3018C5.75659 9.94234 5.84985 9.7857 5.84985 9.59133C5.84985 9.47892 5.81167 9.40375 5.75963 9.35569C5.70587 9.30604 5.62279 9.27216 5.51235 9.27216C5.3533 9.27216 5.2076 9.34355 5.12198 9.46464C5.12311 9.46262 5.12424 9.4606 5.12539 9.4586L5.12198 9.46464L5.11823 9.47002C5.11947 9.46822 5.12071 9.46642 5.12198 9.46464C5.11157 9.48329 5.1017 9.50292 5.08999 9.52621C5.08562 9.53491 5.08099 9.54411 5.07598 9.55397C5.05835 9.58867 5.03639 9.6305 5.00978 9.66944L5.01176 9.66632L5.00771 9.67244L5.00978 9.66944C4.94556 9.77004 4.85675 9.83801 4.75419 9.86741C4.65238 9.8966 4.54925 9.88433 4.46109 9.84642C4.28802 9.772 4.15068 9.58809 4.16827 9.36293L4.16845 9.36082Z" fill="currentColor"/>
<path d="M4.31727 13.5515C4.22793 13.4721 4.20175 13.3677 4.20175 13.2619V13.2508C4.20673 13.1761 4.22306 13.048 4.32505 12.9553C4.49725 12.8003 4.69091 12.792 4.84455 12.7859C4.86067 12.7852 4.87636 12.7846 4.89155 12.7838L4.89453 12.7837C4.98776 12.7806 5.06837 12.7815 5.1497 12.7826L5.15121 12.7826C5.19201 12.7831 5.23303 12.7836 5.27591 12.7836C5.49498 12.7836 5.76829 12.7929 5.99313 12.8021L5.99465 12.8021C6.09845 12.8073 6.22471 12.8283 6.33153 12.8917C6.44755 12.9606 6.53476 13.0774 6.54238 13.2444C6.55174 13.4155 6.48486 13.5634 6.40733 13.6794C6.33031 13.7946 6.23247 13.8932 6.16017 13.9655C6.09166 14.0363 6.00884 14.1156 5.92902 14.192L5.91928 14.2014C6.06837 14.2488 6.21014 14.3184 6.33041 14.418C6.54025 14.5919 6.67092 14.8459 6.67092 15.1869C6.67092 15.8789 6.10581 16.3848 5.37216 16.3848C5.21378 16.3848 5.02955 16.3595 4.85456 16.3044C4.68162 16.2499 4.50552 16.1623 4.37456 16.0292C4.27607 15.933 4.19876 15.7858 4.18734 15.6374C4.18142 15.5604 4.19283 15.4744 4.23833 15.3958C4.28516 15.3149 4.36005 15.2557 4.45518 15.2222C4.59549 15.1731 4.72298 15.1952 4.82714 15.2354C4.90203 15.2643 4.97723 15.3083 5.03512 15.3422C5.05082 15.3514 5.06524 15.3599 5.07804 15.3671L5.08342 15.3701C5.27243 15.4858 5.4607 15.507 5.63037 15.406C5.71653 15.3542 5.74012 15.2874 5.73638 15.2305C5.73227 15.168 5.6934 15.0971 5.6146 15.0519L5.61307 15.051C5.54282 15.0097 5.45807 14.9964 5.33597 14.9772C5.31464 14.9738 5.29217 14.9703 5.26843 14.9664C5.12871 14.9435 4.93972 14.9056 4.80316 14.7524L4.80154 14.7506C4.71292 14.6482 4.6916 14.5293 4.71561 14.417C4.73745 14.3148 4.79499 14.2241 4.85131 14.1521C4.90914 14.0782 4.97735 14.0096 5.03575 13.9528L5.0818 13.9084C5.12152 13.8702 5.15195 13.841 5.17407 13.816L5.18076 13.8084C5.21659 13.7726 5.25942 13.7295 5.29899 13.6853H5.01008C4.99199 13.6853 4.96934 13.6858 4.94365 13.6863C4.87353 13.6879 4.78079 13.6899 4.69635 13.6837C4.58206 13.6751 4.4306 13.6497 4.31884 13.5529L4.31727 13.5515Z" fill="currentColor"/>
</svg>
