<svg width="20" height="20" viewBox="0 0 20 20" fill="none" xmlns="http://www.w3.org/2000/svg">
<path fill-rule="evenodd" clip-rule="evenodd" d="M5.99995 4.70001C4.7297 4.70001 3.69995 5.72976 3.69995 7.00001C3.69995 8.27027 4.7297 9.30001 5.99995 9.30001C7.27021 9.30001 8.29995 8.27027 8.29995 7.00001C8.29995 5.72976 7.27021 4.70001 5.99995 4.70001ZM5.29995 7.00001C5.29995 6.61341 5.61335 6.30001 5.99995 6.30001C6.38655 6.30001 6.69995 6.61341 6.69995 7.00001C6.69995 7.38661 6.38655 7.70001 5.99995 7.70001C5.61335 7.70001 5.29995 7.38661 5.29995 7.00001Z" fill="currentColor"/>
<path fill-rule="evenodd" clip-rule="evenodd" d="M16.2222 18.8C17.6458 18.8 18.7999 17.6459 18.7999 16.2222V3.77779C18.7999 2.35412 17.6458 1.20001 16.2222 1.20001H3.77773C2.35406 1.20001 1.19995 2.35412 1.19995 3.77779V16.2222C1.19995 17.6459 2.35406 18.8 3.77773 18.8H16.2222ZM3.77773 2.80001C3.23772 2.80001 2.79995 3.23778 2.79995 3.77779V16.2222C2.79995 16.7244 3.17845 17.1381 3.6657 17.1937L13.0486 7.44524C13.1994 7.28855 13.4075 7.20001 13.625 7.20001C13.8424 7.20001 14.0505 7.28855 14.2013 7.44524L17.2 10.5607V3.77779C17.2 3.23778 16.7622 2.80001 16.2222 2.80001H3.77773ZM17.2 16.2222V12.8679L13.625 9.15363L5.88031 17.2H16.2222C16.7622 17.2 17.2 16.7622 17.2 16.2222Z" fill="currentColor"/>
</svg>
