<svg width="20" height="20" viewBox="0 0 20 20" fill="none" xmlns="http://www.w3.org/2000/svg">
<path d="M8.29981 17.5001C8.29981 17.9419 7.94163 18.3001 7.49981 18.3001H2.49989C2.37499 18.3001 2.25669 18.2714 2.15137 18.2204C2.10279 18.1969 2.05611 18.1682 2.01214 18.1343C1.9542 18.0897 1.90255 18.0373 1.85874 17.9787C1.83579 17.948 1.815 17.9157 1.79658 17.8818C1.73487 17.7683 1.69981 17.6383 1.69981 17.5001V12.5001C1.69981 12.0582 2.05798 11.7001 2.49981 11.7001C2.94163 11.7001 3.29981 12.0582 3.29981 12.5001V15.5688L11.1009 7.76772C11.4133 7.4553 11.9198 7.4553 12.2322 7.76772C12.5447 8.08014 12.5447 8.58667 12.2322 8.89909L4.43126 16.7001H7.49981C7.94163 16.7001 8.29981 17.0582 8.29981 17.5001Z" fill="currentColor"/>
<path d="M15.8331 14.2001C16.063 14.2001 16.2834 14.1088 16.446 13.9462C16.6085 13.7837 16.6998 13.5633 16.6998 13.3334V4.16674C16.6998 3.93688 16.6085 3.71644 16.446 3.55391C16.2834 3.39138 16.063 3.30007 15.8331 3.30007H6.66647C6.43662 3.30007 6.21618 3.39138 6.05365 3.55391C5.89112 3.71644 5.79981 3.93688 5.79981 4.16674V9.16674C5.79981 9.60857 5.44163 9.96674 4.99981 9.96674C4.55798 9.96674 4.19981 9.60857 4.19981 9.16674V4.16674C4.19981 3.51254 4.45969 2.88513 4.92228 2.42254C5.38487 1.95995 6.01227 1.70007 6.66647 1.70007H15.8331C16.4873 1.70007 17.1147 1.95995 17.5773 2.42254C18.0399 2.88513 18.2998 3.51254 18.2998 4.16674V13.3334C18.2998 13.9876 18.0399 14.615 17.5773 15.0776C17.1147 15.5402 16.4873 15.8001 15.8331 15.8001H10.8331C10.3913 15.8001 10.0331 15.4419 10.0331 15.0001C10.0331 14.5582 10.3913 14.2001 10.8331 14.2001H15.8331Z" fill="currentColor"/>
</svg>
