<svg width="20" height="20" viewBox="0 0 20 20" fill="none" xmlns="http://www.w3.org/2000/svg">
<path d="M9.99998 9.21165C10.4354 9.21165 10.7883 9.5646 10.7883 9.99998V13.2847C10.7883 13.7201 10.4354 14.0731 9.99998 14.0731C9.56459 14.0731 9.21164 13.7201 9.21164 13.2847V9.99998C9.21164 9.5646 9.56459 9.21165 9.99998 9.21165Z" fill="currentColor"/>
<path d="M9.99998 5.92711C9.56459 5.92711 9.21164 6.28006 9.21164 6.71545C9.21164 7.15083 9.56459 7.50378 9.99998 7.50378H10.0082C10.4436 7.50378 10.7965 7.15083 10.7965 6.71545C10.7965 6.28006 10.4436 5.92711 10.0082 5.92711H9.99998Z" fill="currentColor"/>
<path fill-rule="evenodd" clip-rule="evenodd" d="M0.999634 10.0002C0.999634 5.02952 5.02915 1 9.99982 1C14.9705 1 19 5.02952 19 10.0002C19 14.9708 14.9705 19.0004 9.99982 19.0004C5.02915 19.0004 0.999634 14.9708 0.999634 10.0002ZM9.99982 2.57667C5.89993 2.57667 2.57631 5.90029 2.57631 10.0002C2.57631 14.1001 5.89993 17.4237 9.99982 17.4237C14.0997 17.4237 17.4233 14.1001 17.4233 10.0002C17.4233 5.90029 14.0997 2.57667 9.99982 2.57667Z" fill="currentColor"/>
</svg>
