<svg width="20" height="20" viewBox="0 0 20 20" fill="none" xmlns="http://www.w3.org/2000/svg">
<path fill-rule="evenodd" clip-rule="evenodd" d="M18.0657 1.10101C18.3782 1.41343 18.3782 1.91997 18.0657 2.23238L16.9648 3.33337L18.8991 5.26768C19.0491 5.41771 19.1334 5.62119 19.1334 5.83337C19.1334 6.04554 19.0491 6.24902 18.8991 6.39905L15.9824 9.31572C15.67 9.62814 15.1635 9.62814 14.851 9.31572L12.9167 7.3814L10.5841 9.71403C10.8463 10.0647 11.0654 10.4469 11.2357 10.8525C11.5107 11.5071 11.6535 12.2096 11.6559 12.9195C11.6583 13.6295 11.5202 14.333 11.2496 14.9894C10.979 15.6458 10.5812 16.2421 10.0792 16.7442C9.57716 17.2462 8.98078 17.644 8.32439 17.9146C7.66799 18.1852 6.96455 18.3233 6.25457 18.3209C5.54459 18.3185 4.84209 18.1757 4.18753 17.9007C3.53296 17.6257 2.93925 17.224 2.4406 16.7186L2.43459 16.7125C1.45398 15.6972 0.9114 14.3373 0.923665 12.9258C0.935931 11.5143 1.50209 10.1641 2.5002 9.16601C3.49832 8.1679 4.84853 7.60174 6.26002 7.58947C7.40648 7.57951 8.51886 7.93561 9.44023 8.59515L16.9344 1.10101C17.2468 0.788594 17.7533 0.788594 18.0657 1.10101ZM8.9579 10.2725C8.95021 10.2656 8.94261 10.2585 8.93512 10.2513C8.22158 9.56213 7.2659 9.18079 6.27392 9.18941C5.28194 9.19803 4.33304 9.59592 3.63157 10.2974C2.93011 10.9988 2.53223 11.9478 2.5236 12.9397C2.515 13.9303 2.89523 14.8846 3.58252 15.5979C3.93235 15.9516 4.34853 16.2329 4.80724 16.4256C5.26726 16.6189 5.76097 16.7192 6.25993 16.7209C6.7589 16.7226 7.25326 16.6255 7.71457 16.4353C8.17587 16.2452 8.595 15.9656 8.94783 15.6128C9.30065 15.26 9.5802 14.8408 9.77037 14.3795C9.96055 13.9182 10.0576 13.4239 10.0559 12.9249C10.0542 12.4259 9.95389 11.9322 9.76063 11.4722C9.57249 11.0244 9.29991 10.6171 8.9579 10.2725ZM14.0481 6.25003L15.4167 7.61866L17.202 5.83337L15.8334 4.46474L14.0481 6.25003Z" fill="currentColor"/>
</svg>
