<svg width="20" height="20" viewBox="0 0 20 20" fill="none" xmlns="http://www.w3.org/2000/svg">
<path fill-rule="evenodd" clip-rule="evenodd" d="M10 3.30001C6.29969 3.30001 3.3 6.2997 3.3 10C3.3 13.7003 6.29969 16.7 10 16.7C13.7003 16.7 16.7 13.7003 16.7 10C16.7 6.2997 13.7003 3.30001 10 3.30001ZM1.7 10C1.7 5.41605 5.41604 1.70001 10 1.70001C14.584 1.70001 18.3 5.41605 18.3 10C18.3 14.584 14.584 18.3 10 18.3C5.41604 18.3 1.7 14.584 1.7 10Z" fill="currentColor"/>
<path fill-rule="evenodd" clip-rule="evenodd" d="M10.8 9.82127C11.4354 9.52107 11.875 8.87438 11.875 8.12501C11.875 7.08948 11.0355 6.25001 10 6.25001C8.96447 6.25001 8.125 7.08948 8.125 8.12501C8.125 8.87438 8.56461 9.52107 9.2 9.82127V12.5C9.2 12.9418 9.55817 13.3 10 13.3C10.4418 13.3 10.8 12.9418 10.8 12.5V9.82127Z" fill="currentColor"/>
</svg>
