<svg width="20" height="20" viewBox="0 0 20 20" fill="none" xmlns="http://www.w3.org/2000/svg">
<path fill-rule="evenodd" clip-rule="evenodd" d="M13 5.5C12.5582 5.5 12.2 5.85817 12.2 6.3C12.2 6.74183 12.5582 7.1 13 7.1H14.5C14.6858 7.1 14.8017 7.13782 14.8739 7.17503C14.9466 7.21257 15.0036 7.26436 15.0508 7.32994C15.1568 7.47724 15.2 7.67802 15.2 7.8V13.7999H4.80001V13.0002C4.80001 12.5584 4.44184 12.2002 4.00001 12.2002C3.55818 12.2002 3.20001 12.5584 3.20001 13.0002V13.7999H3.00001C2.28204 13.7999 1.70001 14.382 1.70001 15.0999V16.1999C1.70001 17.415 2.68498 18.3999 3.90001 18.3999H16.1C17.315 18.3999 18.3 17.415 18.3 16.1999V15.0999C18.3 14.382 17.718 13.7999 17 13.7999H16.8V7.8C16.8 7.42198 16.6932 6.87276 16.3492 6.39506C15.9759 5.87656 15.3607 5.5 14.5 5.5H13ZM3.30001 15.3999V16.1999C3.30001 16.5313 3.56864 16.7999 3.90001 16.7999H16.1C16.4314 16.7999 16.7 16.5313 16.7 16.1999V15.3999H3.30001Z" fill="currentColor"/>
<path fill-rule="evenodd" clip-rule="evenodd" d="M6.75001 2.79995C5.98489 2.79995 5.2398 3.12368 4.68199 3.71868C4.12255 4.31542 3.80001 5.1352 3.80001 5.99995C3.80001 7.25291 4.57086 8.50834 5.47316 9.52426C5.91083 10.017 6.35083 10.4214 6.68197 10.7027C6.70523 10.7225 6.72792 10.7416 6.75001 10.7601C6.77209 10.7416 6.79479 10.7225 6.81805 10.7027C7.14919 10.4214 7.5892 10.017 8.02687 9.52426C8.92916 8.50834 9.70001 7.25291 9.70001 5.99995C9.70001 5.1352 9.37748 4.31542 8.81803 3.71868C8.26023 3.12368 7.51513 2.79995 6.75001 2.79995ZM6.75001 11.7777C6.28639 12.4297 6.2862 12.4296 6.286 12.4294L6.2843 12.4282L6.28084 12.4257L6.2699 12.4178L6.23254 12.3905C6.20099 12.3672 6.15641 12.3338 6.10066 12.2908C5.98923 12.205 5.83274 12.0807 5.64617 11.9222C5.27419 11.6062 4.7767 11.1495 4.27687 10.5868C3.30416 9.49156 2.20001 7.8581 2.20001 5.99995C2.20001 4.74297 2.66766 3.52792 3.51473 2.62437C4.36345 1.71907 5.52601 1.19995 6.75001 1.19995C7.97402 1.19995 9.13658 1.71907 9.98529 2.62437C10.8324 3.52792 11.3 4.74297 11.3 5.99995C11.3 7.8581 10.1959 9.49156 9.22316 10.5868C8.72333 11.1495 8.22583 11.6062 7.85385 11.9222C7.66728 12.0807 7.51079 12.205 7.39937 12.2908C7.34362 12.3338 7.29904 12.3672 7.26749 12.3905L7.23013 12.4178L7.21919 12.4257L7.21573 12.4282L7.21451 12.4291C7.2143 12.4292 7.21363 12.4297 6.75001 11.7777ZM6.75001 11.7777L7.21363 12.4297C6.93606 12.6271 6.56357 12.6268 6.286 12.4294L6.75001 11.7777Z" fill="currentColor"/>
<path fill-rule="evenodd" clip-rule="evenodd" d="M5.15021 5.79995C5.15021 4.9163 5.86655 4.19995 6.75021 4.19995C7.63386 4.19995 8.35021 4.9163 8.35021 5.79995C8.35021 6.68361 7.63386 7.39995 6.75021 7.39995C5.86655 7.39995 5.15021 6.68361 5.15021 5.79995Z" fill="currentColor"/>
</svg>
