<svg width="20" height="20" viewBox="0 0 20 20" fill="none" xmlns="http://www.w3.org/2000/svg">
<path fill-rule="evenodd" clip-rule="evenodd" d="M4.26595 11.2085C3.64474 11.8297 3.29287 12.6644 3.28319 13.5257C3.27352 14.3861 3.60571 15.2023 4.20167 15.7983C4.79763 16.3942 5.61383 16.7264 6.47425 16.7168C6.90052 16.712 7.32489 16.6232 7.72286 16.4547C8.12086 16.2862 8.4841 16.0413 8.79144 15.734L10.5271 13.9984C10.8395 13.686 11.346 13.686 11.6584 13.9984C11.9709 14.3108 11.9709 14.8173 11.6584 15.1297L9.92281 16.8654C9.47039 17.3178 8.93499 17.679 8.34679 17.928C7.75856 18.1771 7.12847 18.3095 6.49223 18.3167C5.2068 18.3311 3.97463 17.834 3.0703 16.9297C2.16597 16.0253 1.66885 14.7931 1.68329 13.5077C1.69772 12.2232 2.22141 10.9903 3.13458 10.0771L4.87021 8.34152C5.18263 8.0291 5.68916 8.0291 6.00158 8.34152C6.314 8.65394 6.314 9.16047 6.00158 9.47289L4.26595 11.2085ZM8.34146 6.00164C8.02904 5.68922 8.02904 5.18269 8.34146 4.87027L10.0771 3.13464C10.5295 2.68222 11.0649 2.32106 11.6531 2.07197C12.2413 1.82286 12.8714 1.6905 13.5077 1.68335C14.144 1.6762 14.774 1.79445 15.3615 2.03232C15.9491 2.2702 16.4821 2.62285 16.9296 3.07036C17.3771 3.51787 17.7298 4.05085 17.9676 4.63841C18.2055 5.22594 18.3237 5.85599 18.3166 6.49229C18.3095 7.12854 18.1771 7.75862 17.928 8.34685C17.6789 8.93505 17.3177 9.47045 16.8653 9.92287L15.1297 11.6585C14.8173 11.9709 14.3107 11.9709 13.9983 11.6585C13.6859 11.3461 13.6859 10.8395 13.9983 10.5271L15.7339 8.7915C16.0413 8.48416 16.2861 8.12092 16.4546 7.72293C16.6232 7.32495 16.7119 6.90058 16.7167 6.47431C16.7215 6.0481 16.6423 5.62839 16.4846 5.23885C16.3269 4.84935 16.0936 4.49709 15.7982 4.20173C15.5029 3.90637 15.1506 3.67307 14.7611 3.51538C14.3716 3.35767 13.9519 3.27846 13.5256 3.28325C13.0994 3.28804 12.675 3.37677 12.277 3.5453C11.879 3.71385 11.5158 3.95868 11.2085 4.26601L9.47283 6.00164C9.16041 6.31406 8.65388 6.31406 8.34146 6.00164Z" fill="currentColor"/>
<path fill-rule="evenodd" clip-rule="evenodd" d="M7.31294 12.687C7.00052 12.3746 7.00052 11.8681 7.31294 11.5556L11.5556 7.313C11.868 7.00058 12.3745 7.00058 12.687 7.313C12.9994 7.62542 12.9994 8.13195 12.687 8.44437L8.44431 12.687C8.13189 12.9994 7.62536 12.9994 7.31294 12.687Z" fill="currentColor"/>
</svg>
