<svg width="20" height="20" viewBox="0 0 20 20" fill="none" xmlns="http://www.w3.org/2000/svg">
<path fill-rule="evenodd" clip-rule="evenodd" d="M9.99995 2.79995C8.49002 2.79995 7.0408 3.40391 5.97141 4.48078C4.90183 5.55784 4.29995 7.01982 4.29995 8.54541C4.29995 10.7714 5.73988 12.9406 7.33262 14.6336C8.11297 15.4631 8.896 16.1423 9.48479 16.6145C9.68139 16.7721 9.85561 16.9061 9.99995 17.0143C10.1443 16.9061 10.3185 16.7721 10.5151 16.6145C11.1039 16.1423 11.8869 15.4631 12.6673 14.6336C14.26 12.9406 15.7 10.7714 15.7 8.54541C15.7 7.01982 15.0981 5.55784 14.0285 4.48078C12.9591 3.40391 11.5099 2.79995 9.99995 2.79995ZM9.99995 18C9.55405 18.6642 9.55385 18.664 9.55362 18.6639L9.55305 18.6635L9.55146 18.6624L9.5465 18.6591L9.52967 18.6476C9.51542 18.6379 9.49516 18.6239 9.46931 18.6059C9.41762 18.5698 9.34348 18.5174 9.25012 18.4495C9.06346 18.3137 8.79947 18.1158 8.48386 17.8627C7.85391 17.3576 7.01193 16.6278 6.16728 15.7299C4.51002 13.9684 2.69995 11.4103 2.69995 8.54541C2.69995 6.59906 3.46771 4.73132 4.8361 3.35336C6.20468 1.97521 8.06207 1.19995 9.99995 1.19995C11.9378 1.19995 13.7952 1.97521 15.1638 3.35336C16.5322 4.73132 17.3 6.59906 17.3 8.54541C17.3 11.4103 15.4899 13.9684 13.8326 15.7299C12.988 16.6278 12.146 17.3576 11.516 17.8627C11.2004 18.1158 10.9364 18.3137 10.7498 18.4495C10.6564 18.5174 10.5823 18.5698 10.5306 18.6059C10.5047 18.6239 10.4845 18.6379 10.4702 18.6476L10.4534 18.6591L10.4484 18.6624L10.4469 18.6635L10.4463 18.6639C10.4461 18.664 10.4459 18.6642 9.99995 18ZM9.99995 18L10.4459 18.6642C10.1762 18.8452 9.82375 18.8452 9.55405 18.6642L9.99995 18ZM9.99995 6.79995C9.06107 6.79995 8.29995 7.56107 8.29995 8.49995C8.29995 9.43884 9.06107 10.2 9.99995 10.2C10.9388 10.2 11.7 9.43884 11.7 8.49995C11.7 7.56107 10.9388 6.79995 9.99995 6.79995ZM6.69995 8.49995C6.69995 6.67741 8.17741 5.19995 9.99995 5.19995C11.8225 5.19995 13.3 6.67741 13.3 8.49995C13.3 10.3225 11.8225 11.8 9.99995 11.8C8.17741 11.8 6.69995 10.3225 6.69995 8.49995Z" fill="currentColor"/>
</svg>
