<svg width="20" height="20" viewBox="0 0 20 20" fill="none" xmlns="http://www.w3.org/2000/svg">
<path d="M13.6083 7.26174C13.6858 7.33985 13.778 7.40185 13.8795 7.44415C13.9811 7.48646 14.09 7.50824 14.2 7.50824C14.31 7.50824 14.4189 7.48646 14.5205 7.44415C14.622 7.40185 14.7142 7.33985 14.7917 7.26174L18.125 3.92841C18.2819 3.77149 18.3701 3.55866 18.3701 3.33674C18.3701 3.11483 18.2819 2.902 18.125 2.74508C17.9681 2.58816 17.7553 2.5 17.5333 2.5C17.3114 2.5 17.0986 2.58816 16.9417 2.74508L14.2 5.49508L13.125 4.41174C13.0473 4.33404 12.9551 4.27241 12.8536 4.23036C12.752 4.18831 12.6432 4.16667 12.5333 4.16667C12.3114 4.16667 12.0986 4.25482 11.9417 4.41174C11.864 4.48944 11.8023 4.58168 11.7603 4.6832C11.7182 4.78472 11.6966 4.89353 11.6966 5.00341C11.6966 5.22533 11.7848 5.43816 11.9417 5.59508L13.6083 7.26174ZM17.5333 6.67008C17.3123 6.67008 17.1004 6.75787 16.9441 6.91415C16.7878 7.07043 16.7 7.2824 16.7 7.50341V15.0034C16.7 15.2244 16.6122 15.4364 16.4559 15.5927C16.2997 15.7489 16.0877 15.8367 15.8667 15.8367H4.20001C3.979 15.8367 3.76704 15.7489 3.61076 15.5927C3.45448 15.4364 3.36668 15.2244 3.36668 15.0034V7.01174L8.26668 11.9201C8.73438 12.384 9.36627 12.6445 10.025 12.6451C10.7003 12.6416 11.347 12.3721 11.825 11.8951L13.2583 10.4617C13.4153 10.3048 13.5034 10.092 13.5034 9.87008C13.5034 9.64816 13.4153 9.43533 13.2583 9.27841C13.1014 9.12149 12.8886 9.03333 12.6667 9.03333C12.4448 9.03333 12.2319 9.12149 12.075 9.27841L10.6167 10.7367C10.4609 10.8894 10.2515 10.975 10.0333 10.975C9.81522 10.975 9.60579 10.8894 9.45001 10.7367L4.54168 5.83674H9.20001C9.42103 5.83674 9.63299 5.74895 9.78927 5.59267C9.94555 5.43638 10.0333 5.22442 10.0333 5.00341C10.0333 4.7824 9.94555 4.57043 9.78927 4.41415C9.63299 4.25787 9.42103 4.17008 9.20001 4.17008H4.20001C3.53697 4.17008 2.90109 4.43347 2.43225 4.90231C1.9634 5.37115 1.70001 6.00704 1.70001 6.67008V15.0034C1.70001 15.6665 1.9634 16.3023 2.43225 16.7712C2.90109 17.24 3.53697 17.5034 4.20001 17.5034H15.8667C16.5297 17.5034 17.1656 17.24 17.6344 16.7712C18.1033 16.3023 18.3667 15.6665 18.3667 15.0034V7.50341C18.3667 7.2824 18.2789 7.07043 18.1226 6.91415C17.9663 6.75787 17.7544 6.67008 17.5333 6.67008Z" fill="currentColor"/>
</svg>
