<svg width="20" height="20" viewBox="0 0 20 20" fill="none" xmlns="http://www.w3.org/2000/svg">
<path fill-rule="evenodd" clip-rule="evenodd" d="M16.8775 1.29468C17.1376 1.43389 17.3 1.70498 17.3 2.00001V15.5652C17.3 15.8721 17.1245 16.1519 16.8483 16.2854C16.572 16.419 16.2437 16.3828 16.0032 16.1923L11.7214 12.8H7.00001C4.62519 12.8 2.70001 10.8748 2.70001 8.50001C2.70001 6.12519 4.62519 4.20001 7.00001 4.20001H11.7577L16.0563 1.33437C16.3017 1.17072 16.6174 1.15546 16.8775 1.29468ZM15.7 3.49481L12.4437 5.66566C12.3123 5.75326 12.1579 5.80001 11.9999 5.80001H7.00001C5.50884 5.80001 4.30001 7.00884 4.30001 8.50001C4.30001 9.99118 5.50884 11.2 7.00001 11.2H11.9999C12.1803 11.2 12.3554 11.261 12.4967 11.373L15.7 13.9108V3.49481Z" fill="currentColor"/>
<path fill-rule="evenodd" clip-rule="evenodd" d="M5.70001 16.3182V12H7.30001V16.3182C7.30001 16.8052 7.69482 17.2 8.18183 17.2C8.66885 17.2 9.06365 16.8052 9.06365 16.3182V12H10.6636V16.3182C10.6636 17.6889 9.5525 18.8 8.18183 18.8C6.81116 18.8 5.70001 17.6889 5.70001 16.3182Z" fill="currentColor"/>
</svg>
