<svg width="20" height="20" viewBox="0 0 20 20" fill="none" xmlns="http://www.w3.org/2000/svg">
<path d="M7.02441 6.12732C7.4056 6.12746 7.71484 6.43653 7.71484 6.81775C7.71483 7.19896 7.40559 7.50803 7.02441 7.50818H3.51562C3.36636 7.50818 3.22456 7.56697 3.12109 7.66931C3.01785 7.77151 2.96094 7.90869 2.96094 8.05017V16.6771C2.96094 16.8186 3.01785 16.9558 3.12109 17.058C3.22456 17.1603 3.36635 17.2191 3.51562 17.2191H12.2305C12.3798 17.2191 12.5215 17.1604 12.625 17.058C12.7282 16.9558 12.7852 16.8186 12.7852 16.6771V14.3441C12.7853 13.9629 13.0944 13.6537 13.4756 13.6537C13.8568 13.6537 14.1659 13.9629 14.166 14.3441V16.6771C14.166 17.1894 13.9604 17.6794 13.5967 18.0394C13.2332 18.3992 12.7415 18.6 12.2305 18.6H3.51562C3.0046 18.6 2.5129 18.3992 2.14941 18.0394C1.78569 17.6794 1.58008 17.1894 1.58008 16.6771V8.05017C1.58008 7.53793 1.78569 7.04792 2.14941 6.68787C2.51289 6.3281 3.0046 6.12732 3.51562 6.12732H7.02441ZM17.7168 1.60974C17.936 1.57243 18.1602 1.64296 18.3184 1.79919C18.4765 1.95566 18.5496 2.17908 18.5146 2.3988C18.1139 4.91799 17.3421 7.79522 15.7168 9.849C14.8945 10.888 13.8453 11.7274 12.5127 12.1898C11.2966 12.6118 9.88704 12.7049 8.26367 12.3988C7.86415 13.0008 7.59601 13.4237 7.27832 13.9603C7.08402 14.2883 6.66106 14.3967 6.33301 14.2025C6.00496 14.0083 5.89666 13.5853 6.09082 13.2572C6.4905 12.5821 6.81499 12.0786 7.375 11.2435C8.71942 9.23879 10.5548 6.98153 12.3984 5.1615C13.3201 4.25158 14.2553 3.43912 15.1426 2.82068C16.0164 2.21166 16.9021 1.74853 17.7168 1.60974ZM16.9424 3.33728C16.6342 3.49463 16.2964 3.69996 15.9326 3.95349C15.1298 4.51303 14.255 5.26842 13.3682 6.14392C11.8578 7.63503 10.345 9.44063 9.12891 11.1371C10.2818 11.2781 11.2468 11.1671 12.0596 10.8851C13.1019 10.5235 13.9447 9.86323 14.6338 8.99255C15.8138 7.50156 16.5166 5.42778 16.9424 3.33728Z" fill="currentColor"/>
</svg>
