<svg width="20" height="20" viewBox="0 0 20 20" fill="none" xmlns="http://www.w3.org/2000/svg">
<path d="M10 4.85856C9.77267 4.85856 9.55465 4.94887 9.39391 5.10962C9.23316 5.27036 9.14286 5.48838 9.14286 5.71571V7.42999C9.14286 7.65732 9.23316 7.87534 9.39391 8.03608C9.55465 8.19683 9.77267 8.28714 10 8.28714C10.2273 8.28714 10.4453 8.19683 10.6061 8.03608C10.7668 7.87534 10.8571 7.65732 10.8571 7.42999V5.71571C10.8571 5.48838 10.7668 5.27036 10.6061 5.10962C10.4453 4.94887 10.2273 4.85856 10 4.85856ZM10 1.42999C8.4087 1.42999 6.88258 2.06213 5.75736 3.18735C4.63214 4.31257 4 5.83869 4 7.42999V12.5728C4 14.1641 4.63214 15.6903 5.75736 16.8155C6.88258 17.9407 8.4087 18.5728 10 18.5728C11.5913 18.5728 13.1174 17.9407 14.2426 16.8155C15.3679 15.6903 16 14.1641 16 12.5728V7.42999C16 5.83869 15.3679 4.31257 14.2426 3.18735C13.1174 2.06213 11.5913 1.42999 10 1.42999V1.42999ZM14.2857 12.5728C14.2857 13.7095 13.8342 14.7996 13.0305 15.6033C12.2267 16.407 11.1366 16.8586 10 16.8586C8.86336 16.8586 7.77327 16.407 6.96954 15.6033C6.16582 14.7996 5.71429 13.7095 5.71429 12.5728V7.42999C5.71429 6.29335 6.16582 5.20326 6.96954 4.39953C7.77327 3.59581 8.86336 3.14428 10 3.14428C11.1366 3.14428 12.2267 3.59581 13.0305 4.39953C13.8342 5.20326 14.2857 6.29335 14.2857 7.42999V12.5728Z" fill="currentColor"/>
</svg>
