<svg width="20" height="20" viewBox="0 0 20 20" fill="none" xmlns="http://www.w3.org/2000/svg">
<path fill-rule="evenodd" clip-rule="evenodd" d="M9.99995 2.94444C9.32825 2.94444 8.78373 3.48896 8.78373 4.16066C8.78373 4.83236 9.32825 5.37688 9.99995 5.37688C10.6716 5.37688 11.2162 4.83236 11.2162 4.16066C11.2162 3.48896 10.6716 2.94444 9.99995 2.94444ZM7.32427 4.16066C7.32427 2.68293 8.52221 1.48499 9.99995 1.48499C11.4777 1.48499 12.6756 2.68293 12.6756 4.16066C12.6756 5.6384 11.4777 6.83634 9.99995 6.83634C8.52221 6.83634 7.32427 5.6384 7.32427 4.16066Z" fill="currentColor"/>
<path fill-rule="evenodd" clip-rule="evenodd" d="M9.99995 14.6201C9.32825 14.6201 8.78373 15.1646 8.78373 15.8363C8.78373 16.508 9.32825 17.0525 9.99995 17.0525C10.6716 17.0525 11.2162 16.508 11.2162 15.8363C11.2162 15.1646 10.6716 14.6201 9.99995 14.6201ZM7.32427 15.8363C7.32427 14.3586 8.52221 13.1607 9.99995 13.1607C11.4777 13.1607 12.6756 14.3586 12.6756 15.8363C12.6756 17.3141 11.4777 18.512 9.99995 18.512C8.52221 18.512 7.32427 17.3141 7.32427 15.8363Z" fill="currentColor"/>
<path fill-rule="evenodd" clip-rule="evenodd" d="M3.67568 14.6201C3.00398 14.6201 2.45946 15.1646 2.45946 15.8363C2.45946 16.508 3.00398 17.0525 3.67568 17.0525C4.34737 17.0525 4.89189 16.508 4.89189 15.8363C4.89189 15.1646 4.34737 14.6201 3.67568 14.6201ZM1 15.8363C1 14.3586 2.19794 13.1607 3.67568 13.1607C5.15341 13.1607 6.35135 14.3586 6.35135 15.8363C6.35135 17.3141 5.15341 18.512 3.67568 18.512C2.19794 18.512 1 17.3141 1 15.8363Z" fill="currentColor"/>
<path fill-rule="evenodd" clip-rule="evenodd" d="M16.3242 14.6201C15.6525 14.6201 15.108 15.1646 15.108 15.8363C15.108 16.508 15.6525 17.0525 16.3242 17.0525C16.9959 17.0525 17.5404 16.508 17.5404 15.8363C17.5404 15.1646 16.9959 14.6201 16.3242 14.6201ZM13.6485 15.8363C13.6485 14.3586 14.8465 13.1607 16.3242 13.1607C17.802 13.1607 18.9999 14.3586 18.9999 15.8363C18.9999 17.3141 17.802 18.512 16.3242 18.512C14.8465 18.512 13.6485 17.3141 13.6485 15.8363Z" fill="currentColor"/>
<path fill-rule="evenodd" clip-rule="evenodd" d="M9.99995 5.37688C10.403 5.37688 10.7298 5.7036 10.7298 6.10661V13.8904C10.7298 14.2934 10.403 14.6201 9.99995 14.6201C9.59693 14.6201 9.27039 14.2934 9.27039 13.8904V6.10661C9.27039 5.7036 9.59693 5.37688 9.99995 5.37688Z" fill="currentColor"/>
<path fill-rule="evenodd" clip-rule="evenodd" d="M5.23236 10.5336C4.77561 10.5336 4.40533 10.9039 4.40533 11.3606V13.8904H2.94587V11.3606C2.94587 10.0979 3.96957 9.07416 5.23236 9.07416H14.7675C16.0303 9.07416 17.054 10.0979 17.054 11.3606V13.8904H15.5945V11.3606C15.5945 10.9039 15.2242 10.5336 14.7675 10.5336H5.23236Z" fill="currentColor"/>
</svg>
