<svg width="20" height="20" viewBox="0 0 20 20" fill="none" xmlns="http://www.w3.org/2000/svg">
<path d="M12.4132 16.1109V14.7279C12.4132 14.2302 12.2158 13.7524 11.864 13.4003C11.5119 13.0483 11.0342 12.85 10.5363 12.85H5.00329C4.50538 12.85 4.02774 13.0482 3.67567 13.4003C3.32361 13.7524 3.12529 14.2301 3.12529 14.7279V16.1109C3.12522 16.602 2.72732 17 2.23623 17C1.74514 17 1.34724 16.602 1.34717 16.1109V14.7279C1.34717 13.7584 1.73192 12.8278 2.41752 12.1422C3.10314 11.4566 4.03368 11.0718 5.00329 11.0718H10.5363C11.5058 11.0719 12.4355 11.4567 13.121 12.1422C13.8066 12.8278 14.1925 13.7583 14.1925 14.7279V16.1109C14.1924 16.602 13.7934 17 13.3023 17C12.8115 16.9997 12.4133 16.6018 12.4132 16.1109ZM16.5633 16.1109V14.7279C16.5629 14.312 16.4241 13.9082 16.1692 13.5794C15.9462 13.2918 15.6456 13.0754 15.3041 12.9563L15.1553 12.9118L15.0685 12.8847C14.6456 12.7285 14.4019 12.2743 14.517 11.8285C14.6321 11.3828 15.0649 11.1039 15.5103 11.1717L15.6004 11.1901L15.8892 11.277C16.5545 11.5089 17.1407 11.9293 17.575 12.4895C18.0713 13.1298 18.3408 13.9168 18.3414 14.7269V16.1109C18.3413 16.602 17.9434 17 17.4524 17C16.9614 16.9999 16.5634 16.6019 16.5633 16.1109ZM9.64618 6.42785C9.64618 5.39101 8.80611 4.54986 7.76927 4.54986C6.73242 4.54986 5.89236 5.39101 5.89236 6.42785C5.89258 7.46451 6.73256 8.30476 7.76927 8.30476C8.80597 8.30476 9.64596 7.4645 9.64618 6.42785ZM13.8027 6.43111C13.8027 6.01425 13.6632 5.60864 13.4076 5.27934C13.1841 4.99156 12.8824 4.77603 12.5402 4.65732L12.3904 4.61173L12.3036 4.58568C11.8805 4.43041 11.636 3.97651 11.75 3.53053C11.8642 3.08457 12.2966 2.80466 12.7422 2.8716L12.8323 2.88897L13.1221 2.9769C13.7892 3.20809 14.3778 3.62834 14.8134 4.18945C15.3109 4.83064 15.5809 5.61951 15.5809 6.43111C15.5808 7.24276 15.311 8.03159 14.8134 8.67276C14.3157 9.31387 13.6184 9.77074 12.8323 9.97217L12.7422 9.99062C12.2966 10.0575 11.8642 9.77755 11.75 9.33169C11.6282 8.85594 11.9147 8.37127 12.3904 8.2494L12.5402 8.20489C12.8826 8.08615 13.184 7.86981 13.4076 7.58179C13.6632 7.25256 13.8027 6.84788 13.8027 6.43111ZM11.4254 6.42785C11.4252 8.44678 9.78824 10.0829 7.76927 10.0829C5.75029 10.0829 4.11336 8.44678 4.11314 6.42785C4.11314 4.40874 5.75015 2.77173 7.76927 2.77173C9.78838 2.77173 11.4254 4.40874 11.4254 6.42785Z" fill="currentColor"/>
</svg>
