<svg width="20" height="20" viewBox="0 0 20 20" fill="none" xmlns="http://www.w3.org/2000/svg">
<path fill-rule="evenodd" clip-rule="evenodd" d="M4.19995 2.00001C4.19995 1.55818 4.55812 1.20001 4.99995 1.20001H14.9991L15 2.00001L14.9999 2.80001H13.0212L13.4191 9.20001H14C15.5463 9.20001 16.8 10.4536 16.8 12V13C16.8 13.4418 16.4418 13.8 16 13.8H10.8V18C10.8 18.4418 10.4418 18.8 9.99995 18.8C9.55812 18.8 9.19995 18.4418 9.19995 18V13.8H3.99995C3.55812 13.8 3.19995 13.4418 3.19995 13V12C3.19995 10.4536 4.45355 9.20001 5.99995 9.20001H6.28173L6.79823 4.41948L6.95096 2.80001H4.99995C4.55812 2.80001 4.19995 2.44184 4.19995 2.00001ZM15.2 12.2V12C15.2 11.3373 14.6627 10.8 14 10.8H13H12.6673C12.2447 10.8 11.895 10.4714 11.8688 10.0496L11.4181 2.80001H8.55806L8.38963 4.58595L7.79633 10.0766C7.78861 10.158 7.76869 10.2358 7.73842 10.3082C7.64553 10.5311 7.45599 10.6995 7.22706 10.7673C7.1518 10.7896 7.07228 10.8011 6.99054 10.8H5.99995C5.33721 10.8 4.79995 11.3373 4.79995 12V12.2H15.2Z" fill="currentColor"/>
<path d="M15 2.00001L14.9991 1.20001C15.441 1.20001 15.8 1.55818 15.8 2.00001C15.8 2.44184 15.4417 2.80001 14.9999 2.80001L15 2.00001Z" fill="currentColor"/>
</svg>
