<svg width="20" height="20" viewBox="0 0 20 20" fill="none" xmlns="http://www.w3.org/2000/svg">
<path d="M10.8 4.39998C10.8 3.95815 10.4418 3.59998 9.99998 3.59998C9.55815 3.59998 9.19998 3.95815 9.19998 4.39998V9.19998H4.39998C3.95815 9.19998 3.59998 9.55815 3.59998 9.99998C3.59998 10.4418 3.95815 10.8 4.39998 10.8H9.19998V15.6C9.19998 16.0418 9.55815 16.4 9.99998 16.4C10.4418 16.4 10.8 16.0418 10.8 15.6V10.8H15.6C16.0418 10.8 16.4 10.4418 16.4 9.99998C16.4 9.55815 16.0418 9.19998 15.6 9.19998H10.8V4.39998Z" fill="currentColor"/>
</svg>
