<svg width="20" height="20" viewBox="0 0 20 20" fill="none" xmlns="http://www.w3.org/2000/svg">
<path d="M5.61755 5.58607C3.06248 7.31275 1.6665 10 1.6665 10C1.6665 10 4.69681 15.8333 9.99984 15.8333C11.6914 15.8333 13.1516 15.2398 14.3561 14.4315M8.39927 4.3475C8.90694 4.2315 9.44076 4.16667 9.99984 4.16667C15.3029 4.16667 18.3332 10 18.3332 10C18.3332 10 17.7132 11.1934 16.5434 12.5007M8.11051 8.36273C7.73007 8.80136 7.49984 9.37379 7.49984 10C7.49984 11.3807 8.61913 12.5 9.99984 12.5C10.64 12.5 11.2239 12.2594 11.6662 11.8637M10.4998 7.55001C11.5014 7.75333 12.2856 8.55545 12.4624 9.56644M2.99984 3L16.9998 17" stroke="#252D38" stroke-width="1.6" stroke-linecap="round" stroke-linejoin="round"/>
</svg>
