<svg width="20" height="20" viewBox="0 0 20 20" fill="none" xmlns="http://www.w3.org/2000/svg">
<path fill-rule="evenodd" clip-rule="evenodd" d="M9.99999 6.74474C8.20404 6.74474 6.74814 8.20065 6.74814 9.9966C6.74814 11.7925 8.20404 13.2484 9.99999 13.2484C11.7959 13.2484 13.2518 11.7925 13.2518 9.9966C13.2518 8.20065 11.7959 6.74474 9.99999 6.74474ZM8.3248 9.9966C8.3248 9.07141 9.07481 8.3214 9.99999 8.3214C10.9252 8.3214 11.6752 9.07141 11.6752 9.9966C11.6752 10.9218 10.9252 11.6718 9.99999 11.6718C9.07481 11.6718 8.3248 10.9218 8.3248 9.9966Z" fill="currentColor"/>
<path fill-rule="evenodd" clip-rule="evenodd" d="M18.9111 9.63259C19.0294 9.86041 19.0297 10.1321 18.9114 10.36L18.2118 9.99656C18.9114 10.36 18.9109 10.3609 18.9107 10.3612L18.9098 10.363L18.9071 10.3681L18.8984 10.3845C18.8912 10.3981 18.881 10.417 18.8678 10.4409C18.8415 10.4887 18.8035 10.5565 18.7539 10.6413C18.6548 10.8109 18.5091 11.0494 18.3182 11.334C17.9373 11.9016 17.3714 12.6598 16.6303 13.4207C15.1603 14.9299 12.9162 16.5331 10.0001 16.5331C7.08397 16.5331 4.83987 14.9299 3.36986 13.4207C2.62872 12.6598 2.0628 11.9016 1.68194 11.334C1.49103 11.0494 1.34534 10.8109 1.24622 10.6413C1.19663 10.5565 1.15861 10.4887 1.13233 10.4409C1.11919 10.417 1.10897 10.3981 1.1017 10.3845L1.09302 10.3681L1.09033 10.363L1.08941 10.3612L1.08876 10.36L1.78833 9.99656C1.08876 9.63315 1.08926 9.63219 1.08941 9.6319L1.09033 9.63013L1.09302 9.62502L1.1017 9.60865C1.10897 9.59505 1.11919 9.57611 1.13233 9.55221C1.15861 9.5044 1.19663 9.43665 1.24622 9.3518C1.34534 9.1822 1.49103 8.94367 1.68194 8.65915C2.0628 8.09154 2.62872 7.33331 3.36986 6.5724C4.83987 5.06319 7.08397 3.46001 10.0001 3.46001C12.9162 3.46001 15.1603 5.06319 16.6303 6.5724C17.3714 7.33331 17.9373 8.09154 18.3182 8.65915C18.5091 8.94367 18.6548 9.1822 18.7539 9.3518C18.8035 9.43665 18.8415 9.5044 18.8678 9.55221C18.881 9.57611 18.8912 9.59505 18.8984 9.60865L18.9071 9.62502L18.9098 9.63013L18.9111 9.63259ZM2.99117 10.4555C2.87273 10.2789 2.77463 10.1235 2.69741 9.99656C2.77463 9.86958 2.87273 9.71416 2.99117 9.53764C3.3335 9.02746 3.84071 8.34864 4.4993 7.67249C5.82875 6.30759 7.69052 5.03666 10.0001 5.03666C12.3096 5.03666 14.1714 6.30759 15.5008 7.67249C16.1594 8.34864 16.6666 9.02746 17.009 9.53764C17.1274 9.71416 17.2255 9.86958 17.3027 9.99656C17.2255 10.1235 17.1274 10.2789 17.009 10.4555C16.6666 10.9657 16.1594 11.6445 15.5008 12.3206C14.1714 13.6855 12.3096 14.9565 10.0001 14.9565C7.69052 14.9565 5.82875 13.6855 4.4993 12.3206C3.84071 11.6445 3.3335 10.9657 2.99117 10.4555ZM18.2118 9.99656C18.9114 9.63315 18.9112 9.63288 18.9111 9.63259L18.2118 9.99656Z" fill="currentColor"/>
<path d="M1.08876 10.36C0.970413 10.1321 0.970413 9.86097 1.08876 9.63315L1.78833 9.99656C1.09359 10.3575 1.08865 10.3597 1.08876 10.36Z" fill="currentColor"/>
</svg>
