<svg width="20" height="20" viewBox="0 0 20 20" fill="none" xmlns="http://www.w3.org/2000/svg">
<path fill-rule="evenodd" clip-rule="evenodd" d="M3.65991 2.53137C3.3523 2.22325 2.85316 2.22283 2.54504 2.53043C2.23692 2.83804 2.23651 3.33718 2.54411 3.6453L4.4621 5.5665C3.48292 6.36228 2.71196 7.2513 2.16062 7.98474C1.81379 8.44612 1.54913 8.85229 1.36992 9.14544C1.28022 9.29217 1.21165 9.41103 1.16464 9.49487C1.14113 9.5368 1.12299 9.57002 1.11027 9.59362L1.09526 9.62172L1.09082 9.63017L1.08936 9.63296L1.08861 9.63441C0.97059 9.86198 0.970402 10.1331 1.08842 10.3606L1.78823 9.99771C1.08842 10.3606 1.08907 10.3619 1.08907 10.3619L1.08999 10.3637L1.09267 10.3688L1.10135 10.3852C1.10862 10.3988 1.11883 10.4177 1.13197 10.4417C1.15824 10.4896 1.19626 10.5574 1.24584 10.6424C1.34494 10.8122 1.49061 11.0511 1.6815 11.3361C2.06233 11.9046 2.6282 12.6641 3.36931 13.4262C4.83915 14.9378 7.08338 16.5439 9.99998 16.5439C11.6219 16.5439 13.0383 16.0456 14.2252 15.3459L16.3398 17.4641C16.6475 17.7722 17.1466 17.7727 17.4547 17.4651C17.7628 17.1575 17.7632 16.6583 17.4556 16.3502L6.35506 5.23103C6.34848 5.22025 6.34162 5.20956 6.33446 5.19899C6.26898 5.10225 6.18577 5.02467 6.09211 4.96764L3.65991 2.53137ZM5.58279 6.68906C4.67519 7.40263 3.94746 8.23165 3.4209 8.93212C3.10911 9.3469 2.8725 9.71036 2.71511 9.96782L2.6969 9.99771C2.77424 10.1251 2.87259 10.2812 2.99142 10.4586C3.33379 10.9697 3.84104 11.6497 4.49966 12.3271C5.82928 13.6944 7.69093 14.9672 9.99998 14.9672C11.1342 14.9672 12.1586 14.6614 13.0675 14.1863L11.6733 12.7898C11.1845 13.084 10.6115 13.2536 9.99988 13.2536C8.20269 13.2536 6.74802 11.7946 6.74802 9.99765C6.74802 9.38502 6.91759 8.81084 7.21194 8.32094L5.58279 6.68906ZM8.39686 9.50784C8.3499 9.66264 8.32468 9.82702 8.32468 9.99765C8.32468 10.9264 9.07593 11.677 9.99988 11.677C10.1705 11.677 10.3349 11.6516 10.4897 11.6042L8.39686 9.50784ZM1.08861 9.63441C1.08861 9.63441 1.08842 9.63477 1.78823 9.99771L1.08861 9.63441Z" fill="currentColor"/>
<path d="M9.99998 5.02819C9.51064 5.02819 9.0436 5.08497 8.59865 5.18681C8.17424 5.28395 7.75145 5.01865 7.65431 4.59424C7.55717 4.16984 7.82247 3.74704 8.24688 3.6499C8.80246 3.52274 9.38748 3.45153 9.99998 3.45153C12.9166 3.45153 15.1608 5.05764 16.6307 6.56921C17.3718 7.33135 17.9376 8.0908 18.3185 8.6593C18.5094 8.94427 18.655 9.18317 18.7541 9.35303C18.8037 9.43801 18.8417 9.50586 18.868 9.55374C18.8811 9.57768 18.8914 9.59664 18.8986 9.61026L18.9073 9.62665L18.91 9.63176L18.9109 9.63353C18.9109 9.63353 18.9115 9.63477 18.2117 9.99771L18.9114 10.3609L18.9102 10.3633L18.9079 10.3676L18.9006 10.3814C18.8946 10.3928 18.8861 10.4086 18.8752 10.4285C18.8535 10.4684 18.8221 10.5248 18.7812 10.5956C18.6996 10.7373 18.5798 10.9371 18.4228 11.1782C18.1094 11.6593 17.6447 12.3098 17.036 12.9912C16.7459 13.3159 16.2476 13.344 15.9229 13.0539C15.5982 12.7638 15.5701 12.2655 15.8602 11.9408C16.4042 11.3318 16.8213 10.7482 17.1016 10.3178C17.1797 10.1978 17.2469 10.0902 17.3031 9.99771C17.2257 9.87028 17.1274 9.71417 17.0085 9.53678C16.6662 9.02569 16.1589 8.34568 15.5003 7.66836C14.1707 6.301 12.309 5.02819 9.99998 5.02819Z" fill="currentColor"/>
<path d="M18.9114 10.3609C19.0294 10.1333 19.0296 9.86234 18.9115 9.63477L18.2117 9.99771C18.9115 10.3606 18.9114 10.3609 18.9114 10.3609Z" fill="currentColor"/>
<path d="M9.72006 7.42229C9.80681 6.99564 10.223 6.7201 10.6497 6.80685C11.9544 7.07213 12.9731 8.1165 13.2031 9.43415C13.2779 9.86304 12.9909 10.2714 12.562 10.3463C12.1332 10.4212 11.7248 10.1342 11.6499 9.70526C11.5315 9.02709 11.0048 8.48797 10.3355 8.35189C9.90885 8.26514 9.63331 7.84894 9.72006 7.42229Z" fill="currentColor"/>
</svg>
