<svg width="20" height="20" viewBox="0 0 20 20" fill="none" xmlns="http://www.w3.org/2000/svg">
<path fill-rule="evenodd" clip-rule="evenodd" d="M5.07291 1.32996C4.63753 1.32996 4.28459 1.6829 4.28459 2.11828V6.25696H3.43066C2.78601 6.25696 2.16776 6.51305 1.71192 6.96889C1.25609 7.42472 1 8.04297 1 8.68762V12.7935C1 13.4381 1.25609 14.0564 1.71192 14.5122C2.16776 14.968 2.78601 15.2241 3.43066 15.2241H4.28459V17.8847C4.28459 18.3201 4.63753 18.673 5.07291 18.673H14.9269C15.3623 18.673 15.7152 18.3201 15.7152 17.8847V15.2241H16.5693C17.214 15.2241 17.8322 14.968 18.2881 14.5122C18.7439 14.0564 19 13.4381 19 12.7935V8.68762C19 8.04297 18.7439 7.42472 18.2881 6.96889C17.8322 6.51305 17.214 6.25696 16.5693 6.25696H15.7152V2.11828C15.7152 1.6829 15.3623 1.32996 14.9269 1.32996H5.07291ZM14.9278 7.83361H14.9261H5.07378H5.07204H3.43066C3.20416 7.83361 2.98694 7.92358 2.82678 8.08374C2.66662 8.2439 2.57664 8.46112 2.57664 8.68762V12.7935C2.57664 13.02 2.66662 13.2372 2.82678 13.3973C2.98694 13.5575 3.20416 13.6475 3.43066 13.6475H4.28459V11.4796C4.28459 11.0442 4.63753 10.6913 5.07291 10.6913H14.9269C15.3623 10.6913 15.7152 11.0442 15.7152 11.4796V13.6475H16.5693C16.7958 13.6475 17.0131 13.5575 17.1732 13.3973C17.3334 13.2372 17.4234 13.02 17.4234 12.7935V8.68762C17.4234 8.46112 17.3334 8.2439 17.1732 8.08374C17.0131 7.92358 16.7958 7.83361 16.5693 7.83361H14.9278ZM5.86123 6.25696H14.1386V2.9066H5.86123V6.25696ZM5.86131 14.4358L5.86123 14.4472V17.0964H14.1386V12.2679H5.86123V14.4244L5.86131 14.4358Z" fill="currentColor"/>
</svg>
