<svg width="20" height="20" viewBox="0 0 20 20" fill="none" xmlns="http://www.w3.org/2000/svg">
<path d="M10.9992 12.8083H8.50897C8.51548 12.2224 8.56106 11.7179 8.64569 11.2947C8.73684 10.865 8.88983 10.4776 9.10468 10.1326C9.32603 9.78752 9.619 9.44572 9.98358 9.10718C10.2896 8.83374 10.5565 8.57332 10.7844 8.32593C11.0122 8.07853 11.1913 7.82463 11.3215 7.56421C11.4517 7.29728 11.5168 7.00106 11.5168 6.67554C11.5168 6.29793 11.4582 5.98543 11.341 5.73804C11.2303 5.48413 11.0611 5.29207 10.8332 5.16187C10.6118 5.03166 10.3319 4.96655 9.99335 4.96655C9.7134 4.96655 9.45298 5.0284 9.2121 5.1521C8.97121 5.26929 8.77264 5.45158 8.61639 5.69897C8.46665 5.94637 8.38853 6.27189 8.38202 6.67554H5.54999C5.56952 5.78361 5.7746 5.04793 6.16522 4.46851C6.56236 3.88257 7.09296 3.44963 7.75702 3.16968C8.42108 2.88322 9.16652 2.73999 9.99335 2.73999C10.9048 2.73999 11.6861 2.88973 12.3371 3.18921C12.9881 3.48218 13.4862 3.91512 13.8312 4.48804C14.1763 5.05444 14.3488 5.74455 14.3488 6.55835C14.3488 7.12476 14.2381 7.62931 14.0168 8.07202C13.7954 8.50822 13.5057 8.91512 13.1476 9.29272C12.7896 9.67033 12.3957 10.061 11.966 10.4646C11.5949 10.7966 11.341 11.1449 11.2043 11.5095C11.0741 11.8741 11.0057 12.307 10.9992 12.8083ZM8.216 15.8259C8.216 15.4093 8.35923 15.0642 8.64569 14.7908C8.93215 14.5108 9.31626 14.3708 9.79803 14.3708C10.2733 14.3708 10.6542 14.5108 10.9406 14.7908C11.2336 15.0642 11.3801 15.4093 11.3801 15.8259C11.3801 16.2296 11.2336 16.5714 10.9406 16.8513C10.6542 17.1313 10.2733 17.2712 9.79803 17.2712C9.31626 17.2712 8.93215 17.1313 8.64569 16.8513C8.35923 16.5714 8.216 16.2296 8.216 15.8259Z" fill="currentColor"/>
</svg>
