<svg width="20" height="20" viewBox="0 0 20 20" fill="none" xmlns="http://www.w3.org/2000/svg">
<path fill-rule="evenodd" clip-rule="evenodd" d="M7.49007 14.704L7.49007 9.30981L3.88233 9.30981L3.88233 14.704H7.49007ZM2 15.1232C2 15.8842 2.59729 16.5863 3.43651 16.5863H7.93589C8.77511 16.5863 9.3724 15.8842 9.3724 15.1232L9.3724 8.89064C9.3724 8.12964 8.7751 7.42749 7.93589 7.42749L3.88233 7.42749V6.96115C3.88233 5.99243 4.61568 5.29236 5.41789 5.29236C5.93768 5.29236 6.35905 4.87099 6.35905 4.3512C6.35905 3.83141 5.93768 3.41003 5.41789 3.41003C3.48438 3.41003 2 5.04699 2 6.96115L2 15.1232Z" fill="currentColor"/>
<path fill-rule="evenodd" clip-rule="evenodd" d="M16.1177 14.704V9.30981L12.51 9.30981L12.51 14.704H16.1177ZM10.6276 15.1232C10.6276 15.8842 11.2249 16.5863 12.0641 16.5863H16.5635C17.4027 16.5863 18 15.8842 18 15.1232V8.89064C18 8.12964 17.4027 7.42749 16.5635 7.42749L12.51 7.42749V6.96115C12.51 5.99243 13.2433 5.29236 14.0455 5.29236C14.5653 5.29236 14.9867 4.87099 14.9867 4.3512C14.9867 3.83141 14.5653 3.41003 14.0455 3.41003C12.112 3.41003 10.6276 5.04699 10.6276 6.96115L10.6276 15.1232Z" fill="currentColor"/>
</svg>
