<svg width="20" height="20" viewBox="0 0 20 20" fill="none" xmlns="http://www.w3.org/2000/svg">
<path d="M5.22214 2.84108C6.77412 1.98307 8.56289 1.65271 10.3189 1.8998C12.0709 2.14631 13.6957 2.95429 14.9495 4.20236L17.4233 6.52702V3.42219C17.4233 2.98675 17.7762 2.63375 18.2116 2.63375C18.647 2.63375 19 2.98675 19 3.42219V8.34782C19 8.35291 19 8.358 18.9999 8.36308C18.9997 8.37609 18.9991 8.3891 18.9983 8.40208C18.9714 8.81319 18.6295 9.13832 18.2116 9.13832H13.2843C12.8489 9.13832 12.4959 8.78533 12.4959 8.34989C12.4959 7.91445 12.8489 7.56146 13.2843 7.56146H16.2215L13.8613 5.34354C13.8555 5.3381 13.8498 5.33257 13.8442 5.32695C12.8311 4.31551 11.5168 3.66074 10.0993 3.46128C8.68173 3.26183 7.23778 3.5285 5.98498 4.22112C4.73218 4.91373 3.73838 5.99478 3.15334 7.30136C2.5683 8.60794 2.42371 10.0693 2.74134 11.4652C3.05898 12.8611 3.82164 14.116 4.91441 15.0407C6.00717 15.9654 7.37086 16.51 8.79998 16.5922C10.2291 16.6745 11.6463 16.29 12.8379 15.4968C14.0295 14.7035 14.9311 13.5444 15.4068 12.1942C15.5515 11.7835 16.0017 11.5679 16.4123 11.7126C16.823 11.8573 17.0386 12.3075 16.8939 12.7182C16.3047 14.3909 15.1878 15.8267 13.7116 16.8094C12.2354 17.7921 10.4798 18.2684 8.70938 18.1665C6.93897 18.0646 5.24964 17.39 3.89591 16.2445C2.54218 15.0989 1.59739 13.5443 1.2039 11.8151C0.810418 10.0858 0.989544 8.2755 1.7143 6.6569C2.43905 5.0383 3.67016 3.6991 5.22214 2.84108Z" fill="currentColor"/>
</svg>
