<svg width="20" height="20" viewBox="0 0 20 20" fill="none" xmlns="http://www.w3.org/2000/svg">
<path d="M9.68107 1.89979C11.4371 1.65273 13.2259 1.98305 14.7779 2.84101C16.3298 3.69896 17.561 5.03805 18.2857 6.65653C19.0105 8.275 19.1896 10.0852 18.7961 11.8143C18.4026 13.5434 17.4578 15.0978 16.1041 16.2433C14.7504 17.3888 13.061 18.0633 11.2906 18.1652C9.52021 18.2671 7.76464 17.7909 6.28843 16.8083C4.81222 15.8257 3.69534 14.3899 3.10607 12.7173C2.96138 12.3067 3.177 11.8565 3.58767 11.7118C3.99833 11.5671 4.44853 11.7827 4.59321 12.1934C5.06889 13.5435 5.97047 14.7025 7.16211 15.4957C8.35375 16.2889 9.7709 16.6733 11.2 16.5911C12.6291 16.5088 13.9928 15.9644 15.0856 15.0397C16.1784 14.115 16.941 12.8602 17.2587 11.4644C17.5763 10.0686 17.4317 8.60741 16.8467 7.30093C16.2616 5.99445 15.2678 4.9135 14.015 4.22093C12.7622 3.52837 11.3183 3.26172 9.90074 3.46116C8.48322 3.6606 7.1689 4.31532 6.15583 5.32668C6.1502 5.33229 6.14449 5.33783 6.1387 5.34327L3.77853 7.56101H6.7157C7.1511 7.56101 7.50407 7.91398 7.50407 8.34939C7.50407 8.78479 7.1511 9.13776 6.7157 9.13776H1.78837C1.35297 9.13776 1 8.78479 1 8.34939V3.42206C1 2.98666 1.35297 2.63369 1.78837 2.63369C2.22378 2.63369 2.57674 2.98666 2.57674 3.42206V6.52666L5.05051 4.20218C6.30433 2.95421 7.92906 2.14629 9.68107 1.89979Z" fill="currentColor"/>
<path d="M10.4606 11.9626C11.5491 11.9626 12.4315 11.0802 12.4315 9.99172C12.4315 8.9032 11.5491 8.02079 10.4606 8.02079C9.37205 8.02079 8.48963 8.9032 8.48963 9.99172C8.48963 11.0802 9.37205 11.9626 10.4606 11.9626Z" fill="currentColor"/>
</svg>
