<svg width="20" height="20" viewBox="0 0 20 20" fill="none" xmlns="http://www.w3.org/2000/svg">
<path d="M14.7779 2.84101C13.2259 1.98305 11.4371 1.65273 9.68107 1.89979C7.92906 2.14629 6.30433 2.95421 5.05051 4.20218L2.57674 6.52666V3.42208C2.57674 2.98667 2.22378 2.6337 1.78837 2.6337C1.35297 2.6337 1 2.98667 1 3.42208V8.3494C1 8.7848 1.35297 9.13777 1.78837 9.13777H6.7157C7.1511 9.13777 7.50407 8.7848 7.50407 8.3494C7.50407 7.91399 7.1511 7.56103 6.7157 7.56103H3.77852L6.1387 5.34327C6.14449 5.33783 6.1502 5.33229 6.15583 5.32668C7.1689 4.31532 8.48322 3.66059 9.90074 3.46116C11.3183 3.26172 12.7622 3.52837 14.015 4.22093C15.2678 4.9135 16.2616 5.99445 16.8467 7.30093C17.4317 8.60741 17.5763 10.0686 17.2587 11.4644C16.941 12.8602 16.1784 14.115 15.0856 15.0397C13.9928 15.9644 12.6291 16.5088 11.2 16.5911C9.7709 16.6733 8.35375 16.2889 7.16211 15.4957C5.97047 14.7025 5.06889 13.5435 4.59321 12.1934C4.44853 11.7827 3.99833 11.5671 3.58767 11.7118C3.177 11.8565 2.96138 12.3067 3.10607 12.7173C3.69534 14.3899 4.81222 15.8257 6.28843 16.8083C7.76464 17.7909 9.52021 18.2671 11.2906 18.1652C13.061 18.0633 14.7504 17.3888 16.1041 16.2433C17.4578 15.0978 18.4026 13.5434 18.7961 11.8143C19.1896 10.0852 19.0105 8.275 18.2857 6.65653C17.561 5.03805 16.3298 3.69896 14.7779 2.84101Z" fill="currentColor"/>
</svg>
