<svg width="20" height="20" viewBox="0 0 20 20" fill="none" xmlns="http://www.w3.org/2000/svg">
<path fill-rule="evenodd" clip-rule="evenodd" d="M12.5988 6.52204C13.1894 7.12763 14.0143 7.50366 14.927 7.50366C16.7229 7.50366 18.1788 6.04777 18.1788 4.25183C18.1788 2.45589 16.7229 1 14.927 1C13.131 1 11.6751 2.45589 11.6751 4.25183C11.6751 4.56722 11.72 4.87211 11.8038 5.16048L7.40118 7.72975C6.81058 7.12415 5.98568 6.74811 5.07295 6.74811C3.27701 6.74811 1.82111 8.204 1.82111 9.99994C1.82111 11.7959 3.27701 13.2518 5.07295 13.2518C5.98579 13.2518 6.81079 12.8756 7.4014 12.2699L11.8049 14.8359C11.7204 15.1253 11.6751 15.4315 11.6751 15.7482C11.6751 17.5441 13.131 19 14.927 19C16.7229 19 18.1788 17.5441 18.1788 15.7482C18.1788 13.9522 16.7229 12.4963 14.927 12.4963C14.0156 12.4963 13.1918 12.8712 12.6014 13.4753L8.19622 10.9083C8.27991 10.62 8.32478 10.3152 8.32478 9.99994C8.32478 9.68456 8.27988 9.37968 8.19613 9.09132L12.5988 6.52204ZM14.927 2.57665C14.0018 2.57665 13.2518 3.32665 13.2518 4.25183C13.2518 4.54316 13.3262 4.81711 13.4569 5.05575C13.4653 5.06834 13.4733 5.08123 13.481 5.09444C13.4887 5.10755 13.4959 5.12078 13.5027 5.13414C13.7982 5.61009 14.3256 5.92702 14.927 5.92702C15.8522 5.92702 16.6022 5.17701 16.6022 4.25183C16.6022 3.32665 15.8522 2.57665 14.927 2.57665ZM6.49713 9.11749C6.50397 9.1309 6.51123 9.1442 6.51891 9.15736C6.52665 9.17062 6.53471 9.18357 6.54308 9.1962C6.6738 9.4348 6.74813 9.70869 6.74813 9.99994C6.74813 10.2915 6.67362 10.5658 6.5426 10.8046C6.53431 10.8171 6.52632 10.8299 6.51866 10.8431C6.51123 10.8558 6.5042 10.8687 6.49757 10.8817C6.20217 11.3579 5.6746 11.6751 5.07295 11.6751C4.14777 11.6751 3.39776 10.9251 3.39776 9.99994C3.39776 9.07476 4.14777 8.32475 5.07295 8.32475C5.6743 8.32475 6.20165 8.64162 6.49713 9.11749ZM13.4334 14.9888C13.4536 14.9625 13.4723 14.9346 13.4895 14.9052C13.5059 14.8769 13.5204 14.8481 13.533 14.8188C13.8334 14.3691 14.3456 14.073 14.927 14.073C15.8522 14.073 16.6022 14.823 16.6022 15.7482C16.6022 16.6733 15.8522 17.4234 14.927 17.4234C14.0018 17.4234 13.2518 16.6733 13.2518 15.7482C13.2518 15.4748 13.3173 15.2168 13.4334 14.9888Z" fill="currentColor"/>
</svg>
