<svg width="20" height="20" viewBox="0 0 20 20" fill="none" xmlns="http://www.w3.org/2000/svg">
<path d="M17.3102 9.53703C17.6165 9.21897 18.1228 9.20967 18.4411 9.51555C18.7593 9.82202 18.769 10.3281 18.4626 10.6464L10.7829 18.623C10.629 18.7828 10.4149 18.8707 10.193 18.8671C9.97144 18.8634 9.76052 18.768 9.61199 18.6034L5.77215 14.3495C5.47664 14.0216 5.50205 13.5156 5.82976 13.2196C6.15749 12.9239 6.66353 12.95 6.95965 13.2773L10.2243 16.8945L17.3102 9.53703Z" fill="currentColor"/>
<path fill-rule="evenodd" clip-rule="evenodd" d="M5.33269 1.90226C5.72984 0.896527 7.14404 0.870384 7.57879 1.86027L11.9889 11.915C12.1664 12.3195 11.9822 12.7911 11.5778 12.9687C11.1733 13.146 10.7016 12.962 10.5241 12.5575L9.36297 9.91105H3.89129L2.85808 12.5302C2.69582 12.9411 2.23093 13.1426 1.82 12.9804C1.4095 12.8179 1.20767 12.353 1.3698 11.9423L5.33269 1.90226ZM4.52312 8.31144H8.66179L6.48308 3.34465L4.52312 8.31144Z" fill="currentColor"/>
</svg>
