<svg width="20" height="20" viewBox="0 0 20 20" fill="none" xmlns="http://www.w3.org/2000/svg">
<path fill-rule="evenodd" clip-rule="evenodd" d="M3.14862 3.78121C3.24707 3.65592 3.35681 3.54043 3.47266 3.43508C3.90042 3.0461 4.47479 2.73252 5.1167 2.48563C6.40585 1.9898 8.13263 1.70007 10.0001 1.70007C11.8675 1.70007 13.5943 1.9898 14.8835 2.48563C15.5254 2.73252 16.0997 3.0461 16.5275 3.43508C16.6433 3.54043 16.7531 3.65592 16.8515 3.78121C17.1172 3.91132 17.3001 4.18434 17.3001 4.50007V15.206C17.3001 15.8514 16.9304 16.3571 16.5065 16.7128C16.0789 17.0716 15.5075 17.3583 14.8709 17.5833C13.5905 18.0359 11.871 18.3001 10.0001 18.3001C8.12918 18.3001 6.40965 18.0359 5.12929 17.5833C4.49266 17.3583 3.92129 17.0716 3.49368 16.7128C3.06973 16.3571 2.70007 15.8514 2.70007 15.206V4.50007C2.70007 4.18434 2.88298 3.91132 3.14862 3.78121ZM15.7001 10.4649V7.14085C15.4463 7.27937 15.1717 7.40367 14.8835 7.51452C13.5943 8.01035 11.8675 8.30007 10.0001 8.30007C8.13263 8.30007 6.40585 8.01035 5.1167 7.51452C4.82849 7.40367 4.55389 7.27937 4.30007 7.14085V10.4649C4.31586 10.4896 4.36165 10.547 4.48019 10.6337C4.70729 10.7999 5.08781 10.983 5.63151 11.1506C6.70917 11.4827 8.25086 11.7001 10.0001 11.7001C11.7493 11.7001 13.291 11.4827 14.3686 11.1506C14.9123 10.983 15.2929 10.7999 15.52 10.6337C15.6385 10.547 15.6843 10.4896 15.7001 10.4649ZM4.30007 12.3596C4.56642 12.4796 4.85607 12.5858 5.16031 12.6796C6.42986 13.0708 8.13817 13.3001 10.0001 13.3001C11.862 13.3001 13.5703 13.0708 14.8398 12.6796C15.1441 12.5858 15.4337 12.4796 15.7001 12.3596V15.206C15.7001 15.2074 15.7007 15.2263 15.6755 15.2699C15.6472 15.3191 15.589 15.394 15.4781 15.4871C15.2511 15.6775 14.8746 15.885 14.3376 16.0748C13.2708 16.4519 11.7403 16.7001 10.0001 16.7001C8.25986 16.7001 6.72939 16.4519 5.66253 16.0748C5.12555 15.885 4.749 15.6775 4.52209 15.4871C4.41112 15.394 4.35292 15.3191 4.32462 15.2699C4.29949 15.2263 4.30003 15.2075 4.30007 15.206L4.30007 12.3596ZM4.30007 5.00007C4.30007 5.04231 4.31925 5.1723 4.54909 5.38131C4.77916 5.59052 5.1567 5.81564 5.69106 6.02116C6.75445 6.43016 8.27767 6.70007 10.0001 6.70007C11.7225 6.70007 13.2457 6.43016 14.3091 6.02116C14.8434 5.81564 15.221 5.59052 15.4511 5.38131C15.6809 5.1723 15.7001 5.04231 15.7001 5.00007C15.7001 4.95784 15.6809 4.82784 15.4511 4.61884C15.221 4.40963 14.8434 4.18451 14.3091 3.97898C13.2457 3.56999 11.7225 3.30007 10.0001 3.30007C8.27767 3.30007 6.75445 3.56999 5.69106 3.97898C5.1567 4.18451 4.77916 4.40963 4.54909 4.61884C4.31925 4.82784 4.30007 4.95784 4.30007 5.00007Z" fill="currentColor"/>
</svg>
