<svg width="20" height="20" viewBox="0 0 20 20" fill="none" xmlns="http://www.w3.org/2000/svg">
<path fill-rule="evenodd" clip-rule="evenodd" d="M2.30005 2.99999C2.30005 2.61339 2.61345 2.29999 3.00005 2.29999H6.00005C6.38665 2.29999 6.70005 2.61339 6.70005 2.99999V5.99999C6.70005 6.38659 6.38665 6.69999 6.00005 6.69999H3.00005C2.61345 6.69999 2.30005 6.38659 2.30005 5.99999V2.99999ZM3.70005 3.69999V5.29999H5.30005V3.69999H3.70005Z" fill="currentColor"/>
<path fill-rule="evenodd" clip-rule="evenodd" d="M7.80005 2.99999C7.80005 2.61339 8.11345 2.29999 8.50005 2.29999H11.5C11.8866 2.29999 12.2 2.61339 12.2 2.99999V5.99999C12.2 6.38659 11.8866 6.69999 11.5 6.69999H8.50005C8.11345 6.69999 7.80005 6.38659 7.80005 5.99999V2.99999ZM9.20005 3.69999V5.29999H10.8V3.69999H9.20005Z" fill="currentColor"/>
<path fill-rule="evenodd" clip-rule="evenodd" d="M13.3 2.99999C13.3 2.61339 13.6134 2.29999 14 2.29999H17C17.3866 2.29999 17.7 2.61339 17.7 2.99999V5.99999C17.7 6.38659 17.3866 6.69999 17 6.69999H14C13.6134 6.69999 13.3 6.38659 13.3 5.99999V2.99999ZM14.7 3.69999V5.29999H16.3V3.69999H14.7Z" fill="currentColor"/>
<path fill-rule="evenodd" clip-rule="evenodd" d="M2.30005 8.49999C2.30005 8.11339 2.61345 7.79999 3.00005 7.79999H6.00005C6.38665 7.79999 6.70005 8.11339 6.70005 8.49999V11.5C6.70005 11.8866 6.38665 12.2 6.00005 12.2H3.00005C2.61345 12.2 2.30005 11.8866 2.30005 11.5V8.49999ZM3.70005 9.19999V10.8H5.30005V9.19999H3.70005Z" fill="currentColor"/>
<path fill-rule="evenodd" clip-rule="evenodd" d="M7.80005 8.49999C7.80005 8.11339 8.11345 7.79999 8.50005 7.79999H11.5C11.8866 7.79999 12.2 8.11339 12.2 8.49999V11.5C12.2 11.8866 11.8866 12.2 11.5 12.2H8.50005C8.11345 12.2 7.80005 11.8866 7.80005 11.5V8.49999ZM9.20005 9.19999V10.8H10.8V9.19999H9.20005Z" fill="currentColor"/>
<path fill-rule="evenodd" clip-rule="evenodd" d="M13.3 8.49999C13.3 8.11339 13.6134 7.79999 14 7.79999H17C17.3866 7.79999 17.7 8.11339 17.7 8.49999V11.5C17.7 11.8866 17.3866 12.2 17 12.2H14C13.6134 12.2 13.3 11.8866 13.3 11.5V8.49999ZM14.7 9.19999V10.8H16.3V9.19999H14.7Z" fill="currentColor"/>
<path fill-rule="evenodd" clip-rule="evenodd" d="M2.30005 14C2.30005 13.6134 2.61345 13.3 3.00005 13.3H6.00005C6.38665 13.3 6.70005 13.6134 6.70005 14V17C6.70005 17.3866 6.38665 17.7 6.00005 17.7H3.00005C2.61345 17.7 2.30005 17.3866 2.30005 17V14ZM3.70005 14.7V16.3H5.30005V14.7H3.70005Z" fill="currentColor"/>
<path fill-rule="evenodd" clip-rule="evenodd" d="M7.80005 14C7.80005 13.6134 8.11345 13.3 8.50005 13.3H11.5C11.8866 13.3 12.2 13.6134 12.2 14V17C12.2 17.3866 11.8866 17.7 11.5 17.7H8.50005C8.11345 17.7 7.80005 17.3866 7.80005 17V14ZM9.20005 14.7V16.3H10.8V14.7H9.20005Z" fill="currentColor"/>
<path fill-rule="evenodd" clip-rule="evenodd" d="M13.3 14C13.3 13.6134 13.6134 13.3 14 13.3H17C17.3866 13.3 17.7 13.6134 17.7 14V17C17.7 17.3866 17.3866 17.7 17 17.7H14C13.6134 17.7 13.3 17.3866 13.3 17V14ZM14.7 14.7V16.3H16.3V14.7H14.7Z" fill="currentColor"/>
</svg>
