<svg width="20" height="20" viewBox="0 0 20 20" fill="none" xmlns="http://www.w3.org/2000/svg">
<path fill-rule="evenodd" clip-rule="evenodd" d="M3.04547 17.8C1.65955 17.8 0.700012 16.5619 0.700012 15.25V4.74995C0.700012 3.43797 1.65955 2.19995 3.04547 2.19995H16.9546C18.3405 2.19995 19.3 3.43797 19.3 4.74995V15.25C19.3 16.5619 18.3405 17.8 16.9546 17.8H3.04547ZM17.7 13.0661V15.25C17.7 15.871 17.2757 16.2 16.9546 16.2H8.40548V13.0661L17.7 13.0661ZM17.7 11.4661V8.44961L8.40548 8.44961L8.40548 11.4661L17.7 11.4661ZM17.7 6.84961V4.74995C17.7 4.12893 17.2757 3.79995 16.9546 3.79995H8.40548V6.84961L17.7 6.84961ZM2.30001 8.44961V11.4661L6.80548 11.4661V8.44961L2.30001 8.44961ZM2.30001 13.0661V15.25C2.30001 15.871 2.72432 16.2 3.04547 16.2H6.80548L6.80548 13.0661H2.30001ZM2.30001 6.84961V4.74995C2.30001 4.12893 2.72432 3.79995 3.04547 3.79995H6.80548L6.80548 6.84961L2.30001 6.84961Z" fill="currentColor"/>
</svg>
