<svg width="20" height="20" viewBox="0 0 20 20" fill="none" xmlns="http://www.w3.org/2000/svg">
<path fill-rule="evenodd" clip-rule="evenodd" d="M6.66667 5.83785V8.33783H15.8333C17.214 8.33783 18.3333 9.45712 18.3333 10.8378V16.6712C18.3333 18.0519 17.214 19.1712 15.8333 19.1712H4.16663C2.78591 19.1712 1.66663 18.0519 1.66663 16.6712V10.8378C1.66663 9.45712 2.78591 8.33783 4.16663 8.33783H5L5 5.83868C4.99742 3.26992 6.94174 1.11713 9.49751 0.858974C12.0533 0.600816 14.3888 2.32129 14.9 4.83869C14.9916 5.28972 14.7002 5.7296 14.2492 5.82118C13.7981 5.91277 13.3583 5.62138 13.2667 5.17034C12.9259 3.49208 11.3688 2.3451 9.665 2.5172C7.96116 2.68931 6.66495 4.1245 6.66667 5.83785ZM5.82647 10.0045C5.82876 10.0045 5.83105 10.0045 5.83334 10.0045C5.83562 10.0045 5.83791 10.0045 5.8402 10.0045H15.8333C16.2935 10.0045 16.6666 10.3776 16.6666 10.8378V16.6712C16.6666 17.1314 16.2935 17.5045 15.8333 17.5045H4.16659C3.70635 17.5045 3.33325 17.1314 3.33325 16.6712V10.8378C3.33325 10.3776 3.70635 10.0045 4.16659 10.0045H5.82647Z" fill="currentColor"/>
</svg>
