<svg width="20" height="20" viewBox="0 0 20 20" fill="none" xmlns="http://www.w3.org/2000/svg">
<g clip-path="url(#clip0_3031_630)">
<path fill-rule="evenodd" clip-rule="evenodd" d="M10.0001 0.866699C10.3046 0.866699 10.5826 1.03956 10.7174 1.3126L13.1065 6.15254L18.4491 6.93344C18.7503 6.97748 19.0005 7.18868 19.0944 7.47829C19.1883 7.76789 19.1097 8.0857 18.8916 8.29812L15.8901 11.2216C15.5736 11.5299 15.0671 11.5232 14.7588 11.2067C14.4505 10.8902 14.4572 10.3837 14.7737 10.0754L16.6147 8.28232L12.4594 7.67495C12.1991 7.63691 11.9741 7.47334 11.8577 7.23747L10.0001 3.4741L9.42992 4.62913C9.23436 5.02532 8.75465 5.18796 8.35846 4.9924C7.96227 4.79683 7.79963 4.31712 7.99519 3.92093L9.28269 1.3126C9.41747 1.03956 9.69556 0.866699 10.0001 0.866699ZM3.37212 8.26933C3.72608 8.14509 3.95418 7.78402 3.89789 7.39891C3.83399 6.96173 3.42779 6.65913 2.9906 6.72303L1.55102 6.93344C1.24977 6.97748 0.999628 7.18868 0.905726 7.47829C0.811824 7.76789 0.890442 8.0857 1.10854 8.29812L4.97377 12.0629L4.06157 17.3815C4.01009 17.6816 4.13349 17.985 4.37987 18.1639C4.62625 18.3429 4.95288 18.3665 5.22242 18.2248L10.0001 15.7122L11.3778 16.4368C11.7688 16.6424 12.2525 16.4921 12.4582 16.1011C12.6638 15.71 12.5135 15.2263 12.1225 15.0207L10.3724 14.1003C10.1393 13.9777 9.8608 13.9777 9.6277 14.1003L5.9126 16.054L6.62188 11.9186C6.6664 11.659 6.58027 11.3941 6.39158 11.2103L3.37212 8.26933Z" fill="currentColor"/>
<path fill-rule="evenodd" clip-rule="evenodd" d="M0.267762 0.267518C0.580181 -0.0449017 1.08671 -0.0449017 1.39913 0.267518L19.7325 18.6008C20.0449 18.9133 20.0449 19.4198 19.7325 19.7322C19.42 20.0446 18.9135 20.0446 18.6011 19.7322L0.267762 1.39889C-0.0446576 1.08647 -0.0446576 0.579937 0.267762 0.267518Z" fill="currentColor"/>
</g>
<defs>
<clipPath id="clip0_3031_630">
<rect width="20" height="20" fill="white"/>
</clipPath>
</defs>
</svg>
