<svg width="20" height="20" viewBox="0 0 20 20" fill="none" xmlns="http://www.w3.org/2000/svg">
<path fill-rule="evenodd" clip-rule="evenodd" d="M9.99867 2.59118C8.65304 2.59118 7.56219 3.68203 7.56219 5.02766C7.56219 6.3733 8.65304 7.46415 9.99867 7.46415C11.3443 7.46415 12.4352 6.3733 12.4352 5.02766C12.4352 3.68203 11.3443 2.59118 9.99867 2.59118ZM5.97101 5.02766C5.97101 2.80325 7.77426 1 9.99867 1C12.2231 1 14.0263 2.80325 14.0263 5.02766C14.0263 7.25208 12.2231 9.05533 9.99867 9.05533C7.77426 9.05533 5.97101 7.25208 5.97101 5.02766Z" fill="currentColor"/>
<path fill-rule="evenodd" clip-rule="evenodd" d="M9.00345 19H7.33957C5.79316 19 4.4028 18.0578 3.82966 16.6216L3.43289 15.6273C2.44263 13.1457 4.26934 10.4476 6.94192 10.4476L8.0091 10.4476V10.4476H11.9875V10.4476L13.0554 10.4476C15.728 10.4476 17.5547 13.1457 16.5644 15.6272L16.1677 16.6216C15.5945 18.0578 14.2042 19 12.6578 19H10.9939V19H9.00345V19ZM7.33957 17.4088C6.44428 17.4088 5.63933 16.8634 5.30752 16.0318L4.91074 15.0375C4.33722 13.6003 5.39521 12.0388 6.94192 12.0388H13.0554C14.6021 12.0388 15.6601 13.6003 15.0866 15.0375L14.6898 16.0318C14.358 16.8634 13.553 17.4088 12.6578 17.4088H7.33957Z" fill="currentColor"/>
</svg>
