<svg width="20" height="20" viewBox="0 0 20 20" fill="none" xmlns="http://www.w3.org/2000/svg">
<path d="M16.7305 2.44995C18.0715 2.45011 19 3.64815 19 4.91772V15.0789C19 16.3484 18.0715 17.5465 16.7305 17.5466H3.26953C1.92847 17.5465 1 16.3484 1 15.0789V4.91772C1 3.64815 1.92847 2.45011 3.26953 2.44995H16.7305ZM2.54883 15.0789C2.54883 15.6797 2.95877 15.9986 3.26953 15.9988H16.7305C17.0412 15.9986 17.4512 15.6797 17.4512 15.0789V9.15991H2.54883V15.0789ZM3.26953 3.99878C2.95877 3.99896 2.54883 4.31691 2.54883 4.91772V7.61108H17.4512V4.91772C17.4512 4.31691 17.0412 3.99896 16.7305 3.99878H3.26953ZM9.5166 4.96558C10.0508 4.96578 10.4841 5.39921 10.4844 5.93335C10.4844 6.46769 10.0509 6.90092 9.5166 6.90112C8.98213 6.90112 8.54883 6.46782 8.54883 5.93335C8.54907 5.39909 8.98228 4.96558 9.5166 4.96558ZM12.4199 4.96558C12.954 4.96581 13.3875 5.39923 13.3877 5.93335C13.3877 6.46768 12.9542 6.90089 12.4199 6.90112C11.8855 6.90112 11.4521 6.46782 11.4521 5.93335C11.4524 5.39909 11.8856 4.96558 12.4199 4.96558ZM15.3223 4.96655C15.8567 4.96655 16.29 5.39986 16.29 5.93433C16.2898 6.46858 15.8566 6.90112 15.3223 6.90112C14.7881 6.90099 14.3547 6.4685 14.3545 5.93433C14.3545 5.39994 14.7879 4.96669 15.3223 4.96655Z" fill="currentColor"/>
</svg>
