<svg width="20" height="20" viewBox="0 0 20 20" fill="none" xmlns="http://www.w3.org/2000/svg">
<path fill-rule="evenodd" clip-rule="evenodd" d="M14.1182 12.54C16.0845 12.5401 17.6785 14.1342 17.6787 16.1006C17.6785 18.0669 16.0845 19.662 14.1182 19.6621C12.1518 19.662 10.5579 18.0669 10.5576 16.1006C10.5578 14.1342 12.1517 12.5401 14.1182 12.54ZM15.6875 14.4258C15.5483 14.4258 15.4148 14.4849 15.3164 14.5898L13.5957 16.4297L12.9209 15.7051C12.8722 15.6532 12.8136 15.6111 12.75 15.583C12.6864 15.555 12.6176 15.541 12.5488 15.541C12.4096 15.5411 12.2762 15.6001 12.1777 15.7051C12.1291 15.757 12.0898 15.8189 12.0635 15.8867C12.0373 15.9544 12.0235 16.0273 12.0234 16.1006C12.0235 16.2489 12.0793 16.3921 12.1777 16.497L13.2236 17.6123C13.2722 17.6644 13.331 17.7061 13.3945 17.7344C13.458 17.7624 13.5269 17.7773 13.5957 17.7773C13.6646 17.7772 13.7333 17.7626 13.7969 17.7344C13.8604 17.7061 13.9183 17.6644 13.9668 17.6123L16.0596 15.3818C16.158 15.2769 16.2128 15.1337 16.2129 14.9853C16.2129 14.8372 16.1576 14.6947 16.0596 14.5898C15.9611 14.4849 15.8267 14.4258 15.6875 14.4258Z" fill="currentColor"/>
<path d="M8.78027 15.039C9.26826 15.0392 9.66388 15.4348 9.66406 15.9228C9.66406 16.411 9.26837 16.8074 8.78027 16.8076H4.02441C3.53616 16.8076 3.14062 16.4111 3.14062 15.9228C3.14081 15.4347 3.53627 15.039 4.02441 15.039H8.78027Z" fill="currentColor"/>
<path d="M5.07617 3.60349C5.07639 1.6706 6.72793 0.133841 8.6709 0.360331C10.0948 0.529643 11.2628 1.67969 11.4648 3.11717C11.6027 4.08957 11.3192 4.99595 10.7676 5.67185C10.0089 6.60754 9.6602 7.82378 9.66016 9.03904V9.13084C9.66029 9.65805 10.0823 10.0869 10.6055 10.0869H12.4434C12.839 10.0869 13.2054 10.215 13.5029 10.4326C13.9021 10.7251 13.59 11.2463 13.1104 11.3691C11.9137 11.6755 10.8999 12.4546 10.2744 13.4961C10.133 13.7313 9.88673 13.8916 9.6123 13.8916H3.03418C2.64063 13.8916 2.32129 13.5722 2.32129 13.1787V11.9297C2.32129 10.9119 3.13307 10.0871 4.13477 10.0869H5.97266C6.49231 10.0869 6.91783 9.65805 6.91797 9.13084V8.89939C6.91786 7.68846 6.46318 6.54241 5.7373 5.58201C5.32358 5.03349 5.07617 4.34943 5.07617 3.60349Z" fill="currentColor"/>
</svg>
