<svg width="20" height="20" viewBox="0 0 20 20" fill="none" xmlns="http://www.w3.org/2000/svg">
<path d="M14.1182 12.54C16.0845 12.5402 17.6785 14.1342 17.6787 16.1006C17.6785 18.0669 16.0845 19.662 14.1182 19.6621C12.1518 19.6621 10.5579 18.0669 10.5576 16.1006C10.5578 14.1342 12.1517 12.5401 14.1182 12.54ZM15.8359 14.3379C15.6381 14.1457 15.3214 14.1501 15.1289 14.3477L14.125 15.3779L13.1221 14.3477C12.9296 14.1503 12.6128 14.1458 12.415 14.3379C12.2177 14.5304 12.2132 14.8471 12.4053 15.0449L13.4268 16.0947L12.4053 17.1455C12.2129 17.3433 12.2176 17.6599 12.415 17.8525C12.6128 18.0449 12.9285 18.0411 13.1211 17.8438L14.125 16.8115L15.1289 17.8438C15.3215 18.0414 15.6381 18.0449 15.8359 17.8525C16.0334 17.6599 16.0372 17.3433 15.8447 17.1455L14.8223 16.0947L15.8447 15.0449C16.0372 14.8471 16.0336 14.5305 15.8359 14.3379ZM8.78027 15.0391C9.26826 15.0393 9.66388 15.4349 9.66406 15.9229C9.66404 16.411 9.26836 16.8074 8.78027 16.8076H4.02441C3.53617 16.8076 3.14065 16.4111 3.14062 15.9229C3.14081 15.4347 3.53627 15.0391 4.02441 15.0391H8.78027ZM5.07617 3.60352C5.07639 1.67062 6.72793 0.133862 8.6709 0.360352C10.0948 0.529666 11.2628 1.67971 11.4648 3.11719C11.6027 4.08957 11.3192 4.99598 10.7676 5.67188C10.0089 6.60756 9.6602 7.82381 9.66016 9.03906V9.13086C9.66031 9.65806 10.0823 10.0869 10.6055 10.0869H12.4434C12.839 10.0869 13.2054 10.215 13.5029 10.4326C13.902 10.7251 13.59 11.2463 13.1104 11.3691C11.9137 11.6756 10.8999 12.4546 10.2744 13.4961C10.133 13.7313 9.88672 13.8916 9.6123 13.8916H3.03418C2.64064 13.8916 2.32131 13.5722 2.32129 13.1787V11.9297C2.32129 10.9119 3.13307 10.0871 4.13477 10.0869H5.97266C6.4923 10.0869 6.91781 9.65806 6.91797 9.13086V8.89941C6.91786 7.6885 6.46317 6.54243 5.7373 5.58203C5.32359 5.03352 5.07618 4.34944 5.07617 3.60352Z" fill="currentColor"/>
</svg>
