<svg width="20" height="20" viewBox="0 0 20 20" fill="none" xmlns="http://www.w3.org/2000/svg">
<path d="M6.66504 1.6665C7.77011 1.6665 8.82993 2.10581 9.61133 2.88721C9.752 3.02788 9.88209 3.17711 10 3.33447C10.1179 3.17711 10.248 3.02788 10.3887 2.88721C11.1701 2.10581 12.2299 1.6665 13.335 1.6665H18.335C18.7949 1.66668 19.1678 2.03953 19.168 2.49951V14.9995C19.168 15.4596 18.795 15.8333 18.335 15.8335H12.501C12.0591 15.8336 11.6357 16.0093 11.3232 16.3218C11.0108 16.6343 10.835 17.0576 10.835 17.4995C10.835 17.9597 10.4612 18.3335 10.001 18.3335L10 18.3325L9.99902 18.3335C9.53879 18.3335 9.16504 17.9597 9.16504 17.4995C9.16495 17.0576 8.98924 16.6343 8.67676 16.3218C8.36427 16.0093 7.94093 15.8336 7.49902 15.8335H1.66504C1.20495 15.8333 0.832031 15.4596 0.832031 14.9995V2.49951C0.832207 2.03953 1.20506 1.66668 1.66504 1.6665H6.66504ZM10 5.16748C9.53993 5.16748 9.16726 5.5395 9.16699 5.99951V13.9995C9.16699 14.4597 9.53976 14.8335 10 14.8335C10.4601 14.8335 10.8327 14.4605 10.833 14.0005V6.00049C10.833 5.54025 10.4602 5.16748 10 5.16748Z" fill="currentColor"/>
</svg>
