<svg width="20" height="20" viewBox="0 0 20 20" fill="none" xmlns="http://www.w3.org/2000/svg">
<path d="M10 1C14.9706 1 19 5.02944 19 10C19 14.9706 14.9706 19 10 19C5.02944 19 1 14.9706 1 10C1 5.02944 5.02944 1 10 1ZM14.1094 5.89062C13.8282 5.60948 13.372 5.60955 13.0908 5.89062L10 8.98145L6.90918 5.89062C6.628 5.6095 6.17178 5.60947 5.89062 5.89062C5.60947 6.17178 5.6095 6.628 5.89062 6.90918L8.98145 10L5.89062 13.0908C5.60955 13.372 5.60948 13.8282 5.89062 14.1094C6.17177 14.3905 6.62801 14.3904 6.90918 14.1094L10 11.0186L13.0908 14.1094C13.372 14.3904 13.8282 14.3905 14.1094 14.1094C14.3905 13.8282 14.3904 13.372 14.1094 13.0908L11.0186 10L14.1094 6.90918C14.3904 6.62801 14.3905 6.17177 14.1094 5.89062Z" fill="currentColor"/>
</svg>
