<svg width="20" height="20" viewBox="0 0 20 20" fill="none" xmlns="http://www.w3.org/2000/svg">
<path fill-rule="evenodd" clip-rule="evenodd" d="M3.75 2.91675C2.82952 2.91675 2.08333 3.66294 2.08333 4.58341V15.4167C2.08333 16.3372 2.82953 17.0834 3.75 17.0834H9.625C10.5455 17.0834 11.2917 16.3372 11.2917 15.4167V4.58341C11.2917 3.66294 10.5455 2.91675 9.625 2.91675H3.75ZM5.97991 5.04192H3.85491V6.45859H5.97991V5.04192ZM7.39595 5.04192H9.52095V6.45859H7.39595V5.04192ZM5.97991 7.87471H3.85491V9.29138H5.97991V7.87471ZM7.39595 7.87471H9.52095V9.29138H7.39595V7.87471ZM5.97991 10.7084H3.85491V12.125H5.97991V10.7084ZM7.39595 10.7084H9.52095V12.125H7.39595V10.7084ZM5.97991 13.5414H3.85491V14.958H5.97991V13.5414ZM7.39595 13.5414H9.52095V14.958H7.39595V13.5414Z" fill="currentColor"/>
<path fill-rule="evenodd" clip-rule="evenodd" d="M13.9166 8.58325C12.9961 8.58325 12.25 9.32944 12.25 10.2499V15.4166C12.25 16.3371 12.9961 17.0833 13.9166 17.0833H16.25C17.1704 17.0833 17.9166 16.3371 17.9166 15.4166V10.2499C17.9166 9.32944 17.1704 8.58325 16.25 8.58325H13.9166ZM16.1465 10.7084H14.0215V12.125H16.1465V10.7084ZM14.0215 13.5414H16.1465V14.958H14.0215V13.5414Z" fill="currentColor"/>
</svg>
