<svg width="20" height="20" viewBox="0 0 20 20" fill="none" xmlns="http://www.w3.org/2000/svg">
<path fill-rule="evenodd" clip-rule="evenodd" d="M14.0682 4.08233V3.42489C14.0682 2.78131 13.8125 2.1641 13.3574 1.70902C12.9023 1.25395 12.2851 0.998291 11.6416 0.998291H8.36237C7.7188 0.998291 7.10159 1.25395 6.64651 1.70902C6.19144 2.1641 5.93578 2.78131 5.93578 3.42489V4.08233H2.62377C2.08046 4.08233 1.64001 4.52203 1.64001 5.06444C1.64001 5.60684 2.08046 6.04655 2.62377 6.04655H3.47639V16.5416C3.47639 17.1852 3.73205 17.8024 4.18712 18.2575C4.6422 18.7126 5.25941 18.9682 5.90298 18.9682H14.1009C14.7445 18.9682 15.3617 18.7126 15.8168 18.2575C16.2719 17.8024 16.5275 17.1852 16.5275 16.5416V6.04655H17.3801C17.9234 6.04655 18.3638 5.60684 18.3638 5.06444C18.3638 4.52203 17.9234 4.08233 17.3801 4.08233H14.0682ZM12.4286 9.16346C12.4286 8.72881 12.0762 8.37645 11.6416 8.37645C11.2069 8.37645 10.8546 8.72881 10.8546 9.16346V14.0822C10.8546 14.5169 11.2069 14.8692 11.6416 14.8692C12.0762 14.8692 12.4286 14.5169 12.4286 14.0822V9.16346ZM8.36233 8.37645C8.79698 8.37645 9.14934 8.72881 9.14934 9.16346V14.0822C9.14934 14.5169 8.79698 14.8692 8.36233 14.8692C7.92768 14.8692 7.57533 14.5169 7.57533 14.0822V9.16346C7.57533 8.72881 7.92768 8.37645 8.36233 8.37645Z" fill="currentColor"/>
</svg>
