<svg width="20" height="20" viewBox="0 0 20 20" fill="none" xmlns="http://www.w3.org/2000/svg">
<path d="M15.6071 7.43677C16.0237 7.3951 16.3855 7.51348 16.691 7.79126C16.9965 8.06901 17.149 8.41667 17.149 8.83325V13.9163C17.149 14.3051 17.0202 14.6451 16.7633 14.9368C16.5064 15.2284 16.1834 15.3885 15.7946 15.4163C14.9197 15.4996 14.0965 15.7288 13.3258 16.1038C12.5551 16.4787 11.8229 16.9306 11.1285 17.4583C10.9897 17.5833 10.8362 17.6732 10.6696 17.7288C10.503 17.7843 10.3295 17.8118 10.149 17.8118C9.9686 17.8118 9.79512 17.7843 9.62854 17.7288C9.46187 17.6732 9.30844 17.5833 9.16956 17.4583C8.47521 16.9306 7.74301 16.4787 6.97229 16.1038C6.20155 15.7288 5.37842 15.4996 4.50354 15.4163C4.11465 15.3885 3.79173 15.2284 3.53479 14.9368C3.27786 14.6451 3.14905 14.3051 3.14905 13.9163V8.83325C3.14905 8.41667 3.30162 8.06901 3.60706 7.79126C3.91261 7.51348 4.27437 7.3951 4.69104 7.43677C5.73261 7.63122 6.70815 7.9788 7.6178 8.47876C8.52752 8.97876 9.37127 9.58293 10.149 10.2913C10.9268 9.58293 11.7706 8.97876 12.6803 8.47876C13.5899 7.9788 14.5655 7.63122 15.6071 7.43677ZM12.2516 10.3997L11.4 11.2512V15.0002H12.6002V13.5999H14.9996V12.3997H12.6002V11.7483L12.7487 11.5999H14.9996V10.3997H12.2516ZM10.149 1.29126C11.1213 1.29126 11.948 1.63121 12.6285 2.31177C13.3091 2.99232 13.649 3.81904 13.649 4.79126C13.649 5.76348 13.3091 6.5902 12.6285 7.27075C11.948 7.95131 11.1213 8.29126 10.149 8.29126C9.17683 8.29126 8.35011 7.95131 7.66956 7.27075C6.989 6.5902 6.64905 5.76348 6.64905 4.79126C6.64905 3.81904 6.989 2.99232 7.66956 2.31177C8.35011 1.63121 9.17683 1.29126 10.149 1.29126Z" fill="currentColor"/>
</svg>
