<svg width="20" height="20" viewBox="0 0 20 20" fill="none" xmlns="http://www.w3.org/2000/svg">
<path d="M11.1064 1.37772C10.456 0.871816 9.5444 0.871815 8.89395 1.37772L2.39395 6.43327C1.95618 6.77376 1.7002 7.29681 1.7002 7.85084V17.1981C1.7002 18.1905 2.50608 18.9951 3.5002 18.9951H5.66686C6.66097 18.9951 7.46686 18.1905 7.46686 17.1981V12.6931C7.46686 12.0314 8.00412 11.4951 8.66686 11.4951H11.3335C11.9963 11.4951 12.5335 12.0314 12.5335 12.6931V17.1981C12.5335 18.1905 13.3394 18.9951 14.3335 18.9951H16.5002C17.4943 18.9951 18.3002 18.1905 18.3002 17.1981V7.85084C18.3002 7.29681 18.0442 6.77376 17.6064 6.43327L11.1064 1.37772Z" fill="currentColor"/>
</svg>
