<svg width="20" height="20" viewBox="0 0 20 20" fill="none" xmlns="http://www.w3.org/2000/svg">
<path d="M4.10006 10.3388V12.7998C4.10006 13.0207 4.27915 13.1998 4.50006 13.1998H15.5001C15.721 13.1998 15.9001 13.0207 15.9001 12.7998V7.09976C15.9001 6.27133 15.2285 5.59976 14.4001 5.59976H11.0275C10.9241 8.46 8.13383 10.9805 6.92751 11.9398C6.60384 12.1972 6.15706 12.1972 5.83339 11.9398C5.396 11.592 4.75036 11.0389 4.10006 10.3388Z" fill="currentColor"/>
<path d="M2.00006 15.0998C2.00006 14.8788 2.17915 14.6998 2.40006 14.6998H17.6001C17.821 14.6998 18.0001 14.8788 18.0001 15.0998V15.4998C18.0001 16.3282 17.3285 16.9998 16.5001 16.9998H3.50006C2.67163 16.9998 2.00006 16.3282 2.00006 15.4998V15.0998Z" fill="currentColor"/>
<path fill-rule="evenodd" clip-rule="evenodd" d="M6.93383 10.3403C7.89017 9.52265 9.74731 7.66775 9.74731 5.59274C9.74731 4.63982 9.39243 3.72593 8.76073 3.05212C8.12902 2.3783 7.27225 1.99976 6.37889 1.99976C5.48553 1.99976 4.62876 2.3783 3.99706 3.05212C3.36536 3.72593 3.01047 4.63982 3.01047 5.59274C3.01047 7.66775 4.86762 9.52265 5.82396 10.3403C6.14756 10.6169 6.61023 10.6169 6.93383 10.3403ZM7.64204 5.78936C7.64204 6.48698 7.0765 7.05252 6.37888 7.05252C5.68125 7.05252 5.11572 6.48698 5.11572 5.78936C5.11572 5.09174 5.68125 4.5262 6.37888 4.5262C7.0765 4.5262 7.64204 5.09174 7.64204 5.78936Z" fill="currentColor"/>
</svg>
