<svg width="20" height="20" viewBox="0 0 20 20" fill="none" xmlns="http://www.w3.org/2000/svg">
<path d="M2.16658 15.9166C2.16658 15.6865 2.35312 15.5 2.58324 15.5H17.5832C17.8134 15.5 17.9999 15.6865 17.9999 15.9166V16.8333C17.9999 17.4776 17.4776 18 16.8332 18H3.33324C2.68891 18 2.16658 17.4776 2.16658 16.8333V15.9166Z" fill="currentColor"/>
<path fill-rule="evenodd" clip-rule="evenodd" d="M12.5832 6.74996C12.5832 9.97162 9.97157 12.5833 6.74991 12.5833C5.85524 12.5833 5.00762 12.3819 4.24991 12.0219V13.8335C4.24991 14.0636 4.43646 14.2501 4.66657 14.2501H15.4999C15.73 14.2501 15.9166 14.0636 15.9166 13.8335V8.16679C15.9166 7.24631 15.1704 6.50012 14.2499 6.50012H12.578C12.5815 6.58297 12.5832 6.66626 12.5832 6.74996Z" fill="currentColor"/>
<path fill-rule="evenodd" clip-rule="evenodd" d="M6.7648 11.5C9.37629 11.492 11.4918 9.37652 11.4999 6.76505L11.5001 6.75016L11.4999 6.73532C11.492 4.11872 9.36837 2 6.74991 2C4.12656 2 1.99991 4.12665 1.99991 6.75C1.99991 9.36851 4.11871 11.4921 6.73538 11.5C6.74027 11.5001 6.74517 11.5002 6.75007 11.5002C6.75499 11.5002 6.7599 11.5001 6.7648 11.5ZM5.54234 3.21754C4.25156 3.65868 3.27951 4.7874 3.06306 6.16683H4.53562C4.64418 5.11735 4.98976 4.10923 5.54234 3.21754ZM7.95789 3.21768C8.51041 4.10933 8.85596 5.1174 8.96452 6.16683H10.4368C10.2203 4.78755 9.24846 3.65892 7.95789 3.21768ZM7.79036 6.16683C7.67083 5.20741 7.3129 4.29332 6.75007 3.50831C6.18724 4.29332 5.82931 5.20741 5.70979 6.16683H7.79036ZM5.70979 7.3335H7.79036C7.67083 8.29291 7.3129 9.207 6.75007 9.99202C6.18724 9.207 5.82931 8.29291 5.70979 7.3335ZM4.53562 7.3335H3.06311C3.27965 8.71269 4.25154 9.84121 5.54208 10.2824C4.98966 9.39079 4.64417 8.38281 4.53562 7.3335ZM7.95815 10.2822C8.51052 9.39068 8.85598 8.38276 8.96452 7.3335H10.4367C10.2202 8.71254 9.24849 9.84096 7.95815 10.2822Z" fill="currentColor"/>
</svg>
