<svg width="20" height="20" viewBox="0 0 20 20" fill="none" xmlns="http://www.w3.org/2000/svg">
<path d="M12.5 1C14.1569 1 15.5 2.34315 15.5 4V7.00391C14.8683 7.02809 14.2439 7.27949 13.7617 7.76172L12.123 9.39941C11.9826 9.27708 11.8014 9.20032 11.6006 9.2002H4.40039C3.95863 9.2002 3.60069 9.55826 3.60059 10C3.60059 10.4418 3.95856 10.7998 4.40039 10.7998H10.7275C10.1941 11.3543 9.95498 12.0852 10.0098 12.7998H4.40039C3.95863 12.7998 3.60069 13.1579 3.60059 13.5996C3.60059 14.0414 3.95856 14.3994 4.40039 14.3994H10.7266C10.7386 14.412 10.7493 14.4261 10.7617 14.4385C11.3714 15.0481 12.2085 15.2915 13 15.1689V17.0996C13 17.7415 13.2336 18.3287 13.6191 18.7822C13.2731 18.9215 12.8959 19 12.5 19H3.5C1.84315 19 0.5 17.6569 0.5 16V4C0.5 2.34315 1.84315 1 3.5 1H12.5ZM15.5 8.60449C15.7881 8.57569 16.0869 8.67184 16.3076 8.89258L19.3076 11.8926C19.6981 12.2831 19.6981 12.9171 19.3076 13.3076C18.9171 13.6981 18.2831 13.6981 17.8926 13.3076L16.6006 12.0146V17.1006C16.6003 17.6525 16.1525 18.1003 15.6006 18.1006C15.2179 18.1006 14.8849 17.8851 14.7168 17.5693C14.6421 17.4292 14.5996 17.2693 14.5996 17.0996V12.0156L13.3076 13.3076C13.248 13.3672 13.1814 13.4156 13.1123 13.457C13.099 13.465 13.0859 13.4731 13.0723 13.4805C13.0603 13.4869 13.0483 13.4931 13.0361 13.499C13.0241 13.5049 13.0123 13.5113 13 13.5166H12.9971C12.6316 13.6748 12.1912 13.6063 11.8926 13.3076C11.6905 13.1055 11.5935 12.838 11.6006 12.5732C11.601 12.5592 11.6026 12.5453 11.6035 12.5312C11.6053 12.5058 11.6076 12.4804 11.6113 12.4551C11.6126 12.4467 11.6128 12.4381 11.6143 12.4297C11.6187 12.4037 11.6253 12.3782 11.6318 12.3525C11.6395 12.3225 11.6487 12.293 11.6592 12.2637C11.6648 12.2478 11.6693 12.2314 11.6758 12.2158C11.6824 12.1999 11.6908 12.1846 11.6982 12.1689C11.7069 12.1509 11.7158 12.1329 11.7256 12.1152C11.7331 12.1017 11.7409 12.0884 11.749 12.0752C11.762 12.0542 11.7763 12.0339 11.791 12.0137C11.7995 12.002 11.8074 11.9899 11.8164 11.9785C11.84 11.9489 11.8652 11.92 11.8926 11.8926L14.8926 8.89258C14.9371 8.84804 14.985 8.80881 15.0352 8.77441C15.0755 8.74672 15.118 8.72325 15.1611 8.70215C15.1715 8.69708 15.1819 8.69219 15.1924 8.6875C15.2326 8.66953 15.2736 8.65399 15.3154 8.6416L15.3359 8.63477C15.3442 8.6325 15.353 8.63193 15.3613 8.62988C15.4023 8.61983 15.4436 8.61124 15.4854 8.60645C15.4902 8.60588 15.4951 8.60498 15.5 8.60449ZM4.40039 5.60059C3.95863 5.60059 3.60069 5.95865 3.60059 6.40039C3.60059 6.84222 3.95856 7.2002 4.40039 7.2002H11.6006C12.0422 7.19993 12.4004 6.84206 12.4004 6.40039C12.4003 5.95882 12.0421 5.60085 11.6006 5.60059H4.40039Z" fill="currentColor"/>
</svg>
