<svg width="20" height="20" viewBox="0 0 20 20" fill="none" xmlns="http://www.w3.org/2000/svg">
<path d="M15 2C17.2091 2 19 3.79086 19 6V14C19 16.2091 17.2091 18 15 18H5C2.79086 18 1 16.2091 1 14V6C1 3.79086 2.79086 2 5 2H15ZM9.99902 13.6006C9.55736 13.6007 9.19933 13.9587 9.19922 14.4004C9.19922 14.8422 9.55729 15.2001 9.99902 15.2002H15.3994C15.8412 15.2001 16.1992 14.8422 16.1992 14.4004C16.1991 13.9587 15.8411 13.6007 15.3994 13.6006H9.99902ZM6.03418 4.90527C5.70576 4.60996 5.19978 4.63652 4.9043 4.96484C4.60882 5.2932 4.63562 5.79915 4.96387 6.09473L8.80371 9.5498L4.96387 13.0059C4.63569 13.3015 4.6088 13.8074 4.9043 14.1357C5.19976 14.464 5.70578 14.4905 6.03418 14.1953L10.5342 10.1445C10.7027 9.99282 10.7988 9.77658 10.7988 9.5498C10.7987 9.32322 10.7026 9.10767 10.5342 8.95605L6.03418 4.90527Z" fill="currentColor"/>
</svg>
