<svg width="20" height="20" viewBox="0 0 20 20" fill="none" xmlns="http://www.w3.org/2000/svg">
<g clip-path="url(#clip0_3031_1407)">
<path d="M18.0695 0.911773C18.3594 0.810384 18.6823 0.884105 18.8996 1.10123C19.1164 1.31847 19.1903 1.64153 19.089 1.9313L13.256 18.5973C13.1477 18.9066 12.8608 19.1189 12.5334 19.1325C12.2058 19.1458 11.903 18.9573 11.7697 18.6579L9.35869 13.2336C9.2089 12.8966 9.25675 12.5045 9.4832 12.2134L13.7062 6.78482C13.9432 6.4799 13.5896 6.09211 13.2765 6.25357L13.215 6.29361L7.78436 10.5159C7.49333 10.7422 7.10141 10.79 6.76453 10.6404L1.34196 8.23111C1.04257 8.09787 0.854179 7.79487 0.867348 7.46744C0.880832 7.13992 1.09316 6.85319 1.4025 6.74478L18.0695 0.911773Z" fill="currentColor"/>
</g>
<defs>
<clipPath id="clip0_3031_1407">
<rect width="20" height="20" fill="white"/>
</clipPath>
</defs>
</svg>
