<svg width="20" height="20" viewBox="0 0 20 20" fill="none" xmlns="http://www.w3.org/2000/svg">
<path fill-rule="evenodd" clip-rule="evenodd" d="M3.33335 11.2166H16.6667C17.5872 11.2166 18.3334 11.9627 18.3334 12.8832V16.2166C18.3334 17.137 17.5872 17.8832 16.6667 17.8832H3.33335C2.41288 17.8832 1.66669 17.137 1.66669 16.2166V12.8832C1.66669 11.9627 2.41288 11.2166 3.33335 11.2166ZM5 13.5516C4.44772 13.5516 4 13.9985 4 14.5499C4 15.1013 4.44772 15.5482 5 15.5482H5.00833C5.56062 15.5482 6.00833 15.1013 6.00833 14.5499C6.00833 13.9985 5.56062 13.5516 5.00833 13.5516H5Z" fill="currentColor"/>
<path fill-rule="evenodd" clip-rule="evenodd" d="M3.33335 2.21655H16.6667C17.5872 2.21655 18.3334 2.96274 18.3334 3.88322V7.21655C18.3334 8.13703 17.5872 8.88322 16.6667 8.88322H3.33335C2.41288 8.88322 1.66669 8.13703 1.66669 7.21655V3.88322C1.66669 2.96274 2.41288 2.21655 3.33335 2.21655ZM5 4.55157C4.44772 4.55157 4 4.99853 4 5.5499C4 6.10126 4.44772 6.54822 5 6.54822H5.00833C5.56062 6.54822 6.00833 6.10126 6.00833 5.5499C6.00833 4.99853 5.56062 4.55157 5.00833 4.55157H5Z" fill="currentColor"/>
</svg>
