<svg width="20" height="20" viewBox="0 0 20 20" fill="none" xmlns="http://www.w3.org/2000/svg">
<path fill-rule="evenodd" clip-rule="evenodd" d="M10.2833 1.05027C10.1049 0.983244 9.90818 0.983244 9.72975 1.05027L3.17038 3.51415C2.86337 3.62947 2.66003 3.92306 2.66003 4.25101V10.0001C2.66003 12.8148 4.52099 15.0678 6.20803 16.5464C7.06798 17.3001 7.92424 17.8894 8.56395 18.2899C8.88463 18.4906 9.15298 18.6452 9.34298 18.7506C9.43802 18.8033 9.51361 18.8438 9.5665 18.8716C9.59295 18.8855 9.61374 18.8962 9.62846 18.9038L9.64595 18.9127L9.65119 18.9154L9.65356 18.9165C9.87541 19.0277 10.1372 19.0279 10.359 18.9168L10.0065 18.213C10.359 18.9168 10.3601 18.9162 10.3601 18.9162L10.3619 18.9154L10.3671 18.9127L10.3846 18.9038C10.3993 18.8962 10.4201 18.8855 10.4466 18.8716C10.4994 18.8438 10.575 18.8033 10.6701 18.7506C10.8601 18.6452 11.1284 18.4906 11.4491 18.2899C12.0888 17.8894 12.9451 17.3001 13.805 16.5464C15.4921 15.0678 17.353 12.8148 17.353 10.0001V4.25101C17.353 3.92306 17.1497 3.62947 16.8427 3.51415L10.2833 1.05027ZM10.0065 18.213L9.65356 18.9165C9.65356 18.9165 9.65404 18.9168 10.0065 18.213Z" fill="currentColor"/>
</svg>
