<svg width="20" height="20" viewBox="0 0 20 20" fill="none" xmlns="http://www.w3.org/2000/svg">
<path fill-rule="evenodd" clip-rule="evenodd" d="M11.7248 18.4491L18.4583 11.7156C18.8081 11.3637 19.0044 10.8877 19.0044 10.3915C19.0044 9.89525 18.8081 9.41921 18.4583 9.0673L10.977 1.58603C10.6019 1.21096 10.0932 1.00024 9.56279 1.00024H3C1.89543 1.00024 1 1.89568 1 3.00024V9.56235C1 10.0932 1.21103 10.6022 1.58661 10.9774L9.06705 18.4491C9.24149 18.6238 9.44864 18.7623 9.67665 18.8568C9.90467 18.9513 10.1491 19 10.3959 19C10.6427 19 10.8871 18.9513 11.1152 18.8568C11.3432 18.7623 11.5503 18.6238 11.7248 18.4491ZM5.8 7.0001C6.46274 7.0001 7 6.46284 7 5.8001C7 5.13736 6.46274 4.6001 5.8 4.6001C5.13726 4.6001 4.6 5.13736 4.6 5.8001C4.6 6.46284 5.13726 7.0001 5.8 7.0001Z" fill="currentColor"/>
</svg>
