<svg width="20" height="20" viewBox="0 0 20 20" fill="none" xmlns="http://www.w3.org/2000/svg">
<path d="M15.2277 2.53369C15.7934 2.53369 16.3364 2.75777 16.7365 3.15771C17.1365 3.55772 17.3614 4.10082 17.3615 4.6665V9.3335C17.3614 9.89899 17.1362 10.4413 16.7365 10.8413C16.3364 11.2414 15.7935 11.4663 15.2277 11.4663H13.7472L11.2921 16.9917C11.1637 17.2805 10.8767 17.4663 10.5607 17.4663C9.81822 17.4662 9.10617 17.171 8.58118 16.646C8.05631 16.1209 7.76086 15.4089 7.76086 14.6665V12.8003H4.79211C4.48471 12.803 4.18005 12.7386 3.89954 12.6128C3.61761 12.4862 3.36604 12.3 3.16321 12.0669C2.96036 11.8336 2.80996 11.5582 2.72375 11.2612C2.63765 10.9644 2.61683 10.6518 2.66321 10.3462L3.58313 4.34619C3.6605 3.83797 3.91895 3.37348 4.31067 3.04053C4.70138 2.70848 5.19942 2.52913 5.71204 2.53369H15.2277ZM12.9298 4.13232C12.6539 4.13247 12.43 4.3564 12.4298 4.63232V9.45654C12.4299 9.73248 12.6539 9.9564 12.9298 9.95654H13.5275C13.8034 9.95635 14.0273 9.73245 14.0275 9.45654V4.63232C14.0273 4.35643 13.8033 4.13252 13.5275 4.13232H12.9298Z" fill="currentColor"/>
</svg>
