<svg width="20" height="20" viewBox="0 0 20 20" fill="none" xmlns="http://www.w3.org/2000/svg">
<path d="M9.43964 2.53369C10.1821 2.5338 10.8941 2.829 11.4191 3.354C11.9441 3.87908 12.2394 4.591 12.2394 5.3335V7.19971H15.2082C15.5156 7.19695 15.8202 7.26135 16.1008 7.38721C16.3827 7.51376 16.6342 7.69994 16.8371 7.93311C17.04 8.16647 17.1903 8.44178 17.2766 8.73877C17.3627 9.03569 17.3835 9.34813 17.3371 9.65381L16.4172 15.6538C16.3398 16.1621 16.0814 16.6265 15.6896 16.9595C15.2989 17.2916 14.8009 17.4709 14.2883 17.4663H4.77264C4.20688 17.4663 3.66393 17.2423 3.26385 16.8423C2.86379 16.4422 2.63887 15.8993 2.63885 15.3335V10.6665C2.63893 10.101 2.86403 9.55867 3.26385 9.15869C3.66393 8.75861 4.20685 8.53369 4.77264 8.53369H6.25311L8.70819 3.0083C8.83664 2.71951 9.12356 2.53369 9.43964 2.53369ZM6.47284 10.0435C6.19695 10.0437 5.97297 10.2675 5.97284 10.5435V15.3677C5.97284 15.6437 6.19687 15.8675 6.47284 15.8677H7.0705C7.34653 15.8675 7.5705 15.6437 7.5705 15.3677V10.5435C7.57036 10.2675 7.34644 10.0436 7.0705 10.0435H6.47284Z" fill="currentColor"/>
</svg>
