<svg width="20" height="20" viewBox="0 0 20 20" fill="none" xmlns="http://www.w3.org/2000/svg">
<path fill-rule="evenodd" clip-rule="evenodd" d="M5 2.91675C3.61929 2.91675 2.5 4.03604 2.5 5.41675V7.91675H17.5V5.41675C17.5 4.03604 16.3807 2.91675 15 2.91675H5ZM12.5 6.25008C12.9602 6.25008 13.3333 5.87699 13.3333 5.41675C13.3333 4.95651 12.9602 4.58341 12.5 4.58341C12.0398 4.58341 11.6667 4.95651 11.6667 5.41675C11.6667 5.87699 12.0398 6.25008 12.5 6.25008ZM10.8333 5.41675C10.8333 5.87699 10.4602 6.25008 10 6.25008C9.53976 6.25008 9.16667 5.87699 9.16667 5.41675C9.16667 4.95651 9.53976 4.58341 10 4.58341C10.4602 4.58341 10.8333 4.95651 10.8333 5.41675ZM15 6.25008C15.4602 6.25008 15.8333 5.87699 15.8333 5.41675C15.8333 4.95651 15.4602 4.58341 15 4.58341C14.5398 4.58341 14.1667 4.95651 14.1667 5.41675C14.1667 5.87699 14.5398 6.25008 15 6.25008Z" fill="currentColor"/>
<path d="M2.5 9.16675H17.5V14.5834C17.5 15.9641 16.3807 17.0834 15 17.0834H5C3.61929 17.0834 2.5 15.9641 2.5 14.5834V9.16675Z" fill="currentColor"/>
</svg>
