<svg width="20" height="20" viewBox="0 0 20 20" fill="none" xmlns="http://www.w3.org/2000/svg">
<g clip-path="url(#clip0_4981_1592)">
<path d="M15.1434 18.75H4.84964C4.66086 18.75 4.47397 18.7128 4.29956 18.6406C4.12516 18.5684 3.96674 18.4625 3.83325 18.329C3.69977 18.1955 3.59391 18.037 3.52167 17.8626C3.44943 17.6882 3.41211 17.5013 3.41211 17.3125V2.68753C3.41211 2.49876 3.44943 2.31186 3.52167 2.13745C3.59391 1.96305 3.69977 1.80455 3.83325 1.67107C3.96674 1.53758 4.12516 1.43172 4.29956 1.35948C4.47397 1.28724 4.66086 1.25 4.84964 1.25H11.9372L16.5809 5.89378V17.3125C16.5809 17.5013 16.5437 17.6882 16.4715 17.8626C16.3993 18.037 16.2934 18.1955 16.1599 18.329C16.0264 18.4625 15.868 18.5684 15.6936 18.6406C15.5192 18.7128 15.3321 18.75 15.1434 18.75Z" fill="#E4EBF2"/>
<path d="M11.9434 1.25V4.85626C11.9426 4.99221 11.9685 5.127 12.02 5.25284C12.0714 5.37868 12.1474 5.4931 12.2432 5.58952C12.3391 5.68595 12.4529 5.76245 12.5784 5.81467C12.704 5.86688 12.8386 5.89379 12.9746 5.89378H16.5871L11.9434 1.25Z" fill="#9BABC0"/>
<path d="M6.56909 14.7685V12.1436H5.68164V11.5186H8.25031V12.1436H7.3566V14.7685H6.56909Z" fill="#9BABC0"/>
<path d="M10.5127 13.1312L11.5128 14.7687H10.6252L10.0002 13.6938L9.37515 14.7687H8.48145L9.46274 13.125L8.4877 11.5H9.40643L9.9939 12.6H10.0314L10.6189 11.5H11.5002L10.5127 13.1312Z" fill="#9BABC0"/>
<path d="M12.6437 14.7685V12.1436H11.75V11.5186H14.3188V12.1436H13.4312V14.7685H12.6437Z" fill="#9BABC0"/>
</g>
<defs>
<clipPath id="clip0_4981_1592">
<rect width="14" height="18" fill="white" transform="translate(3 1)"/>
</clipPath>
</defs>
</svg>
