<svg width="40" height="40" viewBox="0 0 40 40" fill="none" xmlns="http://www.w3.org/2000/svg">
<g clip-path="url(#clip0_4981_2170)">
<path d="M30.3004 37.5H9.71288C8.95038 37.5 8.21911 37.197 7.67995 36.6579C7.14078 36.1187 6.83789 35.3875 6.83789 34.625V5.43748C6.83789 4.67499 7.14078 3.94372 7.67995 3.40456C8.21911 2.86539 8.95038 2.5625 9.71288 2.5625H23.8879L33.1753 11.85V34.6875C33.159 35.4391 32.8489 36.1544 32.3115 36.6802C31.7741 37.2059 31.0522 37.5002 30.3004 37.5Z" fill="#DCF5E8"/>
<path d="M23.875 2.5V9.72504C23.875 9.99694 23.9288 10.2661 24.0332 10.5172C24.1377 10.7682 24.2907 10.9961 24.4835 11.1878C24.6764 11.3795 24.9052 11.5312 25.1569 11.6341C25.4086 11.7371 25.6781 11.7891 25.95 11.7875H33.1626L23.875 2.5Z" fill="#05C072"/>
<path d="M17.6859 16.7373H13.0609C12.4879 16.7373 12.0234 17.2018 12.0234 17.7748V18.6998C12.0234 19.2728 12.4879 19.7373 13.0609 19.7373H17.6859C18.2589 19.7373 18.7234 19.2728 18.7234 18.6998V17.7748C18.7234 17.2018 18.2589 16.7373 17.6859 16.7373Z" fill="#05C072"/>
<path d="M22.0387 16.7373H21.1137C20.5407 16.7373 20.0762 17.2018 20.0762 17.7748V18.6998C20.0762 19.2728 20.5407 19.7373 21.1137 19.7373H22.0387C22.6117 19.7373 23.0762 19.2728 23.0762 18.6998V17.7748C23.0762 17.2018 22.6117 16.7373 22.0387 16.7373Z" fill="#05C072"/>
<path d="M26.9381 16.7373H26.0131C25.4401 16.7373 24.9756 17.2018 24.9756 17.7748V18.6998C24.9756 19.2728 25.4401 19.7373 26.0131 19.7373H26.9381C27.5111 19.7373 27.9756 19.2728 27.9756 18.6998V17.7748C27.9756 17.2018 27.5111 16.7373 26.9381 16.7373Z" fill="#05C072"/>
<path d="M17.6859 21.7627H13.0609C12.4879 21.7627 12.0234 22.2272 12.0234 22.8002V23.7252C12.0234 24.2982 12.4879 24.7627 13.0609 24.7627H17.6859C18.2589 24.7627 18.7234 24.2982 18.7234 23.7252V22.8002C18.7234 22.2272 18.2589 21.7627 17.6859 21.7627Z" fill="#05C072"/>
<path d="M22.0387 21.7627H21.1137C20.5407 21.7627 20.0762 22.2272 20.0762 22.8002V23.7252C20.0762 24.2982 20.5407 24.7627 21.1137 24.7627H22.0387C22.6117 24.7627 23.0762 24.2982 23.0762 23.7252V22.8002C23.0762 22.2272 22.6117 21.7627 22.0387 21.7627Z" fill="#05C072"/>
<path d="M26.9381 21.7627H26.0131C25.4401 21.7627 24.9756 22.2272 24.9756 22.8002V23.7252C24.9756 24.2982 25.4401 24.7627 26.0131 24.7627H26.9381C27.5111 24.7627 27.9756 24.2982 27.9756 23.7252V22.8002C27.9756 22.2272 27.5111 21.7627 26.9381 21.7627Z" fill="#05C072"/>
<path d="M17.6859 26.7871H13.0609C12.4879 26.7871 12.0234 27.2516 12.0234 27.8246V28.7496C12.0234 29.3226 12.4879 29.7871 13.0609 29.7871H17.6859C18.2589 29.7871 18.7234 29.3226 18.7234 28.7496V27.8246C18.7234 27.2516 18.2589 26.7871 17.6859 26.7871Z" fill="#05C072"/>
<path d="M22.0387 26.7871H21.1137C20.5407 26.7871 20.0762 27.2516 20.0762 27.8246V28.7496C20.0762 29.3226 20.5407 29.7871 21.1137 29.7871H22.0387C22.6117 29.7871 23.0762 29.3226 23.0762 28.7496V27.8246C23.0762 27.2516 22.6117 26.7871 22.0387 26.7871Z" fill="#05C072"/>
<path d="M26.9381 26.7871H26.0131C25.4401 26.7871 24.9756 27.2516 24.9756 27.8246V28.7496C24.9756 29.3226 25.4401 29.7871 26.0131 29.7871H26.9381C27.5111 29.7871 27.9756 29.3226 27.9756 28.7496V27.8246C27.9756 27.2516 27.5111 26.7871 26.9381 26.7871Z" fill="#05C072"/>
</g>
<defs>
<clipPath id="clip0_4981_2170">
<rect width="28" height="36" fill="white" transform="translate(6 2)"/>
</clipPath>
</defs>
</svg>
