<svg width="32" height="32" viewBox="0 0 32 32" fill="none" xmlns="http://www.w3.org/2000/svg">
<g clip-path="url(#clip0_20832_7598)">
<path d="M24.2598 30H7.75983C7.14983 30 6.56482 29.7577 6.13348 29.3264C5.70215 28.895 5.45978 28.31 5.45978 27.7V4.30005C5.45978 3.69005 5.70215 3.10504 6.13348 2.67371C6.56482 2.24237 7.14983 2 7.75983 2H19.0998L26.5298 9.43005V27.7C26.5299 28.3048 26.2916 28.8854 25.8668 29.3159C25.4419 29.7463 24.8646 29.9921 24.2598 30Z" fill="#E4EBF2"/>
<path d="M19.0996 2V7.78003C19.0996 8.21764 19.2735 8.63734 19.5829 8.94678C19.8923 9.25621 20.312 9.43005 20.7496 9.43005H26.5297L19.0996 2Z" fill="#9BABC0"/>
<path d="M14.6356 20.4913C14.6504 18.6555 15.1389 18.0781 16.0272 17.5303C16.6638 17.1157 17.1524 16.6568 17.1524 15.9758C17.1524 15.2355 16.575 14.747 15.8644 14.747C15.1685 14.747 14.5319 15.2059 14.5023 16.0794H12.4C12.4444 13.9919 13.9841 13 15.8792 13C17.937 13 19.4027 14.0808 19.4027 15.9017C19.4027 17.1157 18.7809 17.9004 17.8038 18.4778C16.9747 18.9812 16.6046 19.4549 16.5898 20.4913V20.6541H14.6356V20.4913ZM15.6571 24C14.9613 24 14.3987 23.4374 14.4135 22.7564C14.3987 22.0754 14.9613 21.5276 15.6571 21.5276C16.3085 21.5276 16.8859 22.0754 16.8859 22.7564C16.8859 23.4374 16.3085 24 15.6571 24Z" fill="#9BABC0"/>
</g>
<defs>
<clipPath id="clip0_20832_7598">
<rect width="22" height="28" fill="white" transform="translate(5 2)"/>
</clipPath>
</defs>
</svg>
