<svg width="20" height="20" viewBox="0 0 20 20" fill="none" xmlns="http://www.w3.org/2000/svg">
<g clip-path="url(#clip0_4981_1595)">
<path d="M15.1437 18.7502H4.84374C4.46249 18.7502 4.09686 18.5987 3.82728 18.3291C3.55769 18.0595 3.40625 17.6939 3.40625 17.3127V2.70641C3.40625 2.32516 3.55769 1.95953 3.82728 1.68995C4.09686 1.42037 4.46249 1.26892 4.84374 1.26892H11.925L16.5687 5.91267V17.3314C16.5639 17.7073 16.4119 18.0662 16.1456 18.3314C15.8792 18.5966 15.5196 18.7469 15.1437 18.7502Z" fill="#FEEAE7"/>
<path d="M10.8184 11.75H13.2683C13.2783 12.42 13.0919 13.0784 12.7321 13.6437C12.3722 14.2091 11.8547 14.6567 11.2433 14.9312C10.7679 15.1518 10.249 15.2628 9.72495 15.2559C9.20088 15.2491 8.68505 15.1247 8.21551 14.8918C7.74597 14.659 7.33469 14.3236 7.01209 13.9106C6.68948 13.4975 6.46378 13.0173 6.35161 12.5053C6.23944 11.9934 6.24367 11.4627 6.36401 10.9526C6.48435 10.4425 6.71772 9.96593 7.04688 9.55808C7.37604 9.15023 7.79259 8.82153 8.26579 8.59621C8.73899 8.37088 9.25676 8.25469 9.78087 8.25624V10.7125C9.77919 10.8492 9.80486 10.9849 9.8564 11.1115C9.90795 11.2381 9.98433 11.3532 10.081 11.4499C10.1777 11.5465 10.2927 11.6229 10.4193 11.6744C10.546 11.726 10.6816 11.7516 10.8184 11.75Z" fill="#EF5E4B"/>
<path d="M10.4248 10.0063V7.75635C11.2946 7.76128 12.1273 8.10942 12.7417 8.72505C13.3562 9.34069 13.7028 10.174 13.7061 11.0439H11.4561C11.182 11.0422 10.9197 10.9322 10.7265 10.7378C10.5333 10.5434 10.4248 10.2804 10.4248 10.0063Z" fill="#EF5E4B"/>
<path d="M11.9375 1.25V4.86252C11.9375 5.13602 12.0462 5.3983 12.2395 5.5917C12.4329 5.78509 12.6953 5.89375 12.9688 5.89375H16.575L11.9375 1.25Z" fill="#EF5E4B"/>
</g>
<defs>
<clipPath id="clip0_4981_1595">
<rect width="14" height="18" fill="white" transform="translate(3 1)"/>
</clipPath>
</defs>
</svg>
