<svg width="20" height="20" viewBox="0 0 20 20" fill="none" xmlns="http://www.w3.org/2000/svg">
<g clip-path="url(#clip0_4981_1593)">
<path d="M15.1443 18.75H4.85062C4.66184 18.75 4.47479 18.7128 4.30038 18.6406C4.12598 18.5684 3.96756 18.4625 3.83408 18.329C3.70059 18.1955 3.59473 18.037 3.52249 17.8626C3.45025 17.6882 3.41309 17.5013 3.41309 17.3125V2.68753C3.41309 2.49876 3.45025 2.31178 3.52249 2.13737C3.59473 1.96297 3.70059 1.80455 3.83408 1.67107C3.96756 1.53758 4.12598 1.43165 4.30038 1.35941C4.47479 1.28716 4.66184 1.25 4.85062 1.25H11.938L16.5817 5.89378V17.3125C16.5817 17.6938 16.4303 18.0594 16.1607 18.329C15.8912 18.5986 15.5256 18.75 15.1443 18.75Z" fill="#E4EBF2"/>
<path d="M14.2561 9.18762H5.7498C5.51854 9.18762 5.33105 9.3751 5.33105 9.60637V9.70012C5.33105 9.93139 5.51854 10.1189 5.7498 10.1189H14.2561C14.4873 10.1189 14.6748 9.93139 14.6748 9.70012V9.60637C14.6748 9.3751 14.4873 9.18762 14.2561 9.18762Z" fill="#9BABC0"/>
<path d="M14.2561 11.6689H5.7498C5.51854 11.6689 5.33105 11.8564 5.33105 12.0877V12.1814C5.33105 12.4127 5.51854 12.6002 5.7498 12.6002H14.2561C14.4873 12.6002 14.6748 12.4127 14.6748 12.1814V12.0877C14.6748 11.8564 14.4873 11.6689 14.2561 11.6689Z" fill="#9BABC0"/>
<path d="M9.58086 14.1438H5.73711C5.50584 14.1438 5.31836 14.3313 5.31836 14.5625V14.6563C5.31836 14.8876 5.50584 15.075 5.73711 15.075H9.58086C9.81213 15.075 9.99961 14.8876 9.99961 14.6563V14.5625C9.99961 14.3313 9.81213 14.1438 9.58086 14.1438Z" fill="#9BABC0"/>
<path d="M11.9434 1.25V4.86252C11.9434 5.13602 12.0521 5.39834 12.2455 5.59174C12.4389 5.78513 12.7012 5.89378 12.9747 5.89378H16.5871L11.9434 1.25Z" fill="#9BABC0"/>
</g>
<defs>
<clipPath id="clip0_4981_1593">
<rect width="14" height="18" fill="white" transform="translate(3 1)"/>
</clipPath>
</defs>
</svg>
