<svg width="24" height="24" viewBox="0 0 24 24" fill="none" xmlns="http://www.w3.org/2000/svg">
<path d="M18.181 22.5H5.82851C5.37101 22.5 4.93225 22.3183 4.60875 21.9948C4.28525 21.6713 4.10352 21.2325 4.10352 20.775V3.22504C4.10352 2.76754 4.28525 2.32878 4.60875 2.00528C4.93225 1.68178 5.37101 1.5 5.82851 1.5H14.311L19.8835 7.07254V20.775C19.8835 21.2286 19.7049 21.664 19.3862 21.9869C19.0676 22.3098 18.6346 22.4941 18.181 22.5Z" fill="#FCE8ED"/>
<path d="M16.651 14.9774C16.152 14.586 15.5184 14.4081 14.8885 14.4824C14.4086 14.4853 13.9297 14.5254 13.456 14.6024C13.1478 14.3055 12.8667 13.9817 12.616 13.6349C12.4295 13.3715 12.2568 13.0986 12.0985 12.8174C12.3607 12.0732 12.5147 11.2953 12.556 10.5074C12.556 9.80987 12.286 9.06738 11.5135 9.06738C11.3839 9.06947 11.257 9.10512 11.1453 9.17084C11.0336 9.23656 10.9408 9.33012 10.876 9.44238C10.5385 10.0124 10.6735 11.1974 11.2135 12.3974C11.026 12.9524 10.8235 13.4999 10.5685 14.0999C10.3489 14.6145 10.0984 15.1154 9.81852 15.5999C8.24352 16.2374 7.26853 16.9499 7.15603 17.5649C7.13601 17.6861 7.14605 17.8103 7.18528 17.9267C7.22451 18.0431 7.29173 18.1481 7.38102 18.2324C7.5719 18.3925 7.81443 18.4778 8.0635 18.4724C9.0835 18.4724 10.1035 17.0474 10.786 15.8324C11.1835 15.6974 11.5885 15.5699 11.986 15.4649C12.3835 15.3599 12.856 15.2549 13.261 15.1799C13.9403 15.8431 14.84 16.2329 15.7885 16.2749C16.441 16.2749 16.6885 15.9974 16.7785 15.7649C16.827 15.6338 16.8408 15.4924 16.8184 15.3544C16.7961 15.2164 16.7384 15.0865 16.651 14.9774ZM7.7785 17.8349C7.75398 17.8158 7.73537 17.7902 7.72475 17.761C7.71414 17.7319 7.71199 17.7003 7.71853 17.6699C7.77103 17.3999 8.29602 16.9199 9.35352 16.4174C8.58102 17.6024 7.951 17.9999 7.7785 17.8349ZM11.3485 9.71988C11.3631 9.68998 11.3854 9.66449 11.413 9.64604C11.4407 9.62759 11.4728 9.61683 11.506 9.61487C11.686 9.61487 11.7235 9.86986 11.7235 10.0799C11.7005 10.5885 11.6149 11.0923 11.4685 11.5799C11.2077 10.9941 11.1651 10.3343 11.3485 9.71988ZM11.8735 14.9699C11.641 15.0299 11.4085 15.0899 11.176 15.1649C11.3035 14.9174 11.416 14.6699 11.5135 14.4149C11.611 14.1599 11.761 13.8074 11.866 13.5074C11.9635 13.6649 12.0685 13.8149 12.1735 13.9574C12.3667 14.221 12.5772 14.4716 12.8035 14.7074C12.5035 14.7899 12.1885 14.8349 11.8735 14.9474V14.9699ZM15.8785 15.4649C15.841 15.6449 15.631 15.7124 15.4585 15.7124H15.2485C14.8024 15.5945 14.3825 15.3935 14.011 15.1199C14.5087 15.0524 15.0133 15.0524 15.511 15.1199C15.931 15.1574 15.886 15.3749 15.8785 15.4424V15.4649Z" fill="#E9648A"/>
<path d="M14.311 1.5L14.3105 5.83502C14.3105 6.16323 14.4409 6.47801 14.673 6.71008C14.9051 6.94216 15.2199 7.07254 15.5481 7.07254H19.8835L14.311 1.5Z" fill="#E9648A"/>
</svg>
