<svg width="48" height="48" viewBox="0 0 48 48" fill="none" xmlns="http://www.w3.org/2000/svg">
<g clip-path="url(#clip0_4981_2431)">
<path d="M36.3897 45H11.6397C10.7247 45 9.8472 44.6365 9.2002 43.9895C8.55319 43.3425 8.18964 42.465 8.18964 41.55V6.45007C8.18964 5.53508 8.55319 4.65756 9.2002 4.01056C9.8472 3.36356 10.7247 3 11.6397 3H28.6497L39.7947 14.1451V41.55C39.7948 42.4573 39.4374 43.3281 38.8001 43.9738C38.1628 44.6195 37.2969 44.9882 36.3897 45Z" fill="#E4EBF2"/>
<path d="M28.6504 3V11.67C28.6504 12.3265 28.9112 12.956 29.3753 13.4202C29.8395 13.8843 30.469 14.1451 31.1254 14.1451H39.7955L28.6504 3Z" fill="#9BABC0"/>
<path d="M14.2351 29.19C14.2215 29.5891 14.2879 29.987 14.4301 30.3601C14.5254 30.6532 14.7087 30.9098 14.955 31.0951C15.2076 31.2648 15.5059 31.3537 15.8101 31.3501C16.0716 31.3565 16.3301 31.2944 16.5601 31.1701C16.7712 31.0518 16.9431 30.8745 17.0551 30.66C17.1806 30.4344 17.2525 30.1829 17.2651 29.925H19.1551V30.1651C19.1539 30.6982 18.9975 31.2194 18.705 31.6651C18.399 32.0949 17.9852 32.4363 17.5051 32.655C16.9251 32.9087 16.2961 33.0308 15.6633 33.0126C15.0305 32.9945 14.4096 32.8365 13.845 32.55C13.3149 32.2443 12.891 31.7837 12.6301 31.23C12.3325 30.5922 12.1886 29.8935 12.2101 29.19V28.2751C12.1886 27.5716 12.3325 26.8729 12.6301 26.2351C12.891 25.6815 13.3149 25.2209 13.845 24.9151C14.4416 24.5881 15.1152 24.4275 15.7951 24.4501C16.2477 24.4432 16.6984 24.5091 17.1301 24.6451C17.5148 24.7702 17.8713 24.9688 18.1801 25.23C18.485 25.4886 18.73 25.8102 18.8984 26.1728C19.0667 26.5354 19.1544 26.9303 19.1551 27.3301V27.5551H17.2651C17.2507 27.2928 17.179 27.0368 17.0551 26.8051C16.9434 26.5866 16.7717 26.4044 16.5601 26.28C16.3315 26.1505 16.0729 26.0832 15.8101 26.085C15.51 26.0774 15.2153 26.1668 14.97 26.34C14.7156 26.5269 14.5267 26.7894 14.4301 27.09C14.2859 27.4678 14.2195 27.871 14.2351 28.2751V29.19Z" fill="#9BABC0"/>
<path d="M19.9648 32.85L22.6347 24.585H25.0497L27.7047 32.85H25.5898L25.0497 30.93H22.4847L21.9598 32.85H19.9648ZM23.7447 26.355L22.8597 29.505H24.6897L23.8348 26.355H23.7447Z" fill="#9BABC0"/>
<path d="M32.1157 24.585C32.8507 24.5556 33.5804 24.7213 34.2307 25.065C34.7955 25.415 35.2281 25.9426 35.4606 26.565C35.7429 27.2595 35.8758 28.0057 35.8506 28.755C35.8726 29.5138 35.7399 30.2691 35.4606 30.975C35.2281 31.5974 34.7955 32.125 34.2307 32.475C33.5849 32.8333 32.8538 33.0096 32.1157 32.985H28.8906V24.585H32.1157ZM30.8705 31.26H31.8005C32.1124 31.2703 32.4234 31.2194 32.7157 31.11C32.9649 31.0094 33.1824 30.8436 33.3456 30.63C33.5123 30.3888 33.6342 30.1194 33.7056 29.835C33.7828 29.4702 33.8181 29.0978 33.8107 28.725C33.8249 28.2425 33.759 27.7609 33.6157 27.3C33.4958 26.9501 33.2637 26.6496 32.9556 26.445C32.6071 26.2382 32.2052 26.139 31.8005 26.16H30.8705V31.26Z" fill="#9BABC0"/>
</g>
<defs>
<clipPath id="clip0_4981_2431">
<rect width="32" height="42" fill="white" transform="translate(8 3)"/>
</clipPath>
</defs>
</svg>
