<svg width="48" height="48" viewBox="0 0 48 48" fill="none" xmlns="http://www.w3.org/2000/svg">
<g clip-path="url(#clip0_4981_2339)">
<mask id="mask0_4981_2339" style="mask-type:luminance" maskUnits="userSpaceOnUse" x="3" y="5" width="42" height="15">
<path fill-rule="evenodd" clip-rule="evenodd" d="M3.43066 5.14307H44.573V19.6074H3.43066V5.14307Z" fill="white"/>
</mask>
<g mask="url(#mask0_4981_2339)">
<path fill-rule="evenodd" clip-rule="evenodd" d="M42.2863 11.1699H26.091C25.4851 11.1699 24.9035 10.9153 24.4752 10.464L20.0991 5.84892C19.6709 5.39764 19.0893 5.14307 18.4833 5.14307H5.71596C4.45362 5.14307 3.43066 6.22307 3.43066 7.55378V19.6074H44.5735V13.5806C44.5735 12.2499 43.5506 11.1699 42.2863 11.1699Z" fill="#F6C243"/>
</g>
<path fill-rule="evenodd" clip-rule="evenodd" d="M3.43066 40.4584C3.43066 41.7832 4.45362 42.8584 5.71783 42.8584H42.2863C43.5506 42.8584 44.5735 41.7832 44.5735 40.4584V18.8584H3.43066V40.4584Z" fill="#FDF3D9"/>
<path fill-rule="evenodd" clip-rule="evenodd" d="M27.8438 28.1943C27.8438 30.1419 29.4226 31.7207 31.3701 31.7207C33.3177 31.7207 34.8965 30.1419 34.8965 28.1943C34.8965 26.2468 33.3177 24.668 31.3701 24.668C29.4226 24.668 27.8438 26.2468 27.8438 28.1943ZM37.7174 36.6597V38.0702C37.7174 38.4597 37.4016 38.7755 37.0121 38.7755H25.7277C25.3382 38.7755 25.0225 38.4597 25.0225 38.0702V36.6597C25.0225 34.7121 26.6013 33.1333 28.5488 33.1333H34.191C36.1386 33.1333 37.7174 34.7121 37.7174 36.6597Z" fill="#F6C243"/>
<mask id="mask1_4981_2339" style="mask-type:luminance" maskUnits="userSpaceOnUse" x="25" y="24" width="13" height="15">
<path fill-rule="evenodd" clip-rule="evenodd" d="M27.8438 28.1943C27.8438 30.1419 29.4226 31.7207 31.3701 31.7207C33.3177 31.7207 34.8965 30.1419 34.8965 28.1943C34.8965 26.2468 33.3177 24.668 31.3701 24.668C29.4226 24.668 27.8438 26.2468 27.8438 28.1943ZM37.7174 36.6597V38.0702C37.7174 38.4597 37.4016 38.7755 37.0121 38.7755H25.7277C25.3382 38.7755 25.0225 38.4597 25.0225 38.0702V36.6597C25.0225 34.7121 26.6013 33.1333 28.5488 33.1333H34.191C36.1386 33.1333 37.7174 34.7121 37.7174 36.6597Z" fill="white"/>
</mask>
<g mask="url(#mask1_4981_2339)">
</g>
<path fill-rule="evenodd" clip-rule="evenodd" d="M13.1104 28.1929C13.1104 30.1404 14.6892 31.7192 16.6367 31.7192C18.5843 31.7192 20.1631 30.1404 20.1631 28.1929C20.1631 26.2453 18.5843 24.6665 16.6367 24.6665C14.6892 24.6665 13.1104 26.2453 13.1104 28.1929ZM22.984 36.6582V38.0687C22.984 38.4583 22.6682 38.774 22.2787 38.774H10.9943C10.6048 38.774 10.2891 38.4583 10.2891 38.0687V36.6582C10.2891 34.7106 11.8679 33.1318 13.8154 33.1318H19.4576C21.4052 33.1318 22.984 34.7106 22.984 36.6582Z" fill="#F6C243"/>
<mask id="mask2_4981_2339" style="mask-type:luminance" maskUnits="userSpaceOnUse" x="10" y="24" width="13" height="15">
<path fill-rule="evenodd" clip-rule="evenodd" d="M13.1104 28.1929C13.1104 30.1404 14.6892 31.7192 16.6367 31.7192C18.5843 31.7192 20.1631 30.1404 20.1631 28.1929C20.1631 26.2453 18.5843 24.6665 16.6367 24.6665C14.6892 24.6665 13.1104 26.2453 13.1104 28.1929ZM22.984 36.6582V38.0687C22.984 38.4583 22.6682 38.774 22.2787 38.774H10.9943C10.6048 38.774 10.2891 38.4583 10.2891 38.0687V36.6582C10.2891 34.7106 11.8679 33.1318 13.8154 33.1318H19.4576C21.4052 33.1318 22.984 34.7106 22.984 36.6582Z" fill="white"/>
</mask>
<g mask="url(#mask2_4981_2339)">
</g>
</g>
<defs>
<clipPath id="clip0_4981_2339">
<rect width="42" height="38" fill="white" transform="translate(3 5)"/>
</clipPath>
</defs>
</svg>
