<svg width="24" height="24" viewBox="0 0 24 24" fill="none" xmlns="http://www.w3.org/2000/svg">
<path d="M18.1809 22.4697H5.82846C5.37096 22.4697 4.9322 22.288 4.6087 21.9645C4.2852 21.641 4.10352 21.2022 4.10352 20.7447V3.19472C4.10352 2.73722 4.2852 2.29846 4.6087 1.97496C4.9322 1.65146 5.37096 1.46973 5.82846 1.46973H14.3334L19.906 7.04222V20.7447C19.906 21.2022 19.7242 21.641 19.4007 21.9645C19.0772 22.288 18.6384 22.4697 18.1809 22.4697Z" fill="#E4EBF2"/>
<path d="M14.332 1.46973V5.80475C14.332 6.13295 14.4624 6.44769 14.6945 6.67976C14.9266 6.91184 15.2413 7.04222 15.5695 7.04222H19.9046L14.332 1.46973Z" fill="#9BABC0"/>
<path d="M17.1069 16.5602L14.6019 12.5477C14.5193 12.4176 14.4052 12.3104 14.2701 12.2362C14.1351 12.1619 13.9835 12.123 13.8294 12.123C13.6753 12.123 13.5237 12.1619 13.3887 12.2362C13.2536 12.3104 13.1395 12.4176 13.0569 12.5477L11.1219 15.6526L9.96688 13.8152C9.90391 13.716 9.81693 13.6344 9.71401 13.5779C9.61109 13.5213 9.49553 13.4917 9.3781 13.4917C9.26067 13.4917 9.14511 13.5213 9.04219 13.5779C8.93927 13.6344 8.85239 13.716 8.78942 13.8152L6.86937 16.8826C6.79931 16.9865 6.75846 17.1072 6.75118 17.2323C6.7439 17.3573 6.77045 17.482 6.82799 17.5933C6.88554 17.7045 6.97195 17.7982 7.0782 17.8645C7.18446 17.9309 7.30665 17.9673 7.43187 17.9702H16.3043C16.4724 17.979 16.6398 17.9409 16.7875 17.8602C16.9352 17.7794 17.0575 17.6591 17.1408 17.5128C17.224 17.3665 17.2649 17.1999 17.259 17.0317C17.253 16.8635 17.2003 16.7002 17.1069 16.5602Z" fill="#9BABC0"/>
<path d="M9.28508 12.1278C9.88155 12.1278 10.3651 11.6442 10.3651 11.0478C10.3651 10.4513 9.88155 9.96777 9.28508 9.96777C8.68861 9.96777 8.20508 10.4513 8.20508 11.0478C8.20508 11.6442 8.68861 12.1278 9.28508 12.1278Z" fill="#9BABC0"/>
</svg>
