<svg width="20" height="20" viewBox="0 0 20 20" fill="none" xmlns="http://www.w3.org/2000/svg">
<g clip-path="url(#clip0_4981_1599)">
<path d="M15.1502 18.7499H4.85644C4.47519 18.7499 4.10956 18.5984 3.83997 18.3288C3.57039 18.0592 3.41895 17.6936 3.41895 17.3124V2.71862C3.41895 2.33737 3.57039 1.97174 3.83997 1.70216C4.10956 1.43257 4.47519 1.28113 4.85644 1.28113H11.944L16.5877 5.92487V17.3436C16.5795 17.7194 16.4245 18.0771 16.1558 18.34C15.8871 18.6028 15.5261 18.75 15.1502 18.7499Z" fill="#DCF5E8"/>
<path d="M11.9434 1.25V4.86248C11.9434 5.13598 12.052 5.3983 12.2454 5.5917C12.4388 5.78509 12.7011 5.89375 12.9746 5.89375H16.5871L11.9434 1.25Z" fill="#05C072"/>
<path d="M8.84297 8.36853H6.53047C6.24397 8.36853 6.01172 8.60078 6.01172 8.88728V9.34978C6.01172 9.63628 6.24397 9.86853 6.53047 9.86853H8.84297C9.12947 9.86853 9.36172 9.63628 9.36172 9.34978V8.88728C9.36172 8.60078 9.12947 8.36853 8.84297 8.36853Z" fill="#05C072"/>
<path d="M11.0193 8.36853H10.5568C10.2703 8.36853 10.0381 8.60078 10.0381 8.88728V9.34978C10.0381 9.63628 10.2703 9.86853 10.5568 9.86853H11.0193C11.3058 9.86853 11.5381 9.63628 11.5381 9.34978V8.88728C11.5381 8.60078 11.3058 8.36853 11.0193 8.36853Z" fill="#05C072"/>
<path d="M13.4695 8.36853H13.007C12.7205 8.36853 12.4883 8.60078 12.4883 8.88728V9.34978C12.4883 9.63628 12.7205 9.86853 13.007 9.86853H13.4695C13.756 9.86853 13.9883 9.63628 13.9883 9.34978V8.88728C13.9883 8.60078 13.756 8.36853 13.4695 8.36853Z" fill="#05C072"/>
<path d="M8.84297 10.8813H6.53047C6.24397 10.8813 6.01172 11.1136 6.01172 11.4001V11.8626C6.01172 12.1491 6.24397 12.3813 6.53047 12.3813H8.84297C9.12947 12.3813 9.36172 12.1491 9.36172 11.8626V11.4001C9.36172 11.1136 9.12947 10.8813 8.84297 10.8813Z" fill="#05C072"/>
<path d="M11.0193 10.8813H10.5568C10.2703 10.8813 10.0381 11.1136 10.0381 11.4001V11.8626C10.0381 12.1491 10.2703 12.3813 10.5568 12.3813H11.0193C11.3058 12.3813 11.5381 12.1491 11.5381 11.8626V11.4001C11.5381 11.1136 11.3058 10.8813 11.0193 10.8813Z" fill="#05C072"/>
<path d="M13.4695 10.8813H13.007C12.7205 10.8813 12.4883 11.1136 12.4883 11.4001V11.8626C12.4883 12.1491 12.7205 12.3813 13.007 12.3813H13.4695C13.756 12.3813 13.9883 12.1491 13.9883 11.8626V11.4001C13.9883 11.1136 13.756 10.8813 13.4695 10.8813Z" fill="#05C072"/>
<path d="M8.84297 13.3936H6.53047C6.24397 13.3936 6.01172 13.6258 6.01172 13.9123V14.3748C6.01172 14.6613 6.24397 14.8936 6.53047 14.8936H8.84297C9.12947 14.8936 9.36172 14.6613 9.36172 14.3748V13.9123C9.36172 13.6258 9.12947 13.3936 8.84297 13.3936Z" fill="#05C072"/>
<path d="M11.0193 13.3936H10.5568C10.2703 13.3936 10.0381 13.6258 10.0381 13.9123V14.3748C10.0381 14.6613 10.2703 14.8936 10.5568 14.8936H11.0193C11.3058 14.8936 11.5381 14.6613 11.5381 14.3748V13.9123C11.5381 13.6258 11.3058 13.3936 11.0193 13.3936Z" fill="#05C072"/>
<path d="M13.4695 13.3936H13.007C12.7205 13.3936 12.4883 13.6258 12.4883 13.9123V14.3748C12.4883 14.6613 12.7205 14.8936 13.007 14.8936H13.4695C13.756 14.8936 13.9883 14.6613 13.9883 14.3748V13.9123C13.9883 13.6258 13.756 13.3936 13.4695 13.3936Z" fill="#05C072"/>
</g>
<defs>
<clipPath id="clip0_4981_1599">
<rect width="14" height="18" fill="white" transform="translate(3 1)"/>
</clipPath>
</defs>
</svg>
