<svg width="24" height="24" viewBox="0 0 24 24" fill="none" xmlns="http://www.w3.org/2000/svg">
<path d="M18.1735 22.4996H5.82855C5.37105 22.4996 4.9323 22.3179 4.6088 21.9944C4.28529 21.6709 4.10352 21.2321 4.10352 20.7746V3.23964C4.10352 2.78214 4.28529 2.34338 4.6088 2.01988C4.9323 1.69638 5.37105 1.51465 5.82855 1.51465H14.326L19.8986 7.08714V20.7897C19.8946 21.2446 19.711 21.6794 19.388 21.9997C19.0649 22.32 18.6284 22.4997 18.1735 22.4996Z" fill="#DAF9F9"/>
<path d="M14.3242 1.5V5.83502C14.3242 5.99817 14.3565 6.15969 14.4192 6.31032C14.4818 6.46095 14.5736 6.59768 14.6893 6.71269C14.805 6.8277 14.9423 6.91874 15.0934 6.98048C15.2444 7.04223 15.4061 7.07348 15.5692 7.07249H19.8968L14.3242 1.5Z" fill="#57CBC8"/>
<path fill-rule="evenodd" clip-rule="evenodd" d="M15.902 12.4436V11.2473H12.8165V9.59998H11.5115V11.2473H8.40039V12.4436H15.902ZM15.035 15.6085C15.035 17.0149 13.8181 18.0011 12.1632 18.0011C10.506 18.0011 9.28906 17.0149 9.28906 15.6085C9.28906 14.215 10.506 13.2305 12.1632 13.2305C13.8189 13.2305 15.0358 14.215 15.0358 15.6085H15.035ZM13.7038 15.6093C13.7038 14.8916 13.0385 14.4421 12.161 14.4421C11.2828 14.4421 10.6055 14.8916 10.6055 15.6093C10.6055 16.3408 11.2828 16.7919 12.161 16.7919C13.0385 16.7919 13.7038 16.3408 13.7038 15.6093Z" fill="#57CBC8"/>
</svg>
