<svg width="20" height="20" viewBox="0 0 20 20" fill="none" xmlns="http://www.w3.org/2000/svg">
<g clip-path="url(#clip0_4981_1602)">
<mask id="mask0_4981_1602" style="mask-type:luminance" maskUnits="userSpaceOnUse" x="1" y="2" width="18" height="7">
<path fill-rule="evenodd" clip-rule="evenodd" d="M1.42969 2.14294H18.5723V8.16973H1.42969V2.14294Z" fill="white"/>
</mask>
<g mask="url(#mask0_4981_1602)">
<path fill-rule="evenodd" clip-rule="evenodd" d="M17.6196 4.6541H10.8715C10.619 4.6541 10.3767 4.54803 10.1983 4.36L8.37488 2.43705C8.19644 2.24902 7.9541 2.14294 7.70163 2.14294H2.3819C1.85592 2.14294 1.42969 2.59294 1.42969 3.14741V8.16973H18.5725V5.65857C18.5725 5.1041 18.1463 4.6541 17.6196 4.6541Z" fill="#F6C243"/>
</g>
<path fill-rule="evenodd" clip-rule="evenodd" d="M1.42969 16.8577C1.42969 17.4097 1.85592 17.8577 2.38267 17.8577H17.6196C18.1463 17.8577 18.5725 17.4097 18.5725 16.8577V7.85767H1.42969V16.8577Z" fill="#FDF3D9"/>
<path fill-rule="evenodd" clip-rule="evenodd" d="M11.6016 11.7476C11.6016 12.5591 12.2594 13.217 13.0709 13.217C13.8824 13.217 14.5402 12.5591 14.5402 11.7476C14.5402 10.9362 13.8824 10.2783 13.0709 10.2783C12.2594 10.2783 11.6016 10.9362 11.6016 11.7476ZM15.7153 15.2749V15.8626C15.7153 16.0249 15.5838 16.1565 15.4215 16.1565H10.7196C10.5573 16.1565 10.4258 16.0249 10.4258 15.8626V15.2749C10.4258 14.4634 11.0836 13.8055 11.8951 13.8055H14.246C15.0575 13.8055 15.7153 14.4634 15.7153 15.2749Z" fill="#F6C243"/>
<mask id="mask1_4981_1602" style="mask-type:luminance" maskUnits="userSpaceOnUse" x="10" y="10" width="6" height="7">
<path fill-rule="evenodd" clip-rule="evenodd" d="M11.6016 11.7476C11.6016 12.5591 12.2594 13.217 13.0709 13.217C13.8824 13.217 14.5402 12.5591 14.5402 11.7476C14.5402 10.9362 13.8824 10.2783 13.0709 10.2783C12.2594 10.2783 11.6016 10.9362 11.6016 11.7476ZM15.7153 15.2749V15.8626C15.7153 16.0249 15.5838 16.1565 15.4215 16.1565H10.7196C10.5573 16.1565 10.4258 16.0249 10.4258 15.8626V15.2749C10.4258 14.4634 11.0836 13.8055 11.8951 13.8055H14.246C15.0575 13.8055 15.7153 14.4634 15.7153 15.2749Z" fill="white"/>
</mask>
<g mask="url(#mask1_4981_1602)">
</g>
<path fill-rule="evenodd" clip-rule="evenodd" d="M5.46289 11.747C5.46289 12.5585 6.12073 13.2163 6.93221 13.2163C7.74369 13.2163 8.40153 12.5585 8.40153 11.747C8.40153 10.9355 7.74369 10.2777 6.93221 10.2777C6.12073 10.2777 5.46289 10.9355 5.46289 11.747ZM9.57666 15.2743V15.862C9.57666 16.0243 9.44509 16.1558 9.28279 16.1558H4.58097C4.41868 16.1558 4.28711 16.0243 4.28711 15.862V15.2743C4.28711 14.4628 4.94495 13.8049 5.75643 13.8049H8.10734C8.91882 13.8049 9.57666 14.4628 9.57666 15.2743Z" fill="#F6C243"/>
<mask id="mask2_4981_1602" style="mask-type:luminance" maskUnits="userSpaceOnUse" x="4" y="10" width="6" height="7">
<path fill-rule="evenodd" clip-rule="evenodd" d="M5.46289 11.747C5.46289 12.5585 6.12073 13.2163 6.93221 13.2163C7.74369 13.2163 8.40153 12.5585 8.40153 11.747C8.40153 10.9355 7.74369 10.2777 6.93221 10.2777C6.12073 10.2777 5.46289 10.9355 5.46289 11.747ZM9.57666 15.2743V15.862C9.57666 16.0243 9.44509 16.1558 9.28279 16.1558H4.58097C4.41868 16.1558 4.28711 16.0243 4.28711 15.862V15.2743C4.28711 14.4628 4.94495 13.8049 5.75643 13.8049H8.10734C8.91882 13.8049 9.57666 14.4628 9.57666 15.2743Z" fill="white"/>
</mask>
<g mask="url(#mask2_4981_1602)">
</g>
</g>
<defs>
<clipPath id="clip0_4981_1602">
<rect width="18" height="16" fill="white" transform="translate(1 2)"/>
</clipPath>
</defs>
</svg>
