<svg width="40" height="40" viewBox="0 0 40 40" fill="none" xmlns="http://www.w3.org/2000/svg">
<g clip-path="url(#clip0_4981_2198)">
<path d="M30.3003 37.4502H9.7128C8.9503 37.4502 8.21904 37.1473 7.67987 36.6081C7.1407 36.069 6.83789 35.3377 6.83789 34.5752V5.32518C6.83789 4.56268 7.1407 3.83142 7.67987 3.29225C8.21904 2.75308 8.9503 2.4502 9.7128 2.4502H23.8878L33.1753 11.7377V34.5752C33.1753 35.3377 32.8724 36.069 32.3332 36.6081C31.794 37.1473 31.0628 37.4502 30.3003 37.4502Z" fill="#E4EBF2"/>
<path d="M23.8867 2.4502V9.67523C23.8867 10.2222 24.104 10.7468 24.4908 11.1336C24.8776 11.5204 25.4022 11.7377 25.9492 11.7377H33.1743L23.8867 2.4502Z" fill="#9BABC0"/>
<path d="M28.5115 27.6003L24.3365 20.9128C24.1989 20.6959 24.0086 20.5173 23.7835 20.3936C23.5585 20.2699 23.3058 20.2051 23.049 20.2051C22.7922 20.2051 22.5395 20.2699 22.3144 20.3936C22.0894 20.5173 21.8991 20.6959 21.7615 20.9128L18.5365 26.0877L16.6115 23.0253C16.5065 22.8601 16.3615 22.724 16.19 22.6298C16.0185 22.5355 15.8259 22.4861 15.6302 22.4861C15.4344 22.4861 15.2419 22.5355 15.0703 22.6298C14.8988 22.724 14.754 22.8601 14.649 23.0253L11.449 28.1377C11.3322 28.3108 11.2641 28.5121 11.252 28.7205C11.2398 28.9289 11.2841 29.1367 11.38 29.3221C11.4759 29.5075 11.6199 29.6637 11.797 29.7742C11.9741 29.8848 12.1778 29.9456 12.3865 29.9503H27.1739C27.4541 29.965 27.7329 29.9015 27.9791 29.7669C28.2253 29.6323 28.4292 29.4318 28.5679 29.188C28.7067 28.9442 28.7749 28.6665 28.7649 28.3862C28.755 28.1058 28.6672 27.8336 28.5115 27.6003Z" fill="#9BABC0"/>
<path d="M15.4738 20.2123C16.4679 20.2123 17.2738 19.4064 17.2738 18.4123C17.2738 17.4182 16.4679 16.6123 15.4738 16.6123C14.4797 16.6123 13.6738 17.4182 13.6738 18.4123C13.6738 19.4064 14.4797 20.2123 15.4738 20.2123Z" fill="#9BABC0"/>
</g>
<defs>
<clipPath id="clip0_4981_2198">
<rect width="28" height="36" fill="white" transform="translate(6 2)"/>
</clipPath>
</defs>
</svg>
