<svg width="40" height="40" viewBox="0 0 40 40" fill="none" xmlns="http://www.w3.org/2000/svg">
<g clip-path="url(#clip0_20832_7591)">
<path d="M30.3253 37.5H9.70026C8.93776 37.5 8.20649 37.1971 7.66733 36.6579C7.12816 36.1188 6.8252 35.3875 6.8252 34.625V5.37506C6.8252 4.61256 7.12816 3.8813 7.66733 3.34213C8.20649 2.80297 8.93776 2.5 9.70026 2.5H23.8752L33.1628 11.7876V34.625C33.1628 35.3811 32.865 36.1067 32.3339 36.6448C31.8028 37.1829 31.0812 37.4901 30.3253 37.5Z" fill="#E4EBF2"/>
<path d="M18.507 25.4011C18.5236 23.3423 19.0715 22.6948 20.0677 22.0805C20.7816 21.6156 21.3295 21.1009 21.3295 20.3372C21.3295 19.507 20.682 18.9591 19.8851 18.9591C19.1047 18.9591 18.3908 19.4738 18.3576 20.4534H16C16.0498 18.1124 17.7765 17 19.9017 17C22.2095 17 23.8532 18.212 23.8532 20.2542C23.8532 21.6156 23.1558 22.4956 22.0601 23.1431C21.1303 23.7076 20.7152 24.2389 20.6986 25.4011V25.5837H18.507V25.4011ZM19.6526 29.3359C18.8723 29.3359 18.2414 28.705 18.258 27.9413C18.2414 27.1776 18.8723 26.5633 19.6526 26.5633C20.3832 26.5633 21.0307 27.1776 21.0307 27.9413C21.0307 28.705 20.3832 29.3359 19.6526 29.3359Z" fill="#9BABC0"/>
<path d="M23.875 2.5V9.72504C23.875 10.272 24.0923 10.7967 24.4791 11.1835C24.8659 11.5703 25.3905 11.7876 25.9375 11.7876H33.1626L23.875 2.5Z" fill="#9BABC0"/>
</g>
<defs>
<clipPath id="clip0_20832_7591">
<rect width="28" height="36" fill="white" transform="translate(6 2)"/>
</clipPath>
</defs>
</svg>
