<svg width="24" height="24" viewBox="0 0 24 24" fill="none" xmlns="http://www.w3.org/2000/svg">
<path d="M18.1949 22.5H5.81985C5.36236 22.5 4.9236 22.3183 4.6001 21.9948C4.2766 21.6713 4.09482 21.2325 4.09482 20.775V3.22504C4.09482 2.76754 4.2766 2.32878 4.6001 2.00528C4.9236 1.68178 5.36236 1.5 5.81985 1.5H14.3248L19.8974 7.07254V20.775C19.8974 21.2286 19.7187 21.664 19.4001 21.9869C19.0814 22.3098 18.6484 22.4941 18.1949 22.5Z" fill="#E4EBF2"/>
<path d="M11.1258 15.4482C11.1366 14.1131 11.4919 13.6931 12.138 13.2948C12.6009 12.9933 12.9563 12.6595 12.9563 12.1642C12.9563 11.6258 12.5363 11.2705 12.0195 11.2705C11.5135 11.2705 11.0505 11.6043 11.0289 12.2396H9.5C9.5323 10.7214 10.6521 10 12.0303 10C13.5269 10 14.5929 10.786 14.5929 12.1104C14.5929 12.9933 14.1406 13.5639 13.43 13.9838C12.8271 14.3499 12.5579 14.6945 12.5471 15.4482V15.5666H11.1258V15.4482ZM11.8688 18C11.3627 18 10.9536 17.5908 10.9643 17.0956C10.9536 16.6003 11.3627 16.2019 11.8688 16.2019C12.3425 16.2019 12.7624 16.6003 12.7624 17.0956C12.7624 17.5908 12.3425 18 11.8688 18Z" fill="#9BABC0"/>
<path d="M14.325 1.5V5.83502C14.325 6.16323 14.4554 6.47801 14.6875 6.71008C14.9195 6.94216 15.2343 7.07254 15.5625 7.07254H19.8976L14.325 1.5Z" fill="#9BABC0"/>
</svg>
