<svg width="32" height="32" viewBox="0 0 32 32" fill="none" xmlns="http://www.w3.org/2000/svg">
<g clip-path="url(#clip0_4981_2011)">
<path d="M24.2598 30H7.75983C7.14983 30 6.56482 29.7577 6.13348 29.3264C5.70215 28.895 5.45978 28.31 5.45978 27.7V4.30005C5.45978 3.69005 5.70215 3.10504 6.13348 2.67371C6.56482 2.24237 7.14983 2 7.75983 2H19.0998L26.5298 9.43005V27.7C26.5299 28.3048 26.2916 28.8854 25.8668 29.3159C25.4419 29.7463 24.8646 29.9921 24.2598 30Z" fill="#E4EBF2"/>
<path d="M19.0996 2V7.78003C19.0996 8.21764 19.2735 8.63734 19.5829 8.94678C19.8923 9.25621 20.312 9.43005 20.7496 9.43005H26.5297L19.0996 2Z" fill="#9BABC0"/>
<path d="M9.49004 19.46C9.48103 19.726 9.52523 19.9912 9.62005 20.24C9.6836 20.4354 9.80578 20.6065 9.97002 20.73C10.1384 20.8431 10.3372 20.9024 10.5401 20.9C10.7144 20.9042 10.8867 20.8629 11.0401 20.78C11.1808 20.7011 11.2954 20.5829 11.37 20.4399C11.4537 20.2895 11.5017 20.1219 11.5101 19.9499H12.7701V20.11C12.7693 20.4654 12.665 20.8128 12.47 21.11C12.266 21.3965 11.9902 21.6241 11.6701 21.7699C11.2834 21.939 10.864 22.0205 10.4422 22.0084C10.0203 21.9962 9.60638 21.8909 9.23003 21.6999C8.87659 21.4961 8.59401 21.189 8.4201 20.8199C8.22169 20.3947 8.12576 19.9289 8.14007 19.46V18.85C8.12576 18.381 8.22169 17.9152 8.4201 17.49C8.59401 17.1209 8.87659 16.8138 9.23003 16.61C9.62775 16.392 10.0768 16.2849 10.5301 16.3C10.8318 16.2954 11.1323 16.3393 11.4201 16.43C11.6765 16.5134 11.9142 16.6458 12.12 16.8199C12.3233 16.9923 12.4867 17.2068 12.5989 17.4485C12.7112 17.6902 12.7696 17.9535 12.7701 18.22V18.37H11.5101C11.5004 18.1951 11.4526 18.0244 11.37 17.87C11.2956 17.7243 11.1811 17.6029 11.0401 17.5199C10.8877 17.4336 10.7153 17.3887 10.5401 17.3899C10.34 17.3849 10.1435 17.4445 9.98003 17.5599C9.8104 17.6846 9.68443 17.8595 9.62005 18.0599C9.52391 18.3118 9.47969 18.5806 9.49004 18.85V19.46Z" fill="#9BABC0"/>
<path d="M13.3105 21.8999L15.0905 16.3899H16.7004L18.4705 21.8999H17.0605L16.7004 20.6199H14.9905L14.6405 21.8999H13.3105ZM15.8304 17.5699L15.2405 19.6699H16.4604L15.8905 17.5699H15.8304Z" fill="#9BABC0"/>
<path d="M21.4098 16.39C21.8998 16.3705 22.3863 16.4809 22.8198 16.71C23.1964 16.9434 23.4847 17.2951 23.6398 17.71C23.828 18.1731 23.9166 18.6705 23.8998 19.1701C23.9144 19.6759 23.8259 20.1795 23.6398 20.65C23.4847 21.065 23.1964 21.4167 22.8198 21.65C22.3893 21.8889 21.9019 22.0064 21.4098 21.9901H19.2598V16.39H21.4098ZM20.5797 20.84H21.1997C21.4076 20.8469 21.615 20.813 21.8098 20.7401C21.976 20.673 22.1209 20.5624 22.2297 20.4201C22.3409 20.2592 22.4222 20.0797 22.4697 19.89C22.5212 19.6468 22.5448 19.3986 22.5398 19.15C22.5493 18.8284 22.5054 18.5073 22.4098 18.2C22.3299 17.9668 22.1751 17.7664 21.9697 17.63C21.7374 17.4922 21.4695 17.426 21.1997 17.44H20.5797V20.84Z" fill="#9BABC0"/>
</g>
<defs>
<clipPath id="clip0_4981_2011">
<rect width="22" height="28" fill="white" transform="translate(5 2)"/>
</clipPath>
</defs>
</svg>
