<svg width="24" height="24" viewBox="0 0 24 24" fill="none" xmlns="http://www.w3.org/2000/svg">
<path d="M18.181 22.4996H5.82851C5.37101 22.4996 4.93225 22.3178 4.60875 21.9943C4.28525 21.6708 4.10352 21.2321 4.10352 20.7746V3.2621C4.10352 2.8046 4.28525 2.36584 4.60875 2.04234C4.93225 1.71884 5.37101 1.53711 5.82851 1.53711H14.3335L19.906 7.1096V20.8121C19.8962 21.2631 19.7101 21.6923 19.3877 22.0077C19.0653 22.3231 18.6321 22.4997 18.181 22.4996Z" fill="#DCF5E8"/>
<path d="M14.332 1.5V5.83498C14.332 6.16318 14.4624 6.47796 14.6945 6.71004C14.9266 6.94211 15.2413 7.07249 15.5695 7.07249H19.9045L14.332 1.5Z" fill="#05C072"/>
<path d="M10.6123 10.042H7.83734C7.49355 10.042 7.21484 10.3207 7.21484 10.6645V11.2195C7.21484 11.5633 7.49355 11.842 7.83734 11.842H10.6123C10.9561 11.842 11.2348 11.5633 11.2348 11.2195V10.6645C11.2348 10.3207 10.9561 10.042 10.6123 10.042Z" fill="#05C072"/>
<path d="M13.2224 10.042H12.6674C12.3236 10.042 12.0449 10.3207 12.0449 10.6645V11.2195C12.0449 11.5633 12.3236 11.842 12.6674 11.842H13.2224C13.5662 11.842 13.8449 11.5633 13.8449 11.2195V10.6645C13.8449 10.3207 13.5662 10.042 13.2224 10.042Z" fill="#05C072"/>
<path d="M16.1629 10.042H15.6079C15.2641 10.042 14.9854 10.3207 14.9854 10.6645V11.2195C14.9854 11.5633 15.2641 11.842 15.6079 11.842H16.1629C16.5066 11.842 16.7854 11.5633 16.7854 11.2195V10.6645C16.7854 10.3207 16.5066 10.042 16.1629 10.042Z" fill="#05C072"/>
<path d="M10.6123 13.0576H7.83734C7.49355 13.0576 7.21484 13.3363 7.21484 13.6801V14.2351C7.21484 14.5789 7.49355 14.8576 7.83734 14.8576H10.6123C10.9561 14.8576 11.2348 14.5789 11.2348 14.2351V13.6801C11.2348 13.3363 10.9561 13.0576 10.6123 13.0576Z" fill="#05C072"/>
<path d="M13.2224 13.0576H12.6674C12.3236 13.0576 12.0449 13.3363 12.0449 13.6801V14.2351C12.0449 14.5789 12.3236 14.8576 12.6674 14.8576H13.2224C13.5662 14.8576 13.8449 14.5789 13.8449 14.2351V13.6801C13.8449 13.3363 13.5662 13.0576 13.2224 13.0576Z" fill="#05C072"/>
<path d="M16.1629 13.0576H15.6079C15.2641 13.0576 14.9854 13.3363 14.9854 13.6801V14.2351C14.9854 14.5789 15.2641 14.8576 15.6079 14.8576H16.1629C16.5066 14.8576 16.7854 14.5789 16.7854 14.2351V13.6801C16.7854 13.3363 16.5066 13.0576 16.1629 13.0576Z" fill="#05C072"/>
<path d="M10.6123 16.0723H7.83734C7.49355 16.0723 7.21484 16.351 7.21484 16.6948V17.2498C7.21484 17.5936 7.49355 17.8723 7.83734 17.8723H10.6123C10.9561 17.8723 11.2348 17.5936 11.2348 17.2498V16.6948C11.2348 16.351 10.9561 16.0723 10.6123 16.0723Z" fill="#05C072"/>
<path d="M13.2224 16.0723H12.6674C12.3236 16.0723 12.0449 16.351 12.0449 16.6948V17.2498C12.0449 17.5936 12.3236 17.8723 12.6674 17.8723H13.2224C13.5662 17.8723 13.8449 17.5936 13.8449 17.2498V16.6948C13.8449 16.351 13.5662 16.0723 13.2224 16.0723Z" fill="#05C072"/>
<path d="M16.1629 16.0723H15.6079C15.2641 16.0723 14.9854 16.351 14.9854 16.6948V17.2498C14.9854 17.5936 15.2641 17.8723 15.6079 17.8723H16.1629C16.5066 17.8723 16.7854 17.5936 16.7854 17.2498V16.6948C16.7854 16.351 16.5066 16.0723 16.1629 16.0723Z" fill="#05C072"/>
</svg>
