<svg width="40" height="40" viewBox="0 0 40 40" fill="none" xmlns="http://www.w3.org/2000/svg">
<g clip-path="url(#clip0_4981_2129)">
<mask id="mask0_4981_2129" style="mask-type:luminance" maskUnits="userSpaceOnUse" x="2" y="4" width="36" height="13">
<path fill-rule="evenodd" clip-rule="evenodd" d="M2.85938 4.28613H37.1446V16.3397H2.85938V4.28613Z" fill="white"/>
</mask>
<g mask="url(#mask0_4981_2129)">
<path fill-rule="evenodd" clip-rule="evenodd" d="M35.2391 9.30845H21.743C21.2381 9.30845 20.7534 9.09631 20.3965 8.72024L16.7498 4.87435C16.3929 4.49828 15.9082 4.28613 15.4033 4.28613H4.76379C3.71184 4.28613 2.85938 5.18613 2.85938 6.29506V16.3397H37.1451V11.3174C37.1451 10.2085 36.2926 9.30845 35.2391 9.30845Z" fill="#F6C243"/>
</g>
<path fill-rule="evenodd" clip-rule="evenodd" d="M2.85938 33.7158C2.85938 34.8198 3.71184 35.7158 4.76535 35.7158H35.2391C36.2926 35.7158 37.1451 34.8198 37.1451 33.7158V15.7158H2.85938V33.7158Z" fill="#FDF3D9"/>
<path fill-rule="evenodd" clip-rule="evenodd" d="M23.2031 23.4953C23.2031 25.1182 24.5188 26.4339 26.1418 26.4339C27.7647 26.4339 29.0804 25.1182 29.0804 23.4953C29.0804 21.8723 27.7647 20.5566 26.1418 20.5566C24.5188 20.5566 23.2031 21.8723 23.2031 23.4953ZM31.4307 30.55V31.7254C31.4307 32.05 31.1675 32.3132 30.8429 32.3132H21.4393C21.1147 32.3132 20.8516 32.05 20.8516 31.7254V30.55C20.8516 28.927 22.1672 27.6113 23.7902 27.6113H28.492C30.115 27.6113 31.4307 28.927 31.4307 30.55Z" fill="#F6C243"/>
<mask id="mask1_4981_2129" style="mask-type:luminance" maskUnits="userSpaceOnUse" x="20" y="20" width="12" height="13">
<path fill-rule="evenodd" clip-rule="evenodd" d="M23.2031 23.4953C23.2031 25.1182 24.5188 26.4339 26.1418 26.4339C27.7647 26.4339 29.0804 25.1182 29.0804 23.4953C29.0804 21.8723 27.7647 20.5566 26.1418 20.5566C24.5188 20.5566 23.2031 21.8723 23.2031 23.4953ZM31.4307 30.55V31.7254C31.4307 32.05 31.1675 32.3132 30.8429 32.3132H21.4393C21.1147 32.3132 20.8516 32.05 20.8516 31.7254V30.55C20.8516 28.927 22.1672 27.6113 23.7902 27.6113H28.492C30.115 27.6113 31.4307 28.927 31.4307 30.55Z" fill="white"/>
</mask>
<g mask="url(#mask1_4981_2129)">
</g>
<path fill-rule="evenodd" clip-rule="evenodd" d="M10.9258 23.4943C10.9258 25.1173 12.2415 26.4329 13.8644 26.4329C15.4874 26.4329 16.8031 25.1173 16.8031 23.4943C16.8031 21.8713 15.4874 20.5557 13.8644 20.5557C12.2415 20.5557 10.9258 21.8713 10.9258 23.4943ZM19.1533 30.549V31.7244C19.1533 32.049 18.8902 32.3122 18.5656 32.3122H9.16195C8.83735 32.3122 8.57422 32.049 8.57422 31.7244V30.549C8.57422 28.926 9.88989 27.6104 11.5129 27.6104H16.2147C17.8376 27.6104 19.1533 28.926 19.1533 30.549Z" fill="#F6C243"/>
<mask id="mask2_4981_2129" style="mask-type:luminance" maskUnits="userSpaceOnUse" x="8" y="20" width="12" height="13">
<path fill-rule="evenodd" clip-rule="evenodd" d="M10.9258 23.4943C10.9258 25.1173 12.2415 26.4329 13.8644 26.4329C15.4874 26.4329 16.8031 25.1173 16.8031 23.4943C16.8031 21.8713 15.4874 20.5557 13.8644 20.5557C12.2415 20.5557 10.9258 21.8713 10.9258 23.4943ZM19.1533 30.549V31.7244C19.1533 32.049 18.8902 32.3122 18.5656 32.3122H9.16195C8.83735 32.3122 8.57422 32.049 8.57422 31.7244V30.549C8.57422 28.926 9.88989 27.6104 11.5129 27.6104H16.2147C17.8376 27.6104 19.1533 28.926 19.1533 30.549Z" fill="white"/>
</mask>
<g mask="url(#mask2_4981_2129)">
</g>
</g>
<defs>
<clipPath id="clip0_4981_2129">
<rect width="36" height="32" fill="white" transform="translate(2 4)"/>
</clipPath>
</defs>
</svg>
