<svg width="48" height="48" viewBox="0 0 48 48" fill="none" xmlns="http://www.w3.org/2000/svg">
<path d="M36.3461 44.9993H11.6561C10.7411 44.9993 9.86361 44.6358 9.21661 43.9888C8.56961 43.3418 8.20605 42.4643 8.20605 41.5493V6.47928C8.20605 5.56428 8.56961 4.68676 9.21661 4.03976C9.86361 3.39276 10.7411 3.0293 11.6561 3.0293H28.6511L39.7961 14.1743V41.5793C39.7882 42.4891 39.4211 43.3589 38.775 43.9994C38.1288 44.6399 37.2559 44.9993 36.3461 44.9993Z" fill="#DAF9F9"/>
<path d="M28.6494 3V11.67C28.6494 11.9963 28.714 12.3194 28.8393 12.6206C28.9646 12.9219 29.1482 13.1954 29.3796 13.4254C29.6111 13.6554 29.8857 13.8375 30.1877 13.961C30.4897 14.0845 30.8132 14.147 31.1395 14.145H39.7945L28.6494 3Z" fill="#57CBC8"/>
<path fill-rule="evenodd" clip-rule="evenodd" d="M31.8033 24.8871V22.4946H25.6322V19.2H23.0223V22.4946H16.8V24.8871H31.8033ZM30.0684 31.2169C30.0684 34.0298 27.6346 36.0021 24.3249 36.0021C21.0104 36.0021 18.5766 34.0298 18.5766 31.2169C18.5766 28.4299 21.0104 26.4609 24.3249 26.4609C27.6362 26.4609 30.07 28.4299 30.07 31.2169H30.0684ZM27.4076 31.2187C27.4076 29.7832 26.077 28.8843 24.3221 28.8843C22.5656 28.8843 21.2109 29.7832 21.2109 31.2187C21.2109 32.6817 22.5656 33.5838 24.3221 33.5838C26.077 33.5838 27.4076 32.6817 27.4076 31.2187Z" fill="#57CBC8"/>
</svg>
