<svg width="20" height="20" viewBox="0 0 20 20" fill="none" xmlns="http://www.w3.org/2000/svg">
<g clip-path="url(#clip0_4981_1591)">
<path d="M15.1621 18.75H4.84964C4.46839 18.75 4.10276 18.5986 3.83318 18.329C3.56359 18.0594 3.41211 17.6938 3.41211 17.3125V2.68753C3.41211 2.30628 3.56359 1.94065 3.83318 1.67107C4.10276 1.40148 4.46839 1.25 4.84964 1.25H11.9371L16.5809 5.89378V17.3125C16.5809 17.6905 16.432 18.0534 16.1665 18.3224C15.9009 18.5915 15.5401 18.7451 15.1621 18.75Z" fill="#E4EBF2"/>
<path d="M11.9375 1.25V4.86252C11.9375 5.13602 12.0462 5.39834 12.2395 5.59174C12.4329 5.78513 12.6953 5.89378 12.9688 5.89378H16.5813L11.9375 1.25Z" fill="#9BABC0"/>
<path d="M5.93152 12.1625C5.92589 12.3288 5.95352 12.4945 6.01277 12.65C6.05249 12.7722 6.12886 12.8791 6.23151 12.9563C6.33673 13.027 6.46102 13.064 6.5878 13.0625C6.69672 13.0652 6.80445 13.0393 6.9003 12.9875C6.98824 12.9382 7.05988 12.8644 7.10652 12.775C7.15884 12.681 7.18879 12.5762 7.19403 12.4687H7.98154V12.5688C7.98105 12.7909 7.91587 13.0081 7.79401 13.1938C7.66651 13.3728 7.49409 13.5151 7.29405 13.6062C7.05238 13.7119 6.79027 13.7628 6.52661 13.7553C6.26295 13.7477 6.00423 13.6819 5.76901 13.5625C5.54811 13.4351 5.3715 13.2432 5.2628 13.0125C5.1388 12.7467 5.07884 12.4556 5.08779 12.1625V11.7813C5.07884 11.4881 5.1388 11.197 5.2628 10.9313C5.3715 10.7006 5.54811 10.5087 5.76901 10.3813C6.01759 10.245 6.29824 10.1781 6.58154 10.1875C6.77011 10.1847 6.95793 10.2121 7.1378 10.2688C7.29806 10.3209 7.44662 10.4037 7.57527 10.5125C7.70232 10.6202 7.80443 10.7543 7.87457 10.9053C7.94472 11.0564 7.98123 11.2209 7.98154 11.3875V11.4813H7.19403C7.18802 11.372 7.15815 11.2653 7.10652 11.1688C7.05998 11.0777 6.98846 11.0018 6.9003 10.95C6.80505 10.896 6.69729 10.868 6.5878 10.8687C6.46274 10.8656 6.33996 10.9028 6.23776 10.975C6.13174 11.0529 6.05301 11.1622 6.01277 11.2875C5.95269 11.4449 5.92505 11.6129 5.93152 11.7813V12.1625Z" fill="#9BABC0"/>
<path d="M8.31836 13.6874L9.4308 10.2437H10.437L11.5433 13.6874H10.6621L10.437 12.8874H9.36832L9.14958 13.6874H8.31836ZM9.8933 10.9811L9.52457 12.2937H10.287L9.93083 10.9811H9.8933Z" fill="#9BABC0"/>
<path d="M13.3809 10.2438C13.6871 10.2316 13.9912 10.3006 14.2621 10.4438C14.4975 10.5896 14.6777 10.8095 14.7746 11.0688C14.8922 11.3582 14.9476 11.6691 14.9371 11.9813C14.9463 12.2975 14.891 12.6122 14.7746 12.9063C14.6777 13.1657 14.4975 13.3855 14.2621 13.5313C13.993 13.6806 13.6884 13.7541 13.3809 13.7438H12.0371V10.2438H13.3809ZM12.8621 13.0251H13.2496C13.3795 13.0294 13.5091 13.0082 13.6309 12.9626C13.7347 12.9206 13.8253 12.8516 13.8933 12.7626C13.9628 12.6621 14.0136 12.5498 14.0433 12.4313C14.0755 12.2793 14.0902 12.1242 14.0871 11.9688C14.0931 11.7678 14.0656 11.5671 14.0059 11.3751C13.9559 11.2293 13.8592 11.1041 13.7308 11.0188C13.5856 10.9326 13.4182 10.8913 13.2496 10.9001H12.8621V13.0251Z" fill="#9BABC0"/>
</g>
<defs>
<clipPath id="clip0_4981_1591">
<rect width="14" height="18" fill="white" transform="translate(3 1)"/>
</clipPath>
</defs>
</svg>
