<svg width="40" height="40" viewBox="0 0 40 40" fill="none" xmlns="http://www.w3.org/2000/svg">
<g clip-path="url(#clip0_18848_474)">
<path d="M30.3253 37.5H9.70026C8.93776 37.5 8.20649 37.1971 7.66733 36.6579C7.12816 36.1188 6.8252 35.3875 6.8252 34.625V5.37506C6.8252 4.61256 7.12816 3.8813 7.66733 3.34213C8.20649 2.80297 8.93776 2.5 9.70026 2.5H23.8752L33.1628 11.7876V34.625C33.1628 35.3811 32.865 36.1067 32.3339 36.6448C31.8028 37.1829 31.0812 37.4901 30.3253 37.5Z" fill="#E4EBF2"/>
<path d="M23.875 2.5V9.72504C23.875 10.272 24.0923 10.7967 24.4791 11.1835C24.8659 11.5703 25.3905 11.7876 25.9375 11.7876H33.1626L23.875 2.5Z" fill="#9BABC0"/>
<path fill-rule="evenodd" clip-rule="evenodd" d="M15.5455 21.2857C14.831 21.2857 14.1458 21.5724 13.6406 22.0827C13.1353 22.5931 12.8515 23.2853 12.8515 24.0071C12.8515 24.7289 13.1353 25.4211 13.6406 25.9314C13.8907 26.1841 14.1877 26.3846 14.5145 26.5214C14.8414 26.6581 15.1917 26.7285 15.5455 26.7285H17.7727C18.3351 26.7285 18.7909 27.189 18.7909 27.7571C18.7909 28.3252 18.3351 28.7857 17.7727 28.7857H15.5455C14.9243 28.7857 14.3092 28.6621 13.7352 28.4219C13.1613 28.1818 12.6399 27.8298 12.2006 27.386C11.3135 26.4899 10.8152 25.2744 10.8152 24.0071C10.8152 22.7397 11.3135 21.5243 12.2006 20.6281C13.0877 19.732 14.2909 19.2285 15.5455 19.2285H17.7727C18.3351 19.2285 18.7909 19.689 18.7909 20.2571C18.7909 20.8252 18.3351 21.2857 17.7727 21.2857H15.5455ZM21.2091 20.2571C21.2091 19.689 21.6649 19.2285 22.2273 19.2285H24.4545C25.0757 19.2285 25.6909 19.3521 26.2648 19.5923C26.8387 19.8324 27.3601 20.1844 27.7994 20.6281C28.2386 21.0719 28.5871 21.5986 28.8248 22.1784C29.0625 22.7582 29.1849 23.3796 29.1849 24.0071C29.1849 24.6346 29.0625 25.256 28.8248 25.8358C28.5871 26.4155 28.2386 26.9423 27.7994 27.386C27.3601 27.8298 26.8387 28.1818 26.2648 28.4219C25.6909 28.6621 25.0757 28.7857 24.4545 28.7857H22.2273C21.6649 28.7857 21.2091 28.3252 21.2091 27.7571C21.2091 27.189 21.6649 26.7285 22.2273 26.7285H24.4545C24.8083 26.7285 25.1586 26.6581 25.4855 26.5214C25.8123 26.3846 26.1093 26.1841 26.3595 25.9314C26.6096 25.6787 26.808 25.3787 26.9434 25.0485C27.0788 24.7184 27.1485 24.3645 27.1485 24.0071C27.1485 23.6497 27.0788 23.2958 26.9434 22.9656C26.808 22.6355 26.6096 22.3355 26.3595 22.0827C26.1093 21.83 25.8123 21.6296 25.4855 21.4928C25.1586 21.3561 24.8083 21.2857 24.4545 21.2857H22.2273C21.6649 21.2857 21.2091 20.8252 21.2091 20.2571Z" fill="#9BABC0"/>
<path fill-rule="evenodd" clip-rule="evenodd" d="M16.0121 24.0071C16.0121 23.439 16.468 22.9785 17.0303 22.9785H22.9697C23.532 22.9785 23.9879 23.439 23.9879 24.0071C23.9879 24.5752 23.532 25.0357 22.9697 25.0357H17.0303C16.468 25.0357 16.0121 24.5752 16.0121 24.0071Z" fill="#9BABC0"/>
</g>
<defs>
<clipPath id="clip0_18848_474">
<rect width="28" height="36" fill="white" transform="translate(6 2)"/>
</clipPath>
</defs>
</svg>
