<svg width="48" height="48" viewBox="0 0 48 48" fill="none" xmlns="http://www.w3.org/2000/svg">
<g clip-path="url(#clip0_4981_2419)">
<path d="M36.3435 45H11.6385C11.1855 45 10.7369 44.9108 10.3184 44.7374C9.89979 44.564 9.51958 44.31 9.19922 43.9896C8.87886 43.6693 8.62479 43.2889 8.45142 42.8703C8.27804 42.4517 8.18848 42.0032 8.18848 41.5501V6.45007C8.18848 5.99701 8.27804 5.54846 8.45142 5.12988C8.62479 4.71131 8.87886 4.33092 9.19922 4.01056C9.51958 3.6902 9.89979 3.43614 10.3184 3.26276C10.7369 3.08938 11.1855 3 11.6385 3H28.6487L39.7936 14.1451V41.5501C39.7936 42.0032 39.7044 42.4517 39.531 42.8703C39.3576 43.2889 39.1036 43.6693 38.7832 43.9896C38.4628 44.31 38.0826 44.564 37.6641 44.7374C37.2455 44.9108 36.7966 45 36.3435 45Z" fill="#E4EBF2"/>
<path d="M28.6641 3V11.655C28.6621 11.9813 28.7245 12.3048 28.8479 12.6068C28.9714 12.9088 29.1537 13.1834 29.3837 13.4149C29.6137 13.6463 29.887 13.8299 30.1883 13.9552C30.4895 14.0805 30.8127 14.1451 31.139 14.1451H39.809L28.6641 3Z" fill="#9BABC0"/>
<path d="M15.7646 35.4445V29.1445H13.6348V27.6445H19.7996V29.1445H17.6547V35.4445H15.7646Z" fill="#9BABC0"/>
<path d="M25.2305 31.5156L27.6306 35.4456H25.5004L24.0004 32.8656L22.5004 35.4456H20.3555L22.7106 31.5005L20.3705 27.6006H22.5754L23.9854 30.2406H24.0754L25.4854 27.6006H27.6006L25.2305 31.5156Z" fill="#9BABC0"/>
<path d="M30.3461 35.4445V29.1445H28.2012V27.6445H34.3663V29.1445H32.2361V35.4445H30.3461Z" fill="#9BABC0"/>
</g>
<defs>
<clipPath id="clip0_4981_2419">
<rect width="32" height="42" fill="white" transform="translate(8 3)"/>
</clipPath>
</defs>
</svg>
