<svg width="20" height="20" viewBox="0 0 20 20" fill="none" xmlns="http://www.w3.org/2000/svg">
<g clip-path="url(#clip0_4981_1596)">
<path d="M15.1443 18.75H4.85058C4.46933 18.75 4.1037 18.5986 3.83411 18.329C3.56453 18.0594 3.41309 17.6938 3.41309 17.3125V2.68749C3.41309 2.30624 3.56453 1.94061 3.83411 1.67103C4.1037 1.40144 4.46933 1.25 4.85058 1.25H11.9256L16.5693 5.89375V17.3C16.571 17.4888 16.5354 17.676 16.4647 17.8511C16.394 18.0261 16.2895 18.1855 16.1572 18.3201C16.0248 18.4548 15.8673 18.562 15.6935 18.6358C15.5197 18.7095 15.3331 18.7484 15.1443 18.75Z" fill="#D9E7FF"/>
<path d="M14.2561 9.18762H5.7498C5.51854 9.18762 5.33105 9.3751 5.33105 9.60637V9.70012C5.33105 9.93139 5.51854 10.1189 5.7498 10.1189H14.2561C14.4873 10.1189 14.6748 9.93139 14.6748 9.70012V9.60637C14.6748 9.3751 14.4873 9.18762 14.2561 9.18762Z" fill="#3E80F4"/>
<path d="M14.2561 11.6689H5.7498C5.51854 11.6689 5.33105 11.8564 5.33105 12.0877V12.1814C5.33105 12.4127 5.51854 12.6002 5.7498 12.6002H14.2561C14.4873 12.6002 14.6748 12.4127 14.6748 12.1814V12.0877C14.6748 11.8564 14.4873 11.6689 14.2561 11.6689Z" fill="#3E80F4"/>
<path d="M9.58086 14.1438H5.73711C5.50584 14.1438 5.31836 14.3313 5.31836 14.5625V14.6563C5.31836 14.8876 5.50584 15.075 5.73711 15.075H9.58086C9.81213 15.075 9.99961 14.8876 9.99961 14.6563V14.5625C9.99961 14.3313 9.81213 14.1438 9.58086 14.1438Z" fill="#3E80F4"/>
<path d="M11.9248 1.25V4.86248C11.9248 4.99843 11.9517 5.13307 12.0039 5.2586C12.0561 5.38412 12.1326 5.49807 12.2291 5.59391C12.3255 5.68975 12.4399 5.76558 12.5658 5.81703C12.6916 5.86849 12.8263 5.89457 12.9623 5.89375H16.5686L11.9248 1.25Z" fill="#3E80F4"/>
</g>
<defs>
<clipPath id="clip0_4981_1596">
<rect width="14" height="18" fill="white" transform="translate(3 1)"/>
</clipPath>
</defs>
</svg>
