<svg width="24" height="24" viewBox="0 0 24 24" fill="none" xmlns="http://www.w3.org/2000/svg">
<path d="M18.1949 22.5H5.81985C5.36236 22.5 4.9236 22.3183 4.6001 21.9948C4.2766 21.6713 4.09482 21.2325 4.09482 20.775V3.22504C4.09482 2.76754 4.2766 2.32878 4.6001 2.00528C4.9236 1.68178 5.36236 1.5 5.81985 1.5H14.3248L19.8974 7.07254V20.775C19.8974 21.2286 19.7187 21.664 19.4001 21.9869C19.0814 22.3098 18.6484 22.4941 18.1949 22.5Z" fill="#E4EBF2"/>
<path fill-rule="evenodd" clip-rule="evenodd" d="M9.09007 12.9911C8.62334 12.9911 8.17572 13.171 7.84569 13.4914C7.51566 13.8117 7.33025 14.2461 7.33025 14.6991C7.33025 15.1521 7.51566 15.5866 7.84569 15.9069C8.00911 16.0655 8.20311 16.1913 8.41662 16.2772C8.63013 16.363 8.85897 16.4072 9.09007 16.4072H10.545C10.9124 16.4072 11.2102 16.6962 11.2102 17.0528C11.2102 17.4093 10.9124 17.6983 10.545 17.6983H9.09007C8.68428 17.6983 8.28246 17.6207 7.90755 17.47C7.53265 17.3193 7.192 17.0984 6.90506 16.8199C6.32556 16.2574 6 15.4946 6 14.6991C6 13.9037 6.32556 13.1408 6.90506 12.5784C7.48456 12.0159 8.27053 11.7 9.09007 11.7H10.545C10.9124 11.7 11.2102 11.989 11.2102 12.3455C11.2102 12.7021 10.9124 12.9911 10.545 12.9911H9.09007ZM12.7898 12.3455C12.7898 11.989 13.0876 11.7 13.455 11.7H14.9099C15.3157 11.7 15.7175 11.7775 16.0924 11.9283C16.4674 12.079 16.808 12.2999 17.0949 12.5784C17.3819 12.8569 17.6095 13.1875 17.7648 13.5514C17.9201 13.9153 18 14.3053 18 14.6991C18 15.093 17.9201 15.483 17.7648 15.8469C17.6095 16.2108 17.3819 16.5414 17.0949 16.8199C16.808 17.0984 16.4674 17.3193 16.0924 17.47C15.7175 17.6207 15.3157 17.6983 14.9099 17.6983H13.455C13.0876 17.6983 12.7898 17.4093 12.7898 17.0528C12.7898 16.6962 13.0876 16.4072 13.455 16.4072H14.9099C15.141 16.4072 15.3699 16.363 15.5834 16.2772C15.7969 16.1913 15.9909 16.0655 16.1543 15.9069C16.3177 15.7483 16.4473 15.56 16.5358 15.3528C16.6242 15.1455 16.6697 14.9234 16.6697 14.6991C16.6697 14.4748 16.6242 14.2527 16.5358 14.0455C16.4473 13.8383 16.3177 13.65 16.1543 13.4914C15.9909 13.3328 15.7969 13.2069 15.5834 13.1211C15.3699 13.0353 15.141 12.9911 14.9099 12.9911H13.455C13.0876 12.9911 12.7898 12.7021 12.7898 12.3455Z" fill="#9BABC0"/>
<path fill-rule="evenodd" clip-rule="evenodd" d="M9.39493 14.6992C9.39493 14.3426 9.69272 14.0536 10.0601 14.0536H13.94C14.3073 14.0536 14.6051 14.3426 14.6051 14.6992C14.6051 15.0557 14.3073 15.3447 13.94 15.3447H10.0601C9.69272 15.3447 9.39493 15.0557 9.39493 14.6992Z" fill="#9BABC0"/>
<path d="M14.325 1.5V5.83502C14.325 6.16323 14.4554 6.47801 14.6875 6.71008C14.9195 6.94216 15.2343 7.07254 15.5625 7.07254H19.8976L14.325 1.5Z" fill="#9BABC0"/>
</svg>
