<svg width="24" height="24" viewBox="0 0 24 24" fill="none" xmlns="http://www.w3.org/2000/svg">
<path d="M18.1949 22.5H5.81985C5.36236 22.5 4.9236 22.3183 4.6001 21.9948C4.2766 21.6713 4.09482 21.2325 4.09482 20.775V3.22504C4.09482 2.76754 4.2766 2.32878 4.6001 2.00528C4.9236 1.68178 5.36236 1.5 5.81985 1.5H14.3248L19.8974 7.07254V20.775C19.8974 21.2286 19.7187 21.664 19.4001 21.9869C19.0814 22.3098 18.6484 22.4941 18.1949 22.5Z" fill="#E4EBF2"/>
<path d="M14.325 1.5V5.83502C14.325 6.16323 14.4554 6.47801 14.6875 6.71008C14.9195 6.94216 15.2343 7.07254 15.5625 7.07254H19.8976L14.325 1.5Z" fill="#9BABC0"/>
<path d="M7.11704 14.595C7.11029 14.7946 7.14344 14.9935 7.21455 15.18C7.26221 15.3266 7.35385 15.4549 7.47703 15.5475C7.6033 15.6324 7.75245 15.6769 7.90458 15.675C8.03529 15.6782 8.16456 15.6472 8.27958 15.585C8.3851 15.5259 8.47108 15.4373 8.52705 15.33C8.58982 15.2172 8.62576 15.0915 8.63206 14.9625H9.57706V15.0825C9.57648 15.3491 9.49826 15.6097 9.35203 15.8325C9.19903 16.0474 8.99213 16.2182 8.75208 16.3275C8.46207 16.4543 8.14755 16.5154 7.83115 16.5063C7.51476 16.4972 7.2043 16.4182 6.92204 16.275C6.65695 16.1221 6.44502 15.8918 6.31458 15.615C6.16578 15.2961 6.09383 14.9468 6.10456 14.595V14.1375C6.09383 13.7858 6.16578 13.4364 6.31458 13.1175C6.44502 12.8407 6.65695 12.6104 6.92204 12.4575C7.22032 12.2941 7.55711 12.2138 7.89707 12.225C8.12336 12.2216 8.34873 12.2545 8.56458 12.3225C8.75689 12.3851 8.93516 12.4844 9.08955 12.615C9.242 12.7443 9.36454 12.9051 9.44871 13.0864C9.53288 13.2677 9.5767 13.4652 9.57706 13.665V13.7776H8.63206C8.62484 13.6464 8.58899 13.5184 8.52705 13.4026C8.4712 13.2933 8.38537 13.2022 8.27958 13.14C8.16528 13.0752 8.03596 13.0416 7.90458 13.0425C7.75451 13.0387 7.60717 13.0834 7.48454 13.17C7.35731 13.2635 7.26284 13.3947 7.21455 13.545C7.14244 13.7339 7.10928 13.9355 7.11704 14.1375V14.595Z" fill="#9BABC0"/>
<path d="M9.9826 16.425L11.3175 12.2925H12.525L13.8525 16.425H12.7951L12.525 15.465H11.2426L10.9801 16.425H9.9826ZM11.8725 13.1775L11.4301 14.7525H12.345L11.9176 13.1775H11.8725Z" fill="#9BABC0"/>
<path d="M16.0576 12.2926C16.4251 12.2779 16.79 12.3607 17.1152 12.5326C17.3976 12.7076 17.6138 12.9714 17.7301 13.2826C17.8713 13.6298 17.9377 14.0029 17.9251 14.3776C17.9361 14.757 17.8698 15.1346 17.7301 15.4876C17.6138 15.7988 17.3976 16.0626 17.1152 16.2376C16.7923 16.4167 16.4267 16.5049 16.0576 16.4926H14.4451V12.2926H16.0576ZM15.4351 15.6301H15.9001C16.056 15.6352 16.2115 15.6098 16.3577 15.5551C16.4823 15.5047 16.591 15.4219 16.6726 15.3151C16.756 15.1944 16.8169 15.0598 16.8526 14.9176C16.8912 14.7352 16.9089 14.549 16.9052 14.3626C16.9123 14.1213 16.8793 13.8805 16.8076 13.6501C16.7477 13.4751 16.6317 13.3248 16.4776 13.2225C16.3034 13.1191 16.1024 13.0696 15.9001 13.08H15.4351V15.6301Z" fill="#9BABC0"/>
</svg>
