<svg width="48" height="48" viewBox="0 0 48 48" fill="none" xmlns="http://www.w3.org/2000/svg">
<g clip-path="url(#clip0_4981_2403)">
<path d="M36.3611 45H11.6561C10.7411 45 9.86361 44.6365 9.21661 43.9895C8.56961 43.3425 8.20605 42.465 8.20605 41.55V6.44998C8.20605 5.53498 8.56961 4.65747 9.21661 4.01047C9.86361 3.36347 10.7411 3 11.6561 3H28.6661L39.8112 14.145V41.55C39.8112 42.465 39.4476 43.3425 38.8006 43.9895C38.1536 44.6365 37.2761 45 36.3611 45Z" fill="#E4EBF2"/>
<path d="M28.6641 3V11.67C28.6641 12.3264 28.9248 12.9559 29.389 13.4201C29.8531 13.8842 30.4827 14.145 31.1391 14.145H39.8091L28.6641 3Z" fill="#9BABC0"/>
<path d="M18.5686 22.9047V32.9247C18.5787 33.2455 18.6729 33.5579 18.8418 33.8307C19.0108 34.1036 19.2486 34.3272 19.5312 34.4791C19.8139 34.6311 20.1315 34.706 20.4522 34.6965C20.773 34.6869 21.0855 34.5932 21.3586 34.4247L29.3686 29.4147C29.6288 29.2495 29.843 29.0213 29.9915 28.7512C30.14 28.4811 30.2178 28.1779 30.2178 27.8697C30.2178 27.5615 30.14 27.2583 29.9915 26.9882C29.843 26.7181 29.6288 26.4899 29.3686 26.3247L21.3586 21.3147C21.079 21.1423 20.7583 21.0484 20.4299 21.0428C20.1015 21.0371 19.7776 21.1199 19.4922 21.2825C19.2069 21.4451 18.9705 21.6816 18.808 21.967C18.6455 22.2524 18.5629 22.5763 18.5686 22.9047Z" fill="#9BABC0"/>
</g>
<defs>
<clipPath id="clip0_4981_2403">
<rect width="32" height="42" fill="white" transform="translate(8 3)"/>
</clipPath>
</defs>
</svg>
