<svg width="24" height="24" viewBox="0 0 24 24" fill="none" xmlns="http://www.w3.org/2000/svg">
<g clip-path="url(#clip0_4981_1807)">
<mask id="mask0_4981_1807" style="mask-type:luminance" maskUnits="userSpaceOnUse" x="1" y="2" width="22" height="8">
<path fill-rule="evenodd" clip-rule="evenodd" d="M1.71484 2.57129H22.286V9.80343H1.71484V2.57129Z" fill="white"/>
</mask>
<g mask="url(#mask0_4981_1807)">
<path fill-rule="evenodd" clip-rule="evenodd" d="M21.1427 5.58468H13.045C12.7421 5.58468 12.4513 5.4574 12.2371 5.23175L10.0491 2.92422C9.83495 2.69857 9.54414 2.57129 9.24118 2.57129H2.85749C2.22632 2.57129 1.71484 3.11129 1.71484 3.77665V9.80343H22.2863V6.79004C22.2863 6.12468 21.7748 5.58468 21.1427 5.58468Z" fill="#F6C243"/>
</g>
<path fill-rule="evenodd" clip-rule="evenodd" d="M1.71484 20.2287C1.71484 20.8911 2.22632 21.4287 2.85843 21.4287H21.1427C21.7748 21.4287 22.2863 20.8911 22.2863 20.2287V9.42871H1.71484V20.2287Z" fill="#FDF3D9"/>
</g>
<defs>
<clipPath id="clip0_4981_1807">
<rect width="22" height="20" fill="white" transform="translate(1 2)"/>
</clipPath>
</defs>
</svg>
