<svg width="48" height="48" viewBox="0 0 48 48" fill="none" xmlns="http://www.w3.org/2000/svg">
<path d="M36.3611 44.9997H11.656C10.741 44.9997 9.86352 44.6362 9.21652 43.9892C8.56952 43.3422 8.20605 42.4646 8.20605 41.5497V6.52469C8.20605 5.60969 8.56952 4.73218 9.21652 4.08517C9.86352 3.43817 10.741 3.07471 11.656 3.07471H28.6661L39.811 14.2197V41.6247C39.7914 42.5267 39.4193 43.385 38.7744 44.0159C38.1295 44.6468 37.2632 44.9999 36.3611 44.9997Z" fill="#DCF5E8"/>
<path d="M28.6641 3V11.67C28.6641 12.3264 28.9248 12.9559 29.389 13.4201C29.8531 13.8842 30.4827 14.145 31.1391 14.145H39.809L28.6641 3Z" fill="#05C072"/>
<path d="M21.2237 20.0845H15.6737C14.9861 20.0845 14.4287 20.6419 14.4287 21.3295V22.4395C14.4287 23.1271 14.9861 23.6845 15.6737 23.6845H21.2237C21.9113 23.6845 22.4687 23.1271 22.4687 22.4395V21.3295C22.4687 20.6419 21.9113 20.0845 21.2237 20.0845Z" fill="#05C072"/>
<path d="M26.4458 20.0845H25.3358C24.6482 20.0845 24.0908 20.6419 24.0908 21.3295V22.4395C24.0908 23.1271 24.6482 23.6845 25.3358 23.6845H26.4458C27.1334 23.6845 27.6908 23.1271 27.6908 22.4395V21.3295C27.6908 20.6419 27.1334 20.0845 26.4458 20.0845Z" fill="#05C072"/>
<path d="M32.3257 20.0845H31.2157C30.5281 20.0845 29.9707 20.6419 29.9707 21.3295V22.4395C29.9707 23.1271 30.5281 23.6845 31.2157 23.6845H32.3257C33.0133 23.6845 33.5707 23.1271 33.5707 22.4395V21.3295C33.5707 20.6419 33.0133 20.0845 32.3257 20.0845Z" fill="#05C072"/>
<path d="M21.2237 26.1152H15.6737C14.9861 26.1152 14.4287 26.6726 14.4287 27.3602V28.4702C14.4287 29.1578 14.9861 29.7152 15.6737 29.7152H21.2237C21.9113 29.7152 22.4687 29.1578 22.4687 28.4702V27.3602C22.4687 26.6726 21.9113 26.1152 21.2237 26.1152Z" fill="#05C072"/>
<path d="M26.4458 26.1152H25.3358C24.6482 26.1152 24.0908 26.6726 24.0908 27.3602V28.4702C24.0908 29.1578 24.6482 29.7152 25.3358 29.7152H26.4458C27.1334 29.7152 27.6908 29.1578 27.6908 28.4702V27.3602C27.6908 26.6726 27.1334 26.1152 26.4458 26.1152Z" fill="#05C072"/>
<path d="M32.3257 26.1152H31.2157C30.5281 26.1152 29.9707 26.6726 29.9707 27.3602V28.4702C29.9707 29.1578 30.5281 29.7152 31.2157 29.7152H32.3257C33.0133 29.7152 33.5707 29.1578 33.5707 28.4702V27.3602C33.5707 26.6726 33.0133 26.1152 32.3257 26.1152Z" fill="#05C072"/>
<path d="M21.2237 32.1445H15.6737C14.9861 32.1445 14.4287 32.7019 14.4287 33.3895V34.4995C14.4287 35.1871 14.9861 35.7445 15.6737 35.7445H21.2237C21.9113 35.7445 22.4687 35.1871 22.4687 34.4995V33.3895C22.4687 32.7019 21.9113 32.1445 21.2237 32.1445Z" fill="#05C072"/>
<path d="M26.4458 32.1445H25.3358C24.6482 32.1445 24.0908 32.7019 24.0908 33.3895V34.4995C24.0908 35.1871 24.6482 35.7445 25.3358 35.7445H26.4458C27.1334 35.7445 27.6908 35.1871 27.6908 34.4995V33.3895C27.6908 32.7019 27.1334 32.1445 26.4458 32.1445Z" fill="#05C072"/>
<path d="M32.3257 32.1445H31.2157C30.5281 32.1445 29.9707 32.7019 29.9707 33.3895V34.4995C29.9707 35.1871 30.5281 35.7445 31.2157 35.7445H32.3257C33.0133 35.7445 33.5707 35.1871 33.5707 34.4995V33.3895C33.5707 32.7019 33.0133 32.1445 32.3257 32.1445Z" fill="#05C072"/>
</svg>
