<svg width="32" height="32" viewBox="0 0 32 32" fill="none" xmlns="http://www.w3.org/2000/svg">
<g clip-path="url(#clip0_4981_1999)">
<path d="M24.229 30H7.75903C7.45699 30 7.15796 29.9405 6.87891 29.825C6.59986 29.7094 6.34639 29.54 6.13281 29.3264C5.91924 29.1128 5.74986 28.8592 5.63428 28.5802C5.51869 28.3012 5.45898 28.0021 5.45898 27.7001V4.30005C5.45898 3.99801 5.51869 3.69897 5.63428 3.41992C5.74986 3.14087 5.91924 2.88728 6.13281 2.67371C6.34639 2.46013 6.59986 2.29076 6.87891 2.17517C7.15796 2.05959 7.45699 2 7.75903 2H19.0991L26.5291 9.43005V27.7001C26.5291 28.0021 26.4696 28.3012 26.354 28.5802C26.2384 28.8592 26.069 29.1128 25.8555 29.3264C25.6419 29.54 25.3884 29.7094 25.1094 29.825C24.8303 29.9405 24.531 30 24.229 30Z" fill="#E4EBF2"/>
<path d="M19.1094 2V7.77002C19.1081 7.98754 19.1496 8.2032 19.232 8.40454C19.3143 8.60588 19.4358 8.78896 19.5891 8.94324C19.7425 9.09751 19.9247 9.21992 20.1255 9.30347C20.3264 9.38701 20.5418 9.43006 20.7593 9.43005H26.5393L19.1094 2Z" fill="#9BABC0"/>
<path d="M10.5098 23.6296V19.4297H9.08984V18.4297H13.1997V19.4297H11.7698V23.6296H10.5098Z" fill="#9BABC0"/>
<path d="M16.8203 21.0104L18.4204 23.6304H17.0002L16.0002 21.9104L15.0002 23.6304H13.5703L15.1404 21.0004L13.5803 18.4004H15.0503L15.9902 20.1604H16.0503L16.9902 18.4004H18.4004L16.8203 21.0104Z" fill="#9BABC0"/>
<path d="M20.2307 23.6296V19.4297H18.8008V18.4297H22.9109V19.4297H21.4907V23.6296H20.2307Z" fill="#9BABC0"/>
</g>
<defs>
<clipPath id="clip0_4981_1999">
<rect width="22" height="28" fill="white" transform="translate(5 2)"/>
</clipPath>
</defs>
</svg>
