<svg width="32" height="32" viewBox="0 0 32 32" fill="none" xmlns="http://www.w3.org/2000/svg">
<g clip-path="url(#clip0_4981_1973)">
<path d="M24.2307 29.9995H7.77075C7.16075 29.9995 6.57574 29.7572 6.14441 29.3259C5.71308 28.8945 5.4707 28.3095 5.4707 27.6995V4.31952C5.4707 3.70952 5.71308 3.12451 6.14441 2.69318C6.57574 2.26184 7.16075 2.01953 7.77075 2.01953H19.1007L26.5308 9.44952V27.7195C26.5255 28.3261 26.2807 28.9059 25.85 29.3329C25.4192 29.76 24.8373 29.9995 24.2307 29.9995Z" fill="#DAF9F9"/>
<path d="M19.0996 2V7.78003C19.0996 7.99755 19.1427 8.21292 19.2262 8.41376C19.3097 8.6146 19.4321 8.79691 19.5864 8.95026C19.7407 9.1036 19.9238 9.22498 20.1251 9.30731C20.3265 9.38964 20.5421 9.43131 20.7596 9.42999H26.5297L19.0996 2Z" fill="#57CBC8"/>
<path fill-rule="evenodd" clip-rule="evenodd" d="M21.2022 16.5915V14.9965H17.0882V12.8H15.3482V14.9965H11.2V16.5915H21.2022ZM20.0456 20.8114C20.0456 22.6866 18.423 24.0015 16.2166 24.0015C14.0069 24.0015 12.3844 22.6866 12.3844 20.8114C12.3844 18.9534 14.0069 17.6407 16.2166 17.6407C18.4241 17.6407 20.0467 18.9534 20.0467 20.8114H20.0456ZM18.2717 20.8125C18.2717 19.8555 17.3847 19.2563 16.2147 19.2563C15.0437 19.2563 14.1406 19.8555 14.1406 20.8125C14.1406 21.7879 15.0437 22.3893 16.2147 22.3893C17.3847 22.3893 18.2717 21.7879 18.2717 20.8125Z" fill="#57CBC8"/>
</g>
<defs>
<clipPath id="clip0_4981_1973">
<rect width="22" height="28" fill="white" transform="translate(5 2)"/>
</clipPath>
</defs>
</svg>
