<svg width="40" height="40" viewBox="0 0 40 40" fill="none" xmlns="http://www.w3.org/2000/svg">
<g clip-path="url(#clip0_4981_2215)">
<path d="M30.2887 37.5H9.70123C9.32368 37.5 8.94958 37.4257 8.60077 37.2812C8.25196 37.1367 7.93512 36.925 7.66815 36.658C7.40118 36.3911 7.18947 36.0741 7.04498 35.7253C6.9005 35.3764 6.82617 35.0026 6.82617 34.6251V5.37506C6.82617 4.99751 6.9005 4.62356 7.04498 4.27475C7.18947 3.92594 7.40118 3.6091 7.66815 3.34213C7.93512 3.07516 8.25196 2.86329 8.60077 2.71881C8.94958 2.57433 9.32368 2.5 9.70123 2.5H23.876L33.1635 11.7876V34.6251C33.1635 35.3876 32.8606 36.1189 32.3215 36.658C31.7823 37.1972 31.0512 37.5 30.2887 37.5Z" fill="#E4EBF2"/>
<path d="M28.5121 18.375H11.4996C11.0371 18.375 10.6621 18.75 10.6621 19.2125V19.4C10.6621 19.8625 11.0371 20.2375 11.4996 20.2375H28.5121C28.9746 20.2375 29.3496 19.8625 29.3496 19.4V19.2125C29.3496 18.75 28.9746 18.375 28.5121 18.375Z" fill="#9BABC0"/>
<path d="M28.5121 23.3374H11.4996C11.0371 23.3374 10.6621 23.7124 10.6621 24.1749V24.3624C10.6621 24.8249 11.0371 25.1999 11.4996 25.1999H28.5121C28.9746 25.1999 29.3496 24.8249 29.3496 24.3624V24.1749C29.3496 23.7124 28.9746 23.3374 28.5121 23.3374Z" fill="#9BABC0"/>
<path d="M19.1627 28.2875H11.4752C11.0127 28.2875 10.6377 28.6624 10.6377 29.125V29.3125C10.6377 29.775 11.0127 30.15 11.4752 30.15H19.1627C19.6252 30.15 20.0002 29.775 20.0002 29.3125V29.125C20.0002 28.6624 19.6252 28.2875 19.1627 28.2875Z" fill="#9BABC0"/>
<path d="M23.8867 2.5V9.72504C23.8867 10.272 24.1042 10.7967 24.491 11.1835C24.8778 11.5703 25.4024 11.7876 25.9494 11.7876H33.1741L23.8867 2.5Z" fill="#9BABC0"/>
</g>
<defs>
<clipPath id="clip0_4981_2215">
<rect width="28" height="36" fill="white" transform="translate(6 2)"/>
</clipPath>
</defs>
</svg>
