<svg width="20" height="20" viewBox="0 0 20 20" fill="none" xmlns="http://www.w3.org/2000/svg">
<g clip-path="url(#clip0_4981_1600)">
<path d="M15.1502 18.75H4.85648C4.47523 18.75 4.1096 18.5986 3.84001 18.329C3.57043 18.0594 3.41895 17.6938 3.41895 17.3125V2.68749C3.41895 2.30624 3.57043 1.94061 3.84001 1.67103C4.1096 1.40144 4.47523 1.25 4.85648 1.25H11.944L16.5877 5.89375V17.3125C16.5877 17.6938 16.4363 18.0594 16.1667 18.329C15.8971 18.5986 15.5315 18.75 15.1502 18.75Z" fill="#E4EBF2"/>
<path d="M11.9434 1.25V4.86248C11.9434 5.13598 12.052 5.3983 12.2454 5.5917C12.4388 5.78509 12.7011 5.89375 12.9746 5.89375H16.5871L11.9434 1.25Z" fill="#9BABC0"/>
<path d="M7.73645 9.54361V13.7186C7.74064 13.8523 7.77988 13.9825 7.85028 14.0961C7.92067 14.2098 8.01976 14.303 8.13752 14.3663C8.25529 14.4296 8.38763 14.4608 8.52128 14.4569C8.65493 14.4529 8.78515 14.4138 8.89894 14.3436L12.2364 12.2561C12.3448 12.1873 12.4341 12.0922 12.496 11.9797C12.5578 11.8671 12.5903 11.7408 12.5903 11.6124C12.5903 11.4839 12.5578 11.3576 12.496 11.2451C12.4341 11.1325 12.3448 11.0375 12.2364 10.9686L8.89894 8.88111C8.78244 8.8093 8.6488 8.77017 8.51197 8.76781C8.37515 8.76546 8.24017 8.79996 8.12127 8.86772C8.00238 8.93548 7.90388 9.03399 7.83616 9.15291C7.76845 9.27183 7.73404 9.40678 7.73645 9.54361Z" fill="#9BABC0"/>
</g>
<defs>
<clipPath id="clip0_4981_1600">
<rect width="14" height="18" fill="white" transform="translate(3 1)"/>
</clipPath>
</defs>
</svg>
