<svg width="20" height="20" viewBox="0 0 20 20" fill="none" xmlns="http://www.w3.org/2000/svg">
<g clip-path="url(#clip0_20832_7612)">
<path d="M15.1621 18.75H4.84964C4.46839 18.75 4.10276 18.5986 3.83318 18.329C3.56359 18.0594 3.41211 17.6938 3.41211 17.3125V2.68753C3.41211 2.30628 3.56359 1.94065 3.83318 1.67107C4.10276 1.40148 4.46839 1.25 4.84964 1.25H11.9371L16.5809 5.89378V17.3125C16.5809 17.6905 16.432 18.0534 16.1665 18.3224C15.9009 18.5915 15.5401 18.7451 15.1621 18.75Z" fill="#E4EBF2"/>
<path d="M9.43658 12.814C9.44609 11.6342 9.76004 11.2632 10.3309 10.9112C10.74 10.6448 11.0539 10.3499 11.0539 9.91226C11.0539 9.43658 10.6829 9.12262 10.2262 9.12262C9.77907 9.12262 9.36998 9.41755 9.35095 9.97886H8C8.02854 8.63742 9.01797 8 10.2357 8C11.5581 8 12.5 8.6945 12.5 9.86469C12.5 10.6448 12.1004 11.149 11.4725 11.5201C10.9397 11.8436 10.7019 12.148 10.6924 12.814V12.9186H9.43658V12.814ZM10.093 15.0687C9.64588 15.0687 9.28436 14.7072 9.29387 14.2696C9.28436 13.8319 9.64588 13.4799 10.093 13.4799C10.5116 13.4799 10.8827 13.8319 10.8827 14.2696C10.8827 14.7072 10.5116 15.0687 10.093 15.0687Z" fill="#9BABC0"/>
<path d="M11.9375 1.25V4.86252C11.9375 5.13602 12.0462 5.39834 12.2395 5.59174C12.4329 5.78513 12.6953 5.89378 12.9688 5.89378H16.5813L11.9375 1.25Z" fill="#9BABC0"/>
</g>
<defs>
<clipPath id="clip0_20832_7612">
<rect width="14" height="18" fill="white" transform="translate(3 1)"/>
</clipPath>
</defs>
</svg>
