<svg width="48" height="48" viewBox="0 0 48 48" fill="none" xmlns="http://www.w3.org/2000/svg">
<path d="M36.3438 45.0004H11.6238C10.7088 45.0004 9.8313 44.6369 9.1843 43.9899C8.5373 43.3429 8.17383 42.4654 8.17383 41.5504V6.49539C8.17383 5.58039 8.5373 4.70288 9.1843 4.05588C9.8313 3.40888 10.7088 3.04541 11.6238 3.04541H28.6188L39.7638 14.1904V41.5954C39.7521 42.4974 39.3875 43.3589 38.7482 43.9954C38.109 44.6319 37.2458 44.9926 36.3438 45.0004Z" fill="#FEEAE7"/>
<path d="M25.9646 28.1999H31.8446C31.8686 29.8081 31.4212 31.3882 30.5576 32.745C29.6939 34.1018 28.4518 35.176 26.9846 35.835C25.8436 36.3643 24.5982 36.6306 23.3405 36.6143C22.0827 36.5979 20.8447 36.2992 19.7178 35.7404C18.5909 35.1815 17.6038 34.3767 16.8296 33.3854C16.0553 32.394 15.5137 31.2415 15.2445 30.0128C14.9752 28.784 14.9854 27.5105 15.2742 26.2863C15.563 25.062 16.1231 23.9182 16.9131 22.9394C17.7031 21.9606 18.7028 21.1717 19.8385 20.6309C20.9742 20.0901 22.2168 19.8113 23.4747 19.815V25.71C23.4707 26.0381 23.5322 26.3637 23.656 26.6676C23.7797 26.9715 23.963 27.2477 24.195 27.4797C24.427 27.7117 24.7031 27.8949 25.007 28.0187C25.3109 28.1424 25.6365 28.204 25.9646 28.1999Z" fill="#EF5E4B"/>
<path d="M25.0195 24.0152V18.6152C27.1071 18.6271 29.1055 19.4626 30.5802 20.9401C32.0549 22.4177 32.8867 24.4177 32.8945 26.5052H27.4946C26.8368 26.5013 26.2073 26.2372 25.7435 25.7706C25.2798 25.3041 25.0195 24.673 25.0195 24.0152Z" fill="#EF5E4B"/>
<path d="M28.6494 3V11.67C28.6494 12.3265 28.9102 12.9559 29.3743 13.4201C29.8385 13.8842 30.468 14.145 31.1245 14.145H39.7795L28.6494 3Z" fill="#EF5E4B"/>
</svg>
