<svg width="40" height="40" viewBox="0 0 40 40" fill="none" xmlns="http://www.w3.org/2000/svg">
<g clip-path="url(#clip0_4981_2155)">
<path d="M30.2887 37.5H9.70116C8.93866 37.5 8.2074 37.1971 7.66823 36.6579C7.12906 36.1188 6.82617 35.3875 6.82617 34.625V5.37498C6.82617 4.61249 7.12906 3.88122 7.66823 3.34206C8.2074 2.80289 8.93866 2.5 9.70116 2.5H23.8512L33.1387 11.7875V34.6C33.142 34.9775 33.0708 35.3521 32.9294 35.7021C32.7879 36.0522 32.5789 36.371 32.3143 36.6402C32.0496 36.9095 31.7346 37.1241 31.387 37.2716C31.0395 37.4191 30.6662 37.4967 30.2887 37.5Z" fill="#D9E7FF"/>
<path d="M28.5121 18.375H11.4996C11.0371 18.375 10.6621 18.75 10.6621 19.2125V19.4C10.6621 19.8625 11.0371 20.2375 11.4996 20.2375H28.5121C28.9746 20.2375 29.3496 19.8625 29.3496 19.4V19.2125C29.3496 18.75 28.9746 18.375 28.5121 18.375Z" fill="#3E80F4"/>
<path d="M28.5121 23.3374H11.4996C11.0371 23.3374 10.6621 23.7124 10.6621 24.1749V24.3624C10.6621 24.8249 11.0371 25.1999 11.4996 25.1999H28.5121C28.9746 25.1999 29.3496 24.8249 29.3496 24.3624V24.1749C29.3496 23.7124 28.9746 23.3374 28.5121 23.3374Z" fill="#3E80F4"/>
<path d="M19.1627 28.2875H11.4752C11.0127 28.2875 10.6377 28.6624 10.6377 29.125V29.3125C10.6377 29.775 11.0127 30.15 11.4752 30.15H19.1627C19.6252 30.15 20.0002 29.775 20.0002 29.3125V29.125C20.0002 28.6624 19.6252 28.2875 19.1627 28.2875Z" fill="#3E80F4"/>
<path d="M23.8496 2.5V9.72496C23.8496 9.99687 23.9033 10.2661 24.0078 10.5172C24.1122 10.7682 24.2653 10.9961 24.4581 11.1878C24.651 11.3795 24.8798 11.5312 25.1315 11.6341C25.3832 11.737 25.6527 11.7891 25.9246 11.7875H33.1371L23.8496 2.5Z" fill="#3E80F4"/>
</g>
<defs>
<clipPath id="clip0_4981_2155">
<rect width="28" height="36" fill="white" transform="translate(6 2)"/>
</clipPath>
</defs>
</svg>
