<svg width="32" height="32" viewBox="0 0 32 32" fill="none" xmlns="http://www.w3.org/2000/svg">
<g clip-path="url(#clip0_4981_1958)">
<path d="M24.2418 30H7.77187C7.16187 30 6.57686 29.7577 6.14552 29.3264C5.71419 28.895 5.47188 28.31 5.47188 27.7V4.30005C5.47188 3.69005 5.71419 3.10504 6.14552 2.67371C6.57686 2.24237 7.16187 2 7.77187 2H19.0819L26.5119 9.43005V27.7C26.5119 28.3048 26.2737 28.8854 25.8488 29.3159C25.424 29.7463 24.8466 29.9921 24.2418 30Z" fill="#FCE8ED"/>
<path d="M22.2019 19.9698C21.5365 19.448 20.6917 19.2107 19.8519 19.3099C19.212 19.3138 18.5734 19.3672 17.9419 19.4698C17.531 19.074 17.1562 18.6423 16.8219 18.1799C16.5732 17.8287 16.3429 17.4648 16.1319 17.0898C16.4814 16.0976 16.6868 15.0604 16.7418 14.0098C16.7418 13.0798 16.3819 12.0898 15.3519 12.0898C15.1791 12.0926 15.0099 12.1402 14.8609 12.2278C14.712 12.3154 14.5882 12.4402 14.5019 12.5898C14.0519 13.3498 14.2319 14.9298 14.9519 16.5298C14.7019 17.2698 14.4319 17.9999 14.0919 18.7999C13.799 19.486 13.4651 20.1539 13.0919 20.7999C10.9919 21.6499 9.69189 22.5999 9.54189 23.4199C9.5152 23.5814 9.52859 23.7471 9.5809 23.9023C9.6332 24.0575 9.72283 24.1974 9.84188 24.3099C10.0964 24.5233 10.4198 24.637 10.7519 24.6298C12.1119 24.6298 13.4719 22.7299 14.3819 21.1099C14.9119 20.9299 15.4519 20.7599 15.9819 20.6199C16.5119 20.4799 17.1418 20.3399 17.6818 20.2399C18.5876 21.1242 19.7873 21.6439 21.0518 21.6998C21.9218 21.6998 22.2519 21.3298 22.3719 21.0198C22.4365 20.845 22.4549 20.6565 22.4251 20.4725C22.3953 20.2885 22.3184 20.1153 22.2019 19.9698ZM10.3719 23.7798C10.3392 23.7544 10.3143 23.7203 10.3002 23.6814C10.286 23.6425 10.2832 23.6004 10.2919 23.5599C10.3619 23.1999 11.0619 22.5598 12.4719 21.8898C11.4419 23.4698 10.6019 23.9998 10.3719 23.7798ZM15.1319 12.9598C15.1513 12.92 15.181 12.886 15.2179 12.8614C15.2548 12.8368 15.2976 12.8224 15.3419 12.8198C15.5819 12.8198 15.6319 13.1598 15.6319 13.4398C15.6012 14.1179 15.4871 14.7897 15.2919 15.4398C14.9441 14.6588 14.8874 13.7791 15.1319 12.9598ZM15.8319 19.9598C15.5219 20.0398 15.2119 20.1198 14.9019 20.2198C15.0719 19.8898 15.2219 19.5598 15.3519 19.2198C15.4819 18.8798 15.6819 18.4098 15.8219 18.0098C15.9519 18.2198 16.0919 18.4199 16.2319 18.6099C16.4895 18.9614 16.7701 19.2955 17.0719 19.6099C16.6719 19.7199 16.2519 19.7799 15.8319 19.9299V19.9598ZM21.1719 20.6199C21.1219 20.8599 20.8419 20.9498 20.6119 20.9498H20.3319C19.7371 20.7926 19.1773 20.5246 18.6818 20.1599C19.3455 20.0698 20.0182 20.0698 20.6818 20.1599C21.2418 20.2099 21.1819 20.4998 21.1719 20.5898V20.6199Z" fill="#E9648A"/>
<path d="M19.0819 2L19.0813 7.78003C19.0813 8.21764 19.2551 8.63734 19.5645 8.94678C19.874 9.25621 20.2937 9.43005 20.7313 9.43005H26.5119L19.0819 2Z" fill="#E9648A"/>
</g>
<defs>
<clipPath id="clip0_4981_1958">
<rect width="22" height="28" fill="white" transform="translate(5 2)"/>
</clipPath>
</defs>
</svg>
