<svg width="32" height="32" viewBox="0 0 32 32" fill="none" xmlns="http://www.w3.org/2000/svg">
<path d="M24.2292 30.0002H7.74921C7.13921 30.0002 6.5542 29.7579 6.12286 29.3266C5.69153 28.8953 5.44922 28.3103 5.44922 27.7003V4.33026C5.44922 3.72026 5.69153 3.13525 6.12286 2.70392C6.5542 2.27258 7.13921 2.03027 7.74921 2.03027H19.0792L26.5092 9.46027V27.7303C26.5014 28.3316 26.2583 28.906 25.8322 29.3303C25.406 29.7546 24.8306 29.9951 24.2292 30.0002Z" fill="#FEEAE7"/>
<path d="M17.3098 18.8H21.2297C21.2458 19.8721 20.9475 20.9254 20.3717 21.83C19.7959 22.7345 18.9679 23.4507 17.9898 23.89C17.229 24.2429 16.3988 24.4204 15.5603 24.4095C14.7218 24.3986 13.8965 24.1995 13.1452 23.8269C12.3939 23.4544 11.7359 22.9178 11.2197 22.2569C10.7036 21.596 10.3424 20.8277 10.163 20.0085C9.98349 19.1894 9.99027 18.3404 10.1828 17.5242C10.3753 16.708 10.7487 15.9455 11.2754 15.2929C11.8021 14.6404 12.4685 14.1145 13.2257 13.7539C13.9828 13.3934 14.8112 13.2075 15.6498 13.21V17.14C15.6471 17.3587 15.6882 17.5758 15.7706 17.7784C15.8531 17.981 15.9753 18.1651 16.13 18.3198C16.2847 18.4745 16.4687 18.5966 16.6713 18.6791C16.8739 18.7616 17.091 18.8026 17.3098 18.8Z" fill="#EF5E4B"/>
<path d="M16.6797 16.0101V12.4102C18.0714 12.4181 19.4036 12.9751 20.3868 13.9601C21.3699 14.9451 21.9244 16.2785 21.9297 17.6702H18.3297C17.8912 17.6675 17.4715 17.4914 17.1624 17.1804C16.8532 16.8694 16.6797 16.4487 16.6797 16.0101Z" fill="#EF5E4B"/>
<path d="M19.0996 2V7.78003C19.0996 8.21764 19.2735 8.63728 19.5829 8.94672C19.8923 9.25615 20.312 9.42999 20.7496 9.42999H26.5197L19.0996 2Z" fill="#EF5E4B"/>
</svg>
