<svg width="48" height="48" viewBox="0 0 48 48" fill="none" xmlns="http://www.w3.org/2000/svg">
<g clip-path="url(#clip0_4981_2413)">
<path d="M36.3435 45H11.6385C11.1855 45 10.7369 44.9108 10.3184 44.7374C9.89979 44.564 9.51958 44.3098 9.19922 43.9894C8.87886 43.6691 8.62443 43.2889 8.45105 42.8703C8.27767 42.4517 8.18848 42.003 8.18848 41.5499V6.45007C8.18848 5.99701 8.27767 5.54827 8.45105 5.1297C8.62443 4.71113 8.87886 4.33092 9.19922 4.01056C9.51958 3.6902 9.89979 3.43595 10.3184 3.26257C10.7369 3.08919 11.1855 3 11.6385 3H28.6487L39.7936 14.1451V41.5499C39.7936 42.4649 39.4302 43.3424 38.7832 43.9894C38.1362 44.6364 37.2585 45 36.3435 45Z" fill="#E4EBF2"/>
<path d="M28.6641 3V11.67C28.6641 11.9963 28.7284 12.3193 28.8538 12.6205C28.9791 12.9218 29.1629 13.1955 29.3943 13.4255C29.6257 13.6555 29.9001 13.8374 30.2021 13.9609C30.5042 14.0844 30.8276 14.1471 31.1539 14.1451H39.809L28.6641 3Z" fill="#9BABC0"/>
<path d="M27.4209 28.8604H20.5809C19.8933 28.8604 19.3359 29.4178 19.3359 30.1054V39.0154C19.3359 39.7029 19.8933 40.2604 20.5809 40.2604H27.4209C28.1085 40.2604 28.6659 39.7029 28.6659 39.0154V30.1054C28.6659 29.4178 28.1085 28.8604 27.4209 28.8604Z" fill="#9BABC0"/>
<path d="M25.0791 23.0845H22.9191C22.7782 23.0845 22.6641 23.1986 22.6641 23.3395V26.6695C22.6641 26.8103 22.7782 26.9245 22.9191 26.9245H25.0791C25.2199 26.9245 25.3341 26.8103 25.3341 26.6695V23.3395C25.3341 23.1986 25.2199 23.0845 25.0791 23.0845Z" fill="#9BABC0"/>
<path d="M25.0791 17.3101H22.9191C22.7782 17.3101 22.6641 17.4242 22.6641 17.5651V20.8951C22.6641 21.0359 22.7782 21.1501 22.9191 21.1501H25.0791C25.2199 21.1501 25.3341 21.0359 25.3341 20.8951V17.5651C25.3341 17.4242 25.2199 17.3101 25.0791 17.3101Z" fill="#9BABC0"/>
</g>
<defs>
<clipPath id="clip0_4981_2413">
<rect width="32" height="42" fill="white" transform="translate(8 3)"/>
</clipPath>
</defs>
</svg>
