<svg width="20" height="20" viewBox="0 0 20 20" fill="none" xmlns="http://www.w3.org/2000/svg">
<g clip-path="url(#clip0_18848_453)">
<path d="M15.1621 18.75H4.84964C4.46839 18.75 4.10276 18.5986 3.83318 18.329C3.56359 18.0594 3.41211 17.6938 3.41211 17.3125V2.68753C3.41211 2.30628 3.56359 1.94065 3.83318 1.67107C4.10276 1.40148 4.46839 1.25 4.84964 1.25H11.9371L16.5809 5.89378V17.3125C16.5809 17.6905 16.432 18.0534 16.1665 18.3224C15.9009 18.5915 15.5401 18.7451 15.1621 18.75Z" fill="#E4EBF2"/>
<path fill-rule="evenodd" clip-rule="evenodd" d="M7.57506 10.8524C7.18611 10.8524 6.8131 10.999 6.53808 11.2601C6.26305 11.5212 6.10855 11.8753 6.10855 12.2445C6.10855 12.6137 6.26305 12.9678 6.53808 13.2289C6.67426 13.3581 6.83592 13.4607 7.01385 13.5307C7.19177 13.6006 7.38247 13.6366 7.57506 13.6366H8.78753C9.09365 13.6366 9.3418 13.8722 9.3418 14.1628C9.3418 14.4534 9.09365 14.6889 8.78753 14.6889H7.57506C7.2369 14.6889 6.90205 14.6257 6.58963 14.5029C6.2772 14.38 5.99333 14.2 5.75422 13.973C5.2713 13.5146 5 12.8928 5 12.2445C5 11.5962 5.2713 10.9744 5.75422 10.516C6.23713 10.0576 6.89211 9.80005 7.57506 9.80005H8.78753C9.09365 9.80005 9.3418 10.0356 9.3418 10.3262C9.3418 10.6168 9.09365 10.8524 8.78753 10.8524H7.57506ZM10.6582 10.3262C10.6582 10.0356 10.9064 9.80005 11.2125 9.80005H12.4249C12.7631 9.80005 13.098 9.86328 13.4104 9.98612C13.7228 10.109 14.0067 10.289 14.2458 10.516C14.4849 10.743 14.6746 11.0125 14.804 11.309C14.9334 11.6056 15 11.9235 15 12.2445C15 12.5655 14.9334 12.8834 14.804 13.1799C14.6746 13.4765 14.4849 13.746 14.2458 13.973C14.0067 14.2 13.7228 14.38 13.4104 14.5029C13.098 14.6257 12.7631 14.6889 12.4249 14.6889H11.2125C10.9064 14.6889 10.6582 14.4534 10.6582 14.1628C10.6582 13.8722 10.9064 13.6366 11.2125 13.6366H12.4249C12.6175 13.6366 12.8082 13.6006 12.9862 13.5307C13.1641 13.4607 13.3257 13.3581 13.4619 13.2289C13.5981 13.0996 13.7061 12.9461 13.7798 12.7772C13.8535 12.6083 13.8915 12.4273 13.8915 12.2445C13.8915 12.0617 13.8535 11.8806 13.7798 11.7117C13.7061 11.5428 13.5981 11.3894 13.4619 11.2601C13.3257 11.1308 13.1641 11.0283 12.9862 10.9583C12.8082 10.8884 12.6175 10.8524 12.4249 10.8524H11.2125C10.9064 10.8524 10.6582 10.6168 10.6582 10.3262Z" fill="#9BABC0"/>
<path fill-rule="evenodd" clip-rule="evenodd" d="M7.8291 12.2447C7.8291 11.9541 8.07726 11.7185 8.38337 11.7185H11.6166C11.9227 11.7185 12.1709 11.9541 12.1709 12.2447C12.1709 12.5353 11.9227 12.7708 11.6166 12.7708H8.38337C8.07726 12.7708 7.8291 12.5353 7.8291 12.2447Z" fill="#9BABC0"/>
<path d="M11.9375 1.25V4.86252C11.9375 5.13602 12.0462 5.39834 12.2395 5.59174C12.4329 5.78513 12.6953 5.89378 12.9688 5.89378H16.5813L11.9375 1.25Z" fill="#9BABC0"/>
</g>
<defs>
<clipPath id="clip0_18848_453">
<rect width="14" height="18" fill="white" transform="translate(3 1)"/>
</clipPath>
</defs>
</svg>
