<svg width="32" height="32" viewBox="0 0 32 32" fill="none" xmlns="http://www.w3.org/2000/svg">
<g clip-path="url(#clip0_4981_1993)">
<path d="M24.229 30H7.75903C7.45699 30 7.15796 29.9405 6.87891 29.825C6.59986 29.7094 6.34639 29.5399 6.13281 29.3263C5.91924 29.1127 5.74962 28.8592 5.63403 28.5802C5.51845 28.3012 5.45898 28.002 5.45898 27.7V4.30005C5.45898 3.99801 5.51845 3.69885 5.63403 3.4198C5.74962 3.14075 5.91924 2.88728 6.13281 2.67371C6.34639 2.46013 6.59986 2.29063 6.87891 2.17505C7.15796 2.05946 7.45699 2 7.75903 2H19.0991L26.5291 9.43005V27.7C26.5291 28.3099 26.2868 28.895 25.8555 29.3263C25.4241 29.7576 24.839 30 24.229 30Z" fill="#E4EBF2"/>
<path d="M19.1094 2V7.78003C19.1094 7.99755 19.1523 8.21285 19.2358 8.4137C19.3194 8.61454 19.4419 8.79697 19.5962 8.95032C19.7505 9.10367 19.9334 9.22492 20.1348 9.30725C20.3361 9.38958 20.5518 9.43137 20.7693 9.43005H26.5393L19.1094 2Z" fill="#9BABC0"/>
<path d="M18.2806 19.2402H13.7206C13.2622 19.2402 12.8906 19.6118 12.8906 20.0702V26.0102C12.8906 26.4686 13.2622 26.8402 13.7206 26.8402H18.2806C18.739 26.8402 19.1106 26.4686 19.1106 26.0102V20.0702C19.1106 19.6118 18.739 19.2402 18.2806 19.2402Z" fill="#9BABC0"/>
<path d="M16.7194 15.3896H15.2794C15.1855 15.3896 15.1094 15.4658 15.1094 15.5596V17.7796C15.1094 17.8735 15.1855 17.9496 15.2794 17.9496H16.7194C16.8133 17.9496 16.8894 17.8735 16.8894 17.7796V15.5596C16.8894 15.4658 16.8133 15.3896 16.7194 15.3896Z" fill="#9BABC0"/>
<path d="M16.7194 11.54H15.2794C15.1855 11.54 15.1094 11.6162 15.1094 11.71V13.93C15.1094 14.0239 15.1855 14.1 15.2794 14.1H16.7194C16.8133 14.1 16.8894 14.0239 16.8894 13.93V11.71C16.8894 11.6162 16.8133 11.54 16.7194 11.54Z" fill="#9BABC0"/>
</g>
<defs>
<clipPath id="clip0_4981_1993">
<rect width="22" height="28" fill="white" transform="translate(5 2)"/>
</clipPath>
</defs>
</svg>
