<svg width="20" height="20" viewBox="0 0 20 20" fill="none" xmlns="http://www.w3.org/2000/svg">
<g clip-path="url(#clip0_4981_1601)">
<path d="M15.144 18.7497H4.85648C4.47523 18.7497 4.1096 18.5982 3.84001 18.3287C3.57043 18.0591 3.41895 17.6935 3.41895 17.3122V2.6997C3.41895 2.31845 3.57043 1.95282 3.84001 1.68324C4.1096 1.41365 4.47523 1.26221 4.85648 1.26221H11.9377L16.5815 5.90595V17.3247C16.5782 17.7038 16.4252 18.0662 16.156 18.3331C15.8868 18.6 15.523 18.7497 15.144 18.7497Z" fill="#DAF9F9"/>
<path d="M11.9375 1.25V4.86252C11.9375 4.99847 11.9644 5.13307 12.0166 5.2586C12.0688 5.38412 12.1453 5.49807 12.2418 5.59391C12.3382 5.68975 12.4526 5.76561 12.5784 5.81707C12.7043 5.86853 12.8391 5.89457 12.975 5.89375H16.5813L11.9375 1.25Z" fill="#57CBC8"/>
<path fill-rule="evenodd" clip-rule="evenodd" d="M13.2514 10.3697V9.37276H10.6801V8H9.59261V9.37276H7V10.3697H13.2514ZM12.5285 13.0071C12.5285 14.1791 11.5144 15.0009 10.1354 15.0009C8.75433 15.0009 7.74023 14.1791 7.74023 13.0071C7.74023 11.8458 8.75433 11.0254 10.1354 11.0254C11.5151 11.0254 12.5292 11.8458 12.5292 13.0071H12.5285ZM11.4198 13.0078C11.4198 12.4097 10.8654 12.0352 10.1342 12.0352C9.40231 12.0352 8.83789 12.4097 8.83789 13.0078C8.83789 13.6174 9.40231 13.9933 10.1342 13.9933C10.8654 13.9933 11.4198 13.6174 11.4198 13.0078Z" fill="#57CBC8"/>
</g>
<defs>
<clipPath id="clip0_4981_1601">
<rect width="14" height="18" fill="white" transform="translate(3 1)"/>
</clipPath>
</defs>
</svg>
