<svg width="40" height="40" viewBox="0 0 40 40" fill="none" xmlns="http://www.w3.org/2000/svg">
<g clip-path="url(#clip0_4981_2221)">
<path d="M30.3253 37.5H9.70026C8.93776 37.5 8.20649 37.1971 7.66733 36.6579C7.12816 36.1188 6.8252 35.3875 6.8252 34.625V5.37506C6.8252 4.61256 7.12816 3.8813 7.66733 3.34213C8.20649 2.80297 8.93776 2.5 9.70026 2.5H23.8752L33.1628 11.7876V34.625C33.1628 35.3811 32.865 36.1067 32.3339 36.6448C31.8028 37.1829 31.0812 37.4901 30.3253 37.5Z" fill="#E4EBF2"/>
<path d="M23.875 2.5V9.72504C23.875 10.272 24.0923 10.7967 24.4791 11.1835C24.8659 11.5703 25.3905 11.7876 25.9375 11.7876H33.1626L23.875 2.5Z" fill="#9BABC0"/>
<path d="M11.863 24.325C11.8518 24.6576 11.907 24.9891 12.0255 25.3C12.105 25.5443 12.2577 25.7582 12.463 25.9125C12.6735 26.054 12.922 26.1281 13.1756 26.125C13.3934 26.1303 13.6089 26.0786 13.8006 25.975C13.9765 25.8764 14.1198 25.7287 14.213 25.55C14.3177 25.362 14.3776 25.1524 14.3881 24.9375H15.9631V25.1375C15.9621 25.5818 15.8317 26.0161 15.588 26.3875C15.333 26.7457 14.9882 27.0302 14.5881 27.2125C14.1048 27.4238 13.5805 27.5256 13.0532 27.5105C12.5259 27.4954 12.0085 27.3637 11.538 27.125C11.0962 26.8702 10.743 26.4863 10.5256 26.025C10.2776 25.4935 10.1577 24.9112 10.1756 24.325V23.5625C10.1577 22.9763 10.2776 22.394 10.5256 21.8625C10.743 21.4012 11.0962 21.0173 11.538 20.7625C12.0352 20.49 12.5965 20.3562 13.1631 20.375C13.5402 20.3693 13.9159 20.4242 14.2756 20.5375C14.5961 20.6418 14.8932 20.8073 15.1505 21.025C15.4046 21.2404 15.6089 21.5085 15.7491 21.8107C15.8894 22.1128 15.9625 22.4419 15.9631 22.775V22.9625H14.3881C14.376 22.7439 14.3163 22.5306 14.213 22.3375C14.12 22.1554 13.9769 22.0036 13.8006 21.9C13.6101 21.792 13.3946 21.736 13.1756 21.7375C12.9255 21.7311 12.6799 21.8057 12.4755 21.95C12.2635 22.1058 12.106 22.3245 12.0255 22.575C11.9054 22.8898 11.8501 23.2258 11.863 23.5625V24.325Z" fill="#9BABC0"/>
<path d="M16.6377 27.3749L18.8626 20.4874H20.8751L23.0876 27.3749H21.3252L20.8751 25.775H18.7376L18.3001 27.3749H16.6377ZM19.7876 21.9624L19.0501 24.5875H20.5751L19.8626 21.9624H19.7876Z" fill="#9BABC0"/>
<path d="M26.7627 20.4875C27.3752 20.4631 27.9833 20.6011 28.5253 20.8875C28.9959 21.1792 29.3564 21.6188 29.5502 22.1375C29.7854 22.7163 29.8962 23.3381 29.8752 23.9625C29.8935 24.5949 29.7829 25.2243 29.5502 25.8125C29.3564 26.3312 28.9959 26.7709 28.5253 27.0625C27.9871 27.3611 27.3779 27.508 26.7627 27.4876H24.0752V20.4875H26.7627ZM25.7251 26.05H26.5001C26.76 26.0586 27.0192 26.0162 27.2628 25.9251C27.4704 25.8412 27.6517 25.703 27.7877 25.525C27.9266 25.324 28.0282 25.0995 28.0876 24.8625C28.152 24.5585 28.1814 24.2482 28.1752 23.9375C28.1871 23.5354 28.1322 23.1341 28.0127 22.75C27.9128 22.4584 27.7194 22.208 27.4626 22.0375C27.1722 21.8652 26.8374 21.7825 26.5001 21.8H25.7251V26.05Z" fill="#9BABC0"/>
</g>
<defs>
<clipPath id="clip0_4981_2221">
<rect width="28" height="36" fill="white" transform="translate(6 2)"/>
</clipPath>
</defs>
</svg>
