<svg width="40" height="40" viewBox="0 0 40 40" fill="none" xmlns="http://www.w3.org/2000/svg">
<g clip-path="url(#clip0_4981_2193)">
<path d="M30.3004 37.5H9.71295C8.95045 37.5 8.21919 37.1971 7.68002 36.6579C7.14086 36.1188 6.83789 35.3875 6.83789 34.625V5.37498C6.83789 4.61249 7.14086 3.88122 7.68002 3.34206C8.21919 2.80289 8.95045 2.5 9.71295 2.5H23.8879L33.1755 11.7875V34.625C33.1755 35.3875 32.8725 36.1188 32.3333 36.6579C31.7942 37.1971 31.0629 37.5 30.3004 37.5Z" fill="#E4EBF2"/>
<path d="M23.8867 2.5V9.72496C23.8867 10.272 24.104 10.7966 24.4908 11.1834C24.8776 11.5702 25.4022 11.7875 25.9492 11.7875H33.1743L23.8867 2.5Z" fill="#9BABC0"/>
<path d="M15.4739 19.087V27.437C15.4823 27.7043 15.5607 27.9647 15.7015 28.192C15.8423 28.4194 16.0405 28.6057 16.276 28.7324C16.5116 28.859 16.7762 28.9214 17.0435 28.9135C17.3108 28.9055 17.5713 28.8275 17.7989 28.687L24.4738 24.512C24.6906 24.3744 24.8692 24.1842 24.9929 23.9591C25.1166 23.734 25.1815 23.4813 25.1815 23.2245C25.1815 22.9676 25.1166 22.715 24.9929 22.4899C24.8692 22.2648 24.6906 22.0747 24.4738 21.937L17.7989 17.762C17.5659 17.6184 17.2986 17.5401 17.0249 17.5354C16.7513 17.5307 16.4813 17.5997 16.2435 17.7352C16.0057 17.8707 15.8087 18.0677 15.6733 18.3056C15.5379 18.5434 15.4691 18.8133 15.4739 19.087Z" fill="#9BABC0"/>
</g>
<defs>
<clipPath id="clip0_4981_2193">
<rect width="28" height="36" fill="white" transform="translate(6 2)"/>
</clipPath>
</defs>
</svg>
