<svg width="48" height="48" viewBox="0 0 48 48" fill="none" xmlns="http://www.w3.org/2000/svg">
<g clip-path="url(#clip0_4981_2425)">
<path d="M36.3464 45H11.6415C11.1884 45 10.7395 44.9108 10.3209 44.7374C9.90235 44.564 9.52214 44.31 9.20178 43.9896C8.88142 43.6693 8.62736 43.2889 8.45398 42.8703C8.2806 42.4517 8.19141 42.0032 8.19141 41.5501V6.45007C8.19141 5.99701 8.2806 5.54827 8.45398 5.1297C8.62736 4.71113 8.88142 4.33092 9.20178 4.01056C9.52214 3.6902 9.90235 3.43595 10.3209 3.26257C10.7395 3.08919 11.1884 3 11.6415 3H28.6512L39.7961 14.1451V41.5501C39.7961 42.4651 39.4328 43.3426 38.7858 43.9896C38.1388 44.6366 37.2614 45 36.3464 45Z" fill="#E4EBF2"/>
<path d="M34.2139 22.0503H13.7989C13.2439 22.0503 12.7939 22.5002 12.7939 23.0553V23.2803C12.7939 23.8353 13.2439 24.2853 13.7989 24.2853H34.2139C34.769 24.2853 35.2189 23.8353 35.2189 23.2803V23.0553C35.2189 22.5002 34.769 22.0503 34.2139 22.0503Z" fill="#9BABC0"/>
<path d="M34.2139 28.0049H13.7989C13.2439 28.0049 12.7939 28.4548 12.7939 29.0099V29.2349C12.7939 29.7899 13.2439 30.2399 13.7989 30.2399H34.2139C34.769 30.2399 35.2189 29.7899 35.2189 29.2349V29.0099C35.2189 28.4548 34.769 28.0049 34.2139 28.0049Z" fill="#9BABC0"/>
<path d="M22.9956 33.9449H13.7706C13.2156 33.9449 12.7656 34.3949 12.7656 34.9499V35.1749C12.7656 35.73 13.2156 36.1799 13.7706 36.1799H22.9956C23.5507 36.1799 24.0006 35.73 24.0006 35.1749V34.9499C24.0006 34.3949 23.5507 33.9449 22.9956 33.9449Z" fill="#9BABC0"/>
<path d="M28.6641 3V11.67C28.6641 12.3265 28.925 12.956 29.3892 13.4202C29.8533 13.8843 30.4829 14.1451 31.1393 14.1451H39.809L28.6641 3Z" fill="#9BABC0"/>
</g>
<defs>
<clipPath id="clip0_4981_2425">
<rect width="32" height="42" fill="white" transform="translate(8 3)"/>
</clipPath>
</defs>
</svg>
