<svg width="40" height="40" viewBox="0 0 40 40" fill="none" xmlns="http://www.w3.org/2000/svg">
<g clip-path="url(#clip0_4981_2168)">
<path d="M30.3023 37.5H9.71483C8.95233 37.5 8.22107 37.1971 7.6819 36.6579C7.14273 36.1188 6.83984 35.3875 6.83984 34.625V5.37506C6.83984 4.61256 7.14273 3.8813 7.6819 3.34213C8.22107 2.80297 8.95233 2.5 9.71483 2.5H23.8523L33.1398 11.7876V34.625C33.1399 35.3811 32.8421 36.1067 32.311 36.6448C31.78 37.1829 31.0583 37.4901 30.3023 37.5Z" fill="#FCE8ED"/>
<path d="M27.7523 24.9623C26.9206 24.31 25.8646 24.0134 24.8149 24.1373C24.0151 24.1422 23.2168 24.209 22.4273 24.3373C21.9137 23.8424 21.4452 23.3028 21.0273 22.7248C20.7165 22.2858 20.4286 21.831 20.1648 21.3623C20.6018 20.122 20.8585 18.8255 20.9273 17.5123C20.9273 16.3498 20.4774 15.1123 19.1899 15.1123C18.9738 15.1158 18.7624 15.1752 18.5762 15.2847C18.3899 15.3943 18.2353 15.5502 18.1273 15.7373C17.5648 16.6873 17.7898 18.6623 18.6898 20.6623C18.3773 21.5873 18.0398 22.4998 17.6148 23.4998C17.2488 24.3575 16.8313 25.1924 16.3648 25.9998C13.7398 27.0623 12.1149 28.2498 11.9274 29.2748C11.894 29.4768 11.9107 29.6839 11.9761 29.8779C12.0415 30.0718 12.1535 30.2468 12.3023 30.3873C12.6205 30.6542 13.0247 30.7963 13.4398 30.7873C15.1398 30.7873 16.8398 28.4123 17.9773 26.3873C18.6398 26.1623 19.3149 25.9498 19.9774 25.7748C20.6399 25.5998 21.4273 25.4248 22.1023 25.2998C23.2345 26.4052 24.7341 27.0548 26.3148 27.1248C27.4023 27.1248 27.8148 26.6623 27.9648 26.2748C28.0457 26.0563 28.0686 25.8206 28.0313 25.5906C27.9941 25.3606 27.898 25.1441 27.7523 24.9623ZM12.9648 29.7248C12.9239 29.693 12.8929 29.6504 12.8752 29.6017C12.8576 29.5531 12.854 29.5004 12.8649 29.4498C12.9524 28.9998 13.8274 28.1998 15.5899 27.3623C14.3024 29.3373 13.2523 29.9998 12.9648 29.7248ZM18.9148 16.1998C18.9391 16.15 18.9763 16.1075 19.0224 16.0767C19.0685 16.046 19.122 16.028 19.1773 16.0248C19.4773 16.0248 19.5398 16.4498 19.5398 16.7998C19.5015 17.6474 19.3588 18.4871 19.1149 19.2998C18.6802 18.3235 18.6092 17.2239 18.9148 16.1998ZM19.7898 24.9498C19.4023 25.0498 19.0148 25.1498 18.6273 25.2748C18.8398 24.8623 19.0274 24.4498 19.1899 24.0248C19.3524 23.5998 19.6023 23.0123 19.7773 22.5123C19.9398 22.7748 20.1149 23.0248 20.2899 23.2623C20.6119 23.7017 20.9626 24.1193 21.3398 24.5123C20.8398 24.6498 20.3148 24.7248 19.7898 24.9123V24.9498ZM26.4649 25.7748C26.4024 26.0748 26.0524 26.1873 25.7649 26.1873H25.4148C24.6713 25.9908 23.9716 25.6558 23.3523 25.1998C24.1818 25.0873 25.0228 25.0873 25.8523 25.1998C26.5523 25.2623 26.4774 25.6248 26.4649 25.7373V25.7748Z" fill="#E9648A"/>
<path d="M23.8523 2.5L23.8516 9.72504C23.8516 10.272 24.0689 10.7967 24.4557 11.1835C24.8425 11.5703 25.3671 11.7876 25.9141 11.7876H33.1398L23.8523 2.5Z" fill="#E9648A"/>
</g>
<defs>
<clipPath id="clip0_4981_2168">
<rect width="28" height="36" fill="white" transform="translate(6 2)"/>
</clipPath>
</defs>
</svg>
