<svg width="24" height="24" viewBox="0 0 24 24" fill="none" xmlns="http://www.w3.org/2000/svg">
<g clip-path="url(#clip0_4981_1709)">
<mask id="mask0_4981_1709" style="mask-type:luminance" maskUnits="userSpaceOnUse" x="1" y="2" width="22" height="8">
<path fill-rule="evenodd" clip-rule="evenodd" d="M1.71484 2.57129H22.286V9.80343H1.71484V2.57129Z" fill="white"/>
</mask>
<g mask="url(#mask0_4981_1709)">
<path fill-rule="evenodd" clip-rule="evenodd" d="M21.1427 5.58468H13.045C12.7421 5.58468 12.4513 5.4574 12.2371 5.23175L10.0491 2.92422C9.83495 2.69857 9.54414 2.57129 9.24118 2.57129H2.85749C2.22632 2.57129 1.71484 3.11129 1.71484 3.77665V9.80343H22.2863V6.79004C22.2863 6.12468 21.7748 5.58468 21.1427 5.58468Z" fill="#F6C243"/>
</g>
<path fill-rule="evenodd" clip-rule="evenodd" d="M1.71484 20.2287C1.71484 20.8911 2.22632 21.4287 2.85843 21.4287H21.1427C21.7748 21.4287 22.2863 20.8911 22.2863 20.2287V9.42871H1.71484V20.2287Z" fill="#FDF3D9"/>
<path fill-rule="evenodd" clip-rule="evenodd" d="M13.9219 14.0972C13.9219 15.0709 14.7113 15.8603 15.6851 15.8603C16.6588 15.8603 17.4482 15.0709 17.4482 14.0972C17.4482 13.1234 16.6588 12.334 15.6851 12.334C14.7113 12.334 13.9219 13.1234 13.9219 14.0972ZM18.8592 18.3296V19.0349C18.8592 19.2296 18.7013 19.3875 18.5065 19.3875H12.8644C12.6696 19.3875 12.5117 19.2296 12.5117 19.0349V18.3296C12.5117 17.3558 13.3011 16.5664 14.2749 16.5664H17.096C18.0698 16.5664 18.8592 17.3558 18.8592 18.3296Z" fill="#F6C243"/>
<mask id="mask1_4981_1709" style="mask-type:luminance" maskUnits="userSpaceOnUse" x="12" y="12" width="7" height="8">
<path fill-rule="evenodd" clip-rule="evenodd" d="M13.9219 14.0972C13.9219 15.0709 14.7113 15.8603 15.6851 15.8603C16.6588 15.8603 17.4482 15.0709 17.4482 14.0972C17.4482 13.1234 16.6588 12.334 15.6851 12.334C14.7113 12.334 13.9219 13.1234 13.9219 14.0972ZM18.8592 18.3296V19.0349C18.8592 19.2296 18.7013 19.3875 18.5065 19.3875H12.8644C12.6696 19.3875 12.5117 19.2296 12.5117 19.0349V18.3296C12.5117 17.3558 13.3011 16.5664 14.2749 16.5664H17.096C18.0698 16.5664 18.8592 17.3558 18.8592 18.3296Z" fill="white"/>
</mask>
<g mask="url(#mask1_4981_1709)">
</g>
<path fill-rule="evenodd" clip-rule="evenodd" d="M6.55469 14.0962C6.55469 15.07 7.34409 15.8594 8.31787 15.8594C9.29165 15.8594 10.0811 15.07 10.0811 14.0962C10.0811 13.1224 9.29165 12.333 8.31787 12.333C7.34409 12.333 6.55469 13.1224 6.55469 14.0962ZM11.492 18.3286V19.0339C11.492 19.2286 11.3341 19.3865 11.1394 19.3865H5.49717C5.30241 19.3865 5.14453 19.2286 5.14453 19.0339V18.3286C5.14453 17.3548 5.93394 16.5654 6.90771 16.5654H9.72881C10.7026 16.5654 11.492 17.3548 11.492 18.3286Z" fill="#F6C243"/>
<mask id="mask2_4981_1709" style="mask-type:luminance" maskUnits="userSpaceOnUse" x="5" y="12" width="7" height="8">
<path fill-rule="evenodd" clip-rule="evenodd" d="M6.55469 14.0962C6.55469 15.07 7.34409 15.8594 8.31787 15.8594C9.29165 15.8594 10.0811 15.07 10.0811 14.0962C10.0811 13.1224 9.29165 12.333 8.31787 12.333C7.34409 12.333 6.55469 13.1224 6.55469 14.0962ZM11.492 18.3286V19.0339C11.492 19.2286 11.3341 19.3865 11.1394 19.3865H5.49717C5.30241 19.3865 5.14453 19.2286 5.14453 19.0339V18.3286C5.14453 17.3548 5.93394 16.5654 6.90771 16.5654H9.72881C10.7026 16.5654 11.492 17.3548 11.492 18.3286Z" fill="white"/>
</mask>
<g mask="url(#mask2_4981_1709)">
</g>
</g>
<defs>
<clipPath id="clip0_4981_1709">
<rect width="22" height="20" fill="white" transform="translate(1 2)"/>
</clipPath>
</defs>
</svg>
