<svg width="20" height="20" viewBox="0 0 20 20" fill="none" xmlns="http://www.w3.org/2000/svg">
<g clip-path="url(#clip0_4981_1597)">
<path d="M15.1501 18.725H4.8564C4.47515 18.725 4.10952 18.5735 3.83994 18.3039C3.57035 18.0344 3.41895 17.6687 3.41895 17.2875V2.66247C3.41895 2.28122 3.57035 1.91559 3.83994 1.646C4.10952 1.37642 4.47515 1.22498 4.8564 1.22498H11.9439L16.5877 5.86872V17.2875C16.5877 17.6687 16.4362 18.0344 16.1666 18.3039C15.897 18.5735 15.5314 18.725 15.1501 18.725Z" fill="#E4EBF2"/>
<path d="M11.9434 1.22498V4.83749C11.9434 5.111 12.052 5.37328 12.2454 5.56667C12.4388 5.76007 12.7011 5.86872 12.9746 5.86872H16.5871L11.9434 1.22498Z" fill="#9BABC0"/>
<path d="M14.2557 13.8001L12.1683 10.4564C12.0994 10.348 12.0043 10.2587 11.8918 10.1968C11.7792 10.1349 11.6529 10.1025 11.5245 10.1025C11.3961 10.1025 11.2698 10.1349 11.1572 10.1968C11.0447 10.2587 10.9496 10.348 10.8807 10.4564L9.26825 13.0439L8.30573 11.5126C8.25326 11.43 8.18077 11.362 8.09501 11.3149C8.00924 11.2678 7.91295 11.2431 7.81508 11.2431C7.71722 11.2431 7.62093 11.2678 7.53516 11.3149C7.44939 11.362 7.37699 11.43 7.32451 11.5126L5.72448 14.0689C5.66609 14.1554 5.63205 14.256 5.62598 14.3602C5.61992 14.4644 5.64204 14.5684 5.68999 14.6611C5.73795 14.7538 5.80996 14.8319 5.8985 14.8871C5.98705 14.9424 6.08888 14.9728 6.19323 14.9751H13.5869C13.727 14.9825 13.8665 14.9508 13.9896 14.8835C14.1126 14.8162 14.2146 14.7159 14.284 14.594C14.3534 14.4721 14.3874 14.3333 14.3825 14.1931C14.3775 14.0529 14.3336 13.9168 14.2557 13.8001Z" fill="#9BABC0"/>
<path d="M7.73691 10.1063C8.23397 10.1063 8.63691 9.70333 8.63691 9.20627C8.63691 8.70922 8.23397 8.30627 7.73691 8.30627C7.23986 8.30627 6.83691 8.70922 6.83691 9.20627C6.83691 9.70333 7.23986 10.1063 7.73691 10.1063Z" fill="#9BABC0"/>
</g>
<defs>
<clipPath id="clip0_4981_1597">
<rect width="14" height="18" fill="white" transform="translate(3 1)"/>
</clipPath>
</defs>
</svg>
