<svg width="40" height="40" viewBox="0 0 40 40" fill="none" xmlns="http://www.w3.org/2000/svg">
<g clip-path="url(#clip0_4981_2162)">
<path d="M30.2865 37.5005H9.68651C8.92401 37.5005 8.19275 37.1977 7.65358 36.6585C7.11441 36.1193 6.81152 35.3881 6.81152 34.6256V5.41307C6.81152 4.65057 7.11441 3.91931 7.65358 3.38014C8.19275 2.84098 8.92401 2.53809 9.68651 2.53809H23.849L33.1365 11.8256V34.6631C33.1267 35.4148 32.8229 36.1327 32.2902 36.6631C31.7575 37.1935 31.0382 37.4941 30.2865 37.5005Z" fill="#FEEAE7"/>
<path d="M21.6367 23.5002H26.5367C26.5567 24.8403 26.1839 26.157 25.4641 27.2877C24.7444 28.4184 23.7093 29.3136 22.4867 29.8627C21.5358 30.3038 20.498 30.5258 19.4499 30.5121C18.4018 30.4985 17.3701 30.2496 16.431 29.7839C15.4919 29.3182 14.6694 28.6475 14.0242 27.8214C13.379 26.9953 12.9276 26.0348 12.7032 25.0109C12.4789 23.987 12.4873 22.9257 12.728 21.9055C12.9687 20.8853 13.4354 19.9321 14.0938 19.1164C14.7521 18.3007 15.5852 17.6433 16.5316 17.1927C17.478 16.742 18.5135 16.5096 19.5617 16.5127V21.4252C19.5584 21.6986 19.6097 21.97 19.7128 22.2233C19.8159 22.4765 19.9687 22.7066 20.162 22.9C20.3554 23.0933 20.5854 23.246 20.8387 23.3491C21.0919 23.4522 21.3633 23.5035 21.6367 23.5002Z" fill="#EF5E4B"/>
<path d="M20.8496 20.0127V15.5127C22.5892 15.5226 24.2545 16.2188 25.4835 17.4501C26.7124 18.6814 27.4055 20.3481 27.4121 22.0877H22.9121C22.364 22.0844 21.8394 21.8643 21.4529 21.4755C21.0665 21.0867 20.8496 20.5608 20.8496 20.0127Z" fill="#EF5E4B"/>
<path d="M23.875 2.5V9.72504C23.875 10.272 24.0923 10.7966 24.4791 11.1834C24.8659 11.5702 25.3905 11.7875 25.9375 11.7875H33.1501L23.875 2.5Z" fill="#EF5E4B"/>
</g>
<defs>
<clipPath id="clip0_4981_2162">
<rect width="28" height="36" fill="white" transform="translate(6 2)"/>
</clipPath>
</defs>
</svg>
