<svg width="32" height="32" viewBox="0 0 32 32" fill="none" xmlns="http://www.w3.org/2000/svg">
<g clip-path="url(#clip0_4981_2005)">
<path d="M24.231 30H7.76099C7.45895 30 7.15966 29.9405 6.88062 29.825C6.60157 29.7094 6.3481 29.54 6.13452 29.3264C5.92095 29.1128 5.75157 28.8592 5.63599 28.5802C5.5204 28.3012 5.46094 28.0021 5.46094 27.7001V4.30005C5.46094 3.99801 5.5204 3.69885 5.63599 3.4198C5.75157 3.14075 5.92095 2.88728 6.13452 2.67371C6.3481 2.46013 6.60157 2.29063 6.88062 2.17505C7.15966 2.05946 7.45895 2 7.76099 2H19.1008L26.5308 9.43005V27.7001C26.5308 28.3101 26.2885 28.8951 25.8572 29.3264C25.4258 29.7577 24.841 30 24.231 30Z" fill="#E4EBF2"/>
<path d="M22.8093 14.7002H9.1993C8.82927 14.7002 8.5293 15.0002 8.5293 15.3702V15.5202C8.5293 15.8902 8.82927 16.1902 9.1993 16.1902H22.8093C23.1793 16.1902 23.4793 15.8902 23.4793 15.5202V15.3702C23.4793 15.0002 23.1793 14.7002 22.8093 14.7002Z" fill="#9BABC0"/>
<path d="M22.8093 18.6699H9.1993C8.82927 18.6699 8.5293 18.9699 8.5293 19.3399V19.4899C8.5293 19.86 8.82927 20.1599 9.1993 20.1599H22.8093C23.1793 20.1599 23.4793 19.86 23.4793 19.4899V19.3399C23.4793 18.9699 23.1793 18.6699 22.8093 18.6699Z" fill="#9BABC0"/>
<path d="M15.3298 22.63H9.17977C8.80973 22.63 8.50977 22.93 8.50977 23.3V23.45C8.50977 23.82 8.80973 24.12 9.17977 24.12H15.3298C15.6998 24.12 15.9998 23.82 15.9998 23.45V23.3C15.9998 22.93 15.6998 22.63 15.3298 22.63Z" fill="#9BABC0"/>
<path d="M19.1094 2V7.78003C19.1094 8.21764 19.2833 8.63734 19.5928 8.94678C19.9022 9.25621 20.3219 9.43005 20.7595 9.43005H26.5393L19.1094 2Z" fill="#9BABC0"/>
</g>
<defs>
<clipPath id="clip0_4981_2005">
<rect width="22" height="28" fill="white" transform="translate(5 2)"/>
</clipPath>
</defs>
</svg>
