<svg width="32" height="32" viewBox="0 0 32 32" fill="none" xmlns="http://www.w3.org/2000/svg">
<g clip-path="url(#clip0_4981_1919)">
<mask id="mask0_4981_1919" style="mask-type:luminance" maskUnits="userSpaceOnUse" x="2" y="3" width="28" height="11">
<path fill-rule="evenodd" clip-rule="evenodd" d="M2.28711 3.42871H29.7153V13.0716H2.28711V3.42871Z" fill="white"/>
</mask>
<g mask="url(#mask0_4981_1919)">
<path fill-rule="evenodd" clip-rule="evenodd" d="M28.1909 7.44657H17.394C16.9901 7.44657 16.6023 7.27685 16.3168 6.976L13.3994 3.89928C13.1139 3.59843 12.7262 3.42871 12.3222 3.42871H3.81064C2.96908 3.42871 2.28711 4.14871 2.28711 5.03585V13.0716H29.7157V9.05371C29.7157 8.16657 29.0337 7.44657 28.1909 7.44657Z" fill="#F6C243"/>
</g>
<path fill-rule="evenodd" clip-rule="evenodd" d="M2.28711 26.9723C2.28711 27.8555 2.96908 28.5723 3.81189 28.5723H28.1909C29.0337 28.5723 29.7157 27.8555 29.7157 26.9723V12.5723H2.28711V26.9723Z" fill="#FDF3D9"/>
<path fill-rule="evenodd" clip-rule="evenodd" d="M18.5625 18.7962C18.5625 20.0946 19.615 21.1471 20.9134 21.1471C22.2118 21.1471 23.2643 20.0946 23.2643 18.7962C23.2643 17.4979 22.2118 16.4453 20.9134 16.4453C19.615 16.4453 18.5625 17.4979 18.5625 18.7962ZM25.1449 24.4398V25.3801C25.1449 25.6398 24.9344 25.8503 24.6747 25.8503H17.1518C16.8921 25.8503 16.6816 25.6398 16.6816 25.3801V24.4398C16.6816 23.1414 17.7342 22.0889 19.0326 22.0889H22.794C24.0924 22.0889 25.1449 23.1414 25.1449 24.4398Z" fill="#F6C243"/>
<mask id="mask1_4981_1919" style="mask-type:luminance" maskUnits="userSpaceOnUse" x="16" y="16" width="10" height="10">
<path fill-rule="evenodd" clip-rule="evenodd" d="M18.5625 18.7962C18.5625 20.0946 19.615 21.1471 20.9134 21.1471C22.2118 21.1471 23.2643 20.0946 23.2643 18.7962C23.2643 17.4979 22.2118 16.4453 20.9134 16.4453C19.615 16.4453 18.5625 17.4979 18.5625 18.7962ZM25.1449 24.4398V25.3801C25.1449 25.6398 24.9344 25.8503 24.6747 25.8503H17.1518C16.8921 25.8503 16.6816 25.6398 16.6816 25.3801V24.4398C16.6816 23.1414 17.7342 22.0889 19.0326 22.0889H22.794C24.0924 22.0889 25.1449 23.1414 25.1449 24.4398Z" fill="white"/>
</mask>
<g mask="url(#mask1_4981_1919)">
</g>
<path fill-rule="evenodd" clip-rule="evenodd" d="M8.74023 18.7952C8.74023 20.0936 9.79277 21.1462 11.0911 21.1462C12.3895 21.1462 13.4421 20.0936 13.4421 18.7952C13.4421 17.4969 12.3895 16.4443 11.0911 16.4443C9.79277 16.4443 8.74023 17.4969 8.74023 18.7952ZM15.3227 24.4388V25.3792C15.3227 25.6388 15.1121 25.8493 14.8525 25.8493H7.32956C7.06988 25.8493 6.85938 25.6388 6.85938 25.3792V24.4388C6.85938 23.1404 7.91191 22.0879 9.21029 22.0879H12.9717C14.2701 22.0879 15.3227 23.1404 15.3227 24.4388Z" fill="#F6C243"/>
<mask id="mask2_4981_1919" style="mask-type:luminance" maskUnits="userSpaceOnUse" x="6" y="16" width="10" height="10">
<path fill-rule="evenodd" clip-rule="evenodd" d="M8.74023 18.7952C8.74023 20.0936 9.79277 21.1462 11.0911 21.1462C12.3895 21.1462 13.4421 20.0936 13.4421 18.7952C13.4421 17.4969 12.3895 16.4443 11.0911 16.4443C9.79277 16.4443 8.74023 17.4969 8.74023 18.7952ZM15.3227 24.4388V25.3792C15.3227 25.6388 15.1121 25.8493 14.8525 25.8493H7.32956C7.06988 25.8493 6.85938 25.6388 6.85938 25.3792V24.4388C6.85938 23.1404 7.91191 22.0879 9.21029 22.0879H12.9717C14.2701 22.0879 15.3227 23.1404 15.3227 24.4388Z" fill="white"/>
</mask>
<g mask="url(#mask2_4981_1919)">
</g>
</g>
<defs>
<clipPath id="clip0_4981_1919">
<rect width="28" height="26" fill="white" transform="translate(2 3)"/>
</clipPath>
</defs>
</svg>
