<svg width="24" height="24" viewBox="0 0 24 24" fill="none" xmlns="http://www.w3.org/2000/svg">
<path d="M18.1732 22.5H5.82069C5.3632 22.5 4.92444 22.3183 4.60094 21.9948C4.27744 21.6713 4.0957 21.2325 4.0957 20.775V3.22499C4.0957 2.76749 4.27744 2.32873 4.60094 2.00523C4.92444 1.68173 5.3632 1.5 5.82069 1.5H14.3107L19.8832 7.07249V20.76C19.8852 20.9865 19.8425 21.2112 19.7576 21.4213C19.6728 21.6313 19.5474 21.8226 19.3886 21.9841C19.2298 22.1457 19.0407 22.2744 18.8322 22.3629C18.6237 22.4515 18.3997 22.498 18.1732 22.5Z" fill="#D9E7FF"/>
<path d="M17.1065 11.0254H6.89898C6.62146 11.0254 6.39648 11.2504 6.39648 11.5279V11.6404C6.39648 11.9179 6.62146 12.1429 6.89898 12.1429H17.1065C17.384 12.1429 17.609 11.9179 17.609 11.6404V11.5279C17.609 11.2504 17.384 11.0254 17.1065 11.0254Z" fill="#3E80F4"/>
<path d="M17.1065 14.0024H6.89898C6.62146 14.0024 6.39648 14.2274 6.39648 14.5049V14.6174C6.39648 14.895 6.62146 15.1199 6.89898 15.1199H17.1065C17.384 15.1199 17.609 14.895 17.609 14.6174V14.5049C17.609 14.2274 17.384 14.0024 17.1065 14.0024Z" fill="#3E80F4"/>
<path d="M11.4976 16.9725H6.88513C6.60761 16.9725 6.38263 17.1975 6.38263 17.475V17.5875C6.38263 17.8651 6.60761 18.09 6.88513 18.09H11.4976C11.7752 18.09 12.0001 17.8651 12.0001 17.5875V17.475C12.0001 17.1975 11.7752 16.9725 11.4976 16.9725Z" fill="#3E80F4"/>
<path d="M14.3105 1.5V5.83498C14.3105 5.99812 14.3428 6.15969 14.4054 6.31032C14.4681 6.46095 14.56 6.59768 14.6757 6.71269C14.7914 6.8277 14.9287 6.91869 15.0797 6.98044C15.2307 7.04219 15.3924 7.07348 15.5555 7.07249H19.883L14.3105 1.5Z" fill="#3E80F4"/>
</svg>
