<svg width="24" height="24" viewBox="0 0 24 24" fill="none" xmlns="http://www.w3.org/2000/svg">
<path d="M18.181 22.5H5.82855C5.37105 22.5 4.9323 22.3183 4.6088 21.9948C4.28529 21.6713 4.10352 21.2325 4.10352 20.775V3.22499C4.10352 2.76749 4.28529 2.32873 4.6088 2.00523C4.9323 1.68173 5.37105 1.5 5.82855 1.5H14.3335L19.9061 7.07249V20.775C19.9061 21.2325 19.7243 21.6713 19.4008 21.9948C19.0773 22.3183 18.6385 22.5 18.181 22.5Z" fill="#E4EBF2"/>
<path d="M14.332 1.5V5.83498C14.332 6.16318 14.4624 6.47796 14.6945 6.71004C14.9266 6.94211 15.2413 7.07249 15.5695 7.07249H19.9046L14.332 1.5Z" fill="#9BABC0"/>
<path d="M9.28432 11.4526V16.4626C9.28936 16.623 9.33645 16.7792 9.42092 16.9156C9.50539 17.052 9.6243 17.1638 9.76561 17.2398C9.90693 17.3158 10.0657 17.3533 10.2261 17.3485C10.3865 17.3437 10.5428 17.2969 10.6793 17.2126L14.6843 14.7076C14.8144 14.625 14.9215 14.5109 14.9957 14.3759C15.07 14.2408 15.1089 14.0892 15.1089 13.9351C15.1089 13.781 15.07 13.6294 14.9957 13.4943C14.9215 13.3593 14.8144 13.2452 14.6843 13.1626L10.6793 10.6576C10.5395 10.5714 10.3791 10.5244 10.215 10.5216C10.0508 10.5188 9.88879 10.5602 9.74611 10.6415C9.60344 10.7228 9.48524 10.841 9.40398 10.9837C9.32273 11.1264 9.28143 11.2884 9.28432 11.4526Z" fill="#9BABC0"/>
</svg>
