<svg width="32" height="32" viewBox="0 0 32 32" fill="none" xmlns="http://www.w3.org/2000/svg">
<g clip-path="url(#clip0_4981_1983)">
<path d="M24.2407 30H7.77075C7.16075 30 6.57574 29.7577 6.14441 29.3264C5.71308 28.895 5.4707 28.31 5.4707 27.7V4.29999C5.4707 3.68999 5.71308 3.10498 6.14441 2.67365C6.57574 2.24231 7.16075 2 7.77075 2H19.1107L26.5408 9.42999V27.7C26.5408 28.31 26.2984 28.895 25.8671 29.3264C25.4357 29.7577 24.8507 30 24.2407 30Z" fill="#E4EBF2"/>
<path d="M19.1094 2V7.77997C19.1094 8.21758 19.2832 8.63728 19.5927 8.94672C19.9021 9.25615 20.3218 9.42999 20.7594 9.42999H26.5394L19.1094 2Z" fill="#9BABC0"/>
<path d="M12.3791 15.2698V21.9498C12.3858 22.1637 12.4486 22.3719 12.5612 22.5538C12.6739 22.7357 12.8324 22.8848 13.0208 22.9861C13.2092 23.0874 13.421 23.1373 13.6348 23.131C13.8487 23.1246 14.057 23.0622 14.2391 22.9498L19.579 19.6098C19.7525 19.4997 19.8954 19.3475 19.9943 19.1675C20.0933 18.9874 20.1452 18.7852 20.1452 18.5798C20.1452 18.3743 20.0933 18.1722 19.9943 17.9921C19.8954 17.8121 19.7525 17.6599 19.579 17.5498L14.2391 14.2098C14.0527 14.0949 13.8389 14.0323 13.6199 14.0285C13.401 14.0247 13.1851 14.0799 12.9948 14.1884C12.8046 14.2968 12.647 14.4544 12.5386 14.6447C12.4303 14.8349 12.3752 15.0509 12.3791 15.2698Z" fill="#9BABC0"/>
</g>
<defs>
<clipPath id="clip0_4981_1983">
<rect width="22" height="28" fill="white" transform="translate(5 2)"/>
</clipPath>
</defs>
</svg>
