<svg width="32" height="32" viewBox="0 0 32 32" fill="none" xmlns="http://www.w3.org/2000/svg">
<g clip-path="url(#clip0_4981_1945)">
<path d="M24.231 30H7.76093C7.15093 30 6.56592 29.7577 6.13458 29.3264C5.70325 28.895 5.46094 28.31 5.46094 27.7V4.29999C5.46094 3.68999 5.70325 3.10498 6.13458 2.67365C6.56592 2.24231 7.15093 2 7.76093 2H19.0809L26.5109 9.42999V27.68C26.5136 27.982 26.4567 28.2816 26.3435 28.5617C26.2303 28.8418 26.0632 29.0968 25.8514 29.3122C25.6397 29.5276 25.3877 29.6993 25.1096 29.8173C24.8316 29.9353 24.533 29.9974 24.231 30Z" fill="#D9E7FF"/>
<path d="M22.8093 14.7002H9.1993C8.82927 14.7002 8.5293 15.0002 8.5293 15.3702V15.5202C8.5293 15.8902 8.82927 16.1902 9.1993 16.1902H22.8093C23.1793 16.1902 23.4793 15.8902 23.4793 15.5202V15.3702C23.4793 15.0002 23.1793 14.7002 22.8093 14.7002Z" fill="#3E80F4"/>
<path d="M22.8093 18.6699H9.1993C8.82927 18.6699 8.5293 18.9699 8.5293 19.3399V19.4899C8.5293 19.86 8.82927 20.1599 9.1993 20.1599H22.8093C23.1793 20.1599 23.4793 19.86 23.4793 19.4899V19.3399C23.4793 18.9699 23.1793 18.6699 22.8093 18.6699Z" fill="#3E80F4"/>
<path d="M15.3298 22.63H9.17977C8.80973 22.63 8.50977 22.93 8.50977 23.3V23.45C8.50977 23.82 8.80973 24.12 9.17977 24.12H15.3298C15.6998 24.12 15.9998 23.82 15.9998 23.45V23.3C15.9998 22.93 15.6998 22.63 15.3298 22.63Z" fill="#3E80F4"/>
<path d="M19.0801 2V7.77997C19.0801 7.99749 19.1231 8.21292 19.2066 8.41376C19.2901 8.6146 19.4126 8.79691 19.5669 8.95026C19.7212 9.1036 19.9042 9.22492 20.1056 9.30725C20.3069 9.38958 20.5225 9.43131 20.7401 9.42999H26.5101L19.0801 2Z" fill="#3E80F4"/>
</g>
<defs>
<clipPath id="clip0_4981_1945">
<rect width="22" height="28" fill="white" transform="translate(5 2)"/>
</clipPath>
</defs>
</svg>
