<svg width="40" height="40" viewBox="0 0 40 40" fill="none" xmlns="http://www.w3.org/2000/svg">
<g clip-path="url(#clip0_4981_2209)">
<path d="M30.2867 37.5H9.69928C9.32173 37.5 8.94793 37.4257 8.59912 37.2812C8.25031 37.1367 7.93347 36.925 7.6665 36.658C7.39954 36.3911 7.18782 36.0741 7.04333 35.7253C6.89885 35.3764 6.82422 35.0026 6.82422 34.6251V5.37506C6.82422 4.99751 6.89885 4.62371 7.04333 4.2749C7.18782 3.92609 7.39954 3.6091 7.6665 3.34213C7.93347 3.07516 8.25031 2.86345 8.59912 2.71896C8.94793 2.57448 9.32173 2.5 9.69928 2.5H23.8744L33.1618 11.7876V34.6251C33.1618 35.0026 33.0875 35.3764 32.943 35.7253C32.7985 36.0741 32.5868 36.3911 32.3198 36.658C32.0529 36.925 31.736 37.1367 31.3872 37.2812C31.0384 37.4257 30.6643 37.5 30.2867 37.5Z" fill="#E4EBF2"/>
<path d="M23.8868 2.5V9.71252C23.8851 9.98443 23.937 10.254 24.04 10.5057C24.1429 10.7574 24.2947 10.9862 24.4864 11.179C24.6781 11.3719 24.9058 11.5249 25.1569 11.6293C25.408 11.7338 25.6772 11.7876 25.9491 11.7876H33.1742L23.8868 2.5Z" fill="#9BABC0"/>
<path d="M13.1372 29.537V24.2871H11.3623V23.0371H16.4996V24.2871H14.7122V29.537H13.1372Z" fill="#9BABC0"/>
<path d="M21.0254 26.263L23.0255 29.538H21.2503L20.0003 27.388L18.7503 29.538H16.9629L18.9255 26.2505L16.9754 23.0005H18.8129L19.9878 25.2005H20.0629L21.2378 23.0005H23.0005L21.0254 26.263Z" fill="#9BABC0"/>
<path d="M25.2884 29.537V24.2871H23.501V23.0371H28.6386V24.2871H26.8634V29.537H25.2884Z" fill="#9BABC0"/>
</g>
<defs>
<clipPath id="clip0_4981_2209">
<rect width="28" height="36" fill="white" transform="translate(6 2)"/>
</clipPath>
</defs>
</svg>
