<svg width="48" height="48" viewBox="0 0 48 48" fill="none" xmlns="http://www.w3.org/2000/svg">
<g clip-path="url(#clip0_20832_7584)">
<path d="M36.3897 45H11.6397C10.7247 45 9.8472 44.6365 9.2002 43.9895C8.55319 43.3425 8.18964 42.465 8.18964 41.55V6.45007C8.18964 5.53508 8.55319 4.65756 9.2002 4.01056C9.8472 3.36356 10.7247 3 11.6397 3H28.6497L39.7947 14.1451V41.55C39.7948 42.4573 39.4374 43.3281 38.8001 43.9738C38.1628 44.6195 37.2969 44.9882 36.3897 45Z" fill="#E4EBF2"/>
<path d="M22.252 30.5469C22.2715 28.125 22.916 27.3633 24.0879 26.6406C24.9277 26.0938 25.5723 25.4883 25.5723 24.5898C25.5723 23.6133 24.8105 22.9688 23.873 22.9688C22.9551 22.9688 22.1152 23.5742 22.0762 24.7266H19.3027C19.3613 21.9727 21.3926 20.6641 23.8926 20.6641C26.6074 20.6641 28.541 22.0898 28.541 24.4922C28.541 26.0938 27.7207 27.1289 26.4316 27.8906C25.3379 28.5547 24.8496 29.1797 24.8301 30.5469V30.7617H22.252V30.5469ZM23.5996 35.1758C22.6816 35.1758 21.9395 34.4336 21.959 33.5352C21.9395 32.6367 22.6816 31.9141 23.5996 31.9141C24.459 31.9141 25.2207 32.6367 25.2207 33.5352C25.2207 34.4336 24.459 35.1758 23.5996 35.1758Z" fill="#9BABC0"/>
<path d="M28.6504 3V11.67C28.6504 12.3265 28.9112 12.956 29.3753 13.4202C29.8395 13.8843 30.469 14.1451 31.1254 14.1451H39.7955L28.6504 3Z" fill="#9BABC0"/>
</g>
<defs>
<clipPath id="clip0_20832_7584">
<rect width="32" height="42" fill="white" transform="translate(8 3)"/>
</clipPath>
</defs>
</svg>
