<svg width="48" height="48" viewBox="0 0 48 48" fill="none" xmlns="http://www.w3.org/2000/svg">
<g clip-path="url(#clip0_4981_2408)">
<path d="M36.3609 44.9399H11.6559C10.7409 44.9399 9.86343 44.5765 9.21643 43.9295C8.56943 43.2825 8.20605 42.405 8.20605 41.49V6.38992C8.20605 5.47493 8.56943 4.59741 9.21643 3.95041C9.86343 3.30341 10.7409 2.93994 11.6559 2.93994H28.6659L39.811 14.0849V41.49C39.811 42.405 39.4474 43.2825 38.8004 43.9295C38.1534 44.5765 37.2759 44.9399 36.3609 44.9399Z" fill="#E4EBF2"/>
<path d="M28.6641 2.93994V11.61C28.6641 12.2664 28.9248 12.8959 29.389 13.36C29.8531 13.8242 30.4827 14.0849 31.1391 14.0849H39.8091L28.6641 2.93994Z" fill="#9BABC0"/>
<path d="M34.2138 33.1203L29.2038 25.0953C29.0387 24.8351 28.8104 24.6208 28.5403 24.4723C28.2702 24.3239 27.967 24.2461 27.6588 24.2461C27.3506 24.2461 27.0474 24.3239 26.7773 24.4723C26.5072 24.6208 26.2789 24.8351 26.1137 25.0953L22.2438 31.3053L19.9338 27.6303C19.8078 27.4321 19.6339 27.2688 19.428 27.1557C19.2222 27.0426 18.9911 26.9833 18.7562 26.9833C18.5213 26.9833 18.2902 27.0426 18.0844 27.1557C17.8785 27.2688 17.7048 27.4321 17.5788 27.6303L13.7387 33.7653C13.5986 33.9729 13.5169 34.2145 13.5024 34.4646C13.4878 34.7147 13.5409 34.9641 13.656 35.1866C13.7711 35.4091 13.9439 35.5965 14.1564 35.7291C14.3689 35.8617 14.6133 35.9347 14.8637 35.9403H32.6087C32.9449 35.958 33.2795 35.8818 33.5749 35.7203C33.8703 35.5588 34.115 35.3182 34.2815 35.0256C34.4481 34.733 34.5299 34.3999 34.5179 34.0634C34.506 33.7269 34.4007 33.4003 34.2138 33.1203Z" fill="#9BABC0"/>
<path d="M18.5692 24.2551C19.7621 24.2551 20.7292 23.288 20.7292 22.0951C20.7292 20.9021 19.7621 19.9351 18.5692 19.9351C17.3762 19.9351 16.4092 20.9021 16.4092 22.0951C16.4092 23.288 17.3762 24.2551 18.5692 24.2551Z" fill="#9BABC0"/>
</g>
<defs>
<clipPath id="clip0_4981_2408">
<rect width="32" height="42" fill="white" transform="translate(8 3)"/>
</clipPath>
</defs>
</svg>
