<svg width="40" height="40" viewBox="0 0 40 40" fill="none" xmlns="http://www.w3.org/2000/svg">
<g clip-path="url(#clip0_4981_2203)">
<path d="M30.2867 37.5H9.69928C9.32173 37.5 8.94793 37.4257 8.59912 37.2812C8.25031 37.1367 7.93347 36.9248 7.6665 36.6579C7.39954 36.3909 7.18751 36.0741 7.04303 35.7253C6.89855 35.3764 6.82422 35.0025 6.82422 34.6249V5.37506C6.82422 4.99751 6.89855 4.62356 7.04303 4.27475C7.18751 3.92594 7.39954 3.6091 7.6665 3.34213C7.93347 3.07516 8.25031 2.86329 8.59912 2.71881C8.94793 2.57433 9.32173 2.5 9.69928 2.5H23.8744L33.1618 11.7876V34.6249C33.1618 35.3874 32.859 36.1187 32.3198 36.6579C31.7807 37.197 31.0492 37.5 30.2867 37.5Z" fill="#E4EBF2"/>
<path d="M23.8867 2.5V9.72504C23.8867 9.99694 23.9404 10.2661 24.0448 10.5171C24.1492 10.7682 24.3024 10.9962 24.4952 11.1879C24.6881 11.3796 24.9168 11.5312 25.1685 11.6341C25.4201 11.737 25.6897 11.7892 25.9616 11.7876H33.1741L23.8867 2.5Z" fill="#9BABC0"/>
<path d="M22.8508 24.0503H17.1508C16.5778 24.0503 16.1133 24.5148 16.1133 25.0878V32.5128C16.1133 33.0858 16.5778 33.5503 17.1508 33.5503H22.8508C23.4238 33.5503 23.8883 33.0858 23.8883 32.5128V25.0878C23.8883 24.5148 23.4238 24.0503 22.8508 24.0503Z" fill="#9BABC0"/>
<path d="M20.8992 19.2373H19.0992C18.9819 19.2373 18.8867 19.3324 18.8867 19.4498V22.2248C18.8867 22.3422 18.9819 22.4373 19.0992 22.4373H20.8992C21.0166 22.4373 21.1117 22.3422 21.1117 22.2248V19.4498C21.1117 19.3324 21.0166 19.2373 20.8992 19.2373Z" fill="#9BABC0"/>
<path d="M20.8992 14.4248H19.0992C18.9819 14.4248 18.8867 14.5199 18.8867 14.6373V17.4123C18.8867 17.5297 18.9819 17.6248 19.0992 17.6248H20.8992C21.0166 17.6248 21.1117 17.5297 21.1117 17.4123V14.6373C21.1117 14.5199 21.0166 14.4248 20.8992 14.4248Z" fill="#9BABC0"/>
</g>
<defs>
<clipPath id="clip0_4981_2203">
<rect width="28" height="36" fill="white" transform="translate(6 2)"/>
</clipPath>
</defs>
</svg>
