<svg width="48" height="48" viewBox="0 0 48 48" fill="none" xmlns="http://www.w3.org/2000/svg">
<path d="M36.3464 45H11.6414C10.7264 45 9.84887 44.6365 9.20187 43.9895C8.55487 43.3425 8.19141 42.465 8.19141 41.55V6.44998C8.19141 5.53498 8.55487 4.65747 9.20187 4.01047C9.84887 3.36347 10.7264 3 11.6414 3H28.6214L39.7664 14.145V41.52C39.7703 41.9731 39.685 42.4225 39.5153 42.8426C39.3455 43.2626 39.0947 43.6451 38.7772 43.9683C38.4596 44.2914 38.0815 44.5489 37.6644 44.7259C37.2474 44.9029 36.7995 44.9961 36.3464 45Z" fill="#D9E7FF"/>
<path d="M34.2139 22.0503H13.7989C13.2439 22.0503 12.7939 22.5002 12.7939 23.0553V23.2803C12.7939 23.8353 13.2439 24.2853 13.7989 24.2853H34.2139C34.769 24.2853 35.2189 23.8353 35.2189 23.2803V23.0553C35.2189 22.5002 34.769 22.0503 34.2139 22.0503Z" fill="#3E80F4"/>
<path d="M34.2139 28.0049H13.7989C13.2439 28.0049 12.7939 28.4548 12.7939 29.0099V29.2349C12.7939 29.7899 13.2439 30.2399 13.7989 30.2399H34.2139C34.769 30.2399 35.2189 29.7899 35.2189 29.2349V29.0099C35.2189 28.4548 34.769 28.0049 34.2139 28.0049Z" fill="#3E80F4"/>
<path d="M22.9956 33.9449H13.7706C13.2156 33.9449 12.7656 34.3949 12.7656 34.9499V35.1749C12.7656 35.73 13.2156 36.1799 13.7706 36.1799H22.9956C23.5507 36.1799 24.0006 35.73 24.0006 35.1749V34.9499C24.0006 34.3949 23.5507 33.9449 22.9956 33.9449Z" fill="#3E80F4"/>
<path d="M28.6201 3V11.67C28.6201 11.9962 28.6846 12.3194 28.8099 12.6206C28.9352 12.9219 29.1189 13.1954 29.3503 13.4254C29.5818 13.6554 29.8564 13.8374 30.1584 13.9609C30.4604 14.0844 30.7838 14.147 31.1101 14.145H39.7651L28.6201 3Z" fill="#3E80F4"/>
</svg>
