<svg width="20" height="20" viewBox="0 0 20 20" fill="none" xmlns="http://www.w3.org/2000/svg">
<g clip-path="url(#clip0_4981_1598)">
<path d="M15.1511 18.75H4.85741C4.47617 18.75 4.11053 18.5986 3.84095 18.329C3.57137 18.0594 3.41992 17.6938 3.41992 17.3125V2.68753C3.41992 2.30628 3.57137 1.94065 3.84095 1.67107C4.11053 1.40148 4.47617 1.25 4.85741 1.25H11.9262L16.5699 5.89378V17.3125C16.5699 17.6905 16.4211 18.0534 16.1555 18.3224C15.89 18.5915 15.5291 18.7451 15.1511 18.75Z" fill="#FCE8ED"/>
<path d="M13.8762 12.4812C13.4603 12.155 12.9323 12.0067 12.4074 12.0687C12.0075 12.0711 11.6084 12.1045 11.2137 12.1687C10.9569 11.9212 10.7226 11.6514 10.5137 11.3624C10.3583 11.1429 10.2143 10.9155 10.0824 10.6812C10.3009 10.061 10.4293 9.41274 10.4637 8.75614C10.4637 8.17489 10.2387 7.55615 9.59493 7.55615C9.48692 7.55789 9.38118 7.5876 9.28808 7.64236C9.19497 7.69713 9.11765 7.7751 9.06366 7.86865C8.78241 8.34365 8.89492 9.33115 9.34492 10.3312C9.18867 10.7937 9.01992 11.2499 8.80742 11.7499C8.62438 12.1788 8.41566 12.5962 8.18242 12.9999C6.86992 13.5312 6.05743 14.1249 5.96368 14.6374C5.947 14.7384 5.95536 14.8419 5.98806 14.9389C6.02075 15.0359 6.07676 15.1234 6.15117 15.1937C6.31024 15.3271 6.51235 15.3981 6.71991 15.3936C7.56991 15.3936 8.41991 14.2062 8.98866 13.1937C9.31991 13.0812 9.65743 12.9749 9.98868 12.8874C10.3199 12.7999 10.7137 12.7124 11.0512 12.6499C11.6172 13.2026 12.367 13.5274 13.1574 13.5624C13.7011 13.5624 13.9074 13.3311 13.9824 13.1374C14.0228 13.0281 14.0343 12.9103 14.0157 12.7953C13.9971 12.6803 13.949 12.5721 13.8762 12.4812ZM6.4824 14.8624C6.46197 14.8465 6.44647 14.8252 6.43762 14.8009C6.42878 14.7765 6.42698 14.7502 6.43243 14.7249C6.47618 14.4999 6.91368 14.0999 7.79493 13.6811C7.15118 14.6686 6.62615 14.9999 6.4824 14.8624ZM9.45741 8.0999C9.46956 8.07498 9.48813 8.05374 9.5112 8.03837C9.53426 8.02299 9.561 8.01402 9.58867 8.01239C9.73867 8.01239 9.76991 8.22489 9.76991 8.39989C9.75077 8.82371 9.67942 9.24355 9.55743 9.64989C9.34009 9.16174 9.30459 8.61193 9.45741 8.0999ZM9.89492 12.4749C9.70117 12.5249 9.50742 12.5749 9.31367 12.6374C9.41992 12.4312 9.51368 12.2249 9.59493 12.0124C9.67618 11.7999 9.80116 11.5061 9.88866 11.2561C9.96991 11.3874 10.0574 11.5124 10.1449 11.6312C10.3059 11.8509 10.4813 12.0597 10.6699 12.2562C10.4199 12.3249 10.1574 12.3624 9.89492 12.4562V12.4749ZM13.2324 12.8874C13.2012 13.0374 13.0262 13.0936 12.8824 13.0936H12.7074C12.3357 12.9954 11.9858 12.8279 11.6762 12.5999C12.0909 12.5436 12.5114 12.5436 12.9262 12.5999C13.2762 12.6312 13.2387 12.8124 13.2324 12.8687V12.8874Z" fill="#E9648A"/>
<path d="M11.9262 1.25L11.9258 4.86252C11.9258 5.13602 12.0344 5.39834 12.2278 5.59174C12.4212 5.78513 12.6835 5.89378 12.957 5.89378H16.5699L11.9262 1.25Z" fill="#E9648A"/>
</g>
<defs>
<clipPath id="clip0_4981_1598">
<rect width="14" height="18" fill="white" transform="translate(3 1)"/>
</clipPath>
</defs>
</svg>
