<svg width="48" height="48" viewBox="0 0 48 48" fill="none" xmlns="http://www.w3.org/2000/svg">
<g clip-path="url(#clip0_18848_481)">
<path d="M36.3897 45H11.6397C10.7247 45 9.8472 44.6365 9.2002 43.9895C8.55319 43.3425 8.18964 42.465 8.18964 41.55V6.45007C8.18964 5.53508 8.55319 4.65756 9.2002 4.01056C9.8472 3.36356 10.7247 3 11.6397 3H28.6497L39.7947 14.1451V41.55C39.7948 42.4573 39.4374 43.3281 38.8001 43.9738C38.1628 44.6195 37.2969 44.9882 36.3897 45Z" fill="#E4EBF2"/>
<path d="M28.6504 3V11.67C28.6504 12.3265 28.9112 12.956 29.3753 13.4202C29.8395 13.8843 30.469 14.1451 31.1254 14.1451H39.7955L28.6504 3Z" fill="#9BABC0"/>
<path fill-rule="evenodd" clip-rule="evenodd" d="M18.9091 25.5C18.0925 25.5 17.3094 25.8345 16.7321 26.4299C16.1547 27.0253 15.8303 27.8329 15.8303 28.675C15.8303 29.517 16.1547 30.3246 16.7321 30.92C17.0179 31.2149 17.3573 31.4487 17.7309 31.6083C18.1044 31.7679 18.5048 31.85 18.9091 31.85H21.4545C22.0972 31.85 22.6182 32.3872 22.6182 33.05C22.6182 33.7127 22.0972 34.25 21.4545 34.25H18.9091C18.1991 34.25 17.4962 34.1058 16.8403 33.8256C16.1844 33.5454 15.5884 33.1348 15.0864 32.6171C14.0726 31.5716 13.503 30.1536 13.503 28.675C13.503 27.1964 14.0726 25.7784 15.0864 24.7329C16.1003 23.6873 17.4753 23.1 18.9091 23.1H21.4545C22.0972 23.1 22.6182 23.6372 22.6182 24.3C22.6182 24.9627 22.0972 25.5 21.4545 25.5H18.9091ZM25.3818 24.3C25.3818 23.6372 25.9028 23.1 26.5454 23.1H29.0909C29.8008 23.1 30.5038 23.2442 31.1597 23.5243C31.8156 23.8045 32.4116 24.2152 32.9136 24.7329C33.4156 25.2505 33.8138 25.8651 34.0854 26.5415C34.3571 27.2179 34.497 27.9429 34.497 28.675C34.497 29.4071 34.3571 30.132 34.0854 30.8084C33.8138 31.4848 33.4156 32.0994 32.9136 32.6171C32.4116 33.1348 31.8156 33.5454 31.1597 33.8256C30.5038 34.1058 29.8008 34.25 29.0909 34.25H26.5454C25.9028 34.25 25.3818 33.7127 25.3818 33.05C25.3818 32.3872 25.9028 31.85 26.5454 31.85H29.0909C29.4952 31.85 29.8956 31.7679 30.2691 31.6083C30.6426 31.4487 30.982 31.2149 31.2679 30.92C31.5538 30.6252 31.7806 30.2752 31.9353 29.89C32.0901 29.5048 32.1697 29.0919 32.1697 28.675C32.1697 28.258 32.0901 27.8452 31.9353 27.46C31.7806 27.0747 31.5538 26.7247 31.2679 26.4299C30.982 26.1351 30.6426 25.9012 30.2691 25.7417C29.8956 25.5821 29.4952 25.5 29.0909 25.5H26.5454C25.9028 25.5 25.3818 24.9627 25.3818 24.3Z" fill="#9BABC0"/>
<path fill-rule="evenodd" clip-rule="evenodd" d="M19.4424 28.675C19.4424 28.0122 19.9634 27.475 20.6061 27.475H27.394C28.0366 27.475 28.5576 28.0122 28.5576 28.675C28.5576 29.3377 28.0366 29.875 27.394 29.875H20.6061C19.9634 29.875 19.4424 29.3377 19.4424 28.675Z" fill="#9BABC0"/>
</g>
<defs>
<clipPath id="clip0_18848_481">
<rect width="32" height="42" fill="white" transform="translate(8 3)"/>
</clipPath>
</defs>
</svg>
