<svg width="48" height="48" viewBox="0 0 48 48" fill="none" xmlns="http://www.w3.org/2000/svg">
<path d="M36.375 45H11.67C10.755 45 9.87748 44.6365 9.23048 43.9895C8.58348 43.3425 8.22002 42.465 8.22002 41.55V6.45007C8.22002 5.53508 8.58348 4.65756 9.23048 4.01056C9.87748 3.36356 10.755 3 11.67 3H28.635L39.78 14.1451V41.55C39.7801 42.4573 39.4227 43.3281 38.7854 43.9738C38.1481 44.6195 37.2821 44.9882 36.375 45Z" fill="#FCE8ED"/>
<path d="M33.315 29.9548C32.317 29.172 31.0497 28.8161 29.79 28.9648C28.8303 28.9707 27.8723 29.0509 26.925 29.2048C26.3087 28.6109 25.7464 27.9634 25.245 27.2698C24.872 26.743 24.5266 26.1972 24.21 25.6348C24.7343 24.1464 25.0425 22.5906 25.125 21.0147C25.125 19.6197 24.585 18.1348 23.04 18.1348C22.7808 18.1389 22.527 18.2102 22.3036 18.3417C22.0801 18.4731 21.8946 18.6602 21.765 18.8848C21.09 20.0248 21.36 22.3948 22.44 24.7948C22.065 25.9048 21.66 26.9998 21.15 28.1998C20.7107 29.229 20.2098 30.2308 19.65 31.1998C16.5 32.4748 14.55 33.8998 14.325 35.1298C14.285 35.3722 14.3051 35.6206 14.3835 35.8534C14.462 36.0862 14.5964 36.2961 14.775 36.4648C15.1568 36.785 15.6418 36.9555 16.14 36.9447C18.18 36.9447 20.22 34.0948 21.585 31.6648C22.38 31.3948 23.19 31.1398 23.985 30.9298C24.78 30.7198 25.725 30.5098 26.535 30.3598C27.8936 31.6862 29.6931 32.4658 31.59 32.5497C32.895 32.5497 33.39 31.9948 33.57 31.5298C33.667 31.2675 33.6945 30.9847 33.6498 30.7087C33.6051 30.4327 33.4898 30.173 33.315 29.9548ZM15.57 35.6698C15.5209 35.6316 15.4837 35.5805 15.4625 35.5221C15.4413 35.4637 15.437 35.4005 15.45 35.3398C15.555 34.7998 16.605 33.8397 18.72 32.8347C17.175 35.2048 15.915 35.9998 15.57 35.6698ZM22.71 19.4398C22.7391 19.38 22.7837 19.329 22.8391 19.2921C22.8944 19.2552 22.9586 19.2337 23.025 19.2297C23.385 19.2297 23.46 19.7397 23.46 20.1597C23.4141 21.1769 23.2428 22.1845 22.95 23.1597C22.4284 21.9882 22.3432 20.6686 22.71 19.4398ZM23.76 29.9398C23.295 30.0598 22.83 30.1798 22.365 30.3298C22.62 29.8348 22.845 29.3398 23.04 28.8298C23.235 28.3198 23.535 27.6147 23.745 27.0147C23.94 27.3297 24.15 27.6298 24.36 27.9148C24.7464 28.4421 25.1673 28.9432 25.62 29.4148C25.02 29.5798 24.39 29.6698 23.76 29.8948V29.9398ZM31.77 30.9298C31.695 31.2898 31.2751 31.4247 30.9301 31.4247H30.51C29.6178 31.189 28.7781 30.787 28.035 30.2398C29.0304 30.1048 30.0395 30.1048 31.035 30.2398C31.875 30.3148 31.785 30.7498 31.77 30.8848V30.9298Z" fill="#E9648A"/>
<path d="M28.635 3L28.6341 11.67C28.6341 12.3265 28.8948 12.956 29.359 13.4202C29.8231 13.8843 30.4527 14.1451 31.1091 14.1451H39.78L28.635 3Z" fill="#E9648A"/>
</svg>
