<svg width="24" height="24" viewBox="0 0 24 24" fill="none" xmlns="http://www.w3.org/2000/svg">
<path d="M18.1719 22.4999H5.8119C5.35441 22.4999 4.91565 22.3182 4.59215 21.9947C4.26865 21.6712 4.08691 21.2324 4.08691 20.7749V3.24745C4.08691 2.78995 4.26865 2.35119 4.59215 2.02769C4.91565 1.70419 5.35441 1.52246 5.8119 1.52246H14.3094L19.8819 7.09496V20.7975C19.876 21.2485 19.6937 21.6792 19.3741 21.9975C19.0545 22.3157 18.6229 22.4961 18.1719 22.4999Z" fill="#FEEAE7"/>
<path d="M12.9828 14.0997H15.9228C15.9348 14.9038 15.7111 15.6938 15.2793 16.3722C14.8474 17.0506 14.2264 17.5877 13.4928 17.9172C12.9223 18.1819 12.2996 18.3151 11.6707 18.3069C11.0418 18.2987 10.4228 18.1494 9.85939 17.87C9.29595 17.5905 8.80241 17.1881 8.41529 16.6924C8.02816 16.1968 7.75732 15.6205 7.62271 15.0061C7.48811 14.3918 7.49319 13.755 7.63759 13.1429C7.782 12.5308 8.06204 11.9589 8.45703 11.4695C8.85203 10.98 9.35189 10.5856 9.91973 10.3152C10.4876 10.0448 11.1089 9.90539 11.7378 9.90724V12.8547C11.7358 13.0188 11.7666 13.1816 11.8285 13.3336C11.8903 13.4855 11.982 13.6236 12.098 13.7396C12.214 13.8556 12.352 13.9472 12.504 14.0091C12.6559 14.0709 12.8188 14.1017 12.9828 14.0997Z" fill="#EF5E4B"/>
<path d="M12.5098 12.0076V9.30762C13.5535 9.31354 14.5527 9.7313 15.2901 10.4701C16.0274 11.2088 16.4433 12.2089 16.4473 13.2526H13.7473C13.4184 13.2506 13.1036 13.1186 12.8718 12.8853C12.6399 12.652 12.5098 12.3365 12.5098 12.0076Z" fill="#EF5E4B"/>
<path d="M14.3242 1.5V5.83502C14.3242 6.16323 14.4546 6.47796 14.6867 6.71004C14.9188 6.94211 15.2335 7.07249 15.5617 7.07249H19.8893L14.3242 1.5Z" fill="#EF5E4B"/>
</svg>
