<svg width="32" height="32" viewBox="0 0 32 32" fill="none" xmlns="http://www.w3.org/2000/svg">
<g clip-path="url(#clip0_18848_467)">
<path d="M24.2598 30H7.75983C7.14983 30 6.56482 29.7577 6.13348 29.3264C5.70215 28.895 5.45978 28.31 5.45978 27.7V4.30005C5.45978 3.69005 5.70215 3.10504 6.13348 2.67371C6.56482 2.24237 7.14983 2 7.75983 2H19.0998L26.5298 9.43005V27.7C26.5299 28.3048 26.2916 28.8854 25.8668 29.3159C25.4419 29.7463 24.8646 29.9921 24.2598 30Z" fill="#E4EBF2"/>
<path d="M19.0996 2V7.78003C19.0996 8.21764 19.2735 8.63734 19.5829 8.94678C19.8923 9.25621 20.312 9.43005 20.7496 9.43005H26.5297L19.0996 2Z" fill="#9BABC0"/>
<path fill-rule="evenodd" clip-rule="evenodd" d="M12.5 17C11.9386 17 11.4002 17.223 11.0033 17.62C10.6063 18.0169 10.3833 18.5553 10.3833 19.1167C10.3833 19.6781 10.6063 20.2164 11.0033 20.6134C11.1998 20.81 11.4332 20.9659 11.69 21.0722C11.9468 21.1786 12.222 21.2334 12.5 21.2334H14.25C14.6918 21.2334 15.05 21.5915 15.05 22.0334C15.05 22.4752 14.6918 22.8334 14.25 22.8334H12.5C12.0119 22.8334 11.5286 22.7372 11.0777 22.5504C10.6268 22.3637 10.217 22.0899 9.87191 21.7448C9.1749 21.0478 8.78333 20.1024 8.78333 19.1167C8.78333 18.131 9.1749 17.1856 9.87191 16.4886C10.5689 15.7916 11.5143 15.4 12.5 15.4H14.25C14.6918 15.4 15.05 15.7582 15.05 16.2C15.05 16.6419 14.6918 17 14.25 17H12.5ZM16.95 16.2C16.95 15.7582 17.3082 15.4 17.75 15.4H19.5C19.9881 15.4 20.4714 15.4962 20.9223 15.6829C21.3732 15.8697 21.7829 16.1435 22.1281 16.4886C22.4732 16.8337 22.747 17.2435 22.9337 17.6944C23.1205 18.1453 23.2167 18.6286 23.2167 19.1167C23.2167 19.6048 23.1205 20.0881 22.9337 20.539C22.747 20.9899 22.4732 21.3996 22.1281 21.7448C21.7829 22.0899 21.3732 22.3637 20.9223 22.5504C20.4714 22.7372 19.9881 22.8334 19.5 22.8334H17.75C17.3082 22.8334 16.95 22.4752 16.95 22.0334C16.95 21.5915 17.3082 21.2334 17.75 21.2334H19.5C19.778 21.2334 20.0532 21.1786 20.31 21.0722C20.5668 20.9659 20.8001 20.81 20.9967 20.6134C21.1933 20.4169 21.3492 20.1835 21.4555 19.9267C21.5619 19.6699 21.6167 19.3947 21.6167 19.1167C21.6167 18.8387 21.5619 18.5635 21.4555 18.3067C21.3492 18.0499 21.1933 17.8165 20.9967 17.62C20.8001 17.4234 20.5668 17.2675 20.31 17.1611C20.0532 17.0548 19.778 17 19.5 17H17.75C17.3082 17 16.95 16.6419 16.95 16.2Z" fill="#9BABC0"/>
<path fill-rule="evenodd" clip-rule="evenodd" d="M12.8667 19.1167C12.8667 18.6748 13.2248 18.3167 13.6667 18.3167H18.3333C18.7752 18.3167 19.1333 18.6748 19.1333 19.1167C19.1333 19.5585 18.7752 19.9167 18.3333 19.9167H13.6667C13.2248 19.9167 12.8667 19.5585 12.8667 19.1167Z" fill="#9BABC0"/>
</g>
<defs>
<clipPath id="clip0_18848_467">
<rect width="22" height="28" fill="white" transform="translate(5 2)"/>
</clipPath>
</defs>
</svg>
