<svg width="32" height="32" viewBox="0 0 32 32" fill="none" xmlns="http://www.w3.org/2000/svg">
<g clip-path="url(#clip0_4981_1988)">
<path d="M24.2406 29.96H7.77063C7.16063 29.96 6.57562 29.7176 6.14429 29.2863C5.71295 28.855 5.4707 28.27 5.4707 27.66V4.25995C5.4707 3.64995 5.71295 3.06494 6.14429 2.63361C6.57562 2.20227 7.16063 1.95996 7.77063 1.95996H19.1106L26.5406 9.38995V27.66C26.5406 28.27 26.2983 28.855 25.8669 29.2863C25.4356 29.7176 24.8506 29.96 24.2406 29.96Z" fill="#E4EBF2"/>
<path d="M19.1094 1.95996V7.73999C19.1094 8.1776 19.2832 8.59724 19.5927 8.90668C19.9021 9.21611 20.3218 9.38995 20.7594 9.38995H26.5394L19.1094 1.95996Z" fill="#9BABC0"/>
<path d="M22.8092 22.0802L19.4692 16.7302C19.3591 16.5568 19.2069 16.4139 19.0268 16.3149C18.8468 16.2159 18.6447 16.1641 18.4392 16.1641C18.2337 16.1641 18.0316 16.2159 17.8515 16.3149C17.6715 16.4139 17.5193 16.5568 17.4092 16.7302L14.8292 20.8702L13.2892 18.4202C13.2052 18.2881 13.0892 18.1792 12.952 18.1038C12.8148 18.0284 12.6607 17.9889 12.5041 17.9889C12.3476 17.9889 12.1935 18.0284 12.0563 18.1038C11.919 18.1792 11.8032 18.2881 11.7192 18.4202L9.15916 22.5102C9.06574 22.6486 9.01128 22.8097 9.00157 22.9764C8.99186 23.1431 9.02726 23.3094 9.10399 23.4577C9.18071 23.606 9.29593 23.731 9.43761 23.8194C9.57928 23.9078 9.7422 23.9565 9.90916 23.9602H21.7391C21.9633 23.972 22.1864 23.9212 22.3833 23.8135C22.5802 23.7058 22.7433 23.5455 22.8544 23.3504C22.9654 23.1553 23.0199 22.9332 23.0119 22.7089C23.004 22.4846 22.9338 22.2669 22.8092 22.0802Z" fill="#9BABC0"/>
<path d="M12.3795 16.17C13.1747 16.17 13.8195 15.5253 13.8195 14.73C13.8195 13.9347 13.1747 13.29 12.3795 13.29C11.5842 13.29 10.9395 13.9347 10.9395 14.73C10.9395 15.5253 11.5842 16.17 12.3795 16.17Z" fill="#9BABC0"/>
</g>
<defs>
<clipPath id="clip0_4981_1988">
<rect width="22" height="28" fill="white" transform="translate(5 2)"/>
</clipPath>
</defs>
</svg>
