<svg width="24" height="24" viewBox="0 0 24 24" fill="none" xmlns="http://www.w3.org/2000/svg">
<path d="M18.1713 22.5H5.81879C5.59226 22.5 5.36798 22.4554 5.15869 22.3687C4.9494 22.282 4.7593 22.1549 4.59912 21.9947C4.43894 21.8345 4.31173 21.6444 4.22504 21.4352C4.13835 21.2259 4.09375 21.0015 4.09375 20.775V3.22504C4.09375 2.99851 4.13835 2.77414 4.22504 2.56485C4.31173 2.35556 4.43894 2.16546 4.59912 2.00528C4.7593 1.8451 4.9494 1.71798 5.15869 1.63129C5.36798 1.5446 5.59226 1.5 5.81879 1.5H14.3239L19.8963 7.07254V20.775C19.8963 21.2325 19.7146 21.6712 19.3911 21.9947C19.0676 22.3182 18.6288 22.5 18.1713 22.5Z" fill="#E4EBF2"/>
<path d="M14.332 1.5V5.83502C14.332 5.99817 14.3642 6.15964 14.4269 6.31027C14.4895 6.4609 14.5814 6.59773 14.6971 6.71274C14.8129 6.82775 14.9501 6.91869 15.1011 6.98044C15.2521 7.04219 15.4138 7.07353 15.577 7.07254H19.9045L14.332 1.5Z" fill="#9BABC0"/>
<path d="M13.7105 14.4302H10.2905C9.94667 14.4302 9.66797 14.7089 9.66797 15.0527V19.5077C9.66797 19.8515 9.94667 20.1302 10.2905 20.1302H13.7105C14.0543 20.1302 14.333 19.8515 14.333 19.5077V15.0527C14.333 14.7089 14.0543 14.4302 13.7105 14.4302Z" fill="#9BABC0"/>
<path d="M12.5395 11.542H11.4595C11.3891 11.542 11.332 11.5991 11.332 11.6695V13.3345C11.332 13.4049 11.3891 13.462 11.4595 13.462H12.5395C12.6099 13.462 12.667 13.4049 12.667 13.3345V11.6695C12.667 11.5991 12.6099 11.542 12.5395 11.542Z" fill="#9BABC0"/>
<path d="M12.5395 8.65527H11.4595C11.3891 8.65527 11.332 8.71236 11.332 8.78277V10.4478C11.332 10.5182 11.3891 10.5753 11.4595 10.5753H12.5395C12.6099 10.5753 12.667 10.5182 12.667 10.4478V8.78277C12.667 8.71236 12.6099 8.65527 12.5395 8.65527Z" fill="#9BABC0"/>
</svg>
