<svg width="24" height="24" viewBox="0 0 24 24" fill="none" xmlns="http://www.w3.org/2000/svg">
<path d="M18.1732 22.5H5.82074C5.59421 22.5 5.36975 22.4554 5.16046 22.3687C4.95117 22.282 4.76107 22.155 4.60089 21.9948C4.44071 21.8346 4.31368 21.6444 4.22699 21.4352C4.1403 21.2259 4.0957 21.0016 4.0957 20.7751V3.22504C4.0957 2.99851 4.1403 2.77414 4.22699 2.56485C4.31368 2.35556 4.44071 2.16546 4.60089 2.00528C4.76107 1.8451 4.95117 1.71798 5.16046 1.63129C5.36975 1.5446 5.59421 1.5 5.82074 1.5H14.3256L19.8981 7.07254V20.7751C19.8981 21.2326 19.7164 21.6713 19.3929 21.9948C19.0694 22.3183 18.6307 22.5 18.1732 22.5Z" fill="#E4EBF2"/>
<path d="M17.1065 11.0254H6.89898C6.62146 11.0254 6.39648 11.2504 6.39648 11.5279V11.6404C6.39648 11.9179 6.62146 12.1429 6.89898 12.1429H17.1065C17.384 12.1429 17.609 11.9179 17.609 11.6404V11.5279C17.609 11.2504 17.384 11.0254 17.1065 11.0254Z" fill="#9BABC0"/>
<path d="M17.1065 14.0024H6.89898C6.62146 14.0024 6.39648 14.2274 6.39648 14.5049V14.6174C6.39648 14.895 6.62146 15.1199 6.89898 15.1199H17.1065C17.384 15.1199 17.609 14.895 17.609 14.6174V14.5049C17.609 14.2274 17.384 14.0024 17.1065 14.0024Z" fill="#9BABC0"/>
<path d="M11.4976 16.9725H6.88513C6.60761 16.9725 6.38263 17.1975 6.38263 17.475V17.5875C6.38263 17.8651 6.60761 18.09 6.88513 18.09H11.4976C11.7752 18.09 12.0001 17.8651 12.0001 17.5875V17.475C12.0001 17.1975 11.7752 16.9725 11.4976 16.9725Z" fill="#9BABC0"/>
<path d="M14.332 1.5V5.83502C14.332 6.16323 14.4625 6.47801 14.6946 6.71008C14.9267 6.94216 15.2414 7.07254 15.5696 7.07254H19.9045L14.332 1.5Z" fill="#9BABC0"/>
</svg>
