<svg width="40" height="40" viewBox="0 0 40 40" fill="none" xmlns="http://www.w3.org/2000/svg">
<g clip-path="url(#clip0_4981_2183)">
<path d="M30.2879 37.4994H9.71295C8.95045 37.4994 8.21919 37.1965 7.68002 36.6573C7.14086 36.1182 6.83789 35.3869 6.83789 34.6244V5.3994C6.83789 4.6369 7.14086 3.90564 7.68002 3.36647C8.21919 2.8273 8.95045 2.52441 9.71295 2.52441H23.8754L33.163 11.8119V34.6494C33.1564 35.4076 32.8504 36.1324 32.312 36.6662C31.7735 37.2 31.0461 37.4994 30.2879 37.4994Z" fill="#DAF9F9"/>
<path d="M23.875 2.5V9.72504C23.875 9.99694 23.9288 10.2661 24.0332 10.5172C24.1377 10.7682 24.2907 10.9961 24.4835 11.1878C24.6764 11.3795 24.9052 11.5312 25.1569 11.6341C25.4086 11.7371 25.6781 11.7891 25.95 11.7875H33.1626L23.875 2.5Z" fill="#57CBC8"/>
</g>
<path fill-rule="evenodd" clip-rule="evenodd" d="M26.5027 20.7393V18.7455H21.3602V16H19.1852V18.7455H14V20.7393H26.5027ZM25.057 26.0141C25.057 28.3582 23.0288 30.0018 20.2707 30.0018C17.5087 30.0018 15.4805 28.3582 15.4805 26.0141C15.4805 23.6916 17.5087 22.0508 20.2707 22.0508C23.0301 22.0508 25.0583 23.6916 25.0583 26.0141H25.057ZM22.8397 26.0156C22.8397 24.8193 21.7308 24.0703 20.2684 24.0703C18.8046 24.0703 17.6758 24.8193 17.6758 26.0156C17.6758 27.2348 18.8046 27.9865 20.2684 27.9865C21.7308 27.9865 22.8397 27.2348 22.8397 26.0156Z" fill="#57CBC8"/>
<defs>
<clipPath id="clip0_4981_2183">
<rect width="28" height="36" fill="white" transform="translate(6 2)"/>
</clipPath>
</defs>
</svg>
