<svg width="20" height="20" viewBox="0 0 20 20" fill="none" xmlns="http://www.w3.org/2000/svg">
<g clip-path="url(#clip0_4981_1594)">
<path d="M15.1434 18.75H4.84964C4.66086 18.75 4.47397 18.7128 4.29956 18.6406C4.12516 18.5684 3.96674 18.4624 3.83325 18.3289C3.69977 18.1954 3.59376 18.037 3.52151 17.8626C3.44927 17.6882 3.41211 17.5012 3.41211 17.3125V2.68753C3.41211 2.49876 3.44927 2.31178 3.52151 2.13737C3.59376 1.96297 3.69977 1.80455 3.83325 1.67107C3.96674 1.53758 4.12516 1.43165 4.29956 1.35941C4.47397 1.28716 4.66086 1.25 4.84964 1.25H11.9372L16.5809 5.89378V17.3125C16.5809 17.6937 16.4295 18.0594 16.1599 18.3289C15.8903 18.5985 15.5246 18.75 15.1434 18.75Z" fill="#E4EBF2"/>
<path d="M11.9434 1.25V4.86252C11.9434 4.99847 11.9702 5.13303 12.0224 5.25856C12.0746 5.38409 12.1512 5.49811 12.2476 5.59395C12.344 5.68979 12.4584 5.76558 12.5842 5.81703C12.7101 5.86849 12.8449 5.89461 12.9808 5.89378H16.5871L11.9434 1.25Z" fill="#9BABC0"/>
<path d="M11.4254 12.0254H8.57539C8.28889 12.0254 8.05664 12.2576 8.05664 12.5441V16.2566C8.05664 16.5431 8.28889 16.7754 8.57539 16.7754H11.4254C11.7119 16.7754 11.9441 16.5431 11.9441 16.2566V12.5441C11.9441 12.2576 11.7119 12.0254 11.4254 12.0254Z" fill="#9BABC0"/>
<path d="M10.4496 9.61853H9.54961C9.49093 9.61853 9.44336 9.6661 9.44336 9.72478V11.1123C9.44336 11.171 9.49093 11.2185 9.54961 11.2185H10.4496C10.5083 11.2185 10.5559 11.171 10.5559 11.1123V9.72478C10.5559 9.6661 10.5083 9.61853 10.4496 9.61853Z" fill="#9BABC0"/>
<path d="M10.4496 7.21252H9.54961C9.49093 7.21252 9.44336 7.26009 9.44336 7.31877V8.70627C9.44336 8.76495 9.49093 8.81252 9.54961 8.81252H10.4496C10.5083 8.81252 10.5559 8.76495 10.5559 8.70627V7.31877C10.5559 7.26009 10.5083 7.21252 10.4496 7.21252Z" fill="#9BABC0"/>
</g>
<defs>
<clipPath id="clip0_4981_1594">
<rect width="14" height="18" fill="white" transform="translate(3 1)"/>
</clipPath>
</defs>
</svg>
