<svg width="32" height="32" viewBox="0 0 32 32" fill="none" xmlns="http://www.w3.org/2000/svg">
<g clip-path="url(#clip0_4981_1960)">
<g clip-path="url(#clip1_4981_1960)">
<path d="M24.2407 29.9998H7.77069C7.16069 29.9998 6.57568 29.7574 6.14435 29.3261C5.71301 28.8948 5.4707 28.3098 5.4707 27.6998V4.34979C5.4707 3.73979 5.71301 3.15478 6.14435 2.72345C6.57568 2.29212 7.16069 2.0498 7.77069 2.0498H19.1107L26.5406 9.4798V27.7498C26.5276 28.3511 26.2795 28.9234 25.8496 29.3439C25.4197 29.7645 24.8422 30 24.2407 29.9998Z" fill="#DCF5E8"/>
<path d="M19.1094 2V7.77997C19.1094 8.21758 19.2832 8.63728 19.5927 8.94672C19.9021 9.25615 20.3218 9.42999 20.7594 9.42999H26.5393L19.1094 2Z" fill="#05C072"/>
<path d="M14.1491 13.3896H10.4491C9.99074 13.3896 9.61914 13.7613 9.61914 14.2196V14.9596C9.61914 15.418 9.99074 15.7896 10.4491 15.7896H14.1491C14.6075 15.7896 14.9791 15.418 14.9791 14.9596V14.2196C14.9791 13.7613 14.6075 13.3896 14.1491 13.3896Z" fill="#05C072"/>
<path d="M17.6305 13.3896H16.8905C16.4322 13.3896 16.0605 13.7613 16.0605 14.2196V14.9596C16.0605 15.418 16.4322 15.7896 16.8905 15.7896H17.6305C18.0889 15.7896 18.4605 15.418 18.4605 14.9596V14.2196C18.4605 13.7613 18.0889 13.3896 17.6305 13.3896Z" fill="#05C072"/>
<path d="M21.5505 13.3896H20.8105C20.3521 13.3896 19.9805 13.7613 19.9805 14.2196V14.9596C19.9805 15.418 20.3521 15.7896 20.8105 15.7896H21.5505C22.0089 15.7896 22.3805 15.418 22.3805 14.9596V14.2196C22.3805 13.7613 22.0089 13.3896 21.5505 13.3896Z" fill="#05C072"/>
<path d="M14.1491 17.4102H10.4491C9.99074 17.4102 9.61914 17.7818 9.61914 18.2402V18.9802C9.61914 19.4386 9.99074 19.8102 10.4491 19.8102H14.1491C14.6075 19.8102 14.9791 19.4386 14.9791 18.9802V18.2402C14.9791 17.7818 14.6075 17.4102 14.1491 17.4102Z" fill="#05C072"/>
<path d="M17.6305 17.4102H16.8905C16.4322 17.4102 16.0605 17.7818 16.0605 18.2402V18.9802C16.0605 19.4386 16.4322 19.8102 16.8905 19.8102H17.6305C18.0889 19.8102 18.4605 19.4386 18.4605 18.9802V18.2402C18.4605 17.7818 18.0889 17.4102 17.6305 17.4102Z" fill="#05C072"/>
<path d="M21.5505 17.4102H20.8105C20.3521 17.4102 19.9805 17.7818 19.9805 18.2402V18.9802C19.9805 19.4386 20.3521 19.8102 20.8105 19.8102H21.5505C22.0089 19.8102 22.3805 19.4386 22.3805 18.9802V18.2402C22.3805 17.7818 22.0089 17.4102 21.5505 17.4102Z" fill="#05C072"/>
<path d="M14.1491 21.4297H10.4491C9.99074 21.4297 9.61914 21.8013 9.61914 22.2597V22.9997C9.61914 23.4581 9.99074 23.8297 10.4491 23.8297H14.1491C14.6075 23.8297 14.9791 23.4581 14.9791 22.9997V22.2597C14.9791 21.8013 14.6075 21.4297 14.1491 21.4297Z" fill="#05C072"/>
<path d="M17.6305 21.4297H16.8905C16.4322 21.4297 16.0605 21.8013 16.0605 22.2597V22.9997C16.0605 23.4581 16.4322 23.8297 16.8905 23.8297H17.6305C18.0889 23.8297 18.4605 23.4581 18.4605 22.9997V22.2597C18.4605 21.8013 18.0889 21.4297 17.6305 21.4297Z" fill="#05C072"/>
<path d="M21.5505 21.4297H20.8105C20.3521 21.4297 19.9805 21.8013 19.9805 22.2597V22.9997C19.9805 23.4581 20.3521 23.8297 20.8105 23.8297H21.5505C22.0089 23.8297 22.3805 23.4581 22.3805 22.9997V22.2597C22.3805 21.8013 22.0089 21.4297 21.5505 21.4297Z" fill="#05C072"/>
</g>
</g>
<defs>
<clipPath id="clip0_4981_1960">
<rect width="22" height="28" fill="white" transform="translate(5 2)"/>
</clipPath>
<clipPath id="clip1_4981_1960">
<rect width="22" height="28" fill="white" transform="translate(5 2)"/>
</clipPath>
</defs>
</svg>
