<svg width="24" height="24" viewBox="0 0 24 24" fill="none" xmlns="http://www.w3.org/2000/svg">
<path d="M18.1713 22.5H5.81879C5.59226 22.5 5.36798 22.4554 5.15869 22.3687C4.9494 22.282 4.7593 22.155 4.59912 21.9948C4.43894 21.8346 4.31191 21.6444 4.22522 21.4352C4.13853 21.2259 4.09375 21.0016 4.09375 20.7751V3.22504C4.09375 2.99851 4.13853 2.77423 4.22522 2.56494C4.31191 2.35565 4.43894 2.16546 4.59912 2.00528C4.7593 1.8451 4.9494 1.71807 5.15869 1.63138C5.36798 1.54469 5.59226 1.5 5.81879 1.5H14.3239L19.8963 7.07254V20.7751C19.8963 21.0016 19.8517 21.2259 19.765 21.4352C19.6783 21.6444 19.5513 21.8346 19.3911 21.9948C19.2309 22.155 19.0408 22.282 18.8315 22.3687C18.6223 22.4554 18.3978 22.5 18.1713 22.5Z" fill="#E4EBF2"/>
<path d="M14.3321 1.5V5.82751C14.3311 5.99066 14.3622 6.1524 14.424 6.30341C14.4857 6.45441 14.5768 6.59172 14.6919 6.70743C14.8069 6.82314 14.9435 6.91494 15.0941 6.9776C15.2448 7.04026 15.4063 7.07254 15.5695 7.07254H19.9045L14.3321 1.5Z" fill="#9BABC0"/>
<path d="M7.88232 17.7222V14.5723H6.81738V13.8223H9.89978V14.5723H8.82733V17.7222H7.88232Z" fill="#9BABC0"/>
<path d="M12.6152 15.7578L13.8153 17.7228H12.7502L12.0002 16.4328L11.2502 17.7228H10.1777L11.3553 15.7503L10.1852 13.8003H11.2877L11.9927 15.1203H12.0377L12.7427 13.8003H13.8003L12.6152 15.7578Z" fill="#9BABC0"/>
<path d="M15.173 17.7222V14.5723H14.1006V13.8223H17.1832V14.5723H16.118V17.7222H15.173Z" fill="#9BABC0"/>
</svg>
