<svg width="32" height="32" viewBox="0 0 32 32" fill="none" xmlns="http://www.w3.org/2000/svg">
<path d="M20.3671 25H24.239C27.4217 25 30 22.4707 30 19.3534C30 16.4416 27.7518 14.0457 24.8635 13.7396C24.8635 13.7003 24.8657 13.6631 24.8657 13.6238C24.8657 9.96648 21.8413 7 18.1077 7C15.7279 7 13.638 8.2067 12.4336 10.0277C11.8225 9.46587 11.0018 9.12048 10.0985 9.12048C8.20711 9.12048 6.67484 10.6223 6.67484 12.4761C6.67484 12.933 6.76852 13.3658 6.9358 13.7637C4.14561 14.155 2 16.5072 2 19.3534C2 22.4729 4.58053 25 7.76103 25H20.3671Z" fill="#BECBDD"/>
</svg>
