<svg width="32" height="32" viewBox="0 0 32 32" fill="none" xmlns="http://www.w3.org/2000/svg">
<path d="M20.3671 25H24.239C27.4217 25 30 22.4707 30 19.3534C30 16.4416 27.7518 14.0457 24.8635 13.7396C24.8635 13.7003 24.8657 13.6631 24.8657 13.6238C24.8657 9.96648 21.8413 7 18.1077 7C15.7279 7 13.638 8.2067 12.4336 10.0277C11.8225 9.46587 11.0018 9.12048 10.0985 9.12048C8.20711 9.12048 6.67484 10.6223 6.67484 12.4761C6.67484 12.933 6.76852 13.3658 6.9358 13.7637C4.14561 14.155 2 16.5072 2 19.3534C2 22.4729 4.58053 25 7.76103 25H20.3671Z" fill="#BECBDD"/>
<path d="M8 21.378H9.88682C10.3652 21.378 10.7715 21.2847 11.1059 21.0979C11.4403 20.9089 11.695 20.6354 11.87 20.2772C12.0471 19.919 12.1357 19.484 12.1357 18.972V18.9654C12.1357 18.4688 12.0471 18.0458 11.87 17.6964C11.6928 17.3471 11.437 17.0812 11.1026 16.8988C10.7682 16.7142 10.363 16.622 9.88682 16.622H8V21.378ZM9.0032 20.5574V17.4426H9.72737C10.0175 17.4426 10.2655 17.5031 10.4715 17.6239C10.6796 17.7426 10.838 17.9173 10.9465 18.148C11.0572 18.3765 11.1126 18.6545 11.1126 18.9819V18.9885C11.1126 19.3247 11.0583 19.6103 10.9498 19.8454C10.8435 20.0783 10.6874 20.2552 10.4814 20.3761C10.2755 20.4969 10.0241 20.5574 9.72737 20.5574H9.0032Z" fill="#E9ECEF"/>
<path d="M13.7131 21.4341C13.8726 21.4341 14.0199 21.4132 14.1549 21.3715C14.2922 21.3275 14.4118 21.266 14.5137 21.1869C14.6178 21.1056 14.7008 21.0089 14.7628 20.8968H14.8226V21.378H15.7793V18.8995C15.7793 18.6424 15.7195 18.4227 15.6 18.2403C15.4826 18.0557 15.311 17.9151 15.0851 17.8184C14.8592 17.7195 14.5846 17.6701 14.2612 17.6701C13.9556 17.6701 13.6866 17.714 13.454 17.8019C13.2237 17.8898 13.0399 18.0129 12.9026 18.1711C12.7675 18.3293 12.6867 18.5149 12.6601 18.7281L12.6568 18.7577H13.5537L13.5603 18.7446C13.598 18.6369 13.6711 18.5545 13.7796 18.4974C13.8903 18.438 14.0331 18.4084 14.2081 18.4084C14.4074 18.4084 14.5591 18.4512 14.6632 18.5369C14.7695 18.6204 14.8226 18.7413 14.8226 18.8995V20.0564C14.8226 20.1838 14.7883 20.2992 14.7197 20.4024C14.651 20.5035 14.558 20.5837 14.4406 20.643C14.3232 20.7024 14.1893 20.732 14.0387 20.732C13.8704 20.732 13.7331 20.6925 13.6268 20.6134C13.5205 20.5343 13.4673 20.4255 13.4673 20.2871V20.2805C13.4673 20.1486 13.5183 20.0443 13.6201 19.9674C13.722 19.8905 13.877 19.8465 14.0852 19.8355L15.301 19.7564V19.1697L13.939 19.2521C13.6356 19.2697 13.3776 19.3236 13.165 19.4136C12.9546 19.5015 12.7941 19.6235 12.6834 19.7795C12.5748 19.9355 12.5206 20.1223 12.5206 20.3398V20.3464C12.5206 20.5661 12.5715 20.7584 12.6734 20.9232C12.7753 21.0858 12.9159 21.2122 13.0953 21.3022C13.2769 21.3901 13.4828 21.4341 13.7131 21.4341Z" fill="#E9ECEF"/>
<path d="M17.483 21.4341C17.6424 21.4341 17.7897 21.4132 17.9248 21.3715C18.0621 21.3275 18.1817 21.266 18.2835 21.1869C18.3876 21.1056 18.4707 21.0089 18.5327 20.8968H18.5925V21.378H19.5492V18.8995C19.5492 18.6424 19.4894 18.4227 19.3698 18.2403C19.2524 18.0557 19.0808 17.9151 18.8549 17.8184C18.629 17.7195 18.3544 17.6701 18.0311 17.6701C17.7255 17.6701 17.4564 17.714 17.2239 17.8019C16.9936 17.8898 16.8097 18.0129 16.6724 18.1711C16.5374 18.3293 16.4565 18.5149 16.4299 18.7281L16.4266 18.7577H17.3235L17.3302 18.7446C17.3678 18.6369 17.4409 18.5545 17.5494 18.4974C17.6601 18.438 17.803 18.4084 17.9779 18.4084C18.1772 18.4084 18.3289 18.4512 18.433 18.5369C18.5393 18.6204 18.5925 18.7413 18.5925 18.8995V20.0564C18.5925 20.1838 18.5582 20.2992 18.4895 20.4024C18.4208 20.5035 18.3278 20.5837 18.2105 20.643C18.0931 20.7024 17.9591 20.732 17.8085 20.732C17.6402 20.732 17.5029 20.6925 17.3966 20.6134C17.2903 20.5343 17.2372 20.4255 17.2372 20.2871V20.2805C17.2372 20.1486 17.2881 20.0443 17.39 19.9674C17.4918 19.8905 17.6469 19.8465 17.855 19.8355L19.0708 19.7564V19.1697L17.7089 19.2521C17.4055 19.2697 17.1475 19.3236 16.9349 19.4136C16.7245 19.5015 16.5639 19.6235 16.4532 19.7795C16.3447 19.9355 16.2904 20.1223 16.2904 20.3398V20.3464C16.2904 20.5661 16.3414 20.7584 16.4432 20.9232C16.5451 21.0858 16.6857 21.2122 16.8651 21.3022C17.0467 21.3901 17.2527 21.4341 17.483 21.4341Z" fill="#E9ECEF"/>
<path d="M22.0667 21.5C22.4653 21.5 22.8086 21.4374 23.0965 21.3121C23.3866 21.1847 23.6091 21.0067 23.7641 20.7782C23.9214 20.5475 24 20.275 24 19.9608V19.9575C24 19.7092 23.9491 19.4971 23.8472 19.3214C23.7453 19.1456 23.587 18.9995 23.3722 18.883C23.1596 18.7665 22.8839 18.6742 22.545 18.6061L22.0368 18.504C21.7555 18.4468 21.5518 18.3699 21.4256 18.2732C21.3015 18.1744 21.2395 18.048 21.2395 17.8942V17.8909C21.2395 17.7722 21.2739 17.6701 21.3425 17.5844C21.4112 17.4965 21.5075 17.4284 21.6315 17.38C21.7555 17.3317 21.8995 17.3075 22.0634 17.3075C22.2317 17.3075 22.3789 17.3328 22.5052 17.3833C22.6336 17.4317 22.7355 17.4987 22.8108 17.5844C22.8883 17.6701 22.937 17.7701 22.9569 17.8843L22.9636 17.9239H23.907L23.9037 17.881C23.8837 17.6151 23.7985 17.3789 23.6479 17.1724C23.4973 16.9636 23.288 16.7999 23.0201 16.6813C22.7543 16.5604 22.4354 16.5 22.0634 16.5C21.709 16.5 21.3946 16.5615 21.1199 16.6846C20.8453 16.8054 20.6294 16.9757 20.4722 17.1955C20.3149 17.4152 20.2363 17.6723 20.2363 17.9667V17.97C20.2363 18.3304 20.3493 18.6259 20.5752 18.8566C20.801 19.0873 21.1631 19.2532 21.6614 19.3543L22.1663 19.4565C22.4653 19.518 22.6779 19.596 22.8041 19.6905C22.9326 19.785 22.9968 19.9102 22.9968 20.0662V20.0695C22.9968 20.1904 22.958 20.2981 22.8805 20.3926C22.8052 20.4848 22.7 20.5574 22.565 20.6101C22.4299 20.6628 22.2726 20.6892 22.0933 20.6892C21.9072 20.6892 21.7422 20.6639 21.5983 20.6134C21.4543 20.5628 21.3392 20.4936 21.2528 20.4057C21.1687 20.3156 21.1199 20.2113 21.1067 20.0926L21.1033 20.0597H20.1367L20.14 20.1124C20.1599 20.3936 20.2496 20.6387 20.4091 20.8474C20.5707 21.0539 20.7922 21.2143 21.0734 21.3286C21.3547 21.4429 21.6858 21.5 22.0667 21.5Z" fill="#E9ECEF"/>
</svg>
