<svg width="32" height="32" viewBox="0 0 32 32" fill="none" xmlns="http://www.w3.org/2000/svg">
<ellipse cx="25" cy="16" rx="6" ry="6" fill="#BECBDD"/>
<ellipse cx="7.00005" cy="16" rx="6" ry="6" fill="#BECBDD"/>
<path d="M23.2862 23.5714C21.3143 25.6893 18.5861 27 15.5719 27C12.5577 27 9.82949 25.6893 7.85761 23.5714" stroke="#9BABC0" stroke-width="0.846154" stroke-linecap="round" stroke-linejoin="round" stroke-dasharray="3.38 3.38"/>
<path d="M7.85724 7.28578C9.82912 5.69735 12.5573 4.71436 15.5715 4.71436C18.5857 4.71436 21.3139 5.69735 23.2858 7.28578" stroke="#9BABC0" stroke-width="0.846154" stroke-linecap="round" stroke-linejoin="round" stroke-dasharray="3.38 3.38"/>
<path d="M9.63769 18.5222C9.42413 19.0771 8.891 19.4431 8.29649 19.4431L5.72562 19.4431C5.13111 19.4431 4.59798 19.0771 4.38442 18.5222L4.09688 17.7752C3.73453 16.8338 4.42937 15.8218 5.43807 15.8218L8.58404 15.8218C9.59274 15.8218 10.2876 16.8338 9.92523 17.7752L9.63769 18.5222Z" fill="white"/>
<path d="M8.61447 13.6095C8.61447 14.4983 7.89389 15.2189 7.00501 15.2189C6.11613 15.2189 5.39555 14.4983 5.39555 13.6095C5.39555 12.7206 6.11613 12 7.00501 12C7.89389 12 8.61447 12.7206 8.61447 13.6095Z" fill="white"/>
<path d="M27.6377 18.6177C27.4241 19.1725 26.891 19.5386 26.2965 19.5386L23.7256 19.5386C23.1311 19.5386 22.598 19.1725 22.3844 18.6177L22.0969 17.8707C21.7345 16.9293 22.4294 15.9173 23.4381 15.9173L26.584 15.9173C27.5927 15.9173 28.2876 16.9293 27.9252 17.8707L27.6377 18.6177Z" fill="white"/>
<path d="M26.7414 13.6095C26.7414 14.4983 26.0208 15.2189 25.132 15.2189C24.2431 15.2189 23.5225 14.4983 23.5225 13.6095C23.5225 12.7206 24.2431 12 25.132 12C26.0208 12 26.7414 12.7206 26.7414 13.6095Z" fill="white"/>
</svg>
