<svg width="32" height="32" viewBox="0 0 32 32" fill="none" xmlns="http://www.w3.org/2000/svg">
<path d="M9.67676 15.5982V10.8906C9.67519 9.43122 10.253 8.0234 11.298 6.9404C12.3431 5.85739 13.7807 5.17647 15.332 5.02981C16.8832 4.88315 18.4373 5.28121 19.6926 6.14674C20.9479 7.01226 21.8148 8.28348 22.1251 9.71363V15.8923" stroke="#5E92F5" stroke-width="2.4" stroke-linecap="round" stroke-linejoin="round"/>
<path fill-rule="evenodd" clip-rule="evenodd" d="M7.30889 15.406C6.03373 15.406 5 16.4397 5 17.7149V26.6911C5 27.9663 6.03373 29 7.30889 29H24.9359C26.211 29 27.2447 27.9663 27.2447 26.6911V17.7149C27.2447 16.4397 26.211 15.406 24.9359 15.406H7.30889ZM16.1257 24.6763C17.4908 24.6763 18.5973 23.5697 18.5973 22.2047C18.5973 20.8396 17.4908 19.733 16.1257 19.733C14.7607 19.733 13.6541 20.8396 13.6541 22.2047C13.6541 23.5697 14.7607 24.6763 16.1257 24.6763Z" fill="#5E92F5"/>
<path d="M8 8L28 28" stroke="#E9ECF3" stroke-width="2" stroke-linecap="round"/>
<path d="M7 9L27 29" stroke="#3E6AC8" stroke-width="2" stroke-linecap="round"/>
</svg>
