<svg width="32" height="32" viewBox="0 0 32 32" fill="none" xmlns="http://www.w3.org/2000/svg">
<path d="M17.1864 8.05744C21.1483 8.46368 24.4025 10.925 25.9996 14.275M5.12172 20.1436C5.58014 24.5739 8.70327 28.3257 12.9995 29.5665" stroke="#9BABC0" stroke-width="1.85" stroke-linecap="round" stroke-linejoin="round" stroke-dasharray="3.7 3.7"/>
<path d="M5.52539 9.72437V7.18163C5.52455 6.39341 5.83664 5.63301 6.40108 5.04806C6.96552 4.4631 7.74204 4.09531 8.5799 4.0161C9.41776 3.93688 10.2572 4.15189 10.9352 4.61938C11.6132 5.08687 12.0815 5.77349 12.249 6.54594V9.88319" stroke="#BECBDD" stroke-width="1.5" stroke-linecap="round" stroke-linejoin="round"/>
<path fill-rule="evenodd" clip-rule="evenodd" d="M4.24709 9.62061C3.55834 9.62061 3 10.1789 3 10.8677V15.716C3 16.4047 3.55834 16.963 4.24709 16.963H13.7678C14.4566 16.963 15.0149 16.4047 15.0149 15.716V10.8677C15.0149 10.1789 14.4566 9.62061 13.7678 9.62061H4.24709ZM9.00979 14.6277C9.74709 14.6277 10.3448 14.03 10.3448 13.2928C10.3448 12.5555 9.74709 11.9578 9.00979 11.9578C8.2725 11.9578 7.6748 12.5555 7.6748 13.2928C7.6748 14.03 8.2725 14.6277 9.00979 14.6277Z" fill="#BECBDD"/>
<path d="M18.5303 22.7349V20.1875C18.5294 19.3978 18.8421 18.636 19.4076 18.05C19.9731 17.464 20.751 17.0955 21.5904 17.0161C22.4298 16.9368 23.2708 17.1522 23.95 17.6205C24.6293 18.0889 25.0984 18.7768 25.2663 19.5506" stroke="#BECBDD" stroke-width="1.5" stroke-linecap="round" stroke-linejoin="round"/>
<path fill-rule="evenodd" clip-rule="evenodd" d="M17.2494 22.6309C16.5594 22.6309 16 23.1902 16 23.8802V28.7374C16 29.4275 16.5594 29.9868 17.2494 29.9868H26.7877C27.4777 29.9868 28.037 29.4275 28.037 28.7374V23.8802C28.037 23.1902 27.4777 22.6309 26.7877 22.6309H17.2494ZM22.021 27.6471C22.7597 27.6471 23.3585 27.0483 23.3585 26.3096C23.3585 25.571 22.7597 24.9722 22.021 24.9722C21.2824 24.9722 20.6836 25.571 20.6836 26.3096C20.6836 27.0483 21.2824 27.6471 22.021 27.6471Z" fill="#BECBDD"/>
</svg>
