<svg width="32" height="32" viewBox="0 0 32 32" fill="none" xmlns="http://www.w3.org/2000/svg">
<path d="M18.7111 24H22.4447C25.5138 24 28 21.4707 28 18.3534C28 15.4416 25.8321 13.0457 23.0469 12.7396C23.0469 12.7003 23.0491 12.6631 23.0491 12.6238C23.0491 8.96648 20.1327 6 16.5324 6C14.2376 6 12.2224 7.2067 11.061 9.02769C10.4717 8.46587 9.68026 8.12048 8.80923 8.12048C6.98542 8.12048 5.50789 9.6223 5.50789 11.4761C5.50789 11.933 5.59822 12.3658 5.75952 12.7637C3.06898 13.155 1 15.5072 1 18.3534C1 21.4729 3.48837 24 6.55528 24H18.7111Z" fill="#5E92F5"/>
<path d="M20.792 18.1348V15.3994C20.7911 14.5515 21.1268 13.7335 21.734 13.1042C22.3412 12.475 23.1765 12.0793 24.0779 11.9941C24.9792 11.9089 25.8822 12.1402 26.6116 12.6431C27.3409 13.146 27.8446 13.8846 28.0249 14.7156V18.3056" stroke="#F6F8FA" stroke-width="3.97133" stroke-linecap="round" stroke-linejoin="round"/>
<mask id="path-3-outside-1_5327_29707" maskUnits="userSpaceOnUse" x="17.075" y="16.4421" width="15" height="10" fill="black">
<rect fill="white" x="17.075" y="16.4421" width="15" height="10"/>
<path fill-rule="evenodd" clip-rule="evenodd" d="M19.4166 17.4421C18.6756 17.4421 18.075 18.0428 18.075 18.7837V23.9992C18.075 24.7401 18.6756 25.3407 19.4166 25.3407H29.6584C30.3994 25.3407 31 24.7401 31 23.9992V18.7837C31 18.0428 30.3994 17.4421 29.6584 17.4421H19.4166ZM24.5394 22.8285C25.3326 22.8285 25.9755 22.1855 25.9755 21.3924C25.9755 20.5992 25.3326 19.9563 24.5394 19.9563C23.7463 19.9563 23.1033 20.5992 23.1033 21.3924C23.1033 22.1855 23.7463 22.8285 24.5394 22.8285Z"/>
</mask>
<path fill-rule="evenodd" clip-rule="evenodd" d="M19.4166 17.4421C18.6756 17.4421 18.075 18.0428 18.075 18.7837V23.9992C18.075 24.7401 18.6756 25.3407 19.4166 25.3407H29.6584C30.3994 25.3407 31 24.7401 31 23.9992V18.7837C31 18.0428 30.3994 17.4421 29.6584 17.4421H19.4166ZM24.5394 22.8285C25.3326 22.8285 25.9755 22.1855 25.9755 21.3924C25.9755 20.5992 25.3326 19.9563 24.5394 19.9563C23.7463 19.9563 23.1033 20.5992 23.1033 21.3924C23.1033 22.1855 23.7463 22.8285 24.5394 22.8285Z" fill="#3E6AC8"/>
<path d="M18.988 18.7837C18.988 18.547 19.1799 18.3551 19.4166 18.3551V16.5292C18.1714 16.5292 17.1621 17.5386 17.1621 18.7837H18.988ZM18.988 23.9992V18.7837H17.1621V23.9992H18.988ZM19.4166 24.4278C19.1799 24.4278 18.988 24.2359 18.988 23.9992H17.1621C17.1621 25.2443 18.1714 26.2537 19.4166 26.2537V24.4278ZM29.6584 24.4278H19.4166V26.2537H29.6584V24.4278ZM30.087 23.9992C30.087 24.2359 29.8952 24.4278 29.6584 24.4278V26.2537C30.9036 26.2537 31.9129 25.2443 31.9129 23.9992H30.087ZM30.087 18.7837V23.9992H31.9129V18.7837H30.087ZM29.6584 18.3551C29.8952 18.3551 30.087 18.547 30.087 18.7837H31.9129C31.9129 17.5386 30.9036 16.5292 29.6584 16.5292V18.3551ZM19.4166 18.3551H29.6584V16.5292H19.4166V18.3551ZM25.0626 21.3924C25.0626 21.6813 24.8284 21.9155 24.5394 21.9155V23.7414C25.8368 23.7414 26.8885 22.6897 26.8885 21.3924H25.0626ZM24.5394 20.8692C24.8284 20.8692 25.0626 21.1035 25.0626 21.3924H26.8885C26.8885 20.095 25.8368 19.0433 24.5394 19.0433V20.8692ZM24.0163 21.3924C24.0163 21.1035 24.2505 20.8692 24.5394 20.8692V19.0433C23.2421 19.0433 22.1904 20.095 22.1904 21.3924H24.0163ZM24.5394 21.9155C24.2505 21.9155 24.0163 21.6813 24.0163 21.3924H22.1904C22.1904 22.6897 23.2421 23.7414 24.5394 23.7414V21.9155Z" fill="#F6F8FA" mask="url(#path-3-outside-1_5327_29707)"/>
<path d="M20.792 18.1348V15.3994C20.7911 14.5515 21.1268 13.7335 21.734 13.1042C22.3412 12.475 23.1765 12.0793 24.0779 11.9941C24.9792 11.9089 25.8822 12.1402 26.6116 12.6431C27.3409 13.146 27.8446 13.8846 28.0249 14.7156V18.3056" stroke="#3E6AC8" stroke-width="2.14648" stroke-linecap="round" stroke-linejoin="round"/>
</svg>
